<?xml version="1.0" encoding="UTF-8" standalone="no"?>
<svg id="svg2" xmlns:rdf="http://www.w3.org/1999/02/22-rdf-syntax-ns#" xmlns="http://www.w3.org/2000/svg" height="802.16pt" width="885.14pt" version="1.1" xmlns:cc="http://creativecommons.org/ns#" xmlns:dc="http://purl.org/dc/elements/1.1/" viewBox="0 0 885.139 802.16431">
<g id="g4184" transform="matrix(.92302 -.38476 .38476 .92302 -142.1 367.56)">
<g>
<path id="rect4181" d="m923.3 3.5094c-78.88 2.85-150.6 49.421-200.6 108.21-50.7 55.36-80.79 125.49-126.39 184.58-10.27 12.08-23.349 22.55-38.569 27.55-22.93 4.23-45.011-9.4497-57.711-27.88-25.8-34.46-53.199-71.711-94.089-88.861-46.08-19.56-102.72-11.78-141.03 20.82-44.87 28.54-72.28 77.75-118.43 104.53-39.93 23.61-88.369 27.41-133.46 20.62-9.74-2.98-9.88 9.8197-2.8 12.73 47.49 39.37 114.48 47.74 173.66 37.35-7.89 23.68-20.189 46.491-28.239 70.481-1.86 7.93-11.01 18.67-3.4 26.18 18.1 22.47 47.279 33.13 75.269 34.72 10.97 1.99 7.9606-11.471 13.741-16.331 13.42 4.27 26.18 15.121 40.77 14.191 8.62-9.01 6.2603-25.57 12.02-35.38 25.91 15.51 55.79 23.939 83.9 33.259-6.5 22.27-14.661 44.23-19.661 67-3.83 6.12-1.4403 13.24 4.3297 17.18 23.21 21.15 55 33.091 86.42 30.081 6.1-3.61 1.0303-16.181 8.7203-16.461 11.35 5.8 25.03 13.41 37.53 9.3297 8.88-32.52 11.74-66.819 13.25-100.59 0.1-4.59 5.1497-5.2109 8.3297-6.9609 52.82-31.62 87.391-84.829 114.16-138.84 37.04-69.79 66.75-144.13 113.98-208.02 28.23-40.77 62.66-81.17 109.78-100.25 21.68-9.42 46.2-9.7003 69.03-4.7203 4.3 0.91 6.72 4.95 6.95 9.2 10.06 36.94 51.211 62.501 88.881 54.241 11.17 1.85 25.81 18.5 32.33 0.42969 24.27-33.52 7.9803-80.021-21.28-104.59-30.12-24.09-69.391-34.07-107.39-33.8z" fill="#bce2ef"/>
<path id="path6" d="m1154.1 4.3867c-98.6 3.5625-188.25 61.776-250.75 135.26-63.375 69.2-100.99 156.86-157.99 230.72-12.838 15.1-29.186 28.188-48.211 34.438-28.662 5.2875-56.264-11.812-72.139-34.85-32.25-43.075-66.499-89.639-117.61-111.08-57.6-24.45-128.4-14.725-176.29 26.025-56.088 35.675-90.35 97.187-148.04 130.66-49.912 29.512-110.46 34.263-166.82 25.775-12.175-3.725-12.35 12.275-3.5 15.912 59.362 49.212 143.1 59.675 217.07 46.688-9.8625 29.6-25.236 58.114-35.299 88.102-2.325 9.9125-13.762 23.337-4.25 32.725 22.625 28.088 59.098 41.413 94.086 43.4 13.712 2.4875 9.9508-14.339 17.176-20.414 16.775 5.3375 32.725 18.901 50.963 17.738 10.775-11.262 7.8254-31.962 15.025-44.225 32.388 19.388 69.738 29.924 104.88 41.574-8.125 27.838-18.326 55.288-24.576 83.75-4.7875 7.65-1.8004 16.55 5.4121 21.475 29.012 26.438 68.75 41.364 108.03 37.602 7.625-4.5125 1.2879-20.226 10.9-20.576 14.188 7.25 31.287 16.762 46.912 11.662 11.1-40.65 14.675-83.524 16.562-125.74 0.125-5.7375 6.4371-6.5137 10.412-8.7012 66.025-39.525 109.24-106.04 142.7-173.55 46.3-87.238 83.437-180.16 142.47-260.03 35.288-50.962 78.325-101.46 137.22-125.31 27.1-11.775 57.75-12.125 86.287-5.9004 5.375 1.1375 8.4 6.1875 8.6875 11.5 12.575 46.175 64.014 78.126 111.1 67.801 13.962 2.3125 32.262 23.125 40.412 0.53711 30.338-41.9 9.9754-100.03-26.6-130.74-37.65-30.112-86.738-42.588-134.24-42.25zm-7.6191 9.9297c43.15 0.23428 87.92 5.0156 124.69 29.484 42.125 26.588 73.926 97.361 29.613 135.77-41.35-13.4-80.076-43.012-98.113-83.324 6.3625 1.45 16.713 7.5379 17.176-3.5996-5.1125-6.35-15.225-11.726-23.9-10.426-7.7625 1.925-15.437 23.463-1.3496 18.088 13.35 29.925 39.562 53.312 65.074 71.188-36.688-0.5625-79.336-27.288-87.773-66.988 0.1625-4.625-6.9508-5.3984-6.2383-9.5234-11.8-11.572-28.9-10.885-44.1-10.923-59.112-0.9375-110.65 35.724-147.86 78.387-105.15 112.14-153 261.5-231.38 391.12-38.238 50.875-85.037 106.54-152.16 115.14-3.7-19.475 3.5738-39.1-0.45117-58.625-0.125-12.888 0.65117-27.65-8.1738-38.162-2.875-2.0875-6.4637 0.575-5.0762 4 8.375 35.925 5.0887 72.625-0.73633 108.6-5.35 37.362-9.4387 75.586-20.264 111.61-37.412 0.7625-72.75-18.973-100.25-42.898 2.7125-19.825 10.762-38.688 16.375-57.9 10.95-47.012 38.675-87.8 61.875-129.06-18.888 7.875-26.9 29.788-35.938 46.125-8.6 13.838-14.938 30.049-23.213 43.387-55.488-14.825-109.69-40.149-153.95-77.824 1.025-16.5 4.9492-32.601 7.4492-48.889 5.2-27.262 5.8516-55.462 1.3516-82.912-2.275-4.1-3.9262-11.75-10.201-9.7754 9.65 70.588-6.1496 141.59-26.037 209.05-2.85 5.2-2.8 15.313-10.438 15.301-23.8-5.275-45.399-17.439-66.512-29.201-7.9625-5.9-20.939-12.488-16.789-24.588 19.15-61.588 51.689-118.24 84.352-173.26-23.212 11.162-32.925 38.524-47.963 58.324-72.212 15.088-150.79 3.1762-213.11-36.799-9.8875-6.1625 5.2762-6.3875 10.701-4.9375 53.6 10.688 110.92 0.43789 157.44-28.412 43.438-24.362 74.1-64.201 108.79-98.701 36.075-30.862 76.549-59.413 124.11-68.65 52.062-5.5 105.15 17.012 139.79 55.938 28.038 25.762 45.461 60.725 72.986 87.062 21.012 16.875 51.825 25.639 76.475 11.477 44.675-25.338 70.062-73.177 94.812-116.35 23.4-28.4 37.3-63.287 61.025-91.537 62.188-91.425 154.41-176.79 269.3-186.78 2.8594-0.02031 5.7288-0.02343 8.6055-0.0078zm106.64 51.336c-1.431-0.04331-2.9969 0.25234-4.6719 0.97266-13.1 2.75-6.45 26.112 7.0625 20.574 11.091-4.3203 7.6261-21.244-2.3906-21.547zm-935.67 523.28c13.275 7.8125 25.4 17.461 38.225 25.986 1.6875 14.038-5.0883 27.25-7.8008 40.75-15.612 1.2125-29.536-8.9738-42.299-16.736-0.75-17.425 9.6-32.925 11.875-50zm306.79 87.469c2.7921 0.17637 2.4086 5.0141 1.9492 7.3438-1.6875 35.038-5.6613 69.875-10.736 104.41-14.938 1.7625-30.788-5.0137-42.463-13.701 2.4375-24.95 9.3496-49.311 10.662-74.424-1.45-22 25.6-16.188 39.188-23.4 0.5375-0.18594 1.0015-0.25566 1.4004-0.23047z" transform="scale(.8)" fill="#374a6e"/>
<path id="path8" d="m1146.5 14.316c-2.8767-0.01562-5.7461-0.0125-8.6055 0.0078-114.89 9.9875-207.11 95.35-269.3 186.78-23.725 28.25-37.625 63.137-61.025 91.537-24.75 43.175-50.138 91.014-94.812 116.35-24.65 14.162-55.462 5.3984-76.475-11.477-27.525-26.338-44.949-61.3-72.986-87.062-34.638-38.925-87.727-61.438-139.79-55.938-47.562 9.2375-88.036 37.788-124.11 68.65-34.688 34.5-65.35 74.339-108.79 98.701-46.512 28.85-103.84 39.1-157.44 28.412-5.425-1.45-20.589-1.225-10.701 4.9375 62.325 39.975 140.9 51.886 213.11 36.799 15.038-19.8 24.75-47.162 47.963-58.324-32.662 55.025-65.202 111.67-84.352 173.26-4.15 12.1 8.8266 18.688 16.789 24.588 21.112 11.762 42.712 23.926 66.512 29.201 7.6375 0.0125 7.5875-10.101 10.438-15.301 19.888-67.462 35.687-138.46 26.037-209.05 6.275-1.975 7.9262 5.6754 10.201 9.7754 4.5 27.45 3.8484 55.65-1.3516 82.912 1.1375-1.75 1.0016-8.1746 3.8516-5.5996 47.925 38.575 104.15 68.1 164.31 81.812 4.175 0.45 2.0488 4.4383 1.5488 7.1133 9.0375-16.338 17.05-38.25 35.938-46.125-23.2 41.262-50.925 82.05-61.875 129.06-5.6125 19.212-13.662 38.075-16.375 57.9 27.5 23.925 62.838 43.661 100.25 42.898 10.825-36.025 14.914-74.249 20.264-111.61 5.825-35.975 9.1113-72.675 0.73633-108.6-1.3875-3.425 2.2012-6.0875 5.0762-4 8.825 10.512 8.0488 25.275 8.1738 38.162 41.75-9.5125 80.838-31.438 109.8-63.062 40.762-40.562 66.824-92.5 96.174-141.34 40.425-66.725 74.951-137.08 120.83-200.4 42.238-53.462 90.55-111.14 159.91-127.57 27.088-7.1125 55.149-1.8621 82.262 1.9629 6.1375 0.55 14.426 11.412 6.9883 15.312-0.7125 4.125 6.4008 4.8984 6.2383 9.5234 8.4375 39.7 51.086 66.426 87.773 66.988-25.512-17.875-51.724-41.262-65.074-71.188-14.088 5.375-6.4129-16.163 1.3496-18.088 8.675-1.3 18.788 4.0758 23.9 10.426-0.4625 11.138-10.813 5.0496-17.176 3.5996 18.038 40.313 56.763 69.924 98.113 83.324 44.312-38.412 12.512-109.19-29.613-135.77-36.773-24.469-81.544-29.25-124.69-29.484zm105.01 25.281c21.769-0.26142 40.132 26.239 29.789 46.539-9.0625 24.363-46.663 26.752-58.713 3.8516-13.138-18.062 0.5004-46.452 22.088-49.414 2.2969-0.63633 4.584-0.94952 6.8359-0.97656zm-806.1 229.57c30.232-0.0747 58.162 22.098 64.627 51.229-1.0375 16.488 2.4992 35.7-9.0508 49.4-16.7 27.25-50.613 32.211-80.4 24.861-53.388-21.175-49.136-109.81 7.9141-123.06 5.6348-1.6367 11.312-2.4139 16.91-2.4277zm-107.01 67.092c8.7932-0.12202 18.616 5.5144 19.797 14.549 3.85 13.4-13 27.313-25.15 20.025-15.612-4.5625-13.562-30.462 1.6758-34.162 1.1859-0.25937 2.4216-0.39468 3.6777-0.41211zm226.21 26.205c20.894-0.42433 41.959 16.582 42.707 38.094 6.7 25.938-16.574 56.599-43.699 52.824-35.062 3.925-59.614-42.124-40.414-70.174 8.1125-11.3 20.501-20.825 34.951-20.037 2.1352-0.43125 4.2936-0.66313 6.4551-0.70703zm-98.373 59.686c20.656-0.34664 40.88 16.328 38.918 37.896 3.5375 28.075-35.275 44.862-56.062 29.537-24.962-13.65-20.088-55.275 5.7617-65.412 3.7168-1.3086 7.5576-1.9573 11.383-2.0215zm95.529 59.508c9.9-0.3125 22.876 6.5246 20.639 18.287 1.7625 13.838-16.162 24.714-27.225 15.201-15.712-6.9125-8.4391-31.201 6.5859-33.488zm-244.33 107.27c-2.275 17.075-12.625 32.575-11.875 50 12.762 7.7625 26.686 17.949 42.299 16.736 2.7125-13.5 9.4883-26.712 7.8008-40.75-12.825-8.525-24.95-18.174-38.225-25.986zm306.79 87.469c-0.39888-0.0252-0.86289 0.0445-1.4004 0.23047-13.588 7.2125-40.638 1.4004-39.188 23.4-1.3125 25.112-8.2246 49.474-10.662 74.424 11.675 8.6875 27.525 15.464 42.463 13.701 5.075-34.538 9.0488-69.375 10.736-104.41 0.45937-2.3297 0.84292-7.1674-1.9492-7.3438z" transform="scale(.8)" fill="#5b7abb"/>
</g>
<path id="path10" fill="#95b6e0" d="m995.74 32.46c19.6-5.43 38.43 18.53 29.3 36.45-7.25 19.49-37.33 21.4-46.97 3.08-10.51-14.45 0.4-37.16 17.67-39.53m3.04 20.84c-10.48 2.2-5.16 20.89 5.65 16.46 10.14-3.95 5.07-21.07-5.65-16.46z"/>
</g>
</svg>
