<?xml version="1.0" encoding="iso-8859-1"?>
<!-- Generator: Adobe Illustrator 19.0.0, SVG Export Plug-In . SVG Version: 6.00 Build 0)  -->
<svg version="1.1" id="Capa_1" xmlns="http://www.w3.org/2000/svg" xmlns:xlink="http://www.w3.org/1999/xlink" x="0px" y="0px"
	 viewBox="0 0 345.494 345.494" style="enable-background:new 0 0 345.494 345.494;" xml:space="preserve">
<g id="XMLID_474_">
	<polygon id="XMLID_475_" style="fill:#F6D563;" points="214.206,154.742 216.984,136.073 199.157,127.199 192.432,108.26 
		171.735,110.714 171.72,110.762 158.954,102.319 147.286,113.261 138.954,107.751 119.924,125.596 130.072,139.827 
		150.622,138.921 151.898,134.314 170.622,133.489 170.933,132.365 185.102,140.63 184.162,141.588 193.672,159.827 
		194.685,159.656 189.924,164.508 199.435,182.747 219.72,179.338 222.747,158.993 	"/>
	<path id="XMLID_44_" style="fill:#FFE477;" d="M46.396,215.744L46.396,215.744c-2.827-5.051-0.851-11.15,4.028-14.264
		c14.072-8.983,32.322-38.733,32.322-38.733l22.32,28.434c0,0-33.089,21.79-44.406,28.591
		C55.699,222.754,49.223,220.795,46.396,215.744z"/>
	<path id="XMLID_43_" style="fill:#FFE477;" d="M31.966,174.839L31.966,174.839c-0.88-5.721,2.992-11.548,8.766-11.952
		c21.64-1.514,42.015-30.139,42.015-30.139l10,20c0,0-31,29.5-48.828,30.858C38.147,184.044,32.846,180.56,31.966,174.839z"/>
	<path id="XMLID_42_" style="fill:#FFE477;" d="M122.307,291.168h-3.454c-6.2,0-11.227-5.026-11.227-11.227v-73.485h25.908v73.485
		C133.534,286.142,128.507,291.168,122.307,291.168z"/>
	<path id="XMLID_41_" style="fill:#FFE477;" d="M92.747,282.145v-2.776c0-4.983,4.04-9.023,9.023-9.023h18.317
		c5.444,0,9.857,4.413,9.857,9.857v1.108c0,5.444-4.413,9.857-9.857,9.857H101.77C96.787,291.168,92.747,287.128,92.747,282.145z"/>
	<path id="XMLID_476_" style="fill:#FFE477;" d="M157.625,244.886v25.459h-5.856c-4.983,0-9.023,4.04-9.023,9.023v2.776
		c0,4.983,4.04,9.023,9.023,9.023h17.083h1.234h2.22c6.2,0,11.227-5.026,11.227-11.227v-35.055H157.625z"/>
	<path id="XMLID_477_" style="fill:#FFE477;" d="M340.023,312.608c-20.168-22.298-103.61-21.528-117.277-89.861
		c-1.71-8.551-12.933-71.955-40-90c-29.308-19.539-47.936-9.509-63.657-10c-22.038-0.689-34.879-10.871-43.533-30.677
		C67.51,73.654,61.045,55.699,61.205,43.783c0.15-11.151-7.301-23.737-23.231-29.426C21.412,8.442,4.789,12.598,0.845,23.639
		C-3.098,34.68,7.131,48.426,23.693,54.341c5.004,1.787,13.988,3.754,15.83,12.671c1.949,9.435,12.388,69.3,13.223,75.735
		c1.43,11.023,1.167,25.833,10.838,41.677c2.718,4.452,42.419,41.004,46.325,42.397c0,0-0.557,5.861,1.118,6.976
		c0,0-2.231,4.746-0.555,6.978c0,0,73.389,27.878,78.411,34.854c5.022,6.973,20.093,21.199,38.508,23.425
		c18.418,2.228,106.262,8.418,109.843,23.6c1.142,4.842-5.84,8.529-15.344,7.26c-15.392-2.054-10.88,1.12-6.973,2.233
		c3.907,1.116,14.505,2.228,19.528,1.389C339.468,332.699,353.001,326.957,340.023,312.608z"/>
	<path id="XMLID_478_" d="M36.747,22.747c-3.309,0-6,2.691-6,6s2.691,6,6,6s6-2.691,6-6S40.055,22.747,36.747,22.747z"/>
	<path id="XMLID_479_" style="fill:#F6D563;" d="M172.747,244.886v46.26c5.995-0.233,10.787-5.153,10.787-11.205v-35.055H172.747z"
		/>
	<polygon id="XMLID_481_" style="fill:#E0BE5B;" points="214.206,154.742 216.984,136.073 199.157,127.199 192.432,108.26 
		172.747,110.594 172.747,133.423 185.102,140.63 184.162,141.588 193.672,159.827 194.685,159.656 189.924,164.508 
		199.435,182.747 219.72,179.338 222.747,158.993 	"/>
	<path id="XMLID_482_" style="fill:#F6D563;" d="M340.023,312.608c-20.168-22.298-103.61-21.528-117.277-89.861
		c-1.71-8.551-12.933-71.955-40-90c-3.481-2.321-6.807-4.213-10-5.766v139.43c8.485,3.952,14.786,7.341,16.137,9.218
		c5.022,6.973,20.093,21.199,38.508,23.425c18.418,2.228,106.262,8.418,109.843,23.6c1.142,4.842-5.84,8.529-15.344,7.26
		c-15.392-2.054-10.88,1.12-6.973,2.233c3.907,1.116,14.505,2.228,19.528,1.389C339.468,332.699,353.001,326.957,340.023,312.608z"
		/>
	<circle id="XMLID_483_" style="fill:#DF936F;" cx="132.747" cy="152.747" r="10"/>
	<circle id="XMLID_484_" style="fill:#DF936F;" cx="167.747" cy="147.747" r="15"/>
	<circle id="XMLID_486_" style="fill:#DF936F;" cx="182.747" cy="182.747" r="10"/>
	<path id="XMLID_487_" style="fill:#DB8269;" d="M172.747,133.619v28.256c5.822-2.061,10-7.6,10-14.128
		S178.569,135.68,172.747,133.619z"/>
</g>
<g>
</g>
<g>
</g>
<g>
</g>
<g>
</g>
<g>
</g>
<g>
</g>
<g>
</g>
<g>
</g>
<g>
</g>
<g>
</g>
<g>
</g>
<g>
</g>
<g>
</g>
<g>
</g>
<g>
</g>
</svg>
