<?xml version="1.0" encoding="UTF-8" standalone="no"?>
<svg id="svg2" xmlns:rdf="http://www.w3.org/1999/02/22-rdf-syntax-ns#" xmlns="http://www.w3.org/2000/svg" height="570.25pt" width="874.94pt" version="1.1" xmlns:cc="http://creativecommons.org/ns#" xmlns:dc="http://purl.org/dc/elements/1.1/" viewBox="0 0 874.94312 570.25122">
<g id="g5312" transform="translate(.00054785 -105.44)">
<path id="rect5309" d="m193.38 105.44c-0.30944-0.009-0.61816-0.008-0.92504 0.003-1.1332 0.0414-2.2399 0.21839-3.25 0.52344-8.1261 8.3957-9.6642 20.606-11.47 31.645-2.2668 34.849 3.7401 69.786 10.555 103.63-21.176 3.0739-42.845 3.8339-64.214 5.1359-15.739-18.815-21.164-43.598-35-63.541-4.7397-1.9388-10.777 0.30951-12.748 5.1766-11.216 21.876-0.23616 46.163 4.3657 67.988-6.072 5.0783-15.061 6.5206-20.903 12.428-51.325 33.18-69.568 102.13-54.898 159.35 14.687 0.47348 30.063-9.1468 46.045-7.2094 13.52-3.9628 9.3491 14.038 15.625 20.541 29.075 61.548 113.54 81.516 170.43 47.909 5.3967-4.0193 13.506-10.059 18.845-2.1969 18.167 18.339 23.751 45.73 26.069 70.598 8.8698 2.2633 16.15-5.6367 23.517-9.175 5.2738 5.2414 14.246 8.1796 16.983 15.081-4.3186 25.226-25.817 45.285-28.088 71.091 8.9139 17.315 32.994 18.437 50.355 16.678 5.7865-0.81169 1.037 6.929 3.7282 9.8781 8.2234 10.895 23.731 12.115 36.228 14.127 23.89 1.0071 51.67 2.6395 70.828-13.616 3.9897-20.052-0.083-41.388 1.8641-61.603 19.196-0.18172 39.096-1.4846 58.433-2.1937 4.4674 13.815 3.9424 30.459 8.5609 44.731 16.027 5.6167 33.602 7.8501 50.342 3.3937 13.66-4.8395 8.6366 16.444 20.439 17.164 28.892 11.012 62.623 12.338 90.566-2.1375 11.148-9.9442 4.8781-25.964-2.9297-35.83-12.166-23.252-25.784-47.153-34.147-71.366 36.814-25 56.033-68.58 61.43-111.38 67.182-4.0152 143.32-40.754 163.65-109.73 1.8687-5.9139 2.5114-15.595-4.025-18.745-10.651 2.4139-19.03 11.115-28.111 17.258-51.204 29.262-120 22.264-165.72-14.417-54.454-75.193-155.87-114.32-245.85-87.359-3.6998 0.3188-12.743 6.8266-12.711-0.93751 0.043-19.993-19.164-33.225-37.725-32.9 18.213-23.777-16.043-60.927-40.858-40.352-5.0922-17.058-11.568-40.066-32.236-43.134-9.0981 40.928-25.243 84.173-60.978 109.32-10.513-5.5442-12.056-19.501-16.494-29.425-11.054-25.397-20.678-51.483-25.986-78.733-0.18504-5.1415-4.9497-7.5398-9.5906-7.6719zm15.186 164.49v0.002c-0.42984 0.1752-0.85568 0.35736-1.2766 0.55 0.42128-0.1928 0.84632-0.3762 1.2766-0.55156zm241.28 355.28c0.038 7.1531-0.00008 14.306-0.11712 21.455 0.11256-7.1491 0.15536-14.302 0.11712-21.455z" fill="#fab415"/>
<path id="path4" d="m528.63 249.93c-2.499-1.0973-5.1234-1.9854-7.8642-2.6384-12.377-4.1053-26.011 0.22224-38.345 3.1289-17.068 12.3-32.081 36.184-24.926 57.696 4.1553 32.188 45.27 49.198 73.08 34.927 19.486-8.0632 26.641-29.59 29.128-48.81-2.2226-18.727-13.58-36.623-31.073-44.303zm92.185 61.803c-2.8036-1.1711-5.8264-1.9841-9.043-2.3681-9.2063-1.2322-18.52 1.9438-27.028 5.2726-12.187 8.1882-15.09 24.865-14.845 38.62 6.271 26.206 42.026 38.254 62.073 19.234 19.966-17.986 11.672-51.223-11.157-60.759zm-76.74 59.121c-1.5802-0.638-3.2886-1.1144-5.1245-1.4037-15.139-4.242-32.665 9.0918-31.091 25.142-0.9098 18.42 20.936 30.461 36.872 22.52 18.772-8.771 17.991-38.73-0.65634-46.258zm-68.542-7.2718c-0.78579-0.31839-1.5936-0.57579-2.4124-0.76307-13.126-3.2526-23.243 17.039-12.509 25.652 7.0082 7.1018 20.446 4.6399 23.577-5.1294 4.5673-7.8298-1.06-16.682-8.6561-19.76zm-237.32-93.21c-2.0089-0.86747-4.1186-1.5226-6.3059-1.9312-14.131-3.6758-31.872 1.2083-38.334 15.334-13.723 19.562-0.59876 50.907 23.523 53.419 18.963 5.4257 39.002-10.197 41.214-29.133 3.1278-15.138-6.0337-31.617-20.096-37.689zm-9.7715 22.949c8.5167 3.2246 8.2355 21.376-2.6358 20.056-13.476 3.5572-13.24-24.098-0.28872-20.54 1.0673-0.024 2.0434 0.15032 2.9245 0.4839z" fill="#fccd63"/>
<path id="path6" fill="#451a3b" d="m869.64 313.79c6.5365 3.1507 5.8951 12.83 4.0264 18.744-20.332 68.973-96.465 105.71-163.65 109.73-5.3967 42.8-24.617 86.381-61.431 111.38 8.3633 24.212 21.981 48.113 34.147 71.365 7.8077 9.8655 14.078 25.886 2.9301 35.83-27.942 14.475-61.672 13.149-90.565 2.1377-11.802-0.71982-6.7796-22.003-20.439-17.164-16.74 4.4564-34.316 2.2228-50.342-3.3939-4.6185-14.272-4.0934-30.919-8.5609-44.734-19.337 0.70917-39.236 2.0142-58.433 2.1959-1.9471 20.216 2.1256 41.55-1.8642 61.602-19.158 16.255-46.939 14.623-70.829 13.616-12.497-2.0113-28.005-3.2316-36.228-14.127-2.6911-2.9491 2.0585-10.69-3.7279-9.8786-17.361 1.7588-41.441 0.63688-50.355-16.678 2.2706-25.806 23.769-45.865 28.088-71.09-2.7373-6.9016-11.708-9.8401-16.981-15.082-7.3674 3.5383-14.648 11.439-23.518 9.1755-2.3173-24.868-7.9021-52.26-26.069-70.598-5.3397-7.8625-13.45-1.8237-18.846 2.1957-56.87 33.58-141.34 13.62-170.42-47.93-6.273-6.5-2.102-24.5-15.622-20.54-15.983-1.94-31.359 7.68-46.046 7.21-14.669-57.22 3.5719-126.17 54.885-159.34 5.842-5.9076 14.832-7.3507 20.904-12.429-4.6017-21.825-15.58-46.111-4.3648-67.986 1.972-4.8671 8.0095-7.1171 12.749-5.1784 13.835 19.943 19.261 44.727 35 63.542 21.369-1.302 43.037-2.0609 64.212-5.1348-6.8147-33.848-12.821-68.786-10.554-103.63 1.8061-11.039 3.3452-23.25 11.471-31.646 5.387-1.627 13.522 0.39525 13.765 7.1451 5.3081 27.25 14.932 53.336 25.986 78.733 4.4382 9.924 5.9797 23.88 16.493 29.424 35.735-25.15 51.879-68.394 60.977-109.32 20.668 3.0685 27.145 26.074 32.238 43.132 24.815-20.576 59.07 16.576 40.857 40.353 18.561-0.32539 37.768 12.907 37.726 32.9-0.0318 7.7641 9.0106 1.2566 12.71 0.9378 89.983-26.964 191.4 12.167 245.86 87.359 45.722 36.681 114.52 43.679 165.72 14.417 9.0807-6.1423 17.458-14.843 28.109-17.257m-5.0855 9.9054c-49.719 36.211-120.37 43.565-175.05 13.328 5.8665 14.081 11.848 29.106 11.127 45.047-13.121-27.673-25.016-56.897-46.119-79.838-36.491-39.414-86.674-66.4-139.85-74.123-31.951-1.636-64.934 0.62883-94.97 12.032-3.4679 5.4299-6.7211 12.456-8.1132 18.401 17.627 17.746 14.936 51.736-7.6805 64.122 15.331 19.38 14.663 53.328-6.6303 68.247-0.0927 13.805 8.1378 29.954-0.0373 43.884-6.6498 10.526-17.715 16.018-29.779 17.113 2.1779 10.516 3.543 21.956-0.88276 32.124-6.6255 17.051-26.629 25.152-43.745 23.596 0.0479 12.396-1.1344 25.218-10.505 34.351 13.808 16.401 36.575 23.133 55.86 31.42 5.4401-11.735 5.7529-24.89 7.8522-37.414 0.61684-3.9492 5.6315-1.2599 4.3955 2.0297 2.51 39.854-14.54 77.706-24.725 115.38 0.35344 12.092 17.038 9.2018 24.878 13.471 22.224 2.9456 47.083 4.1316 66.93-8.1981 2.8862-3.1758 1.5874-8.0616 2.2226-12.003 0.60087-38.128-0.78855-76.365-5.8401-114.17-0.29275-2.2725-0.38361-8.9458 3.5098-6.7626 6.7582 17.615 7.7712 36.778 8.1567 55.452 0.60729 2.9312-1.0189 8.5359 3.355 8.9767 35.64-0.57238 73.001-0.31383 105.8-14.967-4.5594-17.863-5.9984-36.393-6.2101-54.764-1.5541-5.6061 4.5478-3.8196 5.0667-1.188 5.7987 46.362 16.614 92.331 32.466 136.33 25.165 13.007 56.519 10.278 81.425-1.9359 6.0954-3.2163 6.4107-10.477 3.0236-15.622-19.068-29.262-32.085-61.716-44.437-94.144-2.906-11.201-14.418-26.588-6.4902-35.255 7.5953 10.634 8.1679 25.925 16.776 36.561 27.691-23.625 46.75-57.657 54.189-93.104 2.8986-8.8022-0.75097-18.963 4.5785-26.987 6.9359-1.0014 1.6423 10.47 7.9466 9.9473 22.772-0.56524 44.988-7.6121 66.121-15.629 37.126-18.46 76.351-43.747 87.92-86.385-0.26198-2.9236 1.974-9.6374-2.532-9.3184m-555.1-200.84c-0.19893 44.838-30.694 82.394-62.825 110.65-11.025 18.309-34.623 21.012-53.939 17.21-22.536 4.1309-45.741 0.4786-68.118 4.9724-10.748 11.566-28.577 10.247-42.649 7.0648-13.09 6.9264-25.581 15.365-36.229 25.841-35.533 33.85-41.697 86.95-37.612 132.94 35.14-13.18 75.828-12.23 111.89-1.22 28.563 7.3616 59.677 20.063 88.459 6.3425 13.285-6.6461 26.964-22.272 22.206-38.01-3.7295-0.77245-9.4154-8.3379-3.0628-9.6784 12.582-0.55554 28.611 11.663 22.962 25.443-6.1754 8.1165-11.916-17.327-13.944-1.1331-5.9851 29.789-40.55 39.9-67.181 36.238-32.979-5.5112-64.798-18.169-98.599-18.425-6.3124-2.1062-4.1433 6.4889-1.9295 9.2318 13.43 21.815 28.885 44.865 53.047 55.783 30.381 13.038 65.87 15.309 96.984 3.4024 13.875-5.313 25.816-14.446 39.301-20.57 7.0177 1.583-4.4346 6.8859 0.23789 9.3839 20.101 17.366 28.514 43.986 29.448 69.836-1.1219 3.328 3.9268 3.8207 5.2056 1.6171 7.0697-10.867 20.24-18.533 20.093-33.019 0.89293-5.4204-2.2724-14.609 5.1932-16.231 13.287 0.83838 28.776-1.4787 36.421-13.753 10.546-10.139 4.0045-25.558 5.3009-37.863 10.942-5.3819 24.19-9.3206 30.498-20.92 4.2617-13.344 1.541-28.202-6.8336-39.075 21.114-11.075 32.084-45.116 10.559-61.103-11.22-4.891 5.3214-8.4092 7.204-12.792 18.794-12.033 18.753-43.761-1.9326-53.722-5.1631-4.4637 4.6775-5.9858 5.5823-10.072 3.7022-12.377 5.2815-28.514-4.2848-38.671-6.8529-10.815-27.275-4.0384-25.561-19.681 5.784-15.758-5.8388-38.906-24.639-34.85-6.9177-0.75548-14.899 12.147-19.625 4.0488-2.6625-15.017-6.9568-31.502-21.626-39.202m-114.35-12.29c-5.815 0.7013-6.298 7.8456-7.4508 12.304-5.3991 40.032-1.8552 81.073 8.7264 119.97 13.329 5.8347 40.309 2.9918 42.23-14.969-18.524-34.909-33.011-72.432-40.011-111.52-0.54275-2.0972-0.57323-5.6072-3.4943-5.7798m-109.37 81.399c-10.792 10.708-4.8122 27.856-3.498 42.792 1.9915 11.427 7.9844 26.249 22.224 24.177 4.4266-4.1443 14.038-4.6323 11.472-13.04-13.375-15.865-19.706-38.35-30.198-53.929m478.49 393.19c-12.357 2.6571-24.35 6.9422-36.693 9.6925-4.1616 0.63127-2.6862 5.3101-2.3779 8.1013 2.5398 11.62 1.399 24.145 6.4328 35.111 15.693 3.4899 32.528 2.6474 48.346 0.0476-5.6474-16.732-7.5709-38.402-15.708-52.952m-233.44-17.171c-11.311 14.155-14.674 37.724-25.718 53.628-3.1643 3.0883-1.8828 8.0646-2.1543 12.021 13.062 10.109 30.74 11.45 46.302 9.7203 7.2804-18.718 14.065-39.49 17.061-59.285-12.209-3.4338-23.833-10.416-35.491-16.085z"/>
<path id="path8" fill="#826875" d="m865.95 323.89c-0.37063-0.15872-0.82949-0.22798-1.3928-0.18809-49.719 36.211-120.37 43.565-175.05 13.328 5.8665 14.081 11.848 29.106 11.126 45.048-13.121-27.673-25.016-56.897-46.119-79.838-36.491-39.414-86.673-66.401-139.85-74.124-31.951-1.636-64.936 0.62932-94.971 12.032-3.4679 5.4299-6.7209 12.455-8.113 18.401 17.627 17.746 14.937 51.738-7.6798 64.124 15.331 19.38 14.662 53.328-6.6304 68.247-0.0928 13.805 8.1381 29.954-0.037 43.884-6.6498 10.526-17.715 16.018-29.779 17.113 2.1779 10.516 3.5431 21.955-0.88268 32.123-6.6255 17.051-26.629 25.153-43.746 23.597 0.0479 12.396-1.1347 25.218-10.505 34.351 13.808 16.401 36.576 23.132 55.861 31.42 5.4401-11.735 5.7515-24.889 7.8508-37.414 0.61683-3.9492 5.6319-1.2594 4.3959 2.0302 2.51 39.854-14.54 77.704-24.725 115.37 0.35343 12.092 17.039 9.2022 24.879 13.472 22.224 2.9456 47.081 4.1323 66.929-8.1973 2.8862-3.1758 1.5871-8.0617 2.2223-12.003 0.60087-38.128-0.78745-76.365-5.839-114.17-0.29276-2.2725-0.38447-8.9461 3.509-6.763 6.7582 17.615 7.7723 36.779 8.1577 55.453 0.60729 2.9312-1.0195 8.535 3.3544 8.9758 35.64-0.57238 73.002-0.31358 105.8-14.966-4.5595-17.863-5.999-36.393-6.2107-54.763-1.5541-5.6061 4.5475-3.8197 5.0664-1.1881 5.7987 46.362 16.615 92.331 32.466 136.33 25.165 13.007 56.519 10.278 81.425-1.9363 6.0954-3.2163 6.4107-10.477 3.0235-15.623-19.068-29.262-32.085-61.716-44.437-94.144-2.906-11.201-14.417-26.587-6.4897-35.254 7.5953 10.634 8.1682 25.925 16.776 36.561 27.691-23.625 46.749-57.657 54.187-93.104 2.8986-8.8022-0.75072-18.963 4.5788-26.988 6.9359-1.0014 1.643 10.47 7.9473 9.9473 22.772-0.56523 44.988-7.6124 66.121-15.629 37.126-18.46 76.351-43.746 87.92-86.384-0.22923-2.5582 1.4547-8.0191-1.1396-9.1304zm-337.32-73.96c17.493 7.6808 28.85 25.576 31.073 44.303-2.4865 19.22-9.642 40.747-29.128 48.81-27.81 14.271-68.925-2.7397-73.08-34.927-7.1553-21.512 7.8584-45.396 24.926-57.696 12.334-2.9066 25.968-7.2342 38.345-3.1289 2.7408 0.65304 5.3651 1.5411 7.8642 2.6384zm92.185 61.803c22.829 9.5361 31.123 42.773 11.157 60.759-20.047 19.019-55.802 6.9718-62.073-19.234-0.24485-13.755 2.6582-30.432 14.845-38.62 8.5079-3.3288 17.822-6.5048 27.028-5.2726 3.2166 0.38407 6.2394 1.197 9.043 2.3681zm-76.74 59.121c18.647 7.5286 19.429 37.488 0.65634 46.258-15.936 7.941-37.782-4.1004-36.872-22.52-1.5736-16.05 15.952-29.384 31.091-25.142 1.8358 0.28929 3.5442 0.76569 5.1245 1.4037zm-68.542-7.2718c7.5961 3.0779 13.223 11.93 8.6561 19.76-3.1312 9.7693-16.569 12.231-23.577 5.1294-10.734-8.6135-0.61777-28.905 12.509-25.652 0.81881 0.18728 1.6266 0.44467 2.4124 0.76307zm88.757 221.6c-12.357 2.6571-24.351 6.9419-36.694 9.6923-4.1616 0.63128-2.6864 5.3097-2.3781 8.1009 2.5398 11.62 1.3988 24.144 6.4327 35.11 15.693 3.4899 32.527 2.6477 48.346 0.0479-5.6473-16.732-7.5698-38.401-15.707-52.951zm-233.46-17.16c-11.311 14.155-14.674 37.724-25.717 53.628-3.1643 3.0883-1.8833 8.0634-2.1548 12.02 13.062 10.109 30.74 11.451 46.303 9.7216 7.2804-18.718 14.065-39.491 17.062-59.286-12.209-3.4338-23.835-10.416-35.493-16.084z"/>
<path id="path10" fill="#b6a1a9" d="m309.51 122.88c14.67 7.6992 18.964 24.184 21.626 39.202 4.7258 8.0983 12.707-4.8043 19.625-4.0488 18.801-4.0564 30.423 19.091 24.639 34.85-1.7145 15.643 18.708 8.8665 25.561 19.681 9.5663 10.157 7.987 26.294 4.2848 38.671-0.90479 4.0863-10.745 5.6083-5.5823 10.072 20.686 9.9608 20.726 41.689 1.9326 53.722-1.8826 4.3828-18.424 7.9009-7.204 12.792 21.525 15.988 10.554 50.029-10.559 61.103 8.3746 10.873 11.095 25.73 6.8336 39.075-6.3076 11.6-19.556 15.538-30.498 20.92-1.2964 12.305 5.245 27.724-5.3009 37.863-7.645 12.275-23.134 14.592-36.421 13.753-7.4656 1.6222-4.3003 10.811-5.1932 16.231 0.14687 14.486-13.023 22.152-20.093 33.019-1.2788 2.2036-6.3274 1.7109-5.2056-1.6171-0.93443-25.851-9.3472-52.47-29.448-69.836-4.6725-2.498 6.7798-7.8009-0.23789-9.3839-13.485 6.1242-25.426 15.257-39.301 20.57-31.114 11.907-66.603 9.6356-96.984-3.4024-24.161-10.918-39.617-33.968-53.047-55.783-2.2137-2.7429-4.3828-11.338 1.9295-9.2318 33.8 0.25606 65.62 12.914 98.599 18.425 26.632 3.6623 61.196-6.4487 67.181-36.238 2.0286-16.193 7.7688 9.2496 13.944 1.1331 5.6483-13.78-10.38-25.999-22.962-25.443-6.3526 1.3405-0.66673 8.9059 3.0628 9.6784 4.7587 15.738-8.9205 31.364-22.206 38.01-28.782 13.72-59.896 1.019-88.459-6.3425-36.064-11-76.752-11.95-111.89 1.23-4.0873-45.99 2.077-99.09 37.613-132.93 10.648-10.476 23.139-18.914 36.229-25.841 14.072 3.1819 31.901 4.5009 42.649-7.0648 22.377-4.4938 45.582-0.84148 68.118-4.9724 19.316 3.8025 42.913 1.0993 53.939-17.21 32.13-28.254 62.626-65.81 62.825-110.65m-77.6 145.56c-14.131-3.6758-31.873 1.2084-38.335 15.334-13.723 19.562-0.59872 50.907 23.523 53.42 18.963 5.4257 39.003-10.198 41.214-29.134 3.5747-17.301-8.903-36.352-26.402-39.62z"/>
<path id="path26" fill="#0b0906" d="m225.52 292.84c11.385-0.2557 12.284 21.996 0.28812 20.539-13.476 3.5572-13.239-24.097-0.28812-20.539z"/>
</g>
</svg>
