<?xml version="1.0" encoding="iso-8859-1"?>
<!-- Generator: Adobe Illustrator 19.0.0, SVG Export Plug-In . SVG Version: 6.00 Build 0)  -->
<svg version="1.1" id="Capa_1" xmlns="http://www.w3.org/2000/svg" xmlns:xlink="http://www.w3.org/1999/xlink" x="0px" y="0px"
	 viewBox="0 0 382.325 382.325" style="enable-background:new 0 0 382.325 382.325;" xml:space="preserve">
<g id="XMLID_800_">
	<path id="XMLID_801_" style="fill:#DD916F;" d="M182.966,228.544v36h-4c-6.6,0-12,5.4-12,12c0,6.6,5.4,12,12,12h4h24v-24v-36
		H182.966z"/>
	<g id="XMLID_802_">
		
			<rect id="XMLID_52_" x="221.674" y="222.703" transform="matrix(0.8321 -0.5547 0.5547 0.8321 -100.9291 172.0605)" style="fill:#DD916F;" width="24" height="60"/>
		<path id="XMLID_51_" style="fill:#DD916F;" d="M246.987,251.039l-23.297,15.532c-5.492,3.661-6.989,11.149-3.328,16.641
			c3.661,5.492,11.149,6.989,16.641,3.328l23.297-15.532L246.987,251.039z"/>
	</g>
	<polygon id="XMLID_803_" style="fill:#D87D60;" points="191.163,228.544 191.163,288.544 206.966,288.544 206.966,264.544 
		206.966,228.544 	"/>
	<path id="XMLID_804_" style="fill:#D87D60;" d="M203.078,124.128c-9.166,0-16.59,2.153-22.696,5.62
		c-1.335-5.063-1.692-9.868-1.692-12.65c0-9.402,17.057-23.317,23.007-23.317c5.949,0,23.006,13.915,23.006,23.317
		c0,2.789-0.359,7.609-1.701,12.684C217.433,126.322,211.146,124.128,203.078,124.128z"/>
	<path id="XMLID_805_" style="fill:#D46C5B;" d="M201.697,93.781c-2.354,0-6.447,2.183-10.535,5.398v26.329
		c3.613-0.882,7.562-1.381,11.916-1.381c8.068,0,14.355,2.194,19.924,5.654c1.343-5.075,1.701-9.896,1.701-12.685
		C224.704,107.696,207.647,93.781,201.697,93.781z"/>
	<path id="XMLID_46_" style="fill:#D46C5B;" d="M238.713,136.213c-6.482-6.482-13.253-10.208-20.022-12.075
		c2.636-4.524,5.781-8.174,7.749-10.141c6.648-6.648,28.549-4.426,32.756-0.219c4.207,4.207,6.429,26.107-0.219,32.755
		c-1.972,1.972-5.634,5.127-10.172,7.766C247.311,147.914,244.417,141.917,238.713,136.213z"/>
	<path id="XMLID_45_" style="fill:#D46C5B;" d="M264.213,166.213c-6.482-6.482-13.253-10.208-20.022-12.075
		c2.636-4.524,5.781-8.174,7.749-10.141c6.648-6.648,28.549-4.426,32.756-0.219c4.207,4.207,6.429,26.107-0.219,32.755
		c-1.972,1.972-5.634,5.127-10.172,7.766C272.812,177.914,269.918,171.917,264.213,166.213z"/>
	<path id="XMLID_44_" style="fill:#D46C5B;" d="M290.847,185.83c-3.935-3.936-8.047-6.198-12.157-7.331
		c1.6-2.747,3.51-4.963,4.705-6.158c4.036-4.036,17.334-2.687,19.889-0.133c2.554,2.554,3.903,15.852-0.133,19.888
		c-1.197,1.197-3.421,3.113-6.176,4.715C296.068,192.935,294.311,189.294,290.847,185.83z"/>
	<path id="XMLID_43_" style="fill:#D87D60;" d="M165.12,134.259c-6.482,6.482-10.208,13.253-12.075,20.023
		c-4.524-2.636-8.174-5.781-10.141-7.749c-6.648-6.648-4.426-28.549-0.219-32.756c4.207-4.207,26.107-6.429,32.755,0.219
		c1.972,1.972,5.127,5.634,7.766,10.172C176.822,125.66,170.825,128.554,165.12,134.259z"/>
	<path id="XMLID_42_" style="fill:#D87D60;" d="M134.156,153.693c-5.209,5.209-8.203,10.65-9.703,16.09
		c-3.635-2.118-6.569-4.646-8.15-6.227c-5.342-5.342-3.557-22.941-0.176-26.322c3.381-3.381,20.98-5.166,26.322,0.176
		c1.585,1.585,4.12,4.527,6.241,8.174C143.559,146.783,138.74,149.108,134.156,153.693z"/>
	<g id="XMLID_806_">
		<path id="XMLID_41_" style="fill:#DD916F;" d="M128.159,212.031c-0.909,1.035-8.937,10.623-11.007,28.292
			c-1.939,16.551,1.542,23.371,4.805,26.177c3.538,3.043,8.87,2.642,11.913-0.895c2.664-3.097,0.445-6.75,0.278-10.679
			c-1.15-27.024,15.928-25.551,16.153-25.82l-9.444-5.929L128.159,212.031z"/>
	</g>
	<path id="XMLID_39_" style="fill:#DD916F;" d="M55.199,115.9c1.58,16.485,11.641,2.603,34.471,20s31.966,16.843,39.02,13.882
		c37.37-15.686,43.5-38,88.632-30c44.701,7.924,46.089,37.5,57.017,50c24.166,27.642,84.576,5.667,104.252,40.149
		c12.588,22.061-10.818,62.436-9.223,49.851c5.068-40-4.947-53.314-38.012-50s-57.6,21.657-85.526,33.125
		c-42.784,17.569-93.466-2.431-110.214-16.569c-28.501-24.059-65.46-62.39-80.417-60.733c-14.958,1.657-28.713,5.4-37.438,4.177
		c-7.803-1.094-26.441-8.319-13.058-20.745S53.238,95.449,55.199,115.9z"/>
	<g id="XMLID_807_">
		<path id="XMLID_38_" style="fill:#DD916F;" d="M111.653,189.782c-1.174,0.773-11.663,8.04-18.474,24.867
			c-6.379,15.763-4.795,23.415-2.343,27.057c2.66,3.95,8.015,4.995,11.964,2.337c3.458-2.328,2.262-6.522,3.158-10.434
			c6.168-26.904,22.576-20.841,22.87-21.045l-7.692-8.386L111.653,189.782z"/>
	</g>
	<circle id="XMLID_36_" style="fill:#FFE477;" cx="193.104" cy="162.159" r="10"/>
	<path id="XMLID_808_" style="fill:#D87D60;" d="M378.591,209.931c-19.676-34.482-80.086-12.507-104.252-40.149
		c-10.928-12.5-12.316-42.076-57.017-50c-10.553-1.871-18.973-2.083-26.159-1.111v129.743c17.572,2.602,36.805,1.828,54.668-5.507
		c27.926-11.468,52.462-29.811,85.526-33.125c33.064-3.314,43.08,10,38.012,50C367.773,272.368,391.179,231.992,378.591,209.931z"/>
	<circle id="XMLID_34_" style="fill:#F6E277;" cx="225.999" cy="149.199" r="15"/>
	<circle id="XMLID_33_" style="fill:#F6E277;" cx="248.688" cy="179.78" r="10"/>
	<path id="XMLID_809_" d="M44.69,137.782c-3.309,0-6,2.691-6,6s2.691,6,6,6s6-2.691,6-6S47.999,137.782,44.69,137.782z"/>
	<path id="XMLID_810_" style="fill:#F6E277;" d="M202.833,159.846c-1.248-5.249-6.423-8.527-11.671-7.484v19.6
		c1.367,0.272,2.81,0.27,4.255-0.073C200.791,170.611,204.111,165.219,202.833,159.846z"/>
</g>
<g>
</g>
<g>
</g>
<g>
</g>
<g>
</g>
<g>
</g>
<g>
</g>
<g>
</g>
<g>
</g>
<g>
</g>
<g>
</g>
<g>
</g>
<g>
</g>
<g>
</g>
<g>
</g>
<g>
</g>
</svg>
