<?xml version="1.0" encoding="UTF-8" standalone="no"?>
<!-- Created with Inkscape (http://www.inkscape.org/) -->

<svg
   xmlns:dc="http://purl.org/dc/elements/1.1/"
   xmlns:cc="http://creativecommons.org/ns#"
   xmlns:rdf="http://www.w3.org/1999/02/22-rdf-syntax-ns#"
   xmlns:svg="http://www.w3.org/2000/svg"
   xmlns="http://www.w3.org/2000/svg"
   xmlns:sodipodi="http://sodipodi.sourceforge.net/DTD/sodipodi-0.dtd"
   xmlns:inkscape="http://www.inkscape.org/namespaces/inkscape"
   id="svg3150"
   version="1.1"
   inkscape:version="0.48.1 r9760"
   width="570"
   height="480"
   xml:space="preserve"
   sodipodi:docname="pteranodon_03.svg"
   inkscape:export-filename="/Users/su_huynh/Documents/Art/Khủng Long Bé/pteranodon_03.png"
   inkscape:export-xdpi="240"
   inkscape:export-ydpi="240"><metadata
     id="metadata3156"><rdf:RDF><cc:Work
         rdf:about=""><dc:format>image/svg+xml</dc:format><dc:type
           rdf:resource="http://purl.org/dc/dcmitype/StillImage" /><dc:title /></cc:Work></rdf:RDF></metadata><defs
     id="defs3154"><clipPath
       clipPathUnits="userSpaceOnUse"
       id="clipPath3164"><path
         d="M 0,414 558,414 558,0 0,0 0,414 z"
         id="path3166"
         inkscape:connector-curvature="0" /></clipPath><clipPath
       clipPathUnits="userSpaceOnUse"
       id="clipPath3164-2"><path
         inkscape:connector-curvature="0"
         d="M 0,414 558,414 558,0 0,0 0,414 z"
         id="path3166-1" /></clipPath></defs><sodipodi:namedview
     pagecolor="#ffffff"
     bordercolor="#666666"
     borderopacity="1"
     objecttolerance="10"
     gridtolerance="10"
     guidetolerance="10"
     inkscape:pageopacity="0"
     inkscape:pageshadow="2"
     inkscape:window-width="1136"
     inkscape:window-height="724"
     id="namedview3152"
     showgrid="false"
     inkscape:zoom="0.7081426"
     inkscape:cx="436.7701"
     inkscape:cy="157.28483"
     inkscape:window-x="29"
     inkscape:window-y="105"
     inkscape:window-maximized="0"
     inkscape:current-layer="g3158"
     showguides="true"
     inkscape:guide-bbox="true"
     inkscape:snap-midpoints="false" /><g
     id="g3158"
     inkscape:groupmode="layer"
     inkscape:label="pteranodon_03"
     transform="matrix(1.25,0,0,-1.25,0,480)"><path
       style="fill:#c9898c;fill-opacity:1;stroke:#000000;stroke-width:0.80000001px;stroke-linecap:butt;stroke-linejoin:miter;stroke-opacity:1"
       d="m 197.81685,286.2923 c 16.78958,6.17228 31.88018,-6.2072 47.44807,-9.03772 -10.51798,-5.3028 -17.83387,-2.03612 -29.37262,0.84728 -13.071,3.26629 -21.05777,-7.73183 -33.1854,-1.977 5.73647,3.47858 10.79223,6.92916 15.10995,10.16744 z"
       id="path4834"
       inkscape:connector-curvature="0"
       sodipodi:nodetypes="ccscc" /><path
       style="color:#000000;fill:#4cdea8;fill-opacity:1;fill-rule:nonzero;stroke:none;stroke-width:1.25px;marker:none;visibility:visible;display:inline;overflow:visible;enable-background:accumulate"
       d="m 116.90343,210.817 c 9.35774,-1.60643 10.64703,-3.55786 24.54495,-6.8669 12.19999,-22.74025 7.78389,-70.11784 20.99179,-92.93148 15.01295,-16.74596 29.71046,-34.936428 30.75495,-57.915156 -9.01683,6.45584 -17.73453,13.331528 -24.36431,19.571328 C 145.9506,60.724288 133.50233,90.2677 119.70278,99.43559 c -9.8433,6.53951 -35.24671,0.94944 -46.73155,-4.79298 -12.46985,6.12845 -21.55555,19.07709 -27.16021,28.75788 13.13909,19.85714 33.86104,37.77309 51.12511,26.16167 -2.20696,19.94487 -3.15607,65.41493 -1.76311,82.33523 5.76729,-7.01685 18.21071,-15.50753 21.73041,-21.08039 z"
       id="path3611"
       inkscape:connector-curvature="0"
       sodipodi:nodetypes="cccccsccccc" /><path
       style="color:#000000;fill:#4cdea8;fill-opacity:1;fill-rule:nonzero;stroke:none;stroke-width:1.25px;marker:none;visibility:visible;display:inline;overflow:visible;enable-background:accumulate"
       d="M 89.36411,231.7835 C 61.3622,202.65799 40.78633,154.69135 45.02276,124.74292 c 11.11498,16.1083 28.4249,29.99881 48.57779,25.41861 -10.62877,26.87301 -6.80785,54.68287 -4.23644,81.62197 z"
       id="path3586"
       inkscape:connector-curvature="0"
       sodipodi:nodetypes="cccc" /><path
       style="color:#000000;fill:#4cdea8;fill-opacity:1;fill-rule:nonzero;stroke:none;stroke-width:1.25px;marker:none;visibility:visible;display:inline;overflow:visible;enable-background:accumulate"
       d="m 250.63106,258.33183 c 7.86428,14.29438 18.08816,28.16886 25.98348,40.66978 -4.91288,-16.76648 -15.33868,-38.32679 -19.20518,-51.40208 -15.48447,-4.98282 -27.21312,-14.13054 -43.7765,-15.95723 12.89766,5.97179 28.20848,18.44916 36.9982,26.68953 z"
       id="path3559"
       inkscape:connector-curvature="0"
       sodipodi:nodetypes="ccccc" /><path
       style="color:#000000;fill:#4cdea8;fill-opacity:1;fill-rule:nonzero;stroke:none;stroke-width:1.25px;marker:none;visibility:visible;display:inline;overflow:visible;enable-background:accumulate"
       d="m 257.40936,147.05481 c 16.2668,9.68767 15.36698,24.03601 25.90792,36.77778 8.45394,10.21903 24.15579,15.21699 43.87211,21.26554 -1.96573,36.94569 8.39486,52.37261 35.44946,67.61018 20.2026,11.37842 44.22245,13.62684 65.67676,16.10234 -22.35316,6.83503 -47.0327,16.77036 -68.95651,16.64365 -27.23674,-0.1574 -47.92781,-3.5154 -73.90067,-9.47081 -10.69332,-21.01879 -12.21889,-38.76015 -23.53021,-55.72711 -24.85962,-10.6233 -48.8618,-19.04813 -67.50052,-37.9867 5.6761,-36.47516 41.7749,-67.9575 73.43153,-77.52676 -6.16977,7.67023 -8.05045,13.91392 -10.44987,22.31189 z"
       id="path3327"
       inkscape:connector-curvature="0"
       sodipodi:nodetypes="cscscsccccc" /><path
       style="color:#000000;fill:#ffff74;fill-opacity:1;fill-rule:nonzero;stroke:none;stroke-width:1.25px;marker:none;visibility:visible;display:inline;overflow:visible;enable-background:accumulate"
       d="M 88.94782,319.11379 C 72.55842,311.18102 37.17393,289.21406 19.54298,268.95001 13.639128,262.16443 2.460816,251.55862 7.067768,248.81677 c 4.70976,-2.80304 10.520416,3.98238 16.124922,5.96116 24.05588,8.49341 52.44741,16.58381 76.04717,18.94378 5.7918,-18.21409 24.12249,-19.24309 30.84771,-26.30289 4.03635,-4.23716 15.30092,-23.88179 19.23126,-39.26681 -13.19958,-3.46574 -29.16521,-8.28633 -37.8803,-8.48175 -2.093,1.33372 -10.31925,20.76115 -15.16677,27.67241 -0.47595,0.67858 3.74734,8.96612 2.30736,10.97887 -0.37686,0.52676 -4.04475,4.73952 -6.05487,9.648 -1.90363,4.64844 -1.14658,12.15238 -2.15055,11.67308 -0.23407,-0.11174 -2.70884,-6.82259 -4.01764,-4.9728 -0.8229,1.16302 -1.21335,9.15982 -2.31208,9.00194 -1.01626,-0.14603 -2.4744,-7.91178 -3.49372,-7.86016 -1.47458,0.0747 -3.54979,4.51719 -4.29201,3.3935 -0.9397,-1.42267 1.78287,-12.50288 2.18711,-13.95991 1.58616,-5.71703 11.65832,-9.53126 11.63519,-9.57 -0.15347,-0.25706 -2.681,-15.59312 -2.5096,-33.59357 0.16154,-16.96471 2.85428,-36.18441 7.9223,-50.93544 0.81029,13.52668 -1.25374,62.71483 -0.49151,60.13108 4.00442,-13.57388 9.13331,-21.44781 11.51111,-22.88048 12.41826,0.68497 38.1517,-2.8679 43.97326,-4.56908 2.20557,0.2398 3.65047,-43.52386 7.51718,-63.5378 0.73029,-3.77996 10.62412,-21.15469 24.76125,-34.72562 1.79248,-1.720696 9.88198,-32.669736 11.89864,-43.805384 0.16541,-0.91336 -13.86113,-5.982288 -22.79226,-5.837072 -4.23825,0.06888 0.85422,-3.500256 3.55638,-6.461904 -3.73872,-2.823264 -9.04583,-6.417816 -8.62942,-6.94028 0.7295,-0.915328 9.53408,0.422184 12.94934,1.016224 0.32,-1.983592 -11.24318,-11.375208 -8.32393,-11.269688 2.08606,0.07544 13.45128,5.899984 15.61843,6.85544 2.09777,0.924864 -7.21102,-10.39704 -4.83602,-9.319776 13.56991,6.155088 22.74789,28.242824 22.25328,33.328768 -0.97601,10.03588 -3.18973,28.097024 0.99231,39.376448 5.2527,14.167124 17.36549,20.634594 18.12029,21.024804 3.27575,1.69352 41.71232,6.31736 56.0785,5.07468 1.363,-0.1179 19.64991,-5.06181 24.72621,-3.65281 3.80248,1.05544 23.53564,25.67727 21.83663,28.28299 -0.70785,1.08559 -1.41007,-0.17036 -7.43457,-4.78786 -2.17605,-1.66784 4.42102,6.39683 1.17202,13.14804 -2.40722,-1.70748 -1.06447,-2.02485 -5.123,-7.77653 -1.50487,-2.13267 -3.06087,12.48041 -5.21869,9.77264 -2.0552,-2.57899 0.1865,-6.4146 -2.05893,-12.23869 -0.88413,-2.2932 -4.66634,10.46387 -5.87185,7.90151 -1.97204,-4.19163 -1.30899,-23.34377 -1.3826,-23.33599 -15.19319,1.60646 -48.20726,13.01663 -49.13135,16.10057 -7.4913,25.00044 -40.02452,53.40121 -52.92081,55.48001 -1.12229,13.38682 -2.16045,11.32399 -4.26524,16.58676 6.0758,5.35131 30.69999,19.59042 40.21177,24.1142 1.39745,0.66463 26.11383,8.79911 32.47856,13.27192 3.45025,2.42467 10.29383,41.36715 16.70548,53.08493 1.25505,2.29369 20.8063,7.33452 47.20281,10.50665 37.69402,4.52978 85.92856,-11.79282 110.24971,-17.64263 -22.57409,12.75973 -72.50765,30.95639 -109.99897,26.66739 -4.58939,-0.52502 -27.86504,-2.28188 -40.8911,-5.65843 -2.92958,0.51433 3.75396,13.21633 1.59165,14.58165 -1.66072,1.04862 -6.95775,-4.33235 -9.07629,-4.19037 -1.41762,0.095 0.55961,11.08083 -0.65665,11.32332 -1.61198,0.32138 -4.47657,-7.99087 -6.27838,-9.4849 -1.79732,2.27003 -1.39337,6.81938 -2.41653,7.19906 -1.00733,0.37379 -3.25035,-7.0237 -3.76557,-7.41503 -0.48567,-0.36888 -1.057,-6.26791 1.1747,-10.55552 1.90511,-3.66016 6.6384,-5.79391 6.60251,-6.16977 -0.42862,-4.48923 0.1376,-9.7026 -0.71571,-11.38025 -6.53987,-12.85762 -19.15607,-46.7579 -19.84549,-46.79789 -6.5331,-0.37883 -46.98774,-17.6402 -48.34022,-17.59162 -6.69057,0.24029 -23.47825,0.19233 -27.54574,-12.83766 -6.94447,5.42263 -15.84018,15.65501 -16.19881,25.95022 1.72193,6.17915 3.04995,6.62061 3.04995,12.94255 17.09324,1.87193 45.39757,4.9633 66.08872,11.98516 9.81599,3.33121 17.45427,4.91607 22.23115,12.55908 -23.90159,-8.01619 -33.28983,4.11544 -47.86198,0.0239 -10.5639,-2.96609 -39.2329,-4.92069 -46.53184,3.59474 16.95317,3.02802 24.04545,24.04544 30.95466,30.95465 25.45841,15.07804 45.92543,42.3307 63.10756,59.51283 -25.85515,5.48392 -59.57986,-12.78128 -86.27363,-12.78128 -9.67382,-0.0714 -15.73266,-6.59063 -19.17191,-12.78128 -26.96457,2.02139 -48.84997,-8.34226 -61.11049,-27.95904 z"
       id="path35624"
       inkscape:connector-curvature="0"
       sodipodi:nodetypes="cssscsccsssssssssssccccsssscscsssssssssscssssssccsssscscssscssssssscccscscccccc" /><path
       style="color:#000000;fill:#ffc300;fill-opacity:1;fill-rule:nonzero;stroke:none;stroke-width:1.25px;marker:none;visibility:visible;display:inline;overflow:visible;enable-background:accumulate"
       d="m 83.29189,242.51581 c 5.18888,-1.7516 7.67817,-3.55891 9.60258,-8.04923 0.22666,-0.53949 0.95517,-1.36452 0.98851,-1.41214 -1.73148,0.6265 -1.36492,-1.07244 -1.977,-1.55336 0.41715,-6.49764 -2.34991,-40.81246 2.6848,-79.3088 -13.44404,28.02033 -7.14532,76.42034 -6.63881,81.99187 -7.61045,6.04731 -12.40042,12.26843 -11.08534,22.94736 0.41451,-4.7143 3.35606,-10.45036 6.42526,-14.6157 z"
       id="path3987"
       inkscape:connector-curvature="0"
       sodipodi:nodetypes="cccccccc" /><path
       style="color:#000000;fill:#ffc300;fill-opacity:1;fill-rule:nonzero;stroke:none;stroke-width:1.25px;marker:none;visibility:visible;display:inline;overflow:visible;enable-background:accumulate"
       d="m 199.375,34.925 c -2.91292,-0.397216 -5.42368,-1.849696 -8.88606,-2.221672 -3.46237,-0.371984 -12.97708,-1.239688 -17.46072,2.369408 C 174.20725,33.769624 177.29594,31.05504 178.65,30 c -4.48501,-1.625632 -10.9756,-3.832008 -15.125,-4.6 2.83641,-1.411088 12.13806,-2.517216 16.75,-2.45 -1.67296,-4.522664 -3.64035,-5.71924 -8.075,-8.025 3.75701,-0.76692 7.79429,-0.793592 10.65,0.45 -0.30181,-2.481024 -0.69786,-4.585744 -0.15,-6.9 3.5046,-0.858576 13.26244,10.144968 15.925,13.95 3.13396,4.478704 5.35526,9.116112 4.125,12.375 -0.42118,-0.615576 -0.79458,-1.266664 -1.175,-1.925 -0.15027,0.767512 -0.70325,1.354536 -2.2,2.05 z"
       id="path3887"
       inkscape:connector-curvature="0"
       sodipodi:nodetypes="cscccccccsccc" /><path
       style="color:#000000;fill:#ffc3c5;fill-opacity:1;fill-rule:nonzero;stroke:none;stroke-width:1.25px;marker:none;visibility:visible;display:inline;overflow:visible;enable-background:accumulate"
       d="m 214.56382,317.71584 c -3.96882,-1.48076 -5.93249,-4.4429 -8.38772,-7.38918 -4.00412,-4.80496 -7.21848,-12.43264 -10.38478,-17.97366 -4.58705,-8.02734 -20.42728,-11.32631 -27.16022,-16.37602 2.75344,-1.67616 4.63561,-0.60759 7.58889,-1.19824 2.65819,1.36377 4.66226,3.31048 7.18947,4.39356 23.02184,9.86651 19.53383,24.6654 30.55524,31.55378 2.61916,2.34462 7.7861,1.45438 8.188,2.49634 1.75129,4.54038 -4.31202,4.49342 -7.58888,4.49342 z"
       id="path3145"
       inkscape:connector-curvature="0"
       sodipodi:nodetypes="cssccscsc" /><path
       style="color:#000000;fill:#ec97af;fill-opacity:1;fill-rule:nonzero;stroke:none;stroke-width:1.25px;marker:none;visibility:visible;display:inline;overflow:visible;enable-background:accumulate"
       d="m 206.67538,309.12842 c -3.80941,-7.56983 -6.72004,-13.04597 -11.28348,-18.67264 -6.86069,-8.45917 -17.97888,-9.01506 -25.76226,-13.87968 -4.77038,0.29662 -6.53287,2.76214 -8.78713,5.39211 8.99035,2.98111 16.22406,4.88847 19.77104,11.98245 13.97887,0.28637 25.89304,30.59832 38.34383,22.56694 -4.57356,-0.90202 -10.23424,-3.31996 -12.282,-7.38918 z"
       id="path3126"
       inkscape:connector-curvature="0"
       sodipodi:nodetypes="ssccccs" /><path
       style="color:#000000;fill:#ffffff;stroke:none;stroke-width:1px;marker:none;visibility:visible;display:inline;overflow:visible;enable-background:accumulate"
       d="m 117.80556,316.91702 c -4.66878,-3.65472 -9.23332,-11.88784 -8.01741,-19.94501 2.79523,-2.72999 4.70841,-9.19639 8.11726,-12.80702 6.65797,-7.05207 17.18281,-6.94361 25.96197,-4.99269 0.50709,2.17058 -0.20217,4.56865 0,6.59035 -7.51339,-1.37723 -15.72899,1.16552 -20.56987,6.49049 -5.22086,5.74294 -7.23457,16.20848 -5.49195,24.66388 z"
       id="path35672"
       inkscape:connector-curvature="0"
       sodipodi:nodetypes="ccsccsc" /><path
       style="color:#000000;fill:#ffc300;fill-opacity:1;fill-rule:nonzero;stroke:none;stroke-width:1px;marker:none;visibility:visible;display:inline;overflow:visible;enable-background:accumulate"
       d="m 115.13368,289.23774 c 6.0774,-9.36637 15.27588,-15.00543 28.17437,-11.13588 0.23338,0.029 -2.57679,1.24735 -0.81103,3.03888 6.38057,16.1658 19.17586,19.27311 22.64926,18.3393 1.23195,-0.33121 1.65423,-2.55488 -0.21813,-2.62235 -5.04477,-0.18179 -16.43553,-6.53827 -17.70745,-16.4521 -0.36808,-2.86891 2.16315,-6.15629 1.48067,-7.35613 -1.14192,-2.00754 -6.61826,0.74913 -6.52303,2.65176 -11.17819,-1.35393 -21.70892,0.0582 -28.38412,13.83901 -1.52971,3.15807 -2.36175,4.86451 -5.17354,7.27463 5.5957,0.4788 4.73506,-4.837 6.513,-7.57712 z"
       id="path9715"
       inkscape:connector-curvature="0"
       sodipodi:nodetypes="sccsssscscs" /><path
       style="color:#000000;fill:#ffd79c;fill-opacity:1;fill-rule:nonzero;stroke:none;stroke-width:1px;marker:none;visibility:visible;display:inline;overflow:visible;enable-background:accumulate"
       d="m 116.26547,314.60581 c -2.51322,-8.63017 2.21829,-19.28027 7.41376,-23.72403 7.03415,-6.01642 16.43529,-6.72896 20.05247,-5.43676 -0.0258,0.49291 0.194,0.87304 0.28242,1.27092 -6.84354,-1.04309 -13.97409,0.59216 -19.20517,5.08373 -5.58127,4.79225 -9.30466,14.85032 -7.27254,22.87675 z"
       id="path4952"
       inkscape:connector-curvature="0"
       sodipodi:nodetypes="csccscc" /><path
       style="color:#000000;fill:#ff8029;fill-opacity:1;fill-rule:nonzero;stroke:none;stroke-width:1.25px;marker:none;visibility:visible;display:inline;overflow:visible;enable-background:accumulate"
       d="m 117.506,317.11672 c -5.01298,-14.31193 5.17007,-33.2513 26.06182,-31.75349 0.0572,3.26754 5.91917,8.8395 7.48902,10.18508 -8.03006,2.69191 -13.41544,1.57454 -18.7725,9.58596 -4.25616,6.36505 -5.16543,17.80261 -2.14684,22.56694 -7.05055,-1.58508 -10.73128,-6.03765 -12.6315,-10.58449 z"
       id="path35664"
       inkscape:connector-curvature="0"
       sodipodi:nodetypes="cccscc" /><path
       style="color:#000000;fill:#d34200;fill-opacity:1;fill-rule:nonzero;stroke:none;stroke-width:1px;marker:none;visibility:visible;display:inline;overflow:visible;enable-background:accumulate"
       d="m 118.10511,309.02857 c 1.05703,2.64169 6.0245,5.65678 7.68874,6.29078 -2.58832,1.01868 -4.31155,-0.34474 -5.59181,-1.19825 0.62272,1.62126 2.57553,2.60308 3.29518,3.09547 -1.13406,0.24553 -1.41256,-0.38524 -2.19679,-0.59912 0.74536,2.24409 2.41752,2.47682 4.09401,3.19532 -2.08841,0.60769 -4.16098,-0.0468 -5.79152,-0.69898 1.90178,1.89509 3.95908,2.3079 6.19093,2.69605 -0.5908,0.40342 -1.03725,0.4538 -1.59766,0.69898 1.4916,1.63112 2.94086,2.22199 5.09254,2.59619 -0.47029,-15.50022 9.00765,-24.22852 21.16899,-29.75641 -2.26289,-3.25834 -4.02677,-5.58512 -7.08962,-7.18946 1.53712,1.67116 2.30631,3.50776 2.3965,5.49195 -2.28038,-2.09503 -4.4867,-5.11387 -6.4905,-6.59035 0.69112,2.155 1.65104,4.10386 1.89723,5.99123 -1.04388,-2.6909 -3.19361,-4.84205 -5.29225,-5.89137 0.0362,1.29961 1.0406,1.96314 1.4978,2.59619 -1.11237,-1.13465 -2.79335,-1.20582 -3.79444,-1.4978 2.27002,1.74607 2.54678,2.02776 2.79591,4.89283 -0.58013,-1.45168 -2.02731,-2.18869 -2.99561,-2.99561 0.77649,2.08561 1.36186,3.87642 2.69605,5.59181 -2.04621,-2.17705 -3.34209,-4.22513 -5.3921,-5.59181 0.66915,1.68241 2.14249,3.586 2.7959,4.89284 -2.25635,-1.67121 -4.56219,-3.32209 -6.79005,-4.19387 1.97563,2.4379 4.15028,4.67233 5.49196,6.98977 -2.31373,-2.24909 -3.86567,-2.04553 -6.4905,-3.09547 2.05412,1.47678 3.24697,2.5637 4.59327,3.99415 -2.31556,-2.05452 -4.82602,-1.30754 -7.58889,-2.09693 1.26988,0.53306 1.85956,1.12112 2.79591,1.79737 -1.11349,0.36156 -2.1729,-0.36406 -2.99561,-0.59913 2.48182,1.72158 2.42598,0.55144 4.09401,2.69605 -0.78011,-0.47294 -1.48793,0.16686 -1.99708,-0.0999 1.23421,0.7458 1.708,1.79735 2.29663,2.49635 -2.49237,-0.4517 -4.6912,-1.66086 -7.08962,-2.09693 2.38932,1.26006 4.50012,2.84696 6.6902,3.99415 -1.67734,0.29792 -3.83192,-0.69424 -4.89283,-1.09839 1.29592,1.16112 2.32104,1.85482 3.49488,2.59619 -2.67143,0.24915 -5.42265,-0.90746 -6.98976,-1.89721 1.83811,2.12551 4.53265,3.61434 6.88991,4.79297 -0.99487,-0.31217 -2.10004,-0.69558 -3.09546,-0.99853 1.30338,0.71181 2.36529,1.5252 3.29517,2.19678 -2.72868,0.7779 -6.54868,-1.90274 -6.6902,-1.99708 1.21301,1.04561 4.12558,3.26806 4.99269,3.8943 -2.04838,-0.007 -3.94532,-2.16989 -5.39211,-3.29517 z"
       id="path4925"
       inkscape:connector-curvature="0"
       sodipodi:nodetypes="cccccccccccccccccccccccccccccccccccccccccccc" /><path
       style="color:#000000;fill:#8c5400;fill-opacity:1;fill-rule:nonzero;stroke:none;stroke-width:1px;marker:none;visibility:visible;display:inline;overflow:visible;enable-background:accumulate"
       d="m 132.6424,301.21574 c -5.86567,5.83999 -7.43562,15.53624 -3.95278,22.79088 0.35972,0.0759 0.93196,0.46599 1.29808,0.49927 -4.15294,-9.07809 -0.4445,-17.45217 3.59474,-21.5684 5.29674,-5.39771 12.24946,-6.91734 16.57572,-6.88991 -0.21473,-1.19267 -0.79612,-0.99515 -1.19824,-1.4978 -5.95034,-0.41029 -12.5877,2.95248 -16.31752,6.66596 z"
       id="path4944"
       inkscape:connector-curvature="0"
       sodipodi:nodetypes="sccsccs" /><path
       style="opacity:0.98999999;color:#000000;fill:#002232;fill-opacity:1;fill-rule:nonzero;stroke:none;stroke-width:1.5625px;marker:none;visibility:visible;display:inline;overflow:visible;enable-background:accumulate"
       d="m 129.88786,325.30472 c 9.85496,2.33568 18.17532,0.99951 25.263,-5.09254 5.88808,-5.06096 8.01772,-17.24759 6.39063,-22.66679 -5.00247,0.63584 -8.11175,-1.00641 -12.28201,-2.39649 -6.54179,0.2756 -11.49264,2.41569 -15.77689,6.59035 -6.48931,6.32332 -7.30849,16.27813 -3.59473,23.56547 z"
       id="path35645"
       inkscape:connector-curvature="0"
       sodipodi:nodetypes="csccsc" /><path
       style="color:#000000;fill:#ffc300;fill-opacity:1;fill-rule:nonzero;stroke:none;stroke-width:1.25px;marker:none;visibility:visible;display:inline;overflow:visible;enable-background:accumulate"
       d="m 11.06192,257.80361 c -0.07728,-1.35601 0.5458,-3.21199 3.594736,-1.69752 13.135754,6.52483 27.819934,17.43963 44.734464,21.66826 7.6912,1.9228 22.45366,7.69293 29.1573,7.78859 0.90865,4.3358 2.09237,8.87507 6.79004,10.98392 1.9778,0.88785 5.24672,-15.51326 14.74778,-26.78657 7.92091,-9.39841 16.12967,-13.45038 28.18934,-11.25771 -1.36724,4.16454 2.12696,12.23204 3.98411,9.13515 8.67649,-14.46851 28.04924,-7.34974 41.14977,-6.03968 21.81904,4.60119 54.25993,5.17954 72.4938,16.57572 -13.12128,-13.91123 -32.53947,-13.81719 -50.32628,-17.37455 -12.45961,-2.49192 -24.80327,-5.9153 -37.545,-7.18947 0.53044,-8.52782 -1.72943,-19.71131 -0.39941,-26.36138 -6.24193,3.73145 -10.75447,7.65829 -17.17416,9.78361 -4.71682,1.56156 -5.63346,-9.77315 -15.57787,3.79649 -2.15983,2.9472 -4.39076,6.34471 -6.98976,7.78859 -15.01052,2.79136 -25.03625,13.59888 -28.95758,25.36285 -14.00546,11.58524 -90.25204,-28.58319 -92.065136,-24.76373 -1.6132,3.39837 2.258048,6.32899 4.193856,8.58743 z"
       id="path3181"
       inkscape:connector-curvature="0"
       sodipodi:nodetypes="csscsscsccsccssccsc" /><path
       style="color:#000000;fill:#ffc300;fill-opacity:1;fill-rule:nonzero;stroke:none;stroke-width:1.25px;marker:none;visibility:visible;display:inline;overflow:visible;enable-background:accumulate"
       d="m 158.64573,199.28931 c 1.91182,1.20555 0.28375,4.31948 0.39941,5.59182 -11.27484,9.53845 -9.03777,31.73392 -23.56548,37.545 6.71196,-11.60224 14.04878,-22.04179 14.07938,-37.545 3.66454,-2.40882 6.92891,-4.72871 9.08669,-5.59182 z"
       id="path3819"
       inkscape:connector-curvature="0"
       sodipodi:nodetypes="ccccc" /><path
       style="color:#000000;fill:#b78000;fill-opacity:1;fill-rule:nonzero;stroke:none;stroke-width:1.25px;marker:none;visibility:visible;display:inline;overflow:visible;enable-background:accumulate"
       d="m 9.719136,256.91969 c -0.36972,-4.66296 2.118384,-4.53375 5.851232,-2.31498 23.203372,13.7919 47.529982,25.47416 74.923462,25.47416 -0.44553,6.13028 3.4762,14.161 4.94251,10.87351 9.69911,-21.7455 13.43865,-38.43625 40.52856,-35.72726 -0.46615,-0.67134 12.87672,-7.17102 9.73827,-8.19909 -4.90112,-1.60546 -5.10994,-16.34685 -9.35302,-8.4837 -3.31339,6.14027 -6.17239,11.88149 -8.85812,11.88149 -15.16738,2.18364 -21.2921,13.77899 -29.09018,22.87676 -20.07098,3.11932 -29.72433,-3.00016 -48.43658,-8.19045 -11.99697,-3.32765 -28.47139,-10.59251 -38.12791,-15.95724 -4.833328,-1.66947 -4.39768,4.11966 -2.118224,7.7668 z"
       id="path3105"
       inkscape:connector-curvature="0"
       sodipodi:nodetypes="cscscssccscc" /><path
       style="color:#000000;fill:#b78000;fill-opacity:1;fill-rule:nonzero;stroke:none;stroke-width:1.25px;marker:none;visibility:visible;display:inline;overflow:visible;enable-background:accumulate"
       d="m 134.08171,255.10755 c 2.04691,0.14504 4.83356,0.98329 5.99123,1.49781 -1.51253,3.17968 1.11127,10.57804 1.44641,9.19364 1.80642,-7.46187 16.90623,-10.24111 22.28451,-9.56883 7.10563,0.88821 16.66343,1.99383 23.00062,3.77022 23.09976,6.47515 40.24346,5.90613 53.82117,8.98684 -13.17039,-6.20959 -46.6527,-12.35401 -72.89323,-14.97806 -0.005,-4.66918 -1.52771,-8.88647 -1.89722,-12.58158 -6.86693,-1.19649 -17.90846,1.41019 -23.16606,5.79152 -1.94936,1.62447 -7.32212,6.20137 -8.58743,7.88844 z"
       id="path3189"
       inkscape:connector-curvature="0"
       sodipodi:nodetypes="ccssscccsc" /><path
       style="color:#000000;fill:#ffc300;fill-opacity:1;fill-rule:nonzero;stroke:none;stroke-width:1.25px;marker:none;visibility:visible;display:inline;overflow:visible;enable-background:accumulate"
       d="m 156.01736,288.55174 c 4.40049,-1.40343 8.74607,-1.76419 12.42687,0 8.81672,4.2258 10.75764,13.52929 14.40389,22.02946 1.49754,3.49109 8.60882,11.92086 12.14444,13.27416 17.04949,6.52591 22.77539,16.2823 35.58606,26.2659 2.46796,1.92333 9.79238,12.21435 11.01472,12.99173 4.66522,2.96696 8.81109,4.4901 12.99174,7.62559 -3.02037,-3.94805 -5.7417,-6.71653 -8.7553,-9.88502 -12.01067,-12.62797 -20.09273,-27.5166 -34.73876,-37.28063 -7.02911,-4.68607 -13.45004,-5.50491 -18.92275,-10.7323 -12.05244,-11.51216 -10.90595,-31.47553 -31.91448,-30.2199 -0.89153,0.0533 -0.0349,-2.17092 -0.84729,-2.54186 -2.61444,-1.19368 -4.51886,4.46909 -3.38914,8.47287 z"
       id="path3214"
       inkscape:connector-curvature="0"
       sodipodi:nodetypes="cssssscsssssc" /><path
       style="color:#000000;fill:#ffc300;fill-opacity:1;fill-rule:nonzero;stroke:none;stroke-width:1.25px;marker:none;visibility:visible;display:inline;overflow:visible;enable-background:accumulate"
       d="m 156.45,189.3 c -0.81907,-0.4742 -5.80378,-2.57137 -8,-5.2 1.06255,-4.46271 3.919,-11.77435 4.4,-17.575 1.62464,-19.59236 -1.14826,-40.08198 9.1,-56.175 5.64952,-8.87154 18.80003,-21.2897 23.15,-33.675 0.91425,-2.603064 8.91257,-28.205568 8.84825,-35.368272 0.0899,6.3416 2.36489,-2.173336 4.21747,-0.136696 2.50778,6.2272 -2.05066,24.159736 -0.69072,25.479968 2.96822,2.881552 5.31124,-6.74 7,-15.05 -2.37751,17.456656 -3.7657,41.19335 18.25,51.55 18.81992,8.85329 61.2767,5.12022 84.62178,4.32588 3.67956,1.84674 17.07128,18.17539 16.82822,24.27412 -0.03,0.75223 -4.27399,-7.0159 -6.925,-8.375 -0.83858,-0.42991 -0.92872,1.49016 -1.5,1.275 -1.3683,-0.51534 0.36974,2.71519 -0.475,2.2 -3.18538,-1.9427 -4.1149,-0.10432 -4.85,0.475 -1.59878,-1.61673 -3.99553,-0.85371 -4.925,-1.675 0.17975,-4.90475 -1.67828,-12.63037 -1.9,-15.3 -31.77092,4.19003 -49.45962,9.0723 -52.95743,15.95872 -5.2676,-6.14225 -21.43987,-8.792 -28.59257,-12.45872 -11.00829,-5.64323 -11.07787,-8.42786 -14.075,-8.075 -12.03232,1.41656 -24.04797,9.28719 -34.525,17.35 -6.42799,17.64517 -9.74354,38.80509 -9.025,57.4 -3.00264,2.33539 -7.61504,2.1628 -7.975,8.775 z"
       id="path3026"
       inkscape:connector-curvature="0"
       sodipodi:nodetypes="ccsssccscscssssccccssccc" /><path
       style="color:#000000;fill:#b78000;fill-opacity:1;fill-rule:nonzero;stroke:none;stroke-width:1.25px;marker:none;visibility:visible;display:inline;overflow:visible;enable-background:accumulate"
       d="m 168.58544,24.480622 c 7.02536,-0.709456 14.02215,3.952602 19.20518,5.366154 -1.74113,-2.04948 -3.84486,-4.357296 -5.22494,-5.50736 -4.60336,-0.429592 -10.62716,-0.976506 -13.98024,0.141206 z"
       id="path3162"
       inkscape:connector-curvature="0"
       sodipodi:nodetypes="cccc" /><path
       style="color:#000000;fill:#4cdea8;fill-opacity:1;fill-rule:nonzero;stroke:none;stroke-width:1.25px;marker:none;visibility:visible;display:inline;overflow:visible;enable-background:accumulate"
       d="m 204.87757,50.464096 c 19.57896,33.679648 58.15617,49.251004 88.6827,56.768224 -24.63372,5.08658 -48.66652,5.77398 -69.1951,-3.67158 -23.76356,-10.93402 -22.41385,-32.422316 -19.4876,-53.096644 z"
       id="path3188"
       inkscape:connector-curvature="0"
       sodipodi:nodetypes="ccsc" /><path
       style="color:#000000;fill:#39ad96;fill-opacity:1;fill-rule:nonzero;stroke:none;stroke-width:1.25px;marker:none;visibility:visible;display:inline;overflow:visible;enable-background:accumulate"
       d="m 275.20239,108.36204 c -16.79286,1.5329 -42.80759,-2.3999 -52.81422,-14.40388 -1.66025,-1.99164 -0.0115,-5.05218 1.12972,-4.8013 15.67604,3.4462 22.49761,8.98673 38.9752,9.60259 -24.13959,-9.41654 -43.42199,-27.832602 -58.18038,-45.753498 -2.88647,24.026208 3.10202,44.777148 22.59432,51.966938 13.03822,4.80918 37.43523,8.56064 48.29536,3.38915 z"
       id="path3196"
       inkscape:connector-curvature="0"
       sodipodi:nodetypes="cssccsc" /><path
       style="color:#000000;fill:#b78000;fill-opacity:1;fill-rule:nonzero;stroke:none;stroke-width:1.5625px;marker:none;visibility:visible;display:inline;overflow:visible;enable-background:accumulate"
       d="m 158.04769,119.00431 c 19.07755,-20.08498 49.52897,-24.77537 58.07614,-20.92913 -4.89119,-7.61916 -13.59413,-13.192068 -12.89238,-27.536116 -2.54435,3.428088 -5.56284,2.324792 -8.06474,-0.558768 -0.68632,-0.791016 0.96422,-15.946392 1.44383,-20.27976 0.92117,-8.32276 1.12625,-9.599712 -2.62484,-8.948712 -2.83766,11.544272 -27.30104,63.624296 -35.93801,78.252486 z"
       id="path3221"
       inkscape:connector-curvature="0"
       sodipodi:nodetypes="cccsscc" /><path
       style="color:#000000;fill:#ffc300;fill-opacity:1;fill-rule:nonzero;stroke:none;stroke-width:1.25px;marker:none;visibility:visible;display:inline;overflow:visible;enable-background:accumulate"
       d="m 312.3418,123.96624 c 4.31456,2.90227 6.70769,10.00734 6.70769,16.02785 2.30882,-2.32727 1.97864,-6.72015 0.52249,-10.40201 -1.68418,-4.25845 -4.66276,-5.87117 -7.23018,-5.62584 z"
       id="path3289"
       inkscape:connector-curvature="0"
       sodipodi:nodetypes="ccsc" /><path
       style="color:#000000;fill:#ffc300;fill-opacity:1;fill-rule:nonzero;stroke:none;stroke-width:1.25px;marker:none;visibility:visible;display:inline;overflow:visible;enable-background:accumulate"
       d="m 311.3533,140.91198 c 1.15832,-4.02288 0.6898,-12.54803 -3.08751,-12.45526 0.63785,-0.01 0.15387,-2.25606 0.85031,-2.67502 1.19108,-0.71651 3.52825,0.26036 4.1436,0.48655 1.49684,3.31901 0.40241,12.43233 -1.9064,14.64373 z"
       id="path3281"
       inkscape:connector-curvature="0"
       sodipodi:nodetypes="ccscc" /><path
       style="color:#000000;fill:#ffc300;fill-opacity:1;fill-rule:nonzero;stroke:none;stroke-width:1.25px;marker:none;visibility:visible;display:inline;overflow:visible;enable-background:accumulate"
       d="m 308.03475,129.26178 c 0.64666,-4.35555 -1.96669,-3.59773 -2.43992,-4.19715 0.0644,4.73463 -2.07823,8.85581 -4.12655,12.95245 4.02462,-1.55336 6.56647,-8.7553 6.56647,-8.7553 z"
       id="path3254"
       inkscape:connector-curvature="0"
       sodipodi:nodetypes="cccc" /><path
       style="color:#000000;fill:#b78000;fill-opacity:1;fill-rule:nonzero;stroke:none;stroke-width:1.5625px;marker:none;visibility:visible;display:inline;overflow:visible;enable-background:accumulate"
       d="m 201.34721,96.21758 c 3.50175,0.8505 5.73776,2.73739 7.68237,4.59054 17.84774,17.00833 38.20492,12.41718 42.1705,18.21634 8.92782,0.30051 10.19675,-3.81944 33.29722,-6.73498 6.37233,-0.80426 12.09941,-1.88984 19.65406,-4.06866 2.51026,-0.24148 4.13348,1.05257 6.84606,1.70407 -1.71979,-2.2889 7.56196,4.09236 -5.57513,-5.37564 -13.4194,3.87957 -40.91016,8.63359 -61.49178,5.6338 -11.57183,-1.6866 -19.68733,-6.05592 -29.3707,-13.17093 -4.22999,-3.10805 -11.27395,-1.30026 -13.2126,-0.79454 z"
       id="path3246"
       inkscape:connector-curvature="0"
       sodipodi:nodetypes="cscscccssc" /><path
       style="color:#000000;fill:#256d7b;fill-opacity:1;fill-rule:nonzero;stroke:none;stroke-width:1.25px;marker:none;visibility:visible;display:inline;overflow:visible;enable-background:accumulate"
       d="m 210.24372,90.85144 c -1.69709,-18.322672 18.51918,-5.855584 27.39562,-5.08372 -14.54588,-10.794144 -23.04358,-20.587608 -31.63205,-32.479336 -3.62352,12.65804 -2.86358,28.434464 4.23643,37.563056 z"
       id="path3319"
       inkscape:connector-curvature="0"
       sodipodi:nodetypes="cccc" /><path
       style="color:#000000;fill:#39ad96;fill-opacity:1;fill-rule:nonzero;stroke:none;stroke-width:1.25px;marker:none;visibility:visible;display:inline;overflow:visible;enable-background:accumulate"
       d="m 341.5,305.775 c -19.46097,-0.1543 -39.08074,-3.05745 -56.45,-9.425 -6.90061,-13.33357 -13.92414,-47.003 -16.35,-53.275 -6.43303,-4.48054 -42.95249,-18.05511 -49.125,-21.45 12.67814,-27.79115 52.39012,-23.3135 80.775,-28.25 8.37911,4.99179 18.4857,7.53234 25.125,13 -18.02858,4.74089 -32.50255,15.05928 -45.6,25.225 -3.14793,2.4433 -5.08418,18.77818 0.50471,35.64328 1.13744,3.43234 10.7601,15.09751 15.82559,18.38573 7.67324,4.98101 38.38674,9.12506 71.0697,2.39599 10.63701,-2.19004 8.3271,-5.38971 -4.325,-15.25 6.10913,1.01819 56.33792,15.32208 63.5,13.975 -20.50172,11.86942 -52.51506,19.28216 -84.95,19.025 z"
       id="path3357"
       inkscape:connector-curvature="0"
       sodipodi:nodetypes="scccccssssccs" /><path
       style="color:#000000;fill:#39ad96;fill-opacity:1;fill-rule:nonzero;stroke:none;stroke-width:1.25px;marker:none;visibility:visible;display:inline;overflow:visible;enable-background:accumulate"
       d="m 242.72257,200.48756 c -7.43878,-10.09822 2.15176,-19.19269 3.19532,-30.35553 1.59924,-17.10692 5.00916,-20.15002 5.59181,-33.55085 -7.42393,14.36309 -14.83436,25.56987 -26.28526,34.8431 -8.03022,6.50309 -14.53562,11.01045 -24.18981,16.09488 -3.72458,4.39714 -4.67414,12.01304 -3.84536,17.76138 5.57366,6.94172 13.37695,11.47384 23.78372,16.757 18.53358,9.40885 40.98753,15.27706 42.91856,15.99502 -10.45393,-3.95917 -18.33752,-16.78093 -21.16898,-37.545 z"
       id="path3365"
       inkscape:connector-curvature="0"
       sodipodi:nodetypes="cscsccscc" /><path
       style="color:#000000;fill:#256d7b;fill-opacity:1;fill-rule:nonzero;stroke:none;stroke-width:1.25px;marker:none;visibility:visible;display:inline;overflow:visible;enable-background:accumulate"
       d="M 261.375,238.1 C 237.77614,227.83919 212.10269,218.49571 194,204.075 c 2.38754,-4.12393 7.2139,-9.37296 6.375,-17.175 15.13413,-6.48606 29.18401,-15.34004 40.35,-29.55 -2.15953,11.87742 -2.99833,19.93166 -13.575,27.55 -5.1207,8.84484 -2.9227,20.94173 1.9263,31.31757 25.41525,-10.73448 49.77601,-18.06939 71.6487,-20.09257 5.75168,1.47111 12.0065,3.18174 16.375,4.4 -3.56762,6.91926 -46.52991,16.57665 -55.725,37.575 z"
       id="path3373"
       inkscape:connector-curvature="0"
       sodipodi:nodetypes="ccccccccc" /><path
       style="color:#000000;fill:#256d7b;fill-opacity:1;fill-rule:nonzero;stroke:none;stroke-width:1.25px;marker:none;visibility:visible;display:inline;overflow:visible;enable-background:accumulate"
       d="m 289.85353,297.14597 c 30.0241,2.51807 79.37371,10.27028 98.65548,-7.9883 1.83678,-1.73931 -4.39357,-6.2575 -4.39357,-8.78713 12.63412,4.75856 33.39318,8.38772 46.73155,8.38772 -44.90803,13.27824 -109.81393,22.18011 -140.99346,8.38771 z"
       id="path3436"
       inkscape:connector-curvature="0"
       sodipodi:nodetypes="csccc" /><path
       style="color:#000000;fill:#ffc300;fill-opacity:1;fill-rule:nonzero;stroke:none;stroke-width:1.25px;marker:none;visibility:visible;display:inline;overflow:visible;enable-background:accumulate"
       d="m 188.00272,208.87527 c 1.73993,4.40011 7.71474,3.22568 8.78713,3.99415 18.05521,12.93841 54.88389,28.56144 67.33569,27.60809 -14.86304,-6.73697 -53.00888,-20.85652 -68.53393,-37.19405 -1.63409,2.0684 -3.72787,3.72788 -7.58889,5.59181 z"
       id="path3466"
       inkscape:connector-curvature="0"
       sodipodi:nodetypes="csccc" /><path
       style="color:#000000;fill:#ffc300;fill-opacity:1;fill-rule:nonzero;stroke:none;stroke-width:1.25px;marker:none;visibility:visible;display:inline;overflow:visible;enable-background:accumulate"
       d="m 282.26311,297.58946 c -0.36265,0.8382 4.97107,3.21422 7.34315,4.51887 46.78263,16.31703 106.85488,4.89414 144.88608,-14.12146 -32.33332,14.54363 -117.18088,27.42277 -149.9698,7.06073 -0.94729,1.38477 -1.16487,1.31049 -2.25943,2.54186 z"
       id="path3474"
       inkscape:connector-curvature="0"
       sodipodi:nodetypes="ccccc" /><path
       style="color:#000000;fill:#ffc300;fill-opacity:1;fill-rule:nonzero;stroke:none;stroke-width:1.25px;marker:none;visibility:visible;display:inline;overflow:visible;enable-background:accumulate"
       d="m 282.54554,297.0246 c -8.42253,-17.22872 -8.44907,-39.49247 -14.40388,-55.63851 -3.1266,-2.13618 -7.28572,-3.07139 -10.16744,-3.954 11.75703,13.20157 14.69036,43.94766 24.57132,59.59251 z"
       id="path3482"
       inkscape:connector-curvature="0"
       sodipodi:nodetypes="cccc" /><path
       style="color:#000000;fill:#b78000;fill-opacity:1;fill-rule:nonzero;stroke:none;stroke-width:1.25px;marker:none;visibility:visible;display:inline;overflow:visible;enable-background:accumulate"
       d="m 189.34398,208.3419 c 0.42944,0.171 5.05749,1.44624 8.47287,2.25943 3.79356,3.07897 7.53766,4.31424 11.57958,5.93101 -5.35491,-3.57827 -9.79882,-9.05301 -13.27416,-12.99173 -2.01021,1.22408 -3.76572,2.82429 -6.77829,4.80129 z"
       id="path3511"
       inkscape:connector-curvature="0" /><path
       style="color:#000000;fill:#39ad96;fill-opacity:1;fill-rule:nonzero;stroke:none;stroke-width:1.25px;marker:none;visibility:visible;display:inline;overflow:visible;enable-background:accumulate"
       d="m 271.53081,284.88015 c -5.84321,-9.98171 -14.1289,-27.51185 -17.79303,-34.1739 -7.83204,-3.9229 -18.02208,-9.05831 -23.72403,-14.40388 7.72395,4.73589 19.52415,8.39091 26.54832,10.7323 3.58134,9.06863 10.29395,26.30852 14.96874,37.84548 z"
       id="path3567"
       inkscape:connector-curvature="0"
       sodipodi:nodetypes="ccccc" /><path
       style="color:#000000;fill:#39ad96;fill-opacity:1;fill-rule:nonzero;stroke:none;stroke-width:1.25px;marker:none;visibility:visible;display:inline;overflow:visible;enable-background:accumulate"
       d="m 147.20563,185.79092 c -0.73338,-1.48775 -11.04232,2.59418 -12.59607,1.10137 6.81866,-8.15366 14.42637,-25.74143 13.55182,-29.49087 -6.92,-29.66795 3.58072,-42.53728 5.09224,-59.16408 1.06856,-14.714708 -6.22517,-13.979516 -20.76957,-13.979516 7.60261,-14.286552 18.42972,-16.829824 32.75202,-10.384792 11.91135,-3.00524 21.19923,-16.020776 26.36139,-23.56548 1.54134,13.14732 -7.11629,24.5442 -10.38479,34.349688 -23.5195,20.76362 -25.19491,52.83252 -27.88192,82.25754 -0.25911,2.83752 -5.87277,16.10031 -6.12512,18.87614 z"
       id="path3619"
       inkscape:connector-curvature="0"
       sodipodi:nodetypes="ccscccccsc" /><path
       style="color:#000000;fill:#256d7b;fill-opacity:1;fill-rule:nonzero;stroke:none;stroke-width:1.25px;marker:none;visibility:visible;display:inline;overflow:visible;enable-background:accumulate"
       d="m 156.84836,121.00399 c 0.2895,-14.40861 7.6451,-27.45983 15.9766,-36.34675 5.18658,-5.208016 4.6317,-10.607856 5.19239,-16.775432 6.59219,-7.031648 9.74523,-13.153728 15.17777,-16.775424 0.40831,13.628048 -5.77863,26.841328 -11.58303,35.547928 -10.01023,10.960368 -19.77399,21.251628 -24.76373,34.349678 z"
       id="path3638"
       inkscape:connector-curvature="0"
       sodipodi:nodetypes="cccccc" /><path
       style="color:#000000;fill:#39ad96;fill-opacity:1;fill-rule:nonzero;stroke:none;stroke-width:1.25px;marker:none;visibility:visible;display:inline;overflow:visible;enable-background:accumulate"
       d="M 80.75982,151.95865 C 68.79048,136.53148 62.10344,107.36019 71.37358,95.44144 58.27416,93.06288 52.61039,113.39471 46.21043,123.00107 c 7.36251,12.571 21.38985,26.47607 34.54939,28.95758 z"
       id="path3676"
       inkscape:connector-curvature="0"
       sodipodi:nodetypes="cccc" /><path
       style="color:#000000;fill:#256d7b;fill-opacity:1;fill-rule:nonzero;stroke:none;stroke-width:1.25px;marker:none;visibility:visible;display:inline;overflow:visible;enable-background:accumulate"
       d="m 69.77591,146.56654 c -9.41132,-4.5978 -19.28981,-16.0713 -23.16606,-22.76664 3.56417,-11.74395 9.66899,-18.10021 15.57717,-22.36724 -5.00478,10.62522 2.01559,31.20062 7.58889,45.13388 z"
       id="path3657"
       inkscape:connector-curvature="0"
       sodipodi:nodetypes="cccc" /><path
       style="color:#000000;fill:#39ad96;fill-opacity:1;fill-rule:nonzero;stroke:none;stroke-width:1.25px;marker:none;visibility:visible;display:inline;overflow:visible;enable-background:accumulate"
       d="m 89.34724,224.85187 c -17.07273,-21.23637 -29.6305,-53.51509 -24.76372,-80.2824 -8.43573,-4.14104 -15.73747,-12.70243 -18.7725,-18.77249 -0.90352,39.63238 18.30372,79.72015 42.73739,104.44699 -0.81362,-2.24944 -0.0965,-2.70622 0.79883,-5.3921 z"
       id="path3684"
       inkscape:connector-curvature="0"
       sodipodi:nodetypes="ccccc" /><path
       style="color:#000000;fill:#39ad96;fill-opacity:1;fill-rule:nonzero;stroke:none;stroke-width:1.25px;marker:none;visibility:visible;display:inline;overflow:visible;enable-background:accumulate"
       d="m 86.95075,211.27177 c -10.20879,-21.004 -5.50848,-44.54671 -1.59766,-59.51283 4.8732,2.35298 6.51051,-2.54759 9.18654,-3.59473 -6.80617,18.56901 -10.32355,43.05328 -7.58888,63.10756 z"
       id="path3692"
       inkscape:connector-curvature="0"
       sodipodi:nodetypes="cccc" /><path
       style="color:#000000;fill:#256d7b;fill-opacity:1;fill-rule:nonzero;stroke:none;stroke-width:1.25px;marker:none;visibility:visible;display:inline;overflow:visible;enable-background:accumulate"
       d="m 55.79639,137.77942 c -6.33314,22.07535 12.07226,54.70596 18.7725,72.2941 -16.49995,-19.87864 -32.96155,-63.10626 -27.16021,-87.47186 2.73519,7.47372 2.82309,10.59513 8.38771,15.17776 z"
       id="path3700"
       inkscape:connector-curvature="0"
       sodipodi:nodetypes="cccc" /><path
       style="color:#000000;fill:#b78000;fill-opacity:1;fill-rule:nonzero;stroke:none;stroke-width:1.5625px;marker:none;visibility:visible;display:inline;overflow:visible;enable-background:accumulate"
       d="m 153.19306,187.44215 c 0.2705,-5.13923 5.45302,-8.0383 7.62559,-11.29716 -7.41739,-15.46484 -2.83219,-40.01808 -1.41215,-55.6385 -5.52093,12.43585 -4.44172,37.11416 -6.19113,48.94701 -0.9489,6.41822 -2.34767,8.95862 -3.69388,14.88193 2.98098,-0.45972 2.29183,1.93924 3.67157,3.10672 z"
       id="path3740"
       inkscape:connector-curvature="0"
       sodipodi:nodetypes="cccscc" /><path
       style="color:#000000;fill:#ffc300;fill-opacity:1;fill-rule:nonzero;stroke:none;stroke-width:1.25px;marker:none;visibility:visible;display:inline;overflow:visible;enable-background:accumulate"
       d="m 106.32238,201.28639 c 1.2846,-1.97612 1.43447,-5.7938 1.59765,-7.58888 3.25258,-2.66135 11.29467,-0.14913 17.37455,0 7.20905,0.17683 13.92822,-1.24002 20.96928,-1.79737 5.15571,-0.40811 8.78488,0.71207 12.38187,2.5962 2.89653,-4.45587 0.47225,-6.22492 -2.39649,-8.58742 -6.65043,-0.46497 -12.90258,-0.0927 -18.57279,1.79737 -10.81836,1.39089 -20.88372,1.30367 -30.55524,-0.79883 -6.57011,5.35386 -9.05958,13.78024 -11.18363,21.5684 -0.45584,3.97262 0.74775,9.0918 0.79884,10.68435 2.53312,-7.07055 5.72384,-12.90825 9.58596,-17.87382 z"
       id="path3759"
       inkscape:connector-curvature="0"
       sodipodi:nodetypes="ccssccccccc" /><path
       style="color:#000000;fill:#b78000;fill-opacity:1;fill-rule:nonzero;stroke:none;stroke-width:1.5625px;marker:none;visibility:visible;display:inline;overflow:visible;enable-background:accumulate"
       d="m 105.52354,196.69312 c 1.32182,-3.36359 0.48428,-5.48318 3.19532,-5.99122 0.003,-5.21006 -5.1045,-0.0754 -7.98829,4.19385 -4.09922,6.06871 -3.75115,13.30351 -4.69313,21.16899 2.38672,-5.96805 7.09745,-13.29328 9.4861,-19.37162 z"
       id="path3784"
       inkscape:connector-curvature="0"
       sodipodi:nodetypes="scscs" /><path
       style="color:#000000;fill:#b78000;fill-opacity:1;fill-rule:nonzero;stroke:none;stroke-width:1.5625px;marker:none;visibility:visible;display:inline;overflow:visible;enable-background:accumulate"
       d="m 155.31128,188.57187 c 2.53835,1.06346 2.0413,1.61621 2.8243,3.67158 -8.82996,-6.55124 -21.97764,-0.81527 -31.63205,-0.28243 -7.7485,0.42764 -17.54828,-1.80198 -19.77003,-0.28243 -4.7e-4,-0.79253 0.36791,-1.47165 0.56485,-2.25943 5.45952,-0.35558 11.37483,0.73625 16.23967,-0.14122 13.52269,-2.43906 21.66339,-4.94165 31.77326,-0.70607 z"
       id="path3803"
       inkscape:connector-curvature="0"
       sodipodi:nodetypes="scsccss" /><path
       style="color:#000000;fill:#b78000;fill-opacity:1;fill-rule:nonzero;stroke:none;stroke-width:1.5625px;marker:none;visibility:visible;display:inline;overflow:visible;enable-background:accumulate"
       d="m 157.04806,202.08522 c -1.30145,2.56345 -2.16141,3.11295 -3.39502,4.59328 -3.42576,7.64729 -5.92688,15.11676 -8.98683,22.76664 1.9555,-7.73182 3.2163,-15.61897 4.39356,-23.56548 1.69565,-1.64959 3.31029,-2.62288 4.99269,-3.19532 0.81792,-0.27829 1.62231,-0.1952 2.9956,-0.59912 z"
       id="path3811"
       inkscape:connector-curvature="0"
       sodipodi:nodetypes="ccccsc" /><path
       style="color:#000000;fill:#ffc300;fill-opacity:1;fill-rule:nonzero;stroke:none;stroke-width:1.25px;marker:none;visibility:visible;display:inline;overflow:visible;enable-background:accumulate"
       d="m 181.0673,215.20742 c -0.34688,-1.28361 2.344,-1.35368 4.12532,-2.30373 -1.59874,3.5162 0.50425,5.0676 1.73888,7.78859 0.723,1.59339 2.62428,3.00089 3.268,4.15959 -5.1106,-1.01621 -8.67281,-4.59112 -9.1322,-9.64445 z"
       id="path3838"
       inkscape:connector-curvature="0"
       sodipodi:nodetypes="ccscc" /><path
       style="color:#000000;fill:#256d7b;fill-opacity:1;fill-rule:nonzero;stroke:none;stroke-width:1.25px;marker:none;visibility:visible;display:inline;overflow:visible;enable-background:accumulate"
       d="m 140.76619,186.03001 c 3.22398,-6.53938 9.54269,-17.83584 12.99174,-22.87675 -1.78478,5.23995 -4.56305,17.32996 -5.36615,21.74704 -2.08262,0.1792 -4.1423,0.56485 -7.62559,1.12971 z"
       id="path3848"
       inkscape:connector-curvature="0"
       sodipodi:nodetypes="cccc" /><path
       style="color:#000000;fill:#ffc300;fill-opacity:1;fill-rule:nonzero;stroke:none;stroke-width:1.25px;marker:none;visibility:visible;display:inline;overflow:visible;enable-background:accumulate"
       d="m 194.4277,198.45689 c 1.65364,-6.55403 -1.16096,-8.4308 -2.54186,-10.73231 2.25943,0 4.51886,0 6.7783,0 0.46628,5.33018 -1.77324,7.38939 -4.23644,10.73231 z"
       id="path3868"
       inkscape:connector-curvature="0" /><path
       style="color:#000000;fill:#b78000;fill-opacity:1;fill-rule:nonzero;stroke:none;stroke-width:1.5625px;marker:none;visibility:visible;display:inline;overflow:visible;enable-background:accumulate"
       d="m 195.55742,24.480632 c -3.71803,-4.55844 -5.38792,-6.501056 -10.59109,-9.461376 -0.16151,-1.394816 -1.1188,-2.43304 -1.55336,-3.954008 9.34877,3.317632 14.62752,12.201944 18.07545,19.205176 -2.08913,1.949904 -3.82398,-3.206504 -5.931,-5.789792 z"
       id="path3935"
       inkscape:connector-curvature="0"
       sodipodi:nodetypes="scccs" /><path
       style="color:#000000;fill:#b78000;fill-opacity:1;fill-rule:nonzero;stroke:none;stroke-width:1.5625px;marker:none;visibility:visible;display:inline;overflow:visible;enable-background:accumulate"
       d="m 185.00711,30.83608 c -5.52677,0.867056 -8.04397,1.806688 -9.98537,2.546272 0.12587,-1.579384 2.94987,-3.057304 3.12043,-3.395024 3.73409,-0.39772 4.94331,0.526376 6.86494,0.848752 z"
       id="path3943"
       inkscape:connector-curvature="0"
       sodipodi:nodetypes="cccc" /><path
       style="color:#000000;fill:#ffc300;fill-opacity:1;fill-rule:nonzero;stroke:none;stroke-width:1.25px;marker:none;visibility:visible;display:inline;overflow:visible;enable-background:accumulate"
       d="m 287.66353,319.67741 c -3.95143,-2.91927 -4.56242,-7.29295 -5.68284,-11.21443 -2.11192,2.38357 -0.77588,5.2119 -0.28243,8.04922 1.6487,1.70198 4.05744,2.55818 5.96527,3.16521 z"
       id="path3952"
       inkscape:connector-curvature="0"
       sodipodi:nodetypes="cccc" /><path
       style="color:#000000;fill:#ffc300;fill-opacity:1;fill-rule:nonzero;stroke:none;stroke-width:1.25px;marker:none;visibility:visible;display:inline;overflow:visible;enable-background:accumulate"
       d="m 277.77122,316.21803 c 0.29017,-1.84948 0.22132,-3.39258 0.29956,-5.19239 -1.80259,2.21238 -2.43408,4.03682 -2.7959,6.6902 0.10374,3.53308 2.25474,7.17404 3.74451,9.63588 -0.82259,-3.55261 -0.0876,-7.6519 -1.24817,-11.13369 z"
       id="path3971"
       inkscape:connector-curvature="0"
       sodipodi:nodetypes="ccccc" /><path
       style="color:#000000;fill:#ffc300;fill-opacity:1;fill-rule:nonzero;stroke:none;stroke-width:1.25px;marker:none;visibility:visible;display:inline;overflow:visible;enable-background:accumulate"
       d="m 270.08249,321.41043 c -0.0516,-6.73042 5.63424,-13.7224 9.2864,-17.37455 0.67847,-1.55358 -0.33863,-2.25466 -0.69898,-3.09547 -4.3106,2.61413 -7.56182,6.19783 -9.48611,10.68435 -1.79306,4.18058 -0.1017,7.15207 1.39796,10.48464"
       id="path3979"
       inkscape:connector-curvature="0"
       sodipodi:nodetypes="cccsc" /><path
       style="color:#000000;fill:#b78000;fill-opacity:1;fill-rule:nonzero;stroke:none;stroke-width:1.5625px;marker:none;visibility:visible;display:inline;overflow:visible;enable-background:accumulate"
       d="m 94.53964,151.55923 c -2.94356,11.96345 -7.63945,29.00012 -7.38918,39.9415 0.34252,14.97459 -1.1397,28.77886 4.094,39.84163 -1.4676,-23.40826 -1.1569,-59.30358 3.29518,-79.78313 z"
       id="path3995"
       inkscape:connector-curvature="0"
       sodipodi:nodetypes="cscc" /><path
       style="color:#000000;fill:#ffc300;fill-opacity:1;fill-rule:nonzero;stroke:none;stroke-width:1.25px;marker:none;visibility:visible;display:inline;overflow:visible;enable-background:accumulate"
       d="m 86.39861,244.06917 c 1.34783,-1.14506 3.1869,-1.94649 4.09522,-2.40065 -0.6869,1.59633 -1.82681,4.1344 -2.25943,5.64858 0.2732,3.73816 1.12971,8.06241 1.12971,12.00324 -1.54477,-3.08444 -2.15182,-6.42188 -3.53036,-9.17895 -0.0646,-2.54426 0.32271,-4.29646 0.56486,-6.07222 z"
       id="path4033"
       inkscape:connector-curvature="0" /><path
       style="color:#000000;fill:#ffc300;fill-opacity:1;fill-rule:nonzero;stroke:none;stroke-width:1.25px;marker:none;visibility:visible;display:inline;overflow:visible;enable-background:accumulate"
       d="m 82.51521,252.47143 c -0.69827,1.19617 -1.44475,2.59891 -1.977,3.53036 -0.1,2.84203 1.93643,5.65751 3.24793,5.57798 -1.70136,-2.42446 -1.27093,-6.03071 -1.27093,-9.10834 z"
       id="path4052"
       inkscape:connector-curvature="0"
       sodipodi:nodetypes="cccc" /><path
       style="fill:#c95f74;fill-opacity:1;stroke:none"
       d="m 192.596,287.95942 c -7.4038,-6.92191 -15.4841,-8.29584 -21.96782,-11.38332 -3.489,1.0282 -7.33016,3.39761 -9.68581,5.1924 10.58295,0.0475 14.99191,5.40572 19.27177,12.18215 8.30669,2.03813 15.67373,9.08981 19.47148,13.08083 1.59447,-6.78126 -4.01252,-16.23138 -7.08962,-19.07206 z"
       id="path4060"
       inkscape:connector-curvature="0"
       sodipodi:nodetypes="cccccc" /><path
       style="fill:#c9898c;fill-opacity:1;stroke:none"
       d="m 193.09526,288.15914 c -1.81744,-2.08292 -0.41533,-5.22593 2.89576,-3.79445 -2.66272,-1.54004 -14.19654,-8.2774 -16.57572,-9.58595 -4.63543,-0.88522 -7.98512,0.19758 -10.98391,2.19678 8.28563,1.32062 18.1917,6.9767 24.66387,11.18362 z"
       id="path4830"
       inkscape:connector-curvature="0"
       sodipodi:nodetypes="ccccc" /><path
       style="fill:#ffffff;stroke:none"
       d="m 207.97346,304.33544 c 0.4317,4.86237 3.56511,9.51136 9.27636,10.30793 2.18254,0.3044 2.98232,2.55319 4.2039,1.47481 2.52518,-2.22917 -3.80034,-3.78616 -7.08962,-5.39211 -3.53176,-1.72433 -4.12461,-3.63903 -6.39064,-6.39063 z"
       id="path4832"
       inkscape:connector-curvature="0"
       sodipodi:nodetypes="csssc" /><path
       style="fill:#a3455f;fill-opacity:1;stroke:none"
       d="m 205.77669,283.96528 c 7.35637,-0.55652 13.7464,-4.6154 19.57133,-7.38918 -7.62821,1.23474 -16.32284,3.92074 -22.56695,1.99708 -5.21024,-1.60516 -13.46113,-2.79591 -17.37454,-2.79591 4.82942,2.89832 7.67173,5.87355 10.88405,7.9883 1.53449,0.96589 5.9207,0.46944 9.48611,0.19971 z"
       id="path4836"
       inkscape:connector-curvature="0"
       sodipodi:nodetypes="scsccs" /><path
       style="opacity:0.98999999;color:#000000;fill:#99c4df;fill-opacity:1;fill-rule:nonzero;stroke:none;stroke-width:1.5625px;marker:none;visibility:visible;display:inline;overflow:visible;enable-background:accumulate"
       d="m 118.5249,286.2217 c 5.34074,-6.91036 18.0488,-10.36126 25.70104,-5.93101 -0.98323,0.93848 -1.54177,2.30687 -1.69456,3.24793 -7.46452,-4.24932 -17.08451,-1.124 -24.00648,2.68308 z"
       id="path5071"
       inkscape:connector-curvature="0"
       sodipodi:nodetypes="cccc" /><path
       style="color:#000000;fill:#b78000;fill-opacity:1;fill-rule:nonzero;stroke:none;stroke-width:1.25px;marker:none;visibility:visible;display:inline;overflow:visible;enable-background:accumulate"
       d="m 113.71155,292.95211 c 2.68258,-10.48105 12.53908,-17.68368 28.91121,-16.12993 1.34981,-2.4666 2.80607,-3.13868 5.13891,-3.34154 -1.52953,2.08241 -3.29383,3.89927 -4.99269,5.49195 -14.5136,-1.62501 -22.78062,3.5858 -29.05743,13.97952 z"
       id="path4895"
       inkscape:connector-curvature="0"
       sodipodi:nodetypes="ccccc" /><path
       style="color:#000000;fill:#ffc300;fill-opacity:1;fill-rule:nonzero;stroke:none;stroke-width:1px;marker:none;visibility:visible;display:inline;overflow:visible;enable-background:accumulate"
       d="m 147.12118,329.92638 c 5.63768,-0.89595 10.02659,-4.16047 15.21914,-2.92415 0.22372,-3.59181 -3.05686,-7.30789 -0.39942,-11.68289 -1.08751,0.48473 -14.09992,10.89445 -21.0538,11.57713 -5.92645,0.58182 -12.51447,-1.23006 -12.55211,-0.22187 -0.11977,3.20802 12.04247,4.3235 18.78619,3.25178 z"
       id="path4838"
       inkscape:connector-curvature="0"
       sodipodi:nodetypes="sccsss" /><path
       style="color:#000000;fill:#b78000;fill-opacity:1;fill-rule:nonzero;stroke:none;stroke-width:1.25px;marker:none;visibility:visible;display:inline;overflow:visible;enable-background:accumulate"
       d="m 138.49034,327.53281 c 3.82662,1.4661 12.11944,-1.25514 14.18789,-2.03442 4.07249,-1.53428 7.21162,-0.1062 8.34012,0.45805 -0.2674,-3.26413 -1.84357,-3.6015 -4.57735,-4.64294 -1.55946,0.94234 -13.17714,5.32015 -17.95066,6.21931 z"
       id="path4857"
       inkscape:connector-curvature="0"
       sodipodi:nodetypes="csccc" /><path
       style="color:#000000;fill:#ffc300;fill-opacity:1;fill-rule:nonzero;stroke:none;stroke-width:1px;marker:none;visibility:visible;display:inline;overflow:visible;enable-background:accumulate"
       d="m 108.11974,295.84787 c 1.76796,0.61903 1.90902,1.50646 2.69605,2.5962 -0.74153,14.35911 7.85872,24.71861 21.46855,27.95904 0.21019,1.11748 0.21378,1.99527 0.29956,2.79591 -12.6052,-0.81617 -23.0662,-13.61554 -23.0662,-25.16314 -0.0622,-2.96982 -0.23612,-6.18119 -1.39796,-8.18801 z"
       id="path4876"
       inkscape:connector-curvature="0" /><g
       id="g3160"
       transform="translate(-83.2,-12.8)"><g
         id="g3162"
         clip-path="url(#clipPath3164)"><g
           id="g3168"
           transform="translate(183.4097,325.3662)" /><g
           id="g3172"
           transform="translate(251.9609,293.5459)"><path
             d="m 29.916855,9.6851774 c 9.297416,10.9226586 9.728388,22.3061336 20.488767,24.1188916 1.528547,0.257508 1.139686,1.206094 -0.609069,1.228497 -3.374651,0.04323 -9.200085,0.53846 -13.95743,-4.683589 C 35.44014,29.911021 21.868429,14.231596 12.009716,11.56717 10.034467,6.5219488 8.4303901,6.0042615 5.4319275,3.838855 2.530763,1.7437146 -2.1146119,1.3044627 -5.2916119,0.08946271 -3.7057891,-1.5823669 1.0052714,-5.445582 10.23244,-4.0121374 17.3744,-0.47967103 24.626777,3.4703621 29.916855,9.6851774 z M 86.149,-32.971 c 0.791,0.928 4.570213,8.191329 5.722,10.948 1.146213,2.743329 10.86,26.105 13.893,35.237 C 98.113343,-0.21333283 89.992524,-16.615809 79.323,-25.901 75.622747,-28.960932 64.4,-38.746 49.355,-47.318 c 13.138548,1.681973 24.902471,11.408645 36.794,14.347 z M -36.89,-77.55 c 0.92,0.153 1.742,0.36 2.675,0.892 -6.035,1.371 -10.699,3.564 -16.406,5.527 -6.689,4.901 -19.386,16.817 -20.15,17.654 3.274,-10.457 11.131,-16.331 15.157,-26.034 6.709,-0.23 13.485,1.092 18.724,1.961 m -37.625,20.15 c 0.003,3.081 -0.306,6.829 0.356,8.916 0.375,1.179 1.656,1.783 1.784,3.388 0.256,3.201 -2.014,5.349 -3.567,7.186 -4.098561,4.847779 -1.523017,6.403855 -1.747248,11.52893 -0.208018,4.754519 -1.717541,4.201733 -1.861112,2.169085 -1.775,-7.16 -3.576518,-6.918039 -1.231518,-13.726039 -1.90212,0.04476 -4.452797,3.080719 -5.162972,5.050779 -2.585942,2.975062 -2.767314,5.234849 -4.669803,8.540548 -0.971592,1.688205 -2.016989,-5.364086 1.442657,-10.508303 1.005,-2.874 1.632,-3.419 3.779,-4.892 0.856,-0.586 1.887,-1.092 2.676,-1.782 1.588,-1.392 4.058,-3.007 4.635,-4.28 0.432268,-13.309525 -3.550825,-22.434134 -2.080432,-40.864858 1.259897,-15.792252 1.833613,-28.927802 6.538432,-42.410142 -0.377,3.6 -2.174154,40.68451 -2.267247,44.07248 C -76.339154,-68.71049 -74.536,-74.586 -74.515,-57.4 z m -8.297286,-40.054553 c -0.968295,17.315284 0.083,30.482417 1.72629,43.658553 -15.023593,-22.840502 -31.851194,-40.348857 -38.625004,-74.5 -1.46965,-7.40944 -2.405,-16.225 -2.771,-24.861 10.40473,18.69907 33.705741,33.97661 44.497052,27.7019 0,0 -4.125615,15.45217 -4.827338,28.000547 z M 88.338433,-132.44099 c 7.017535,4.05458 14.081137,13.10941 15.733027,18.72558 9.33065,31.722723 31.18974,26.331023 51.66126,39.717978 2.09,16.4 0.45328,25.869432 11.22828,47.578432 C 177.736,-4.71 237.87126,9.3074548 256.88962,8.3906877 247.11033,10.5717 215.52227,21.155642 186.49451,22.410181 151.31619,23.930539 122.73293,18.594133 116.98107,12.721214 110.6698,0.3283174 105.86879,-14.701604 103.624,-27.265 c -0.87065,-4.872757 -2.381,-12.075 -4.512,-14.089 -2.131,-2.014 -12.467497,-4.77738 -16.526,-6.285 -17.168159,-6.377491 -45.376276,-17.955311 -54.747,-30.981 2.054,-3.534 4.121,-9.852 4.12,-13.081 5.356,-1.309 10.147776,-4.865734 27.177776,-17.11373 17.03,-12.248 25.386224,-33.24427 26.110224,-38.22527 3.43,-3.05 10.08371,-6.09286 10.08871,-5.99386 -5.826,6.883 -6.313623,12.31368 -6.997277,20.59287 z m -22.321198,-62.98275 c 12.09498,8.6407 24.295166,15.22388 49.911765,21.22574 -10.515,1.777 -19.226875,2.24217 -22.551996,2.505 -24.989753,1.97526 -46.737163,-9.50765 -55.076,-25.877 -4.321507,-8.48323 -0.996,-17.062 -1.546,-27.271 8.637811,13.6406 21.161325,23.62994 29.262231,29.41726 z M -14.698,-152.71 c -3.158187,13.0451 -2.794551,31.27796 -2.348,36.059 0.446449,4.77996 -5.683,19.084 -5.579,19.842 -5.757,0.156 -10.991032,2.061771 -15.334,2.675 -11.351032,1.602771 -16.977,0.918 -25.857,-1.07 -4.449,3.991 -6.463,10.479 -8.559,16.762 -0.366,-17.846 0.614453,-37.56684 2.853,-56.527 0.0943,-0.79872 -0.757064,-1.73651 -1.605,-1.782 -2.717471,-0.14577 -3.56198,4.72631 -5.478245,5.92007 -14.243049,8.87284 -43.616195,-18.12669 -44.007285,-28.15623 -0.32024,-8.21264 15.15433,-22.44182 24.99156,-26.68436 32.987418,15.51895 47.55127,7.88323 51.737996,2.59885 15.539465,-19.61351 24.833249,-30.02447 40.4159887,-21.54131 9.3818595,-1.93675 19.5974653,-11.36254 24.6699763,-20.24103 -1.517,10.927 -4.394776,21.45839 -11.445991,30.00601 -11.9077604,14.43482 -20.453339,25.60987 -24.455,42.139 z m -2.577,52.335 c 0.839,-4.779 3.239327,-8.6829 3.388,-13.908 0.392073,-13.7794 -0.09174,-26.42703 3.197,-40.086 4.1568999,-17.26463 17.110636,-28.35863 25.835,-41.723 5.34642,-8.18988 8.544364,-21.86813 9.306,-25.54 1.378364,-6.64513 2.261415,-10.72968 2.361415,-17.30968 1.682245,-0.80229 2.75848,0.0206 3.074415,-0.98283 0.290153,-0.92151 -0.398433,-1.84721 -1.07,-2.318 -1.646601,-1.15431 -5.953644,-2.50083 -7.553048,-3.30542 -3.938567,-1.98134 -11.238372,-0.45472 -13.8529679,-1.56509 -2.5722054,-1.09237 6.9103799,-2.53798 4.4582199,-3.66197 -3.7998237,-1.74172 -6.2821989,-4.05022 -13.3805473,-4.62133 5.1611392,-1.56114 10.2511498,-1.87663 14.3925263,-0.18922 5.98747,2.43962 2.574096,-2.55875 1.125,-4.25 -1.738578,-2.0291 -3.729187,-2.49435 -7.8913289,-5.27678 5.2511799,1.66097 7.3440479,1.3408 12.6037299,5.04858 2.596908,1.83067 -4.342856,-8.54191 -1.8491,-7.54577 7.214951,2.88203 16.166377,15.37418 16.676686,22.08451 0.428666,5.63676 0.24345,10.979 0.178,18.188 -0.01055,1.162 -0.04579,7.647 -0.06,8.791 -0.203635,16.39221 0.22942,29.34863 15.949447,39.90959 22.353055,15.01715 41.863502,10.93487 77.906553,6.57741 1.92126,-0.23227 5.57889,-1.59356 7.154,-2.256 1.50912,-0.63469 7.33777,3.61721 11.2634,8.77642 0.51025,0.67058 8.78825,9.74266 9.4005,15.88232 0.1928,1.93336 -3.89981,-4.49571 -8.53225,-6.62092 4.4634,6.88417 4.87773,10.8183 3.53478,14.48376 -1.46012,-4.20197 -3.30825,-6.93002 -5.72326,-9.96979 -0.75488,-0.95016 1.94671,6.2027 -3.18328,12.8832 1.4438,-4.694 -0.72497,-10.45545 -1.23856,-11.67752 -1.37926,-3.28187 -1.36767,-4.64625 -2.26554,-0.49495 -0.9978,4.61334 -3.6695,5.90471 -4.49593,8.04578 -0.493,-2.202 1.94209,-7.41055 1.04129,-13.77602 -0.45286,-3.20011 0.12086,-6.11714 -0.72914,-8.95314 -0.945,-3.153 -3.18871,-1.09304 -7.46262,-0.91228 -2.87588,0.12162 -13.31348,1.40094 -20.87539,4.93113 -7.561089,3.52981 -19.888,10.545 -20.863,10.878 -0.749,-0.836 -0.744,-1.713 -2.318,-1.427 -0.726,9.21 -8.380108,25.36539 -22.166224,38.21227 C 46.501892,-101.41861 39.362,-96.843 34.437,-95.738 c -2.676,0.6 -4.624,0.639 -6.241,2.317 0.248,9.246 -4.04,16.143 -9.45,21.399 0.303,0.528 1.079,0.817 1.782,0.713 1.639,-0.68 3.41,-2.516 4.493,-3.677 13.513013,14.996452 31.884331,22.243181 53.084,29.235 7.477142,2.466021 17.248276,5.268249 18.024,7.378 6.58049,17.897077 9.64569,36.8974452 17.76343,54.529574 1.896,2.509 10.90412,4.381383 13.98072,5.103713 23.22691,5.453269 40.04056,6.220081 57.10634,5.462053 35.37025,-1.571074 59.56712,-12.862504 84.85243,-19.0292259 -11.5686,5.2127339 -43.28901,18.8258579 -74.06432,22.9699759 -25.43362,3.424821 -58.60735,-1.018156 -76.2726,-6.750087 -0.907,-1.827 -2.391,-3.728 -3.379,-4.793 -0.988,-1.065 -1.865,-2.676 -3.04,-1.269 0.655,2.439 2.38969,3.816135 3.264,5.832 0.71569,1.650135 0.0773,3.330055 0,5.095 -0.0497,1.136056 -0.22808,3.575075 2.433,6.54 3.24192,3.612075 3.90226,5.487491 2.06845,4.621385 -2.746,-1.424 -6.02245,-3.252385 -6.93545,-4.697385 -0.913,-1.445 -0.91421,-2.927453 -0.912,-3.802 0.006,-2.219625 0.94829,-6.145625 -1.167,-4.853 -2.04685,1.2508 -1.41102,8.357705 0.0458,14.72991 1.10916,4.851474 1.5481,5.214889 0.76527,6.322729 -2.40897,-1.783147 -5.64074,-9.324439 -5.09566,-11.049194 1.30856,-4.14061 1.67226,-10.153722 -1.16098,-2.046307 -1.18442,2.804146 -1.71189,3.132138 -2.51977,9.575806 -0.68715,5.480699 -3.27754,-4.372228 -2.42512,-9.814635 0.37057,-2.366012 4.60212,-10.499397 8.36845,-11.991309 0.532,-1.369 0.38,-2.357 0.061,-4.286 -2.44615,-16.5325322 -16.182849,-35.178758 -18.984,-50.773 -0.270812,-1.507632 1.992,-3.264 0.973,-4.684 -3.696,2.36 -9.504195,-0.174435 -13.826,-2.394 -16.69757,-8.575429 -35.759914,-13.799703 -51.081,-16.328 -1.270404,-0.209643 -6.196157,0.725129 -9.158,-2.879 -3.019157,-3.673871 -3.07129,-6.056928 -5.61329,-7.293928 -3.6486489,2.360479 -5.5358186,1.710826 -8.0393429,4.16671 -12.9453813,12.699039 -5.3293179,24.369088 -8.1235105,31.989777 -5.6495713,-0.487997 -12.8055976,-0.30771 -18.5670096,3.830881 -5.642449,4.053138 -5.206969,6.949209 -4.875549,9.303907 3.120692,-6.772405 12.265165,-8.545115 16.516564,-8.582686 17.2119175,-0.152107 41.357781,4.10642 70.610126,11.732321 8.326942,2.170781 20.827898,4.6046877 25.332689,10.6484827 C 78.791632,-5.6856032 70.576193,-8.4781663 57.52443,-6.5932665 48.036619,-5.2230629 43.067673,-2.6217195 28.599545,-5.6059639 11.610167,-9.1102495 -0.04866221,-9.9334931 -7.1175373,-4.4466597 -8.9000021,-3.0631174 -12.857631,1.7453519 -11.747,3.941 c 0.629721,1.244918 1.709537,-0.1062891 2.853,0 17.8475841,1.6589991 16.9777462,8.909275 24.849,22.104 1.462598,2.451779 5.600193,7.14453 7.642148,9.110577 3.903045,3.757953 13.396355,7.511612 28.088512,19.779423 14.675843,12.254189 16.768663,17.430127 23.307286,24.50897 2.783885,3.013889 12.79171,10.621462 9.658591,12.494517 C 81.889833,93.589501 73.54633,92.50859 69.419313,91.527666 45.213989,85.774462 21.551805,79.666619 0.29496542,77.878499 -8.5455894,77.134834 -11.931016,73.658405 -17.230563,67.525754 c -1.687485,-1.952762 -3.256716,-3.245006 -6.43266,-2.866537 -3.596056,0.428531 -18.163795,0.984016 -32.610995,-6.239584 C -73.041018,50.036233 -76.606,36.854 -76.606,36.438 c -3.779,-0.894 -20.740043,-7.711492 -41.49257,-25.15729 -10.38905,-8.7336433 -34.56276,-25.867132 -41.15889,-38.31371 -0.62827,-1.185519 -0.95754,-4.099226 1.69507,-2.763048 11.95088,6.020006 28.0551,12.141946 39.22357,15.97841 26.297817,9.0335183 37.996764,9.3832598 46.340916,9.5271065 -1.285,2.572 -3.946123,10.3810745 -2.524123,12.9600745 1.275,-0.924 2.646463,-5.9546327 3.165287,-7.668148 4.877249,-16.108039 13.453903,-26.93197 29.39974,-29.989395 3.638324,-0.697606 14.161,-15.877 19.154,-26.094 4.993,-10.217 4.256,-15.755 4.993,-19.437 1.409,-0.945 5.789,-2.777 2.675,-4.458 -8.52,3.352 -16.941,-1.787 -25.143,-2.853 -5.951,-0.772 -10.8,-1.112 -16.583,-1.783 -0.672,-0.666 -0.735,-2.79 -1.784,-2.496 -1.605,1.588 -0.377,3.29 -0.832,6.558 -0.454,3.268 -6.105,9.673 -8.262,13.413 -1.164,2.019 -2.812,4.471 -4.083,7.375 -0.14,-1.755 0.077,-10.055 0.272,-11.074 0.723,-3.785 1.688673,-6.827135 3.29,-10.714 1.712673,-4.157135 3.663,-8.085 6.241,-10.165 1.111,-0.201 7.13101,0.425927 9.351,0.726 10.072945,1.149939 19.814668,-2.115273 29.687,-3.252 4.506316,-0.518869 6.91,1.096 10.521,2.497 0.904,-3.162 -3.067,-3.249 -4.586,-4.907 -1.52,-1.659 -0.625,-2.464 -0.229,-4.723 m -97.01166,83.694478 c -13.17134,-4.281874 -32.90907,-11.482369 -42.34246,-16.462845 -9.54233,-5.037991 -7.5876,5.322704 -0.79193,13.01966 1.03042,1.16708 13.07417,17.2270811 32.38734,31.233858 C -107.1817,24.057231 -97.212,33.325 -79.209,39.45 c 1.134,4.615 6.764697,13.806797 21.334782,21.350633 14.902915,7.716164 28.491728,8.134669 34.454043,7.334998 3.121333,-0.418635 3.352215,3.586253 8.717617,7.09275 5.0475469,3.298768 12.9473055,6.871163 18.3286646,7.042401 11.6961164,0.372178 49.4729514,8.196854 58.0007234,10.678953 10.093625,2.937856 13.716104,2.473623 21.968731,3.132167 2.131532,0.170092 6.706051,-2.991514 6.706051,-6.319514 0,-1.914 -10.063421,-8.794197 -12.142421,-11.598197 -6.506,-8.775 -14.560566,-17.404796 -20.985074,-23.468319 C 46.193433,44.33218 33.806978,36.939858 23.937876,29.586121 c -3.384897,-2.52218 -7.797183,-9.818511 -9.164453,-13.08713 6.859,2.436 16.16668,12.317631 19.38538,15.63069 6.542265,6.734056 16.950491,6.593647 20.499063,3.616442 C 54.990501,35.467046 58.417824,30.0297 52.959362,31.362245 47.489488,32.697576 39.978403,22.923936 33.867248,8.246331 32.154186,4.1319458 25.894735,-0.17191284 19.191708,-3.1839505 c 4.836721,0.6090374 5.484263,0.1459532 9.843273,1.587932 C 39.584399,1.893773 51.969477,-2.0021606 55.80027,-2.5391355 83.854114,-6.4715358 90.011625,2.9434868 91.572816,-0.05397019 93.594464,-3.9354952 75.310946,-13.950648 61.870085,-17.153671 54.879358,-18.819596 16.064985,-27.618516 1.2055641,-28.648271 1.4196991,-39.923386 -3.3634593,-49.645477 6.0993671,-58.770218 7.3092613,-59.936885 8.85,-62.266 11.078,-62.928 c 1.851,1.477 2.350723,4.479177 3.811,6.344 1.452963,1.855483 3.790898,2.873655 6.357,3.274 6.522898,1.017655 12.749,1.454 16.24,3.024 12.484,5.601 33.852062,20.42994 41.533,28.339 9.595236,13.8037732 21.37574,28.3718713 27.39136,42.465316 -3.98117,0.235609 -8.483281,12.120287 -8.712781,13.659792 -0.465997,3.125927 2.788161,15.50609 6.117331,15.68176 4.46471,0.235589 0.23018,-5.154009 2.88523,-6.613316 2.70686,7.287718 4.91626,9.350167 5.89397,11.093907 0.75125,1.339858 3.90092,-5.371901 3.61673,-6.813863 -1.05581,-5.357038 -0.95684,-0.70895 -1.15784,-7.30395 5.716,4.985 0.69309,1.776008 8.62945,5.503742 1.58024,0.742243 2.95654,-2.145752 2.496,-3.047003 -1.14258,-2.235986 -3.44957,-7.84292 -4.64288,-9.903742 -0.68569,-1.184178 0.20593,-1.999568 0.81493,-3.520568 22.8183,6.776979 39.51394,7.378465 63.73207,7.066502 33.18574,-0.427479 78.28092,-22.185571 79.48106,-22.77346 C 269.43628,11.65109 281.25466,4.394319 281.1127,2.0610692 281.0755,1.4494736 264.76475,5.7810476 262.17975,5.6290476 220.51103,3.4477402 184.7405,-13.476938 173.95241,-24.533345 157.89018,-40.995063 159.15585,-62.631318 161.08,-77.118 148.68907,-81.385339 134.72146,-85.469526 123.21751,-92.637358 106.71221,-102.92141 106.24355,-126.81372 91.459003,-136.53101 93.256769,-147.61821 98.011,-150.094 107.2,-158.914 c 5.196,-2.806 16.59879,-2.23771 22.54279,-3.90171 2.25426,6.95016 1.05628,16.51937 -2.37323,26.62972 -1.57227,4.63512 10.5263,-3.35299 11.4293,-7.97799 1.461,5.46163 -0.18444,8.85004 0.57056,9.72584 1.57921,1.83188 6.48769,-5.19879 6.30209,-7.77578 2.2164,1.71438 3.86624,3.68624 4.71142,6.9945 0.40424,1.58229 2.05027,0.43085 2.317,-0.178 0.87705,-2.00193 0.66715,-9.43214 -0.0139,-12.11314 6.90207,7.96247 5.74149,0.655 5.65478,-2.27268 -0.22062,-7.4488 -7.17477,-13.6103 -9.2152,-16.76055 -2.19238,-3.38483 -8.52495,-6.87545 -11.44166,-9.97321 -2.1362,-2.2688 -6.415,-0.189 -9.986,0 -37.988001,-7.43925 -70.417002,-22.15201 -91.121,-57.24 -0.424,-4.792 0.542,-11.125 -0.178,-15.514 -2.369512,-9.05679 -11.815385,-20.57713 -23.628087,-25.72085 -4.4963226,-1.95788 1.542248,8.81614 -2.088349,7.09234 -4.1922729,-1.99048 -6.0423796,-2.22469 -10.58882768,-1.82641 -7.37396902,0.64597 -2.82510502,3.30663 -2.27428702,3.581 4.0821138,2.03341 5.4101234,1.66952 9.4975478,6.53985 -3.1437324,-0.89691 -14.0934135,0.5348 -16.0797943,5.25798 -0.8567889,2.03726 7.6750613,1.59782 12.2770613,3.31382 1.9261559,0.71823 -11.5402933,5.57651 -3.87595588,7.99927 2.53633998,0.80176 9.43819648,0.0192 12.28687878,0.25613 5.52445,0.45939 8.048441,1.14252 10.921813,3.49387 -0.714105,2.16947 -0.522138,6.20576 -1.844015,8.72168 -1.793518,3.41358 -6.165095,9.76533 -9.179093,12.98417 -4.9628178,5.30011 -9.2434663,5.14542 -13.8615814,7.1813 -30.9660996,-11.15981 -33.2277556,18.04157 -45.6041396,26.03047 -17.85784,11.52715 -36.773343,0.37307 -49.433041,-6.35935 -16.09398,10.67597 -27.49257,23.32984 -28.26013,33.29103 -0.44808,5.81502 -1.17082,12.04158 0.891,24.0717 6.31707,36.858305 24.642055,61.035897 40.955568,84.488928 0.07,0.842 -0.058,1.487 -0.179,2.14 -2.772,1.793 -5.177713,4.031643 -7.975713,7.133643 -2.736849,5.057505 -4.393103,18.849248 -0.246658,20.900878 1.607,0.065 2.296585,-1.610779 3.523585,-3.452779 1.238,-1.86 3.31983,-9.349748 5.07783,-10.668748 -0.956227,3.565574 1.058715,5.748821 1.755363,10.465833 0.98018,6.636813 5.736392,3.492906 6.643629,-3.600653 1.030502,-8.057351 -0.830787,-4.92004 0.896541,-7.51203 2.117896,-3.178069 5.542999,-7.251901 5.910785,-9.349643 0.392875,-2.240837 -1.72493,-4.595429 -2.86693,-5.845429 6.460684,-7.582843 13.66696,-12.935261 21.185,-19.087 9.714,-3.631 14.013,-5.213 18.519,-6.536 2.906,-0.853 6.495,-0.799 9.333,1.015 -0.212,2.788 -0.254868,12.511088 -7.517,23.404 -5.396868,8.095088 -8.957592,16.92187 -19.172633,19.208511 -8.755468,1.959914 -18.482271,9.277707 -22.653809,21.2630053 -12.259713,-0.4151228 -18.255303,0.7693715 -43.031218,-7.2850383 z"
             style="fill:#000000;fill-opacity:1;fill-rule:evenodd;stroke:none"
             id="path3174"
             inkscape:connector-curvature="0"
             sodipodi:nodetypes="sssscsccscsccccccccccccccscccsccccscscscsccscscscscsssccscccscsscssscsccsssscsccsscsssscssssscsscssssssssssccscsscssssccscccccsscsscscscssscsssscscssccscssscscscsscssssssssssssssscssssccssscccccccccsccsccccssscsssssssssscsssscsssscscsscccsscsscssscssscscscccscscsscssscccsssscsssscsscscssccccccssssccccsscsc" /></g><g
           id="g3176"
           transform="translate(212.937,326.2275)"><path
             d="m -13.106766,5.656804 c 9.0182213,11.638116 28.820967,12.545922 38.777117,4.957967 0.854161,-0.6509878 3.658552,-0.8896455 4.789387,-0.7117705 -1.138784,-1.216518 -1.221436,-2.8405339 0.05479,-4.4986532 2.951228,-3.8343281 5.676199,-13.2489557 3.346336,-19.6964953 -0.27162,-0.751669 2.635898,-0.512593 0.408768,-1.751146 -9.181817,-0.644256 -14.637603,-5.941587 -16.08834,-9.097982 -1.450736,-3.156394 -2.600201,-7.237751 -1.44726,-11.192515 0.334875,-1.142512 1.492035,-1.748556 1.034751,-2.89336 -0.897966,-2.248043 -3.822059,2.473056 -4.659824,4.191459 -5.5682227,-0.988673 -10.3412897,-0.621369 -13.18944217,0.07959 -4.16833553,1.025869 -8.04075843,3.890805 -9.93797883,6.68671 5.4592232,-3.505874 9.16924216,-5.178438 12.9471627,-5.453355 4.3207408,-0.314418 5.9782057,-0.04414 9.8142993,1.021995 -0.78362,5.494979 1.459547,9.17484 4.206153,12.354339 3.534648,4.091745 10.650135,5.955655 13.706878,5.589495 C 32.684059,-5.2040999 28.626379,1.816839 24.75407,5.4855429 18.830174,11.097962 10.855839,12.673281 4.2370799,11.565999 -3.1854625,10.324249 -16.524738,4.1545433 -17.940106,-13.501253 c -0.143817,-1.794023 -1.24672,-3.02871 -2.13216,-3.169581 -0.113648,0.657136 0.586934,2.385645 0.527579,3.882372 -0.174133,4.3910388 0.521599,10.8101861 6.437921,18.445266 z"
             style="fill:#000000;fill-opacity:1;fill-rule:evenodd;stroke:none"
             id="path3178"
             inkscape:connector-curvature="0"
             sodipodi:nodetypes="sscsscscscscscscssscss" /></g><g
           id="g3180"
           transform="translate(244.418,355.0127)"><path
             d="m 1.4607342,2.9120478 c 3.4482,2.5065505 8.2485743,4.7046225 8.8168268,3.5345373 C 11.2673,4.4086202 7.1561622,0.20131312 4.8819295,-1.0915201 1.9399852,-2.7639273 -1.7540724,-4.1327588 -3.2784388,-2.7124149 c -0.9973711,0.9293106 2.36467513,3.8984031 4.739173,5.6244627 z"
             style="fill:#000000;fill-opacity:1;fill-rule:evenodd;stroke:none"
             id="path3182"
             inkscape:connector-curvature="0"
             sodipodi:nodetypes="sssss" /></g></g></g><path
       inkscape:connector-curvature="0"
       d="m 100.2097,312.5662 c 1.126,3.749 3.03,6.718 4.993,9.629 2.552,1.879 3.417,2.487 5.448,1.544 0.243,-0.164 0.243,-0.383 0.179,-0.535 -3.363,-3.829 -6.278,-8.107 -8.203,-13.374 -1.757,0.205 -2.246,1.001 -2.417,2.736"
       style="color:#000000;fill:#ffc300;fill-opacity:1;fill-rule:nonzero;stroke:none;stroke-width:0.80000001px;marker:none;visibility:visible;display:inline;overflow:visible;enable-background:accumulate"
       id="path3170" /><path
       sodipodi:type="arc"
       style="opacity:0.98999999;color:#000000;fill:#ffffff;fill-opacity:1;fill-rule:nonzero;stroke:none;stroke-width:1;marker:none;visibility:visible;display:inline;overflow:visible;enable-background:accumulate"
       id="path3090"
       sodipodi:cx="284.19418"
       sodipodi:cy="106.21278"
       sodipodi:rx="4.5894713"
       sodipodi:ry="4.5894713"
       d="m 288.78365,106.21278 c 0,2.5347 -2.05477,4.58948 -4.58947,4.58948 -2.53469,0 -4.58947,-2.05478 -4.58947,-4.58948 0,-2.53469 2.05478,-4.58947 4.58947,-4.58947 2.5347,0 4.58947,2.05478 4.58947,4.58947 z"
       transform="matrix(0.8,0,0,-0.8,-83.2,401.2)" /><path
       transform="matrix(0.46153847,0,0,-0.46153847,6.069287,369.91114)"
       d="m 288.78365,106.21278 c 0,2.5347 -2.05477,4.58948 -4.58947,4.58948 -2.53469,0 -4.58947,-2.05478 -4.58947,-4.58948 0,-2.53469 2.05478,-4.58947 4.58947,-4.58947 2.5347,0 4.58947,2.05478 4.58947,4.58947 z"
       sodipodi:ry="4.5894713"
       sodipodi:rx="4.5894713"
       sodipodi:cy="106.21278"
       sodipodi:cx="284.19418"
       id="path3092"
       style="opacity:0.98999999;color:#000000;fill:#ffffff;fill-opacity:1;fill-rule:nonzero;stroke:none;stroke-width:1;marker:none;visibility:visible;display:inline;overflow:visible;enable-background:accumulate"
       sodipodi:type="arc" /><path
       style="color:#000000;fill:#000000;stroke:#000000;stroke-width:0.80000001px;stroke-linecap:butt;stroke-linejoin:miter;stroke-miterlimit:4;stroke-opacity:1;stroke-dasharray:none;stroke-dashoffset:0;marker:none;visibility:visible;display:inline;overflow:visible;enable-background:accumulate"
       d="m 255.50385,279.97114 c -9.5429,-1.5415 -17.49945,-1.00908 -26.56109,3.99414 -8.69185,4.79904 -16.48256,6.79006 -28.15875,3.79445 -1.56608,-1.32635 -4.36151,-4.26967 -4.79298,-4.59327 7.28571,4.08782 23.54936,3.27293 29.35699,-0.59913 6.86073,-4.57419 22.05731,-6.64339 29.55671,-4.39356 0.23545,0.4076 0.66569,0.66569 0.59912,1.79737 z"
       id="path3113"
       inkscape:connector-curvature="0"
       sodipodi:nodetypes="csccscc" /><path
       style="fill:#000000;stroke:none"
       d="m 83.78646,265.80899 c 0.91605,0.69056 2.74305,-1.47321 2.69679,-1.89359 -0.28697,-2.60794 0.15951,-4.02189 0.28391,-6.62331 -0.18639,-0.84882 0.55531,-3.88737 0.47239,-5.49592 -0.0701,-1.35955 -0.61794,-0.39533 -1.34496,-0.42196 -2.4497,3.99558 -1.52344,7.58633 -1.70271,9.97851 -1.56659,0.27638 -2.87955,-1.88055 -2.90188,-6.89637 -1.13164,0.68588 -1.54564,3.75289 -1.88399,3.81099 0.84554,3.9726 1.85726,5.63953 4.38045,7.54165 z"
       id="path3017"
       inkscape:connector-curvature="0"
       sodipodi:nodetypes="sscsccccs" /><path
       style="color:#000000;fill:#b78000;fill-opacity:1;fill-rule:nonzero;stroke:none;stroke-width:1.5625px;marker:none;visibility:visible;display:inline;overflow:visible;enable-background:accumulate"
       d="m 177.9056,17.13747 c 5.79158,2.027416 9.7957,6.58888 13.41538,10.449872 -2.02438,-10.239352 -10.81952,-13.27416 -19.34639,-13.27416 1.98069,0.933656 3.90974,1.982096 5.93101,2.824288 z"
       id="path3898"
       inkscape:connector-curvature="0" /></g></svg>