<?xml version="1.0" encoding="utf-8"?>

<!DOCTYPE svg PUBLIC "-//W3C//DTD SVG 1.1//EN" "http://www.w3.org/Graphics/SVG/1.1/DTD/svg11.dtd">
<svg version="1.1" id="Layer_1" xmlns="http://www.w3.org/2000/svg" xmlns:xlink="http://www.w3.org/1999/xlink" x="0px" y="0px"
	 viewBox="0 0 1123 1920" enable-background="new 0 0 1123 1920" xml:space="preserve">
<g>
	<path fill="#201E1F" d="M277.02,13.54c16.53,1.52,32.2,8.37,45.59,17.99c-15.31-3.37-31.56-1.54-45.93,4.63
		C276.83,28.62,276.98,21.08,277.02,13.54z"/>
	<path fill="#201E1F" d="M110.62,45.62c5.16-3.98,10.92-7.06,16.72-10c2.82,7.03,4.98,14.32,7.52,21.46
		c-10.41-0.58-21.04-0.01-30.95,3.5c-4.95,1.49-9.5,3.96-14.17,6.15C95.98,59.03,102.59,51.51,110.62,45.62z"/>
	<path fill="#201E1F" d="M231.23,66.27c25.17-7.47,51.44-12.53,77.8-11.1c25.2,1.22,50.4,9.65,69.91,25.92
		c22.28,18.32,36.45,44.57,45.45,71.57c9.12,27.6,13.68,56.5,15.95,85.42c0.23,3.44,0.96,6.9,0.58,10.35
		c-1.98,7.69-0.54,15.74-0.51,23.58c0.48-1.55,0.94-3.1,1.4-4.65c0.31,2.67,0.57,5.39,0.24,8.07c-1.65,6.08-0.88,12.41-1.07,18.62
		c-0.14,3.52,0.15,7.05,1.07,10.47c0.15,10.81-0.57,21.65-1.02,32.46c-3.09,60.56-8.75,120.95-15.09,181.25l-0.48,0.38
		c-2.42,1.32-1.26,4.22-0.49,6.19c0.37,2.88-0.42,5.79-0.68,8.67c-2.38,22.26-4.92,44.5-7.43,66.7401l-0.44,0.31
		c-2.25,1-1.39,3.68-0.61,5.41l0.25,0.8c-8.58,74.55-17.82,149.03-26.15,223.62l-0.44,0.35c-2.39,1.29-1.38,4.19-0.55,6.16
		c-0.06,7.72-1.68,15.48-2.24,23.24c-0.98,9.27-1.91,18.55-2.89,27.83l-0.42,0.34c-2.16,1.2-1.35,3.82-0.54,5.63
		c0.24,5.34-0.9,10.81-1.22,16.21c-3.69,37.24-6.74,74.55-8.74,111.92c-1.27,28.2899-2.26,56.65-0.85,84.96
		c0,1.42,0.32,2.9,0.04,4.34c-1.38,3.42-1.15,7.12-0.72,10.7201c0.31-0.4701,0.92-1.4,1.23-1.8601l0.19-0.2999
		c1.32,14.37,3.05,28.85,7.56,42.62c2.67,8.34,7.47,15.75,12.41,22.91c18.88,26.85,46.08,48.49,77.73,57.99
		c23.26,6.52,47.58,6.85,71.51,8.5299c25.3701,1.7301,51.29,4.14,74.95,14.15c17.35,7.14,32.82,18.64,44.92,32.9701
		c14.8799,17.58,25.16,38.61,32.64,60.2799c56.97-47.5299,109.51-101.1599,151.11-162.8199c23.69-35.24,43.65-73.12,57.83-113.1901
		C918.56,1040.92,927.01,996.1,928,951.07c1.16-48.94-6.42-97.88-20.46-144.71c-13.1-43.91-31.72-86.05-53.73-126.2
		c-27.56-50.1299-60.38-97.24-96.14-141.84c-32.35-40.36-67.23-78.64-103.54-115.45c-4.47-4.41-2.69-12.69,3.01-15.13
		c3.84-2.03,8.04-0.11,11.8,1.1c72.42,22.49,141.75,56,202.58,101.5c68.89,51.26,126.1,118.14,165.7,194.36
		c43.77,83.61,66.4601,177.31,71.39,271.29c0.04,2.4,0.55,4.85,0.21,7.26c-0.7799,2.16-1.2699,4.42-1.1399,6.74
		c0.1499,17.34,0.3899,34.6801,0.0299,52.03c0.2001,4.91-0.8999,10.08,1.13,14.75c-1.4199,44.48-6.7999,89.08-18.21,132.2
		c-21.38,81.6901-61.61,157.76-113.38,224.2101c-48.02,61.6399-105.81,115.47-169.7,160.36
		c-52.1,36.5299-108.35,67.2799-167.62,90.49c24.27,29.22,44.05,63.0699,52.54,100.38c5.19,23.2,5.63,47.83-1.4,70.7
		c-8.33,28.3101-28.99,52.4301-55.04,66.05c-5.77,2.8099-11.58,6.02-18.0601,6.75c-3.84,0.6-7.67,1.1799-11.47,1.95
		c-1.95-0.7999-3.89-1.58-5.83-2.33c6.28-1.99,11.53-6.51,14.75-12.22c0.53,0.6399,1.6,1.9099,2.13,2.5499
		c-0.03,0.28-0.08,0.85-0.11,1.13c14.51-5.88,28.32-13.9,39.44-25.04c13.98-13.73,23.54-31.7999,27.4-50.99
		c4.0099-18.7899,2.95-38.3999-1.29-57.0499c-7.92-34.4-26.05-65.65-48.08-92.92c-3.67-4.75-7.91-9.03-11.56-13.79
		c19.79-35.9299,37.62-73.0599,51.32-111.76c17.59-50.0599,27.34-104.1699,19.01-157.08c-4.75-19.76-11.45-39.16-20.88-57.1899
		c-8.08-15.4-18.64-29.64-31.98-40.88c-12.67-10.64-27.78-18.2101-43.69-22.62c-21.26-6.05-43.44-7.4-65.39-8.77
		c-24.12-1.6-48.81-2.52-71.76-10.87c-31.34-11.49-58.06-33.9501-76.7-61.4401c-5.69-8.25-10.58-17.1599-13.14-26.9
		c-5.45-20.08-7.07-40.98-7.77-61.7c-1.15-29.01,0.08-58.03,1.51-87.01c4.74-81.57,14.08-162.78,23.38-243.93
		c11.6-99.33,24.09-198.56,33.86-298.09c4.77-49.56,8.89-99.2,11.02-148.96c1.51-49.89,0.59-100.5-11.68-149.16
		c-7.36-28.49-19.28-56.88-40.46-77.92c-16.73-16.83-39.54-26.9-63.01-29.45c-28.98-3.4-58.14,2.4-85.8,10.81
		c-19.19,5.95-37.83,13.54-56.11,21.86c-7.04,3.27-13.66,7.32-20.38,11.18c3.98-4.62,9.06-8.05,13.83-11.76
		c-12.43-3.89-27.09-5.1-38.37,2.59c-12.16,8.47-17.73,23.06-21.45,36.82c6.42-5.29,12.96-10.62,20.54-14.17
		c-9,7.05-17.7,14.55-25.47,22.97C75.94,175.5,51.89,209.68,38.4,248.38c-8.06,23.24-12.04,48.08-10.1,72.67
		c2.44,33.89,16.21,66.64,37.99,92.64c20.67,24.86,48.24,44.11,79.02,54.17c19.53,6.26,40.61,8.56,60.86,4.68
		c18.38-3.61,35.72-13.1,47.97-27.38c3.22-3.57,5.84-7.62,8.77-11.41c2.91,13.22,6.31,26.38,11.2,39.03
		c2.55,6.07,5.37,12.3,10.15,16.98c2.88,2.94,7.46,4.38,11.36,2.65c5.02-2.22,8.75-6.52,11.84-10.93
		c7.68-11.04,13.15-23.41,18.31-35.78c6.93-16.86,12.82-34.13,18.44-51.47c0.83-2.5,2.44-5.98,5.67-5.38
		c3.55,1.3,5.64,4.84,7.23,8.07c4.47,10.02,5.72,21.17,5.44,32.05c-0.17,10.91-2.2,21.72-5.17,32.19
		c-49.71,168.74-96.56,338.43-135.13,510.09c-22.45,101.1-42.19,202.9301-54.4,305.8199c-6.08,54.0701-10.34,108.4601-9.51,162.92
		c1.08,46.59,5.14,93.71,19.51,138.29c6.87,20.9099,16.36,41.1599,29.72,58.74c14.15-32.38,30.85-64.3101,55.21-90.28
		c7.42-7.89,15.43-15.29,24.21-21.64c1.65-1.71,5.1-1.28,5.6,1.27c0.78,2.05-1.31,3.41-2.66,4.53
		c-13.77,10.0699-25.56,22.62-35.9,36.14c-11.02,14.71-20.85,30.33-29.21,46.72c-9.22,18.37-16.62,37.87-19.69,58.28
		c-2.75,17.84-1.86,36.45,4.19,53.5599c6.24,18.24,18.17,34.0801,32.52,46.76c-1.92,1.08-3.83,2.16-5.75,3.25
		c-11.1-10.36-21.05-22.1899-27.69-35.9399c-10.98-22.05-13.1-47.75-8.75-71.79c1.27-8.67,3.66-17.12,6.11-25.51
		c-11.04-12.3-19-26.95-25.46-42.0699c-7.6,21.01-13.77,42.59-17.39,64.6599c-3.49,20.87-4.22,42.3201-0.62,63.24
		c3.93,0.01,8.13-0.2999,11.7,1.6801c8.11,4.02,13.21,12.34,15.57,20.84c-1.11-0.62-2.2-1.21-3.3-1.7899
		c-2.3-5.89-6.02-11.3501-11.21-15.03c-5.51-4.13-14.3-3.59-18.7,1.9399c-0.75-0.21-1.5-0.4099-2.24-0.58
		c0.18-3.89,0.52-7.84-0.58-11.61c-0.26,0.52-0.79,1.5499-1.05,2.0699l-0.24,0.4601c-0.34-4.14-1.41-8.29-1.22-12.42
		c2.17-4.29,1.01-9.1901,1.24-13.78c-0.48-11.49,1.06-22.9199,2.58-34.28c0.35-1.8899-0.1-3.76-0.64-5.5399
		c2.7-18.42,8.19-36.4301,13.94-54.14c1.64-4.25,2.58-8.8201,5-12.72c-17.48-46.3-22.37-96.1801-24.13-145.29
		c0.03-0.35,0.1-1.04,0.14-1.39c1.69-4.35,0.9-9.04,0.96-13.5699c0.03-5.66,0.01-11.3201-0.03-16.9701
		c-0.1-4.89,0.84-9.9399-0.94-14.64c-0.17-9.2999,0.8-18.62,0.96-27.9299l0.19-0.25c3.06-3.52,1.73-8.84,0.68-12.9301
		c0.94-21.48,3.09-42.9299,5.21-64.34l0.39-0.33c2.13-1.2101,1.47-3.79,0.61-5.5601c-0.2-6.03,1.15-12.1799,1.71-18.23
		c9.87-83.53,25.18-166.3,42.2-248.63l0.14,0.16c0.38,0.41,1.13,1.23,1.5,1.64c1.1-6.26,2.45-12.47,3.98-18.64
		c0.6-2.08,0.29-4.23-0.39-6.23c3.07-16.48,7.13-32.82,10.71-49.21c8.59-37.91,17.72-75.7,27.02-113.44l0.17-0.02
		c0.41-0.03,1.22-0.11,1.63-0.14c1.13-3.88,1.89-7.84,3-11.71c0.99-4.07,2.84-8.23,1.56-12.46c1.85-9.46,4.76-18.79,6.96-28.21
		c27.76-107.63,57.86-214.63,89.27-321.25c5.78-18.43,9.08-38.59,3.78-57.54c-6.79,19.79-13.8,39.57-22.94,58.42
		c-4.69,9.57-9.84,19.03-16.73,27.22c-3.88,4.49-8.52,8.74-14.35,10.4c-5.28,1.48-11.05,0.1-15.39-3.16
		c-5.81-4.34-9.66-10.71-12.84-17.11c-4.18-8.67-7.3-17.82-9.75-27.11c-11.63,11.87-26.26,20.82-42.32,25.19
		c-24.78,7-51.46,4.41-75.64-3.7c-27.67-9.35-52.77-25.85-72.94-46.92c-24.57-25.51-41.63-58.43-47.1-93.51
		c-0.57-4.37-1.63-8.77-1.46-13.19c1.62-4.41,0.92-9.14,0.95-13.73c-0.11-4.9,0.64-9.92-0.94-14.66
		c1.14-19.28,6.15-38.27,12.98-56.31c14.07-36.29,36.89-68.59,63.19-97.03c1.54-1.84,3.81-3.32,4.17-5.86
		c3.78-14.54,9.64-29.42,21.18-39.59c9.56-8.56,22.94-11.95,35.54-10.37c5.74,0.34,11.24,2.49,16.79,3.41
		C191.85,80.06,211.24,72.26,231.23,66.27 M661.87,416.89c17.17,17.91,34.47,35.72,51.05,54.2
		c59.87,66.46,114.58,138.29,156.35,217.63C890.09,728.53,907.56,770.21,919.58,813.53c13.56,48.48,20.16,99.08,17.6,149.42
		c-2.24,46.23-12.25,92.02-28.96,135.16c-14.78,38.51-34.73,74.9501-58.1299,108.89c-42.13,61.29-95.07,114.41-151.97,162
		c0.8,9.66,2.95,19.2,3.68,28.89c3.23,28.64,3.16,57.89-2.9,86.16c-4.09,18.88-9.08,37.5599-14.97,55.96
		c-13.35,40.54-31.77,79.21-51.88,116.79c52.72-20.1901,103.02-46.55,150.17-77.5601c63.85-42.1799,122.02-93.14,171.23-151.8
		c51.97-62.0399,93.8699-133.12,118.91-210.2799c13.0701-39.89,21.3-81.3401,24.6801-123.1801c2.13-26.27,3.4199-52.64,3.1899-79.01
		c-0.4399-93.56-17.54-187.77-55.86-273.4399c-33.3-75.11-83.12-142.9-145.31-196.63c-52.8-46.05-114.08-81.93-179.06-107.86
		C700.89,429.61,681.63,422.36,661.87,416.89z"/>
	<path fill="#8B4F8B" d="M231.19,76.28c27.66-8.41,56.82-14.21,85.8-10.81c23.47,2.55,46.28,12.62,63.01,29.45
		c21.18,21.04,33.1,49.43,40.46,77.92c12.27,48.66,13.19,99.27,11.68,149.16c-2.13,49.76-6.25,99.4-11.02,148.96
		c-9.77,99.53-22.26,198.76-33.86,298.09c-9.3,81.15-18.64,162.36-23.38,243.93c-1.43,28.98-2.66,58-1.51,87.01
		c0.7,20.72,2.32,41.62,7.77,61.7c2.56,9.7401,7.45,18.65,13.14,26.9c18.64,27.49,45.36,49.9501,76.7,61.4401
		c22.95,8.35,47.64,9.27,71.76,10.87c21.95,1.37,44.13,2.72,65.39,8.77c15.91,4.4099,31.02,11.98,43.69,22.62
		c13.34,11.24,23.9,25.48,31.98,40.88c9.43,18.0299,16.13,37.4299,20.88,57.1899c8.33,52.91-1.42,107.02-19.01,157.08
		c-13.7,38.7001-31.53,75.8301-51.32,111.76c3.65,4.76,7.89,9.04,11.56,13.79c22.03,27.27,40.16,58.52,48.08,92.92
		c4.24,18.65,5.3,38.26,1.29,57.0499c-3.86,19.1901-13.42,37.26-27.4,50.99c-11.12,11.14-24.93,19.16-39.44,25.04
		c0.03-0.28,0.08-0.85,0.11-1.13c5.86-9.59,5.47-21.3099,4.06-32.04c-1-6.5699-3.37-13.33-8.56-17.7699
		c-5.49-4.75-13.04-5.66-20-6.25c-8.04-0.62-16.82,1.01-22.56,7.12c-2.33-5.7101-5.91-11.13-11.27-14.38
		c-9.97-5.61-23.04-5.8401-32.84,0.2999c-0.55-9.1799-4.94-18.0299-12.49-23.4c9.33-3.0099,19.17-4.37,28.18-8.35
		c4.8-2.08,9.28-5.9099,10.49-11.2c2.12-9.1-1.08-18.64-6.57-25.9301c-10.19-13.51-24.96-22.37-37.73-33.14
		c-3.45-3.21-7.82-5.7599-9.94-10.12c-9.14-19.48-15.89-40.24-18.24-61.6899c-2.28-20.95,0.18-42.49,7.8-62.1801
		c11.43-29.7799,33.08-54.51,57.58-74.4399c1.52-1.29,3.93-3.03,2.66-5.3101c-0.96-2.3199-4.06-2.35-5.58-0.59
		c-25.84,20.92-48.79,46.87-60.72,78.3101c-7.38,19.4399-10.3,40.58-8.43,61.2999c1.88,22.59,8.71,44.54,18.14,65.0801
		c-14.55,12.2599-33.57,18.7799-52.51,19.1599c-17.64,0.54-35.04-3.86-51.47-9.9399c-19.43-7.36-37.61-17.59-55.1-28.7001
		c13.72-12.1699,26.63-25.6599,35.43-41.8999c13.23-23.63,16.8-51.15,17.54-77.8201c0.07-11.2999,0.33-22.65-0.54-33.9199
		c0.17-3.3701-5-4.1001-6.03-1.04c-0.58,10.96,0.92,21.95,0.15,32.9199c-0.45,21.4601-2.5,43.3301-10.48,63.4501
		c-6.48,16.74-17.29,31.53-30.1,44c-3.88,3.91-8.25,7.2999-12.16,11.1899c4.62,7.2201,7.73,15.24,11.11,23.1001
		c9.1,22.0199,16.9,44.7799,20.5,68.4099c2.54,17.67,2.54,36.38-4.47,53.1c-5.43,13.2101-15.63,24.1801-27.99,31.2301
		c-9.08,5.35-19.12,8.7699-29.27,11.4299c0.24-5.41,0.48-10.87-0.56-16.22c-1.17-7.92-5.63-15.5601-12.78-19.45
		c-7.82-4.8-18.27-9.7001-26.97-4.1901c-1.39-6.14-3.48-12.3199-7.76-17.0599c-6.65-7.63-17.24-12.51-27.39-9.9901
		c0.69-11.36-2.98-24.4399-13.27-30.59c6.83-3.23,13.39-6.99,20.14-10.37c1.17-0.63,2.31-1.28,3.44-1.9299
		c-3.67-17.04-23.71-29.3601-40.22-22.0601c-0.39-1.79-0.76-3.54-1.21-5.27c-2.36-8.5-7.46-16.8199-15.57-20.84
		c-3.57-1.98-7.77-1.67-11.7-1.6801c-3.6-20.9199-2.87-42.37,0.62-63.24c3.62-22.0699,9.79-43.6499,17.39-64.6599
		c6.46,15.12,14.42,29.7699,25.46,42.0699c-2.45,8.39-4.84,16.84-6.11,25.51c-4.35,24.04-2.23,49.74,8.75,71.79
		c6.64,13.75,16.59,25.58,27.69,35.9399c1.92-1.09,3.83-2.17,5.75-3.25c-14.35-12.6799-26.28-28.52-32.52-46.76
		c-6.05-17.11-6.94-35.72-4.19-53.5599c3.07-20.41,10.47-39.91,19.69-58.28c8.36-16.39,18.19-32.01,29.21-46.72
		c10.34-13.52,22.13-26.0701,35.9-36.14c1.35-1.12,3.44-2.48,2.66-4.53c-0.5-2.55-3.95-2.98-5.6-1.27
		c-8.78,6.35-16.79,13.75-24.21,21.64c-24.36,25.97-41.06,57.9-55.21,90.28c-13.36-17.5801-22.85-37.8301-29.72-58.74
		c-14.37-44.5801-18.43-91.7001-19.51-138.29c-0.83-54.46,3.43-108.85,9.51-162.92c12.21-102.8899,31.95-204.72,54.4-305.8199
		c38.57-171.66,85.42-341.35,135.13-510.09c2.97-10.47,5-21.28,5.17-32.19c0.28-10.88-0.97-22.03-5.44-32.05
		c-1.59-3.23-3.68-6.77-7.23-8.07c-3.23-0.6-4.84,2.88-5.67,5.38c-5.62,17.34-11.51,34.61-18.44,51.47
		c-5.16,12.37-10.63,24.74-18.31,35.78c-3.09,4.41-6.82,8.71-11.84,10.93c-3.9,1.73-8.48,0.29-11.36-2.65
		c-4.78-4.68-7.6-10.91-10.15-16.98c-4.89-12.65-8.29-25.81-11.2-39.03c-2.93,3.79-5.55,7.84-8.77,11.41
		c-12.25,14.28-29.59,23.77-47.97,27.38c-20.25,3.88-41.33,1.58-60.86-4.68c-30.78-10.06-58.35-29.31-79.02-54.17
		c-21.78-26-35.55-58.75-37.99-92.64c-1.94-24.59,2.04-49.43,10.1-72.67c13.49-38.7,37.54-72.88,65.38-102.61
		c7.77-8.42,16.47-15.92,25.47-22.97c-7.58,3.55-14.12,8.88-20.54,14.17c3.72-13.76,9.29-28.35,21.45-36.82
		c11.28-7.69,25.94-6.48,38.37-2.59c-4.77,3.71-9.85,7.14-13.83,11.76c6.72-3.86,13.34-7.91,20.38-11.18
		C193.36,89.82,212,82.23,231.19,76.28 M281.41,93.42c-17.04,12.44-28.71,30.82-36.92,49.98c-1.45,3.82-3.62,7.55-3.46,11.77
		c1.45,0.3,3.21,0.23,3.66-1.49c2.84-5.24,5.18-10.74,7.98-16c7.14-14.56,16.67-28.62,30.53-37.53c8.47-5.8,19.26-9.13,29.46-6.59
		c9.32,2.16,16.87,9.19,21.38,17.42c3.35,5.94,4.39,12.79,6.76,19.11c1.11,2.75,3.46,5.96,6.79,5.52c3.03-1.99,3.23-6.3,2.71-9.56
		c-1.51-10.16-4.46-20.41-10.53-28.83c-5.56-7.8-14.16-13.72-23.81-14.78C303.52,80.96,291.24,86.12,281.41,93.42 M294.51,127.7
		c-8.4,1.92-15.04,8.15-20.18,14.77c-10.48,14.19-16.01,31.92-15.97,49.54c0.38,9.3,2.29,19.56,9.42,26.18
		c4.76,4.64,12.22,5.3,18.2,2.85c7.81-3.26,13.86-9.65,18.65-16.46c8.94-13.39,13.96-29.46,14.05-45.57
		c-0.15-9.47-1.86-19.85-8.76-26.88C306.04,127.96,299.98,126.54,294.51,127.7 M65.44,254.42c-3.9,4.61-7.79,10.18-7.26,16.53
		c0.29,7.99,5.79,14.44,10.82,20.16c14.15-6.12,19.67-23.94,15.79-38.06c-0.94-3.32-4.24-6-7.77-5.67
		C72.22,247.51,68.48,251.07,65.44,254.42 M101.48,296.7c-5.09,1.53-9.03,5.64-11.31,10.33c-4.02,7.95-2.86,17.34-1.02,25.73
		c1.65,5.98,4.32,13.12,10.8,15.19c3.15,1.38,5.14-2.15,6.86-4.14c6.45-9.59,9.47-21.3,9.29-32.8c-0.16-3.4-0.14-7.09-2.14-10.02
		C111.55,296.75,105.96,295.3,101.48,296.7 M278.89,319c7.97-3.64,16.2-7.23,25.05-7.94c-5.9,28.49-15.09,56.18-25.36,83.36
		c-4.57,12.43-10.05,24.52-14.61,36.94c5.7-8.29,10.8-16.99,16.28-25.42c-0.26,12.17,1.02,24.35,3.59,36.25
		c1.19,4.76,2.33,9.74,5.29,13.76c1.15,1.35,3.39,1.07,4.25-0.46c16.62-28.05,27.21-60.63,25.1-93.52
		c-0.88-17.67-5.73-34.9-12.44-51.19c3-0.03,6.29-0.56,8.9,1.32c3.37,2.11,7.49,0.77,10.98-0.33c2.83-1.23,6.67-2.4,7.52-5.76
		c0.06-3.32-3.91-4.31-6.54-4.5C309.33,300.79,292.62,308.62,278.89,319 M48.23,310.18c-5.62,3.86-6.4,11.62-5.46,17.85
		c1.67,7.45,4.86,14.66,9.51,20.74c2.58,3.44,6.88,6.63,11.38,4.95c1.81-4.34,2.34-9.08,2.23-13.75c-0.2-8.92-1.95-17.96-5.98-25.97
		C57.97,309.76,52.29,307.43,48.23,310.18 M342.51,1191.7c-3.75,0.54-7.31,3.24-7.63,7.2301c-0.77,7.7699,3.79,14.6699,5.26,22.09
		c2.48,9.96-0.4,20.11-1.49,30.0499c-0.21,2.8401-0.31,5.9,1.09,8.5c1.37,2.53,4.53,3.3501,7.22,3.3
		c10.13-0.28,19.77-6.4,24.67-15.21c8.32-15.14,5.98-35.6801-6.3-48.01C359.53,1193.63,350.86,1190.12,342.51,1191.7 M418.4,1296.67
		c-5.08,0.6599-10.58,3.1-12.56,8.1799c-2.52,7.13-0.81,14.75-0.14,22.05c0.92,6.6899,0.46,13.53,1.8,20.1799
		c1.16,6.3101,2.77,13.17,7.87,17.55c2.79,2.66,6.87,3.33,10.6,2.91c10.64-1.17,20.05-8.78,24.06-18.62
		c6.32-15.16,3.13-34.4301-9.29-45.6001C434.87,1297.73,426.4,1295,418.4,1296.67 M515.39,1296.5601
		c-6.61,1.4199-13.2,4.95-16.85,10.8099c-3.98,6.38-3.34,14.34-2.34,21.47c2.09,10.9601,5.48,21.61,8.84,32.23
		c6.5,21.25,10.34,43.51,20.41,63.52c2.87,5.41,6.42,10.87,11.82,14.05c3.94,2.37,8.91,1.6899,12.74-0.5701
		c9.28-5.2899,15.84-14.2899,20.31-23.7999c8.07-17.1801,9.26-36.62,8.24-55.3c-0.05-4.52-2.44-8.51-4.07-12.58
		c-7.61-16.47-18.12-32.21-33.09-42.83C533.88,1298.39,524.61,1294.91,515.39,1296.5601 M613.39,1339.6801
		c-6.78,2.88-9.24,10.46-11.69,16.7899c-3.03,10.02-7.12,19.91-7.72,30.5c-0.51,8.3,0.26,17.1801,4.68,24.4401
		c2.04,3.21,5.17,6.51,9.28,6.47c7.55-0.05,14.52-4.0601,19.96-9.04c7.16-6.88,12.28-15.6699,15.77-24.9
		c2.58-10.0399,3.24-20.8999,0.11-30.8899c-1.6801-5.1801-5.23-10.41-10.83-11.75C626.65,1339.63,619.82,1337.14,613.39,1339.6801
		 M521.4,1646.6801c-3.69,1.61-6.51,4.7-8.62,8.0599c-4.7,7.84-6.22,17.1901-6.25,26.22c-0.19,2.37,3.17,3.98,4.98,2.51
		c1.46-0.96,1.15-2.89,1.39-4.35c0.46-8.08,1.71-16.71,6.94-23.21c1.96-2.3401,4.94-4.79,8.2-3.92c5.2401,0.97,8.63,5.66,11.17,9.97
		c5.35,9.7101,7.37,20.98,7.09,31.99c-0.24,4.0601-1.01,8.67-4.31,11.4301c-2.79,0.72-4.89-2.02-6.72-3.7
		c-7.97-8.6801-11.55-21.2301-9.06-32.8c0.05-1.4301,0.98-3.52-0.58-4.4301c-1.64-1.85-4.99-0.7899-5.32,1.6101
		c-3.89,15.74,1.62,33.8999,14.79,43.73c3.03,2.5699,7.94,3.0499,11.05,0.36c4.61-3.5601,6.04-9.63,6.44-15.15
		c0.54-11.4-1.44-22.99-6.29-33.34c-2.88-5.7201-6.74-11.39-12.55-14.4301C530.02,1645.16,525.27,1644.8199,521.4,1646.6801
		 M239.35,1652.37c-4.76,1.97-7.94,6.34-10.08,10.86c-2.79,6.1901-4.55,12.85-5.51,19.5801c-0.78,8.95-1.06,18.4299,2.77,26.7999
		c2.3,5.46,7.23,10.4501,13.46,10.7001c6.16,0.4199,11.6-3.26,15.76-7.4301c5.32-5.67,9.25-12.61,11.76-19.9301
		c1.33-3.95-5.36-5.48-6.1-1.71c-2.86,7.48-6.93,14.8-13.28,19.87c-2.91,2.14-6.97,3.9501-10.47,2.13
		c-4.5-2.42-6.19-7.72-7.25-12.37c-1.94-11.98-0.12-24.51,4.91-35.53c1.68-2.96,3.77-6.7799,7.53-7.14
		c2.13,0.6901,3.22,2.88,4.17,4.77c4.82,10.8301,4.33,24.03-1.86,34.23c-0.74,1.4601-2.28,2.9801-1.44,4.77
		c0.82,2.4301,4.48,2.62,5.75,0.49c9.03-13.4099,9.7-32.1599,1.03-45.89C248.31,1652.84,243.51,1650.4301,239.35,1652.37z"/>
	<path fill="#201E1F" d="M281.41,93.42c9.83-7.3,22.11-12.46,34.55-10.98c9.65,1.06,18.25,6.98,23.81,14.78
		c6.07,8.42,9.02,18.67,10.53,28.83c0.52,3.26,0.32,7.57-2.71,9.56c-3.33,0.44-5.68-2.77-6.79-5.52
		c-2.37-6.32-3.41-13.17-6.76-19.11c-4.51-8.23-12.06-15.26-21.38-17.42c-10.2-2.54-20.99,0.79-29.46,6.59
		c-13.86,8.91-23.39,22.97-30.53,37.53c-2.8,5.26-5.14,10.76-7.98,16c-0.45,1.72-2.21,1.79-3.66,1.49
		c-0.16-4.22,2.01-7.95,3.46-11.77C252.7,124.24,264.37,105.86,281.41,93.42z"/>
	<path fill="#221B20" d="M294.51,127.7c5.47-1.16,11.53,0.26,15.41,4.43c6.9,7.03,8.61,17.41,8.76,26.88
		c-0.09,16.11-5.11,32.18-14.05,45.57c-4.79,6.81-10.84,13.2-18.65,16.46c-5.98,2.45-13.44,1.79-18.2-2.85
		c-7.13-6.62-9.04-16.88-9.42-26.18c-0.04-17.62,5.49-35.35,15.97-49.54C279.47,135.85,286.11,129.62,294.51,127.7 M291.35,132.52
		c-3.81,1.46-7.23,3.79-10.19,6.58c-8.79,8.29-14.31,19.51-17.53,31.03c-3.28,12.55-4.33,26.58,1.61,38.52
		c2.87,5.95,9.36,10.44,16.13,9.5c9.09-1.43,16.07-8.38,21.21-15.56c9.44-13.76,14.39-30.76,13.12-47.45
		c-0.87-7.3-2.95-15.14-8.69-20.17C302.78,131.24,296.52,130.43,291.35,132.52z"/>
	<path fill="#FEFEFE" d="M291.35,132.52c5.17-2.09,11.43-1.28,15.66,2.45c5.74,5.03,7.82,12.87,8.69,20.17
		c1.27,16.69-3.68,33.69-13.12,47.45c-5.14,7.18-12.12,14.13-21.21,15.56c-6.77,0.94-13.26-3.55-16.13-9.5
		c-5.94-11.94-4.89-25.97-1.61-38.52c3.22-11.52,8.74-22.74,17.53-31.03C284.12,136.31,287.54,133.98,291.35,132.52 M265.83,204
		c0.43,5.63,3.9,11.44,9.6,12.99c5.89,1.79,11.94-1.16,16.56-4.68c8.89-6.9,14.07-18.18,13.62-29.41
		c-3.19,4.58-6.38,9.57-11.67,11.98c-4.34,2.43-10.67,2.28-13.8-2c-4.09-5.49-2.78-12.99-0.23-18.85
		C270.75,180.88,264.8,192.47,265.83,204z"/>
	<path fill="#201E1F" d="M265.83,204c-1.03-11.53,4.92-23.12,14.08-29.97c-2.55,5.86-3.86,13.36,0.23,18.85
		c3.13,4.28,9.46,4.43,13.8,2c5.29-2.41,8.48-7.4,11.67-11.98c0.45,11.23-4.73,22.51-13.62,29.41c-4.62,3.52-10.67,6.47-16.56,4.68
		C269.73,215.44,266.26,209.63,265.83,204z"/>
	<path fill="#211E20" d="M65.44,254.42c3.04-3.35,6.78-6.91,11.58-7.04c3.53-0.33,6.83,2.35,7.77,5.67
		c3.88,14.12-1.64,31.94-15.79,38.06c-5.03-5.72-10.53-12.17-10.82-20.16C57.65,264.6,61.54,259.03,65.44,254.42 M73.56,255.44
		c-4,3.27-7.28,7.65-8.84,12.61c-1.17,5.66,2.47,10.86,5.94,14.97c7.75-6.8,10.43-18.06,8.11-27.9
		C77.93,252.36,75.02,254.41,73.56,255.44z"/>
	<path fill="#0B0B0A" d="M440.41,272.01c-0.03-7.84-1.47-15.89,0.51-23.58c0.71,6.28,0.88,12.62,0.89,18.93
		C441.35,268.91,440.89,270.46,440.41,272.01z"/>
	<path fill="#8B4F8B" d="M73.56,255.44c1.46-1.03,4.37-3.08,5.21-0.32c2.32,9.84-0.36,21.1-8.11,27.9
		c-3.47-4.11-7.11-9.31-5.94-14.97C66.28,263.09,69.56,258.71,73.56,255.44z"/>
	<path fill="#080606" d="M440.98,294.05c0.19-6.21-0.58-12.54,1.07-18.62c0.35,9.69,0.32,19.4,0,29.09
		C441.13,301.1,440.84,297.57,440.98,294.05z"/>
	<path fill="#040303" d="M18.97,294.33c1.58,4.74,0.83,9.76,0.94,14.66c-0.03,4.59,0.67,9.32-0.95,13.73
		C18.04,313.31,18.06,303.75,18.97,294.33z"/>
	<path fill="#211E1F" d="M101.48,296.7c4.48-1.4,10.07,0.05,12.48,4.29c2,2.93,1.98,6.62,2.14,10.02c0.18,11.5-2.84,23.21-9.29,32.8
		c-1.72,1.99-3.71,5.52-6.86,4.14c-6.48-2.07-9.15-9.21-10.8-15.19c-1.84-8.39-3-17.78,1.02-25.73
		C92.45,302.34,96.39,298.23,101.48,296.7 M95.59,310.55c-3.01,6.35-1.65,13.62-0.33,20.22c1.08,3.76,2.08,8.22,5.58,10.47
		c6.99-9.86,9.97-22.57,8.49-34.54c-0.03-2.72-2.69-4.64-5.3-4.07C100.02,303.5,97.31,307.05,95.59,310.55z"/>
	<path fill="#201E1F" d="M278.89,319c13.73-10.38,30.44-18.21,48.01-17.49c2.63,0.19,6.6,1.18,6.54,4.5
		c-0.85,3.36-4.69,4.53-7.52,5.76c-3.49,1.1-7.61,2.44-10.98,0.33c-2.61-1.88-5.9-1.35-8.9-1.32c6.71,16.29,11.56,33.52,12.44,51.19
		c2.11,32.89-8.48,65.47-25.1,93.52c-0.86,1.53-3.1,1.81-4.25,0.46c-2.96-4.02-4.1-9-5.29-13.76c-2.57-11.9-3.85-24.08-3.59-36.25
		c-5.48,8.43-10.58,17.13-16.28,25.42c4.56-12.42,10.04-24.51,14.61-36.94c10.27-27.18,19.46-54.87,25.36-83.36
		C295.09,311.77,286.86,315.36,278.89,319z"/>
	<path fill="#8B4F8B" d="M95.59,310.55c1.72-3.5,4.43-7.05,8.44-7.92c2.61-0.57,5.27,1.35,5.3,4.07c1.48,11.97-1.5,24.68-8.49,34.54
		c-3.5-2.25-4.5-6.71-5.58-10.47C93.94,324.17,92.58,316.9,95.59,310.55z"/>
	<path fill="#201E1F" d="M48.23,310.18c4.06-2.75,9.74-0.42,11.68,3.82c4.03,8.01,5.78,17.05,5.98,25.97
		c0.11,4.67-0.42,9.41-2.23,13.75c-4.5,1.68-8.8-1.51-11.38-4.95c-4.65-6.08-7.84-13.29-9.51-20.74
		C41.83,321.8,42.61,314.04,48.23,310.18 M52.22,314.99c-3.9,3.24-4,8.91-2.8,13.46c1.89,6.8,5.04,13.35,9.66,18.73
		c1.19-8.08,0.04-16.35-2.33-24.1C55.72,320.15,54.93,316.85,52.22,314.99z"/>
	<path fill="#8B4F8B" d="M52.22,314.99c2.71,1.86,3.5,5.16,4.53,8.09c2.37,7.75,3.52,16.02,2.33,24.1
		c-4.62-5.38-7.77-11.93-9.66-18.73C48.22,323.9,48.32,318.23,52.22,314.99z"/>
	<path fill="#8B4F8B" d="M661.87,416.89c19.76,5.47,39.02,12.72,58.13,20.15c64.98,25.93,126.26,61.81,179.06,107.86
		c62.19,53.73,112.01,121.52,145.31,196.63c38.3199,85.67,55.42,179.8799,55.86,273.4399c0.23,26.37-1.0599,52.74-3.1899,79.01
		c-3.38,41.84-11.61,83.29-24.6801,123.1801c-25.04,77.1599-66.94,148.24-118.91,210.2799
		c-49.21,58.66-107.38,109.6201-171.23,151.8c-47.15,31.01-97.45,57.37-150.17,77.5601c20.11-37.5801,38.53-76.25,51.88-116.79
		c5.89-18.4,10.88-37.08,14.97-55.96c6.06-28.27,6.13-57.52,2.9-86.16c-0.73-9.6901-2.88-19.23-3.68-28.89
		c56.9-47.59,109.84-100.71,151.97-162c23.4-33.9399,43.35-70.38,58.1299-108.89c16.71-43.14,26.72-88.93,28.96-135.16
		c2.56-50.34-4.04-100.94-17.6-149.42c-12.02-43.32-29.49-85-50.31-124.8101c-41.77-79.34-96.48-151.17-156.35-217.63
		C696.34,452.61,679.04,434.8,661.87,416.89 M816.47,1331.6899c-5.18,0.4801-11.28,2.1201-13.67,7.26
		c-3.75,7.8-2.28,16.7101-2.55,25.0601c-0.38,10.78,1.76,21.9,7.55,31.13c2.95,4.12,6.8,8.4,12.14,9.03
		c4.75,0.09,8.78-3.1001,12.06-6.2101c7.14-7.48,10.56-17.7999,11.66-27.8999c1.21-8.5801-0.84-17.3201-4.2599-25.16
		c-2.29-4.75-5.29-9.64-10.07-12.1901C825.4,1330.45,820.74,1331.61,816.47,1331.6899 M740.32,1415.4301
		c-5.51,1.1799-8.66,6.37-10.83,11.12c-3.32,7.71-5.4,15.87-7.98,23.84c-2.86,10.88-3.51,22.86,0.6,33.51
		c1.92,4.6,5.33,9.77,10.78,10.24c5.97,0.14,11.63-2.49,16.45-5.8101c7.3199-5.48,12.73-13.14,16.7-21.2999
		c5.36-10.02,5.95-21.9501,4.34-33c-1.28-6.5-4.35-14.01-11.2-16.1901C753.06,1416.26,746.68,1413.76,740.32,1415.4301z"/>
	<path fill="#050505" d="M424.97,524.8c-0.77-1.97-1.93-4.87,0.49-6.19C426.04,520.49,425.59,522.92,424.97,524.8z"/>
	<path fill="#040504" d="M415.81,605.93c-0.78-1.73-1.64-4.41,0.61-5.41C417,602.16,416.47,604.31,415.81,605.93z"/>
	<path fill="#1A1919" d="M250.41,813.19c1.28,4.23-0.57,8.39-1.56,12.46c-1.11,3.87-1.87,7.83-3,11.71
		c-0.41,0.03-1.22,0.11-1.63,0.14C246.13,829.36,247.99,821.2,250.41,813.19z"/>
	<path fill="#070606" d="M388.92,836.86c-0.83-1.97-1.84-4.87,0.55-6.16C390.04,832.55,389.53,834.98,388.92,836.86z"/>
	<path fill="#030202" d="M382.83,893.9c-0.81-1.81-1.62-4.4301,0.54-5.63C383.95,889.99,383.44,892.19,382.83,893.9z"/>
	<path fill="#181617" d="M1107.6801,989.99c-0.13-2.32,0.36-4.58,1.1399-6.74c1.42,24.47,1.41,49.04,0.02,73.52
		c-2.0299-4.67-0.9299-9.84-1.13-14.75C1108.0699,1024.67,1107.83,1007.33,1107.6801,989.99z"/>
	<path fill="#181717" d="M206.32,1000.17c0.68,2,0.99,4.15,0.39,6.23c-1.53,6.17-2.88,12.38-3.98,18.64
		c-0.37-0.41-1.12-1.23-1.5-1.64C202.91,1015.65,204.23,1007.81,206.32,1000.17z"/>
	<path fill="#070506" d="M371.34,1122.05c-0.43-3.6001-0.66-7.3,0.72-10.7201c0.32,2.92,0.7,5.89,0.51,8.86
		C372.26,1120.65,371.65,1121.58,371.34,1122.05z"/>
	<path fill="#201E20" d="M342.51,1191.7c8.35-1.58,17.02,1.9301,22.82,7.9501c12.28,12.33,14.62,32.87,6.3,48.01
		c-4.9,8.8099-14.54,14.9299-24.67,15.21c-2.69,0.05-5.85-0.77-7.22-3.3c-1.4-2.6-1.3-5.6599-1.09-8.5
		c1.09-9.9399,3.97-20.09,1.49-30.0499c-1.47-7.42-6.03-14.3201-5.26-22.09C335.2,1194.9399,338.76,1192.24,342.51,1191.7
		 M342.51,1196.8c-2.65,0.71-3.5,3.7799-2.84,6.2c1.55,6.5601,4.48,12.75,5.71,19.41c1.52,9.5299-0.6,19.0699-1.94,28.49
		c-0.19,2.37-0.76,6.52,2.51,7.03c8.5,0.49,16.73-4.78,21.08-11.9301c7.8-13.39,5.89-31.88-5.1-42.98
		C356.99,1198.04,349.52,1194.6899,342.51,1196.8z"/>
	<path fill="#A17BB6" d="M342.51,1196.8c7.01-2.1101,14.48,1.24,19.42,6.22c10.99,11.1,12.9,29.59,5.1,42.98
		c-4.35,7.15-12.58,12.42-21.08,11.9301c-3.27-0.51-2.7-4.66-2.51-7.03c1.34-9.42,3.46-18.9601,1.94-28.49
		c-1.23-6.66-4.16-12.85-5.71-19.41C339.01,1200.58,339.86,1197.51,342.51,1196.8z"/>
	<path fill="#040404" d="M157.18,1290.1c0.86,1.77,1.52,4.35-0.61,5.5601C156.01,1293.9301,156.51,1291.74,157.18,1290.1z"/>
	<path fill="#211E20" d="M418.4,1296.67c8-1.67,16.47,1.0599,22.34,6.6499c12.42,11.17,15.61,30.4401,9.29,45.6001
		c-4.01,9.84-13.42,17.45-24.06,18.62c-3.73,0.4199-7.81-0.25-10.6-2.91c-5.1-4.38-6.71-11.24-7.87-17.55
		c-1.34-6.6499-0.88-13.49-1.8-20.1799c-0.67-7.3-2.38-14.92,0.14-22.05C407.82,1299.77,413.32,1297.33,418.4,1296.67
		 M418.43,1301.55c-3.94,0.76-7.85,3.36-8.68,7.51c-1.25,7.3099,0.72,14.6399,1.23,21.9299c0.63,8.63,0.45,17.71,4.29,25.6901
		c1.51,3.37,4.77,6.45,8.7,6.21c8.11-0.34,15.69-5.29,19.79-12.23c8.28-14.2201,5.38-34.38-7.53-44.91
		C431.33,1301.66,424.65,1300.0601,418.43,1301.55z"/>
	<path fill="#211E20" d="M515.39,1296.5601c9.22-1.65,18.49,1.83,26.01,7c14.97,10.62,25.48,26.36,33.09,42.83
		c1.63,4.0699,4.02,8.0599,4.07,12.58c1.02,18.6801-0.17,38.12-8.24,55.3c-4.47,9.51-11.03,18.51-20.31,23.7999
		c-3.83,2.26-8.8,2.9401-12.74,0.5701c-5.4-3.1801-8.95-8.64-11.82-14.05c-10.07-20.01-13.91-42.27-20.41-63.52
		c-3.36-10.62-6.75-21.2699-8.84-32.23c-1-7.13-1.64-15.09,2.34-21.47C502.19,1301.51,508.78,1297.98,515.39,1296.5601
		 M515.3,1301.47c-7.31,1.74-13.99,7.7001-14.53,15.53c-1.19,13.45,4.14,26.28,7.71,38.99c7.11,21.85,10.69,44.9401,20.88,65.71
		c2.67,4.9701,5.65,10.4,10.92,13c3.5099,1.5901,7.1899-0.5399,10.09-2.4299c7.63-5.53,12.93-13.6901,16.62-22.25
		c6.77-16.42,8.05-34.62,6.69-52.17c-1.14-4.88-3.59-9.37-5.67-13.89c-6.96-13.84-16.17-27.0499-28.92-36.11
		C532.24,1303.12,523.74,1299.49,515.3,1301.47z"/>
	<path fill="#A17BB6" d="M418.43,1301.55c6.22-1.49,12.9,0.11,17.8,4.2c12.91,10.53,15.81,30.6899,7.53,44.91
		c-4.1,6.9399-11.68,11.89-19.79,12.23c-3.93,0.24-7.19-2.84-8.7-6.21c-3.84-7.9801-3.66-17.0601-4.29-25.6901
		c-0.51-7.29-2.48-14.62-1.23-21.9299C410.58,1304.91,414.49,1302.3101,418.43,1301.55z"/>
	<path fill="#A17BB6" d="M515.3,1301.47c8.44-1.98,16.94,1.65,23.79,6.38c12.75,9.0601,21.96,22.27,28.92,36.11
		c2.08,4.52,4.53,9.01,5.67,13.89c1.36,17.55,0.08,35.75-6.69,52.17c-3.69,8.5599-8.99,16.72-16.62,22.25
		c-2.9,1.89-6.58,4.02-10.09,2.4299c-5.27-2.6-8.25-8.0299-10.92-13c-10.19-20.7699-13.77-43.86-20.88-65.71
		c-3.57-12.71-8.9-25.54-7.71-38.99C501.31,1309.17,507.99,1303.21,515.3,1301.47z"/>
	<path fill="#211D20" d="M816.47,1331.6899c4.27-0.08,8.9301-1.24,12.86,1.02c4.78,2.55,7.78,7.4401,10.07,12.1901
		c3.42,7.84,5.47,16.58,4.2599,25.16c-1.1,10.1-4.52,20.4199-11.66,27.8999c-3.28,3.11-7.31,6.3-12.06,6.2101
		c-5.34-0.63-9.19-4.91-12.14-9.03c-5.79-9.23-7.93-20.35-7.55-31.13c0.27-8.35-1.2-17.26,2.55-25.0601
		C805.19,1333.8101,811.29,1332.17,816.47,1331.6899 M815.46,1336.75c-3.6,0.54-7.34,2.4301-8.72,6.01
		c-2.54,6.42-1.54,13.49-1.73,20.23c-0.26,10.95,1.45,22.63,8.32,31.52c1.94,2.27,4.36,4.9399,7.59,4.92
		c4.93-1.29,8.56-5.3101,11.28-9.41c4.81-7.74,6.82-16.98,7.12-26c-0.87-8.87-3.3-18.2001-9.43-24.9501
		C826.22,1334.85,820.3,1336.35,815.46,1336.75z"/>
	<path fill="#A17BB6" d="M815.46,1336.75c4.84-0.4,10.7599-1.9,14.43,2.3199c6.13,6.75,8.56,16.0801,9.43,24.9501
		c-0.3,9.02-2.31,18.26-7.12,26c-2.72,4.1-6.35,8.12-11.28,9.41c-3.23,0.0199-5.65-2.65-7.59-4.92
		c-6.87-8.89-8.58-20.5701-8.32-31.52c0.19-6.74-0.81-13.8099,1.73-20.23C808.12,1339.1801,811.86,1337.29,815.46,1336.75z"/>
	<path fill="#211E20" d="M613.39,1339.6801c6.43-2.54,13.26-0.05,19.56,1.62c5.6,1.34,9.15,6.5699,10.83,11.75
		c3.1299,9.99,2.47,20.85-0.11,30.8899c-3.49,9.2301-8.61,18.02-15.77,24.9c-5.44,4.98-12.41,8.99-19.96,9.04
		c-4.11,0.04-7.24-3.26-9.28-6.47c-4.42-7.26-5.19-16.14-4.68-24.4401c0.6-10.59,4.69-20.48,7.72-30.5
		C604.15,1350.14,606.61,1342.5601,613.39,1339.6801 M616.14,1344.3199c-5.72,2.2301-7.99,8.5601-9.91,13.88
		c-3.86,12.2201-8.97,24.7001-7.4,37.79c0.8,5.61,1.94,11.8201,6.26,15.87c2.44,2.4401,6.1299,1.02,8.96,0.16
		c10.6-4.04,17.68-13.79,22.47-23.65c4.75-8.92,5.16-19.48,3.86-29.3c-0.95-4.63-2.53-9.9399-6.9-12.4199
		C627.96,1344.84,621.97,1342.55,616.14,1344.3199z"/>
	<path fill="#A17BB6" d="M616.14,1344.3199c5.83-1.7699,11.82,0.52,17.34,2.3301c4.37,2.48,5.95,7.7899,6.9,12.4199
		c1.3,9.8201,0.89,20.38-3.86,29.3c-4.79,9.86-11.87,19.61-22.47,23.65c-2.83,0.86-6.52,2.28-8.96-0.16
		c-4.32-4.0499-5.46-10.26-6.26-15.87c-1.57-13.09,3.54-25.5699,7.4-37.79C608.15,1352.88,610.42,1346.55,616.14,1344.3199z"/>
	<path fill="#040303" d="M150.97,1360.33c1.05,4.0901,2.38,9.41-0.68,12.9301C150.4,1368.9399,150.55,1364.62,150.97,1360.33z"/>
	<path fill="#0C0C0D" d="M149.14,1401.4399c1.78,4.7001,0.84,9.75,0.94,14.64c0.04,5.65,0.06,11.3101,0.03,16.9701
		c-0.06,4.5299,0.73,9.22-0.96,13.5699C148.66,1431.5699,148.75,1416.49,149.14,1401.4399z"/>
	<path fill="#211D20" d="M740.32,1415.4301c6.36-1.67,12.74,0.83,18.86,2.4099c6.85,2.1801,9.92,9.6901,11.2,16.1901
		c1.61,11.0499,1.02,22.98-4.34,33c-3.97,8.1599-9.38,15.8199-16.7,21.2999c-4.82,3.3201-10.48,5.9501-16.45,5.8101
		c-5.45-0.47-8.86-5.64-10.78-10.24c-4.11-10.65-3.46-22.63-0.6-33.51c2.58-7.97,4.66-16.13,7.98-23.84
		C731.66,1421.8,734.81,1416.61,740.32,1415.4301 M741.47,1420.59c-3.17,1.16-5.5,3.89-6.96,6.87
		c-3.28,6.5701-4.99,13.75-7.3,20.6901c-3.52,10.66-4.81,22.62-0.89,33.35c1.33,3.15,2.99,7.04,6.7,7.89
		c3.94,0.3099,7.7-1.42,11.04-3.33c8.03-4.9401,13.7-12.9,17.72-21.28c4.67-8.77,5.36-19.17,4.05-28.87
		c-0.99-4.76-2.36-10.3401-6.87-12.9701C753.41,1421.02,747.36,1419.05,741.47,1420.59z"/>
	<path fill="#A17BB6" d="M741.47,1420.59c5.89-1.5399,11.94,0.4301,17.4901,2.35c4.5099,2.63,5.88,8.2101,6.87,12.9701
		c1.31,9.7,0.62,20.1-4.05,28.87c-4.02,8.38-9.69,16.34-17.72,21.28c-3.34,1.9099-7.1,3.6399-11.04,3.33
		c-3.71-0.85-5.37-4.74-6.7-7.89c-3.92-10.73-2.63-22.6899,0.89-33.35c2.31-6.9401,4.02-14.12,7.3-20.6901
		C735.97,1424.48,738.3,1421.75,741.47,1420.59z"/>
	<path fill="#201E1F" d="M542.54,1518.49c1.52-1.76,4.62-1.73,5.58,0.59c1.27,2.28-1.14,4.02-2.66,5.3101
		c-24.5,19.9299-46.15,44.66-57.58,74.4399c-7.62,19.6901-10.08,41.2301-7.8,62.1801c2.35,21.45,9.1,42.21,18.24,61.6899
		c2.12,4.3601,6.49,6.91,9.94,10.12c12.77,10.77,27.54,19.63,37.73,33.14c5.49,7.29,8.69,16.8301,6.57,25.9301
		c-1.21,5.29-5.69,9.12-10.49,11.2c-9.01,3.98-18.85,5.3401-28.18,8.35c7.55,5.3701,11.94,14.2201,12.49,23.4
		c9.8-6.14,22.87-5.9099,32.84-0.2999c-0.86,0.76-1.7,1.5399-2.55,2.34c-10.96-6.21-26.79-3.61-33.38,7.71
		c-0.72-1.39-1.42-2.76-2.12-4.11c0.85-3.77,2.09-7.7,0.91-11.52c-1.72-6.59-6.34-12.4399-12.39-15.5599
		c-3.82-2.02-8.35-1.62-12.39-0.59c-0.77-0.8601-1.53-1.7001-2.28-2.52c9.39-6.88,20.84-9.63,31.97-12.28
		c4.65-1.39,9.6-2.41,13.63-5.27c2.5-1.66,3.42-4.85,2.99-7.7c-0.72-8.3201-6.19-15.17-11.94-20.79
		c-11.67-11.26-25.69-19.74-37.37-30.99c-17.72,13.34-40.19,19.79-62.28,18.63c-29.97-1.35-58.25-13.34-84.14-27.72
		c8.84,21.86,16.31,44.47,19.61,67.8999c3.21,22.39,1.87,46.66-9.99,66.51c-11.61,19.7301-32.91,31.7101-54.59,37.2001
		c-2.66-1.23-5.56-0.4-8.3-0.02c-0.47-2.1-0.88-4.1901-1.42-6.24v-0.02c1.3-0.39,1.95-1.21,1.97-2.45
		c0.4-5.14,0.05-10.29,0.42-15.42c1.04,5.35,0.8,10.8099,0.56,16.22c10.15-2.66,20.19-6.08,29.27-11.4299
		c12.36-7.05,22.56-18.02,27.99-31.2301c7.01-16.72,7.01-35.4299,4.47-53.1c-3.6-23.63-11.4-46.39-20.5-68.4099
		c-3.38-7.8601-6.49-15.88-11.11-23.1001c3.91-3.89,8.28-7.2799,12.16-11.1899c12.81-12.47,23.62-27.26,30.1-44
		c7.98-20.12,10.03-41.99,10.48-63.4501c0.77-10.97-0.73-21.96-0.15-32.9199c1.03-3.0601,6.2-2.3301,6.03,1.04
		c0.87,11.2699,0.61,22.62,0.54,33.9199c-0.74,26.67-4.31,54.1901-17.54,77.8201c-8.8,16.24-21.71,29.73-35.43,41.8999
		c17.49,11.1101,35.67,21.3401,55.1,28.7001c16.43,6.08,33.83,10.48,51.47,9.9399c18.94-0.38,37.96-6.9,52.51-19.1599
		c-9.43-20.54-16.26-42.4901-18.14-65.0801c-1.87-20.72,1.05-41.86,8.43-61.2999C493.75,1565.36,516.7,1539.41,542.54,1518.49z"/>
	<path fill="#201E1F" d="M521.4,1646.6801c3.87-1.8601,8.62-1.52,12.35,0.5499c5.81,3.04,9.67,8.71,12.55,14.4301
		c4.85,10.35,6.83,21.9399,6.29,33.34c-0.4,5.52-1.83,11.59-6.44,15.15c-3.11,2.6899-8.02,2.21-11.05-0.36
		c-13.17-9.8301-18.68-27.99-14.79-43.73c0.33-2.4,3.68-3.4601,5.32-1.6101c1.56,0.91,0.63,3,0.58,4.4301
		c-2.4901,11.5699,1.09,24.12,9.06,32.8c1.83,1.6799,3.93,4.4199,6.72,3.7c3.3-2.76,4.07-7.37,4.31-11.4301
		c0.28-11.01-1.74-22.2799-7.09-31.99c-2.54-4.3099-5.93-9-11.17-9.97c-3.2599-0.87-6.24,1.58-8.2,3.92
		c-5.23,6.5-6.48,15.13-6.94,23.21c-0.2401,1.46,0.0699,3.39-1.39,4.35c-1.81,1.47-5.17-0.14-4.98-2.51
		c0.03-9.0299,1.55-18.38,6.25-26.22C514.89,1651.38,517.71,1648.29,521.4,1646.6801z"/>
	<path fill="#211E1F" d="M239.35,1652.37c4.16-1.9399,8.96,0.47,11.15,4.2c8.67,13.7301,8,32.4801-1.03,45.89
		c-1.27,2.13-4.93,1.9401-5.75-0.49c-0.84-1.7899,0.7-3.3099,1.44-4.77c6.19-10.2,6.68-23.3999,1.86-34.23
		c-0.95-1.89-2.04-4.08-4.17-4.77c-3.76,0.3601-5.85,4.1801-7.53,7.14c-5.03,11.02-6.85,23.55-4.91,35.53
		c1.06,4.65,2.75,9.95,7.25,12.37c3.5,1.8201,7.56,0.01,10.47-2.13c6.35-5.0699,10.42-12.39,13.28-19.87
		c0.74-3.77,7.43-2.24,6.1,1.71c-2.51,7.3201-6.44,14.26-11.76,19.9301c-4.16,4.17-9.6,7.85-15.76,7.4301
		c-6.23-0.25-11.16-5.2401-13.46-10.7001c-3.83-8.37-3.55-17.85-2.77-26.7999c0.96-6.7301,2.72-13.39,5.51-19.5801
		C231.41,1658.71,234.59,1654.34,239.35,1652.37z"/>
	<path fill="#191719" d="M151.02,1713.76c-1.54-17.87-0.33-36.02,3.18-53.6c0.54,1.7799,0.99,3.65,0.64,5.5399
		c-1.52,11.3601-3.06,22.79-2.58,34.28C152.03,1704.5699,153.19,1709.47,151.02,1713.76z"/>
	<path fill="#191719" d="M153.53,1723.65c1.1,3.77,0.76,7.72,0.58,11.61c0.74,0.17,1.49,0.37,2.24,0.58
		c-3.72,5.4601-3.82,12.39-3.25,18.74c0.9,7.4701,3.21,15.27,8.61,20.77c4.23,4.38,11.66,5.5701,16.84,2.1901
		c4.53-3.16,6.29-8.75,7.5-13.88c0.64,0.4299,1.91,1.2799,2.55,1.7c-4.2,8.59-2.39,18.55-0.77,27.5701
		c4.91-5.54,13.33-6.05,19.58-2.5801c10.29,6.15,13.96,19.23,13.27,30.59c10.15-2.5199,20.74,2.3601,27.39,9.9901
		c4.28,4.74,6.37,10.9199,7.76,17.0599c8.7-5.51,19.15-0.61,26.97,4.1901c7.15,3.8899,11.61,11.5299,12.78,19.45
		c-0.37,5.13-0.02,10.28-0.42,15.42c-0.02,1.24-0.67,2.0599-1.97,2.45c0.52-8.64,1.4-17.9399-2.83-25.86
		c-3.21-6.47-9.95-10.02-16.32-12.6901c-4.64-1.87-10.45-3-14.76,0.25c-4.11,3.28-4.94,8.8601-5.95,13.7001
		c-2.41,13.0699-1.8,27.61,5.79,38.97c2.55,3.49,5.35,7.51,9.87,8.46c5.43,1.65,11.73,0.4801,15.86-3.51
		c5.39-4.9299,7.37-12.3199,8.34-19.2999c0.54,2.0499,0.95,4.14,1.42,6.24c2.74-0.38,5.64-1.21,8.3,0.02
		c-2.75,0.95-5.6,1.5499-8.5,1.8199c-1.45,5.89-4.49,11.63-9.47,15.27c-5.85,4.38-14.25,4.2-20.49,0.77
		c-9.55-7.8201-14.66-20.05-15.52-32.1801c-3.72,5-9.39,9.25-15.9,8.91c-7.08-0.35-12.61-5.5599-16.78-10.8099
		c-8.1-10.4801-9.87-24.5-8.09-37.3101c-5.34,2.45-11.76,1.41-16.64-1.6c-6.14-4.0801-8.76-11.5601-9.72-18.54
		c-1.12-8.89-0.16-18.34,4.12-26.33c-1.95-5.15-2.78-10.65-3.06-16.11c-4.63,3.01-10.53,3.62-15.79,2.09
		c-4.87-1.58-8.66-5.45-11.17-9.79c-4.18-7.25-5.93-15.72-5.83-24.03c-0.19-7.5399,4.17-14.6499,2.41-22.22
		C152.74,1725.2,153.27,1724.17,153.53,1723.65 M194.21,1792.27c-6.13,2.9-8.47,10-9.58,16.22c-1.1,8.4301-0.96,17.6901,3.69,25.13
		c3.2,5.3101,10.26,8.05,16.13,5.84c4.76-2.0299,7.7-6.6599,9.78-11.1799c1.91-4.55,4.39-9.27,3.72-14.36
		c-0.75-6.5801-3.5-13-7.97-17.92C206.15,1791.71,199.55,1790.08,194.21,1792.27 M224.37,1824.5
		c-7.59,2.1899-11.53,10.09-12.66,17.39c-2.6,12.59-1.14,26.9399,7.41,37.0699c3.75,4.3,8.84,8.8401,15,8
		c4.64-0.77,8.38-4.1499,10.93-7.9299c5.24-7.61,6.81-17.0601,6.96-26.12c0.12-7.7001-1.65-16.03-7.3-21.63
		C239.49,1826.11,231.77,1822.49,224.37,1824.5z"/>
	<path fill="#FEFEFE" d="M156.35,1735.84c4.4-5.5299,13.19-6.0699,18.7-1.9399c5.19,3.6799,8.91,9.14,11.21,15.03
		c1.83,4.7599,0.75,9.8999-0.21,14.73c-1.21,5.13-2.97,10.72-7.5,13.88c-5.18,3.38-12.61,2.1899-16.84-2.1901
		c-5.4-5.5-7.71-13.2999-8.61-20.77C152.53,1748.23,152.63,1741.3,156.35,1735.84z"/>
	<path fill="#211C22" d="M186.26,1748.9301c1.1,0.58,2.19,1.1699,3.3,1.7899c0.45,1.73,0.82,3.48,1.21,5.27
		c16.51-7.3,36.55,5.02,40.22,22.0601c-1.13,0.6499-2.27,1.2999-3.44,1.9299c-1.68-7.3099-5.11-14.76-11.73-18.8199
		c-5.72-3.4501-13.07-5.53-19.51-2.86c-3.38,1.25-5.9,4.0199-7.71,7.0599c-0.64-0.42-1.91-1.27-2.55-1.7
		C187.01,1758.83,188.09,1753.6899,186.26,1748.9301z"/>
	<path fill="#FEFEFE" d="M196.31,1758.3c6.44-2.67,13.79-0.5901,19.51,2.86c6.62,4.0599,10.05,11.51,11.73,18.8199
		c-6.75,3.38-13.31,7.14-20.14,10.37c-6.25-3.47-14.67-2.96-19.58,2.5801c-1.62-9.02-3.43-18.9801,0.77-27.5701
		C190.41,1762.3199,192.93,1759.55,196.31,1758.3z"/>
	<path fill="#FEFEFE" d="M194.21,1792.27c5.34-2.1901,11.94-0.5601,15.77,3.73c4.47,4.92,7.22,11.34,7.97,17.92
		c0.67,5.09-1.81,9.8099-3.72,14.36c-2.08,4.52-5.02,9.15-9.78,11.1799c-5.87,2.2101-12.93-0.5299-16.13-5.84
		c-4.65-7.4399-4.79-16.7-3.69-25.13C185.74,1802.27,188.08,1795.17,194.21,1792.27z"/>
	<path fill="#1A1A1A" d="M482.9,1822c2.32-5.29,6.67-9.6899,12.12-11.71c0.75,0.8199,1.51,1.6599,2.28,2.52
		c-5.2,1.6599-9.49,5.6499-11.59,10.6899c-3.62,8.8101-3.19,18.92,0.05,27.79c1.87,4.6499,5.23,9.24,10.28,10.6599
		c5.55,1.3501,11.81-0.0199,16.03-3.95c4.98-4.58,7.42-11.14,9.1-17.52c0.7,1.35,1.4,2.72,2.12,4.11
		c-4.34,6.9601-4.58,15.52-4.0099,23.4701c0.87,8.98,4.3799,18.2699,11.84,23.8199c5,3.64,11.39,6.4399,17.68,4.97
		c6-1.5399,10.51-6.41,13.42-11.6699c4.85-8.66,6.02-18.91,4.85-28.64c1.27,1.2899,2.52,2.58,3.79,3.9199
		c-1.47,10.54-1.02,21.6901,3.27,31.5601c3.14,7.38,9.26,13.52,16.84,16.26c3.23,0.52,6.54-0.01,9.7-0.75
		c1.94,0.75,3.88,1.53,5.83,2.33c-6.45,0.8-13.57,3.63-19.66,0.08c-9.86-4.6899-16.58-14.4099-19.13-24.84
		c-3.81,6.4-9.2,12.42-16.61,14.54c-8.48,2.53-17.44-1.3201-23.85-6.84c-8.94-7.9601-12.28-20.51-11.9-32.13
		c-5.74,4.2799-13.39,6.0199-20.37,4.2999c-6.01-1.74-10.09-7.13-12.26-12.74C479.24,1842.5601,478.86,1831.55,482.9,1822z"/>
	<path fill="#FEFEFE" d="M497.3,1812.8101c4.04-1.03,8.57-1.4301,12.39,0.59c6.05,3.12,10.67,8.97,12.39,15.5599
		c1.18,3.8201-0.06,7.75-0.91,11.52c-1.68,6.38-4.12,12.9401-9.1,17.52c-4.22,3.9301-10.48,5.3-16.03,3.95
		c-5.05-1.4199-8.41-6.01-10.28-10.6599c-3.24-8.87-3.67-18.98-0.05-27.79C487.81,1818.46,492.1,1814.47,497.3,1812.8101z"/>
	<path fill="#FEFEFE" d="M224.37,1824.5c7.4-2.01,15.12,1.61,20.34,6.78c5.65,5.6,7.42,13.9299,7.3,21.63
		c-0.15,9.0599-1.72,18.51-6.96,26.12c-2.55,3.78-6.29,7.1599-10.93,7.9299c-6.16,0.8401-11.25-3.7-15-8
		c-8.55-10.13-10.01-24.48-7.41-37.0699C212.84,1834.59,216.78,1826.6899,224.37,1824.5z"/>
	<path fill="#FEFEFE" d="M523.29,1844.59c6.59-11.3199,22.42-13.9199,33.38-7.71c6.76,4.14,9.58,12.13,10.4,19.66
		c1.17,9.73,0,19.98-4.85,28.64c-2.91,5.2599-7.42,10.13-13.42,11.6699c-6.29,1.47-12.68-1.33-17.68-4.97
		c-7.46-5.55-10.97-14.84-11.84-23.8199C518.71,1860.11,518.95,1851.55,523.29,1844.59z"/>
	<path fill="#1E1B1D" d="M556.67,1836.88c0.85-0.8,1.69-1.58,2.55-2.34c5.36,3.25,8.94,8.6699,11.27,14.38
		c5.74-6.11,14.52-7.74,22.56-7.12c6.96,0.59,14.51,1.5,20,6.25c5.19,4.4399,7.56,11.2,8.56,17.7699
		c1.41,10.7301,1.8,22.4501-4.06,32.04c-0.53-0.64-1.6-1.91-2.13-2.5499c4.96-9.2301,4.25-20.15,2.84-30.17
		c-1.09-7.76-5.56-15.8201-13.52-18.12c-7.47-2.1-15.72-2.89-23.21-0.51c-6.0601,1.9-10.2,7.71-10.67,13.95
		c-1.27-1.34-2.52-2.63-3.79-3.9199C566.25,1849.01,563.43,1841.02,556.67,1836.88z"/>
	<path fill="#FEFEFE" d="M581.53,1846.51c7.49-2.38,15.74-1.59,23.21,0.51c7.96,2.2999,12.43,10.36,13.52,18.12
		c1.41,10.02,2.12,20.9399-2.84,30.17c-3.22,5.71-8.47,10.23-14.75,12.22c-3.16,0.74-6.47,1.27-9.7,0.75
		c-7.58-2.74-13.7-8.88-16.84-16.26c-4.29-9.87-4.74-21.02-3.27-31.5601C571.33,1854.22,575.47,1848.41,581.53,1846.51z"/>
	<path fill="#FEFEFE" d="M259.28,1851.2c4.31-3.25,10.12-2.12,14.76-0.25c6.37,2.67,13.11,6.2201,16.32,12.6901
		c4.23,7.92,3.35,17.22,2.83,25.86v0.02c-0.97,6.98-2.95,14.37-8.34,19.2999c-4.13,3.9901-10.43,5.16-15.86,3.51
		c-4.52-0.95-7.32-4.97-9.87-8.46c-7.59-11.36-8.2-25.9-5.79-38.97C254.34,1860.0601,255.17,1854.48,259.28,1851.2z"/>
</g>
</svg>
