<?xml version="1.0" encoding="UTF-8" standalone="no"?>
<svg id="svg2" xmlns:rdf="http://www.w3.org/1999/02/22-rdf-syntax-ns#" xmlns="http://www.w3.org/2000/svg" height="772.44pt" width="961.86pt" version="1.1" xmlns:cc="http://creativecommons.org/ns#" xmlns:dc="http://purl.org/dc/elements/1.1/" viewBox="0 0 961.86194 772.43536">
<g id="g4197" transform="matrix(.44760 .89424 -.89424 .44760 854.11 0)">
<path id="path4184" d="m0 0v0.77969c0.19-0.2 0.5797-0.58969 0.7797-0.77969zm209.3 4.9141c-4.19 0.0147-8.41 0.2206-12.65 0.6359-39.86 3.25-70.27 33.031-88.37 66.741-30.66 59.299-51.401 127.49-40.221 194.56 7.8 43.26 46.69 76.679 89.1 84.009 17.5 5.72 39.161 5.4706 50.981 21.991 8.75 17.38 3.69 37.07 2.2 55.48-1.53 78.92 2.2588 158.14 20.219 235.15 4.5 32.3-16.76 60.04-28.55 88.52-46.76 78.96-109.68 153.87-194.86 192.07-7.93 3.09-3.2906 13.749 3.0094 16.089 31.52 8.98 63.961-1.4194 93.441-12.559 37.65-14.45 67.97-42.031 98.02-67.991 53.53-45.12 90.799-106.85 146.86-149.15 31.2-16.04 60.19-36.279 84.98-61.239 20.52 5.4 39.011 15.98 57.711 25.7 5.54 3.25 13.239 3.1797 17.139-2.6203 16.68-17.63 33.2-38.54 35.05-63.68 1.62-4.17-1.5191-9.0197-5.8891-9.2797-20.84-3.14-43.651-9.23-56.861-27-2.5-2.56-1.75-8.59 2.5-8.35 18.84 2.79 36.061 12.359 53.631 18.659 19.41-14.51 30.659-39.169 35.139-62.659 0.98-15.33-18.599-9.0506-27.559-13.041-23.34-7.37-24.621-35.501-32.641-54.641-7.16-37.61-41.359-68.399-78.859-72.289 16.71-18.4 35.76-37.051 42.47-61.891 6.74 1.12 14.489 5.0103 20.519-0.47969 4.64-8.23-8.6894-11.991-12.709-16.741 5.26-7.95 11.789-15.1 16.809-23.18 0.12-10.24-14.739-9.3997-19.459-2.8797-7.59-1.28 4.8703-13.201-2.2297-17.291-8.23-6.82-13.371 7.6606-18.341 11.441-4.1-1.96-7.8597-9.66-13.53-5.8-9.98 10.14-2.5506 25.281 0.6094 36.691-11.14 19.38-30.989 31.949-50.569 41.639-2.26 1.15-5.2303-0.36938-4.2703-3.1094 21.02-33.58 35.71-72.821 33.38-112.91 1.98-8.08 17.069-1.4388 19.459-9.8188 1.23-8.75-9.2797-10.451-14.48-14.391-2.21-10.75 4.9503-21.7 3.2703-31.93-7.35-9.33-14.95 5.2494-18.68 10.809-4.17-5.63-3.7206-17.82-12.641-18.17-7.28 5.17-7.3003 14.921-6.7203 22.931-6.73-0.32-9.8194-12.43-17.359-7.75-7.41 16.06 9.9194 28.329 17.559 40.019-6.75 28.07-23.049 53.29-41.609 75.07-4.32 2.96-9.22 13.43-15.15 7.7297-20.93-17.82-39.551-46.62-30.241-75.13 6.68-24.33 16.481-47.78 27.361-70.63 13.19-29.06 13.14-65.51-7.1203-91.2 15.53-11.51-11.16-25.98-5.84-41.03-34.82-19.511-73.43-37.249-114.01-37.106z" fill="#ea5b27"/>
<path id="path6" d="m261.63 6.1426c-5.25 0.0185-10.52 0.2758-15.82 0.7949-49.82 4.0625-87.84 41.288-110.46 83.426-38.325 74.126-64.251 159.36-50.276 243.2 9.75 54.075 58.363 95.849 111.38 105.01 21.875 7.15 48.952 6.8383 63.727 27.488 10.938 21.725 4.6125 46.337 2.75 69.35-1.9125 98.65 2.8234 197.68 25.273 293.94 5.625 40.375-20.95 75.05-35.688 110.65-58.45 98.7-137.1 192.34-243.57 240.09-9.9125 3.8625-4.1133 17.186 3.7617 20.111 39.4 11.225 79.951-1.7742 116.8-15.699 47.062-18.062 84.963-52.538 122.53-84.988 66.912-56.4 113.5-133.56 183.57-186.44 39-20.05 75.237-45.349 106.22-76.549 25.65 6.75 48.764 19.975 72.139 32.125 6.925 4.0625 16.549 3.9746 21.424-3.2754 20.85-22.038 41.5-48.175 43.812-79.6 2.025-5.2125-1.8988-11.275-7.3613-11.6-26.05-3.925-54.564-11.538-71.076-33.75-3.125-3.2-2.1875-10.738 3.125-10.438 23.55 3.4875 45.077 15.449 67.039 23.324 24.262-18.138 38.324-48.962 43.924-78.324 1.225-19.162-23.249-11.313-34.449-16.301-29.175-9.2125-30.776-44.376-40.801-68.301-8.95-47.012-51.699-85.499-98.574-90.361 20.888-23 44.7-46.313 53.088-77.363 8.425 1.4 18.111 6.2629 25.648-0.59961 5.8-10.288-10.862-14.988-15.887-20.926 6.575-9.9375 14.737-18.875 21.012-28.975 0.15-12.8-18.424-11.75-24.324-3.5996-9.4875-1.6 6.0879-16.501-2.7871-21.613-10.288-8.525-16.713 9.5758-22.926 14.301-5.125-2.45-9.8246-12.075-16.912-7.25-12.475 12.675-3.1883 31.601 0.76172 45.863-13.925 24.225-38.736 39.936-63.211 52.049-2.825 1.4375-6.5379-0.46172-5.3379-3.8867 26.275-41.975 44.637-91.026 41.725-141.14 2.475-10.1 21.337-1.7984 24.324-12.273 1.5375-10.938-11.6-13.063-18.1-17.988-2.7625-13.438 6.1879-27.125 4.0879-39.912-9.1875-11.662-18.687 6.5617-23.35 13.512-5.2125-7.0375-4.6508-22.275-15.801-22.713-9.1 6.4625-9.1254 18.652-8.4004 28.664-8.4125-0.4-12.274-15.538-21.699-9.6875-9.2625 20.075 12.399 35.411 21.949 50.023-8.4375 35.088-28.812 66.613-52.012 93.838-5.4 3.7-11.525 16.787-18.938 9.6621-26.162-22.275-49.438-58.275-37.801-93.912 8.35-30.412 20.601-59.725 34.201-88.287 16.488-36.325 16.425-81.888-8.9004-114 19.44-14.375-13.92-32.462-7.27-51.275-43.53-24.389-91.79-46.561-142.51-46.382zm2.1543 8.6211c39.542 0.15689 78.334 17.809 114.24 33.424 5.525 3.7875 18.1 5.4121 15.15 14.725-26.9 56.15-44.226 116.23-60.326 176.2-13.575 44.412-42.699 88.975-89.949 101.5-13.188 7.0875-5.6375-18.464-16.812-13.227-7.7125 15.5 8.5492 37.25 26.012 33.688 3.2625-6.9375-13.587-6.6875-8.5742-12.688 17.638-9.025 34.438 14.238 52.375 8.7754 5.3375-10.562 1.55-23.437 5.5-34.449 9.0125-3.85 21.824 6.0871 29.574-1.8379 3.1875-11.325-5.7375-22.362-4.25-33.949 8.55-4.375 20.875-3.0629 26.812-11.4 0.5625-10.975-8.8367-19.625-9.5117-30.025 8.3875-4.9875 20.163-5.4254 25.9-14.213 2.8875-10.662-5.4887-19.013-7.3887-28.65 5.4-7.8 20.262-8.0742 22.225-19.012-0.6375-9.0625-8.2359-16.9-9.0859-25.6 7.525-6.4375 17.974-9.2871 26.424-14.725 3.45-8.425-4.8371-16.539-7.4121-24.389-4.075-5.7625 6.4617-12.299 9.8242-5.9492 12.762 18.1 17.812 40.924 16.5 62.887-6.9375 41.238-28.224 77.714-42.137 116.76-8.525 27.288-5.4375 57.738 9.75 82.188 26.225 31.038 61.513 54.938 91.176 81.375-17.75 8.7125-39.7 9.5488-59.588 12.799-7.2875 3.1375-36.062-7.0379-33.625 3.2871 66.812 16.362 148.4-12.275 182.09-74.812-4.9-9.8125-8.4641-20.624-7.2891-31.861 6.6375-2.25 6.9383 10.075 13.801 10.537 9.3625 0.025 7.5117-18.037 16.012-16.912 0.525 6.375-1.3 13.438 2 19.312 8.6875 4.2125 13.65-10.375 21.713-6.125-4.6 11.85-28.224 29-9.5488 39.875 10.112 9.675-11.889 2.1246-16.102 2.5371-29.325 70.912-97.138 127.9-174.81 135.62-3.1875-0.5625-7.0875 4.8875-2.375 5.125 25.2 1.4375 50.226-6.0254 72.988-16.338 17.938-7.7125 32.551-21.413 48.551-31.588 24.175 22.012 42.087 52.45 52.787 83.213 12.575 20.088 7.0996 45.401 13.537 67.301 2.2125 21.062-2.7883 41.674-3.9883 62.574 0.0875 2.8875-4.1617 2.0629-3.7617-0.47461-6.4625-16.688-7.1121-35.001-14.537-51.426-11.238-10.762-10.487-28.823-21.975-39.523-8.1-11.112-21.938-15.738-32-24.301-29.638-13.812-67.725-13.9-94.525 5.5-6.0125 12.162 12.586 7.3254 18.424 3.3379 34.925-18.662 76.7-2.7621 100.31 25.775 16.175 23.425 24.114 51.499 29.576 79.111 5.85 17.138 11.862 37.062 29.625 45.438 18.65 12.975 42.863 12.825 62.963 21.025-9.175 27.088-21.413 54.801-44.801 72.613-5.6 5.025-12.088-2.6008-17.25-4.5508-43.15-23.325-91.588-41.262-141.19-39.312-5.125 0.35-15.463 4.9625-8.1758 10.25 21.612 2.225 43.939 1.275 64.701 8.8125 3.825 1.9625-0.0129 6.4246-2.0879 8.2871-19.675 13.825-36.601 31.614-57.176 44.014-59.662 27.262-98.874 82.162-142.14 129.13-24.175 33.012-55.5 59.662-85.775 86.762-29.888 23.362-58.837 48.838-93.35 65.426-37.7 15.95-78.463 32.437-120.18 25.887-2.975 0.025-9.3617-3.0383-4.7617-5.8633 99.238-49.2 180.4-130.42 234.51-226.76 16.188-28.612 34-57.55 40.838-90.1 15.425-19.012-0.66211-48.601-1.9121-72.326-14.662-68.775-16.45-139.21-19.537-209.06-3.2875-39.725 8.3367-79.312 1.3242-118.81-7.3-22.588-31.8-29.937-52.812-33.537-49.63-9.39-102.16-35.42-121.44-84.97-12.86-42.58-10.185-88.04-1.498-131.11 16.188-57.54 32.648-118.2 74.158-163.39 13.688-19.588 36.638-30.65 58.963-37.312 11.143-3.1281 22.274-4.456 33.346-4.4121zm134.1 56.736c4.5125 3.8875 14.038 19.601 6.375 26.551-6.5 2.0875-12.75 7.1859-19.225 7.5234 0.36-12.058 9.82-22.47 12.85-34.07zm-17.633 47.492c8.7582-0.48474 7.0789 14.398 8.1445 20.295-6.3 1.875-11.374 7.4754-18.449 6.4004-0.1625-9.625 4.1633-18.762 9.4258-26.6 0.30469-0.0484 0.59638-0.0801 0.87891-0.0957zm-16.43 44.795c5.85 3.925 6.8254 13.687 10.775 19.475-5.625 4.1625-13 7.2004-19.463 8.9004 1.0125-9.7625 5.8625-19 8.6875-28.375zm-13.225 41.775c7.85 1.5125 6.3504 15.488 10.65 21.812-6.4 2.725-12.013 9.6621-19.926 10.1 3.7625-10.475 2.9004-22.425 9.2754-31.912zm153.02 30.41c8.1375 4.3 6.2367 16.626 13.137 22.613 10.85 1.75 9.5125-16.538 19-15.713-0.45 12.075-7.575 23.675-3.375 35.875-0.5875 7.875 11.638 6.3367 12.426 13.699-5.9 4.325-17.9-2.55-19.438 7.3125 1.175 50.375-13.95 100.98-42.35 142.38-17.825-5.7375-34.312-19.912-46.662-34.475 34.05-28.888 57.937-70.112 67.387-113.44-10.462-10.35-23.475-22.163-25.775-37.775 7.25-5.3625 12.712 14.05 21.287 10.375 3.775-9.775 0.41328-21.05 4.3633-30.85zm-168.19 18.09c5.075 1.4375 9.0484 11.963 9.3359 17.926-5.525 3.975-12.95 5.2875-19.6 6.75 1.875-8.7125 6.0012-16.938 10.264-24.676zm-19.826 40.051c6.925 0.6375 4.8496 14.912 8.0371 20.912-4.2125 2.4625-13.261-1.1633-19.398-0.67578 0.125-7.775 7.8113-13.486 11.361-20.236zm-29.059 33.828c7.7917 0.0463 7.6777 31.7-6.8535 20.184-1.3125-5.3375-15.574-4.9633-8.8867-11.113 7.9625-1.725 8.9109-5.2246 14.961-8.9746 0.26758-0.0668 0.52795-0.0972 0.7793-0.0957zm267.7 184.58c22.638 2.925 38.248 21.862 53.773 36.975 21.138 24.575 26.75 57.513 38.15 86.838 7.45 21.475 30.437 31.762 51.412 34.662 6.05 0.5625 9.2258 6.9625 5.7383 12.312-6.5375 21.125-15.924 45.776-34.574 57.863-19.862-10.95-43.25-12.838-63.625-22 7.075-48.5 5.9871-100.11-15.275-145.28-8.425-22.35-23.112-42.138-35.6-61.375z" fill-opacity=".95294" transform="scale(.8)" fill="#642a3e"/>
<path id="path10" d="m397.88 71.5c-3.025 11.6-12.487 22.012-12.85 34.074 6.475-0.3375 12.725-5.4359 19.225-7.5234 7.6625-6.95-1.8625-22.663-6.375-26.551zm-17.633 47.492c-0.28253 0.0156-0.57422 0.0473-0.87891 0.0957-5.2625 7.8375-9.5883 16.975-9.4258 26.6 7.075 1.075 12.149-4.5254 18.449-6.4004-1.0656-5.8973 0.61367-20.78-8.1445-20.295zm-16.43 44.795c-2.825 9.375-7.675 18.612-8.6875 28.375 6.4625-1.7 13.838-4.7379 19.463-8.9004-3.95-5.7875-4.9254-15.55-10.775-19.475zm-13.225 41.775c-6.375 9.4875-5.5129 21.437-9.2754 31.912 7.9125-0.4375 13.526-7.3746 19.926-10.1-4.3-6.325-2.8004-20.3-10.65-21.812zm-15.162 48.5c-4.2625 7.7375-8.3887 15.963-10.264 24.676 6.65-1.4625 14.075-2.775 19.6-6.75-0.2875-5.9625-4.2609-16.488-9.3359-17.926zm-19.826 40.051c-3.55 6.75-11.236 12.461-11.361 20.236 6.1375-0.4875 15.186 3.1383 19.398 0.67578-3.1875-6-1.1121-20.275-8.0371-20.912zm-29.059 33.828c-0.25135-0.002-0.51172 0.0289-0.7793 0.0957-6.05 3.75-6.9984 7.2496-14.961 8.9746-6.6875 6.15 7.5742 5.7758 8.8867 11.113 14.531 11.516 14.645-20.137 6.8535-20.184z" transform="scale(.8)" fill="#fdfcfc"/>
<path id="path16" fill="#f29a84" d="m136.6 144.44c17.04-3.97 34.28 12.24 31.45 29.42-2.13 18.29-26.15 30.4-41.32 18.39-19.94-11.18-12.3-45.09 9.87-47.81m4.59 13.88c-10.85 2.45-16.81 19.48-2.6 22.72 14.77 3.83 17.68-22.71 2.6-22.72z"/>
<path id="path18" fill="#090707" d="m141.19 158.32c15.08 0.01 12.17 26.55-2.6 22.72-14.21-3.24-8.25-20.27 2.6-22.72z"/>
<path id="path30" d="m388.62 374.8c-13.288 9.625-8.3125 32.325-2.5 45.35 8.7 17.862 18.35 36.162 34.088 48.824 19.888-3.25 41.838-4.0863 59.588-12.799-29.662-26.438-64.951-50.338-91.176-81.375zm144.99 132.84c-16 10.175-30.613 23.875-48.551 31.588 13.338 21.112 29.501 41.788 38.613 65.775 10.062 8.5625 23.9 13.188 32 24.301 11.488 10.7 10.737 28.761 21.975 39.523 7.425 16.425 8.0746 34.738 14.537 51.426-0.4 2.5375 3.8492 3.3621 3.7617 0.47461 1.2-20.9 6.2008-41.512 3.9883-62.574-6.4375-21.9-0.96211-47.213-13.537-67.301-10.7-30.762-28.612-61.2-52.787-83.213zm-226.32 10.928c-1.732 0.0602-3.4852 0.30391-5.2441 0.74805-18.412 3.3-28.85 28.001-16.75 42.926 11.875 19.912 46.637 12.086 49.012-10.826 4.3387-16.936-10.275-33.43-27.018-32.848zm53.936 49.416c-1.0105-0.004-2.058 0.0719-3.1426 0.23242-25.262 1.6125-16.8 43.837 6.8496 36.912 21.791-4.5631 16.839-37.072-3.707-37.145zm-55.102 28.268c-1.885 0.001-3.7871 0.20273-5.6797 0.62695-15.65 4.875-25.525 23.7-17.312 38.725 7.65 21.975 43.925 20.126 50.588-2.0117 7.3293-18.578-9.3739-37.351-27.596-37.34zm58.281 40.543c-1.4078-0.0738-2.9453 0.21132-4.5859 0.94726-11.275 4.4125-5.9871 25.423 6.9629 20.586 11.036-2.9859 7.4779-21.016-2.377-21.533zm-30.254 38.512c-3.6891 0.0334-7.3438 0.49805-10.844 1.4219-23.65 6.825-39.438 35.776-31.301 59.951 11.525 35.312 68.638 39.025 85.525 4.2871 1.2-10.95 4.4-22.226 0.8125-33.051-3.3223-20.408-24.272-32.79-44.193-32.609zm-13.803 101.77c-1.3524 0.0324-2.8047 0.29004-4.3535 0.8125-13.225 4.3125-12.713 28.164 2.8242 27.076 19.452 2.708 17.487-28.271 1.5293-27.889z" transform="scale(.8)" fill="#fcca8d"/>
</g>
</svg>
