<?xml version="1.0" encoding="iso-8859-1"?>
<!-- Generator: Adobe Illustrator 19.0.0, SVG Export Plug-In . SVG Version: 6.00 Build 0)  -->
<svg version="1.1" id="Layer_1" xmlns="http://www.w3.org/2000/svg" xmlns:xlink="http://www.w3.org/1999/xlink" x="0px" y="0px"
	 viewBox="0 0 512.001 512.001" style="enable-background:new 0 0 512.001 512.001;" xml:space="preserve">
<g>
	<path style="fill:#57555C;" d="M462.102,393.141l-43.479-31.162c-0.039-0.398-0.096-0.796-0.193-1.19
		c-0.053-0.215-5.302-21.941-9.719-49.663c-0.747-4.69-5.148-7.893-9.844-7.138c-4.689,0.746-7.885,5.154-7.138,9.843
		c2.057,12.909,4.258,24.415,6.07,33.224l-33.196-23.792c-2.194-9.704-9.119-42.276-9.802-69.589
		c-0.484-19.343,3.464-49.822,5.468-63.845l31.662-23.335c-1.533,11.702-3.254,26.179-4.541,40.763
		c-0.417,4.73,3.079,8.904,7.809,9.32c4.732,0.43,8.902-3.08,9.32-7.809c1.982-22.466,5.02-44.733,6.736-56.516l49.006-36.118
		c3.822-2.817,4.637-8.199,1.82-12.021c-2.818-3.822-8.2-4.637-12.022-1.82l-43.241,31.87c-0.815-0.276-1.674-0.439-2.552-0.461
		c-0.41-0.01-41.437-1.239-74.126-19.919c-37.217-21.267-59.304-39.739-67.123-46.741l-0.488-58.516
		C262.493,3.801,258.651,0,253.937,0c-0.024,0-0.049,0-0.073,0c-4.748,0.04-8.565,3.922-8.525,8.67l0.476,56.932
		c-8.153,7.014-37.792,31.745-60.403,40.629c-23.215,9.12-67.805,27.536-78.831,32.099l-46.664-33.447
		c-3.86-2.765-9.23-1.879-11.996,1.98c-2.766,3.859-1.88,9.23,1.98,11.997l50.256,36.019c2.929,14.773,10.199,55.907,8.64,93.314
		c-1.948,46.755-17.674,116.028-17.834,116.722c-0.165,0.724-0.224,1.459-0.201,2.19l-39.024,28.761
		c-3.822,2.817-4.637,8.199-1.82,12.021c1.686,2.287,4.29,3.499,6.927,3.499c1.771,0,3.558-0.547,5.094-1.678l44.799-33.017
		c19.405,3.319,53.532,10.82,67.736,21.151c19.685,14.317,65.564,48.273,74.571,54.941l0.423,50.695
		c0.04,4.724,3.882,8.526,8.596,8.526c0.024,0,0.049,0,0.073,0c4.748-0.04,8.565-3.922,8.525-8.67l-0.48-57.543
		c7.444-12.965,29.294-47.112,58.88-58.946c28.944-11.579,62.817-14.467,77.547-15.186l49.477,35.462
		c1.517,1.087,3.267,1.611,5.002,1.611c2.678,0,5.317-1.248,6.995-3.59C466.848,401.279,465.962,395.907,462.102,393.141z
		 M166.926,202.736l23.616,16.926c0.045,0.198,4.23,18.997,3.539,35.558c-0.577,13.852-4.528,33.337-5.988,40.15l-26.463,19.504
		c3.287-16.823,7.668-42.348,8.513-62.632C170.877,234.601,168.936,216.218,166.926,202.736z M297.405,256.915
		c0.161,6.418,0.863,13.19,1.742,19.431l-28.523-20.444l27.947-20.598C297.821,242.631,297.247,250.602,297.405,256.915z
		 M210.252,233.788l31.127,22.309l-32.929,24.268c1.307-7.912,2.494-16.807,2.812-24.43
		C211.578,248.328,211.03,240.493,210.252,233.788z M264.197,208.029c3.468,2.324,7.489,4.846,12.079,7.467
		c4.192,2.396,8.61,4.145,12.815,5.436l-24.634,18.156L264.197,208.029z M247.261,239.16l-28.347-20.317
		c4.893-1.997,9.887-4.018,13.48-5.43c4.826-1.895,10.033-5.109,14.581-8.313L247.261,239.16z M247.543,272.913l0.345,41.334
		c-6.014-4.441-12.93-9.536-16.95-12.46c-3.611-2.626-8.789-4.697-14.039-6.289L247.543,272.913z M264.739,272.84l26.533,19.018
		c-4.983,0.974-10.326,2.368-15.422,4.407c-3.994,1.598-7.622,3.891-10.863,6.5L264.739,272.84z M307.792,207.149
		c-4.374-0.395-14.612-1.799-22.985-6.582c-9.87-5.64-16.746-10.699-20.788-13.956l-0.279-33.437
		c8.004,5.937,18.857,13.287,32.71,21.204c12.899,7.37,27.097,11.16,38.015,13.113L307.792,207.149z M246.797,183.451
		c-4.303,3.694-13.924,11.3-20.689,13.958c-6.398,2.514-16.835,6.79-23.686,9.612l-29.252-20.967
		c12.107-4.98,28.75-11.786,39.03-15.824c11.617-4.562,24.973-14.019,34.31-21.305L246.797,183.451z M198.713,308.901
		c7.999,1.41,18.304,4.023,22.113,6.792c6.99,5.084,22.858,16.825,27.243,20.07l0.282,33.805
		c-11.88-8.783-30.678-22.664-40.261-29.632c-8.132-5.914-21.743-10.219-33.714-13.098L198.713,308.901z M265.201,328.193
		c3.763-5.664,9.955-13.13,17.037-15.963c13.191-5.278,29.597-5.375,29.752-5.375c0.064,0,0.127-0.009,0.191-0.011l20.374,14.603
		c-11.289,1.542-24.988,4.341-37.709,9.43c-11.688,4.676-21.638,13.213-29.439,21.907L265.201,328.193z M337.616,254.105
		c0.47,18.789,3.601,39.374,6.397,54.399l-24.9-17.846c-1.596-7.659-4.212-21.891-4.519-34.171
		c-0.265-10.625,1.943-27.564,3.042-35.233l23.407-17.251C339.156,219.556,337.249,239.449,337.616,254.105z M321.612,128.713
		c22.667,12.953,48.135,18.352,64.658,20.596l-31.557,23.258c-0.527-0.113-1.065-0.187-1.613-0.201
		c-0.266-0.006-26.839-0.758-48.12-12.919c-21.003-12.002-34.69-22.637-41.425-28.337l-0.346-41.423
		C275.306,99.324,294.587,113.269,321.612,128.713z M191.697,122.234c18.676-7.337,40.561-23.437,54.302-34.438l0.326,39.016
		c-3.449,3.015-24.664,21.23-40.413,27.417c-13.705,5.384-38.53,15.606-49.217,20.02l-33.648-24.116
		C140.734,142.836,173.127,129.529,191.697,122.234z M120.227,169.265l26.717,19.149c1.656,8.06,7.108,36.941,6.017,63.111
		c-1.288,30.94-11.728,76.93-11.834,77.392c-0.091,0.396-0.142,0.796-0.175,1.194l-29.627,21.836
		c4.905-23.928,13.215-68.609,14.649-103.038C127.183,219.923,123.507,189.564,120.227,169.265z M184.588,383.933
		c-13.834-10.061-39.611-17.028-59.007-21.133l30.199-22.257c12.903,2.298,33.547,7.008,42.197,13.298
		c13.935,10.134,47.544,35.02,50.554,37.249l0.335,40.166C231.594,418.481,200.055,395.182,184.588,383.933z M318.676,370.875
		c-22.426,8.97-40.495,27.881-52.75,44.123l-0.283-33.856c6.218-9.975,19.11-27.707,35.589-34.3
		c20.369-8.148,44.561-9.716,52.779-10.018l26.963,19.326C363.26,358.178,340.022,362.337,318.676,370.875z"/>
	<path style="fill:#57555C;" d="M393.826,242.961c-4.747,0.119-8.499,4.063-8.381,8.81c0.064,2.59,0.167,5.302,0.305,8.059
		c0.23,4.597,4.029,8.168,8.579,8.168c0.144,0,0.291-0.003,0.438-0.011c4.742-0.237,8.394-4.275,8.156-9.016
		c-0.131-2.615-0.228-5.181-0.289-7.627C402.517,246.596,398.58,242.853,393.826,242.961z"/>
</g>
<g>
</g>
<g>
</g>
<g>
</g>
<g>
</g>
<g>
</g>
<g>
</g>
<g>
</g>
<g>
</g>
<g>
</g>
<g>
</g>
<g>
</g>
<g>
</g>
<g>
</g>
<g>
</g>
<g>
</g>
</svg>
