<?xml version="1.0" encoding="iso-8859-1"?>
<!-- Generator: Adobe Illustrator 19.0.0, SVG Export Plug-In . SVG Version: 6.00 Build 0)  -->
<svg version="1.1" id="Layer_1" xmlns="http://www.w3.org/2000/svg" xmlns:xlink="http://www.w3.org/1999/xlink" x="0px" y="0px"
	 viewBox="0 0 512 512" style="enable-background:new 0 0 512 512;" xml:space="preserve">
<g>
	<path style="fill:#FBB500;" d="M357.046,344.611H154.632v135.203l52.721-23.844h97.294l52.721,23.844V378.126v-0.133
		C357.262,378.04,357.152,344.565,357.046,344.611z"/>
	<polygon style="fill:#FBB500;" points="256.001,344.611 154.632,344.611 154.632,479.814 207.354,455.97 256.001,455.97 	"/>
</g>
<polygon style="fill:#FFCE47;" points="207.354,344.59 207.354,512 256.001,489.998 304.648,512 304.648,344.632 304.648,344.632 
	"/>
<polygon style="fill:#FFE29E;" points="256.001,344.611 207.354,344.59 207.354,512 256.001,489.998 256.001,489.998 "/>
<polygon style="fill:#FBB500;" points="47.487,198.359 77.829,140.465 87.301,75.786 145.916,46.821 191.552,0 256.001,11.071 
	320.449,0 366.084,46.821 424.699,75.786 434.172,140.465 464.513,198.359 434.172,256.253 424.699,320.931 366.084,349.896 
	320.449,396.717 256.001,385.647 191.552,396.718 145.916,349.896 87.301,320.931 77.829,256.253 "/>
<g>
	<polygon style="fill:#FFCE47;" points="256.001,11.071 191.552,0 145.916,46.821 87.301,75.786 77.829,140.465 47.487,198.359 
		77.829,256.253 87.301,320.931 145.916,349.896 191.552,396.718 256.001,385.647 	"/>
	<circle style="fill:#FFCE47;" cx="256.003" cy="198.359" r="157.565"/>
</g>
<path style="fill:#FFE29E;" d="M256.001,40.799L256.001,40.799c-87.019,0-157.561,70.542-157.561,157.56
	S168.982,355.92,256.001,355.92l0,0V40.799z"/>
<path style="fill:#FBB500;" d="M256.001,80.828c-64.806,0-117.53,52.724-117.53,117.531S191.194,315.89,256,315.89
	s117.53-52.724,117.53-117.531S320.806,80.828,256.001,80.828z"/>
<path style="fill:#FFCE47;" d="M256.001,80.828c-64.806,0-117.53,52.724-117.53,117.531S191.194,315.89,256,315.89L256.001,80.828
	L256.001,80.828z"/>
<g>
</g>
<g>
</g>
<g>
</g>
<g>
</g>
<g>
</g>
<g>
</g>
<g>
</g>
<g>
</g>
<g>
</g>
<g>
</g>
<g>
</g>
<g>
</g>
<g>
</g>
<g>
</g>
<g>
</g>
</svg>
