<?xml version="1.0" encoding="iso-8859-1"?>
<!-- Generator: Adobe Illustrator 19.0.0, SVG Export Plug-In . SVG Version: 6.00 Build 0)  -->
<svg version="1.1" id="Layer_1" xmlns="http://www.w3.org/2000/svg" xmlns:xlink="http://www.w3.org/1999/xlink" x="0px" y="0px"
	 viewBox="0 0 512 512" style="enable-background:new 0 0 512 512;" xml:space="preserve">
<path style="fill:#F0EBE1;" d="M512,184.42c0-5.506-14.663-27.708-41.29-33.032c-30.968-6.194-148.645-8.258-148.645-8.258
	c-41.29,0-66.065,24.774-66.065,24.774s-24.774-24.774-66.065-24.774c0,0-117.677,2.065-148.645,8.258
	C14.663,156.712,0,178.914,0,184.42c0,5.505,61.247,24.774,90.839,24.774c19.124,0,74.748-13.894,111.727-23.727
	c-25.575,15.269-61.529,35.638-78.695,40.244c-28.215,7.57-83.638,25.906-99.097,49.548c-11.699,17.892,3.392,24.774,8.258,24.774
	c13.763,0,97.72,0,123.871-8.258c23.126-7.302,44.099-14.605,65.774-33.331c5.217-4.507,8.02-11.231,7.579-18.111
	c-1.088-16.968,7.524-33.324,25.743-39.397c18.219,6.073,26.831,22.43,25.743,39.397c-0.441,6.88,2.362,13.604,7.579,18.111
	c21.675,18.725,42.649,26.028,65.774,33.331c26.15,8.258,110.107,8.258,123.871,8.258c4.866,0,19.957-6.882,8.258-24.774
	c-15.459-23.643-70.881-41.979-99.097-49.548c-17.166-4.606-53.12-24.974-78.695-40.244c36.98,9.833,92.604,23.727,111.727,23.727
	C450.752,209.194,512,189.925,512,184.42z"/>
<path style="fill:#9F8076;" d="M272.524,151.388c1.242,0,2.5-0.282,3.685-0.871L309.242,134c2.798-1.403,4.565-4.258,4.565-7.387
	V97.001l14.096-14.097c3.226-3.226,3.226-8.451,0-11.677c-3.226-3.226-8.452-3.226-11.678,0l-16.516,16.516
	c-1.548,1.548-2.42,3.645-2.42,5.838v27.928l-28.468,14.234c-4.081,2.041-5.734,7-3.693,11.08
	C266.581,149.718,269.492,151.388,272.524,151.388z"/>
<path style="fill:#C8B6AC;" d="M259.452,175.195c1.198-1.803,3.001-2.927,4.953-3.395c0.106-3.598,2.442-6.854,6.113-7.77
	l33.032-8.258c1.178-0.315,2.428-0.33,3.621-0.089l41.29,8.258c4.468,0.895,7.371,5.242,6.475,9.718
	c-0.887,4.468-5.193,7.403-9.718,6.475l-39.467-7.895l-26.071,6.516l15.998,10.665c1.525,1.016,2.669,2.516,3.25,4.258
	l16.516,49.548c1.443,4.33-0.895,9.009-5.218,10.443c-0.871,0.29-1.75,0.427-2.613,0.427c-3.46,0-6.678-2.185-7.831-5.645
	l-15.621-46.862l-22.42-14.944C257.944,184.113,256.919,178.992,259.452,175.195z"/>
<path style="fill:#9F8076;" d="M239.476,151.388c-1.242,0-2.5-0.282-3.685-0.871L202.758,134c-2.798-1.403-4.565-4.258-4.565-7.387
	V97.001l-14.097-14.097c-3.226-3.226-3.226-8.451,0-11.677c3.226-3.226,8.451-3.226,11.677,0l16.516,16.516
	c1.548,1.548,2.42,3.645,2.42,5.838v27.928l28.468,14.234c4.081,2.041,5.734,7,3.693,11.08
	C245.419,149.718,242.507,151.388,239.476,151.388z"/>
<path style="fill:#C8B6AC;" d="M252.548,175.195c-1.198-1.803-3.001-2.927-4.953-3.395c-0.106-3.598-2.442-6.854-6.113-7.77
	l-33.032-8.258c-1.178-0.315-2.428-0.33-3.621-0.089l-41.29,8.258c-4.468,0.895-7.371,5.242-6.475,9.718
	c0.887,4.468,5.193,7.403,9.718,6.475l39.467-7.895l26.071,6.516l-15.998,10.665c-1.525,1.016-2.669,2.516-3.25,4.258
	l-16.516,49.548c-1.443,4.33,0.895,9.009,5.218,10.443c0.871,0.29,1.75,0.427,2.613,0.427c3.46,0,6.678-2.185,7.831-5.645
	l15.621-46.862l22.42-14.944C254.056,184.113,255.08,178.992,252.548,175.195z"/>
<path style="fill:#46B8BE;" d="M264.258,184.42c13.763,24.838,0,22.594,0,51.097c0,37.612,8.258,98.645,8.258,136.258
	c0,24.977-5.877,50.459-10.62,66.955c-1.71,5.949-10.083,5.949-11.794,0c-4.742-16.496-10.619-41.979-10.619-66.955
	c0-37.612,8.258-98.645,8.258-136.258c0-28.502-13.763-26.258,0-51.097L264.258,184.42L264.258,184.42z"/>
<path style="fill:#46D7A5;" d="M280.774,149.553c0,29.645-11.092,43.126-24.774,43.126s-24.774-13.48-24.774-43.126
	s11.092-31.197,24.774-31.197S280.774,119.908,280.774,149.553z"/>
<g>
	<path style="fill:#4691BE;" d="M271.473,390.871h-30.946c0.584,5.65,1.39,11.184,2.321,16.516h26.305
		C270.082,402.055,270.888,396.521,271.473,390.871z"/>
	<path style="fill:#4691BE;" d="M241.883,324.807c-0.441,5.622-0.847,11.15-1.197,16.516h30.627
		c-0.35-5.366-0.757-10.894-1.197-16.516H241.883z"/>
	<path style="fill:#4691BE;" d="M239.484,371.775c0,0.86,0.059,1.72,0.072,2.581h32.888c0.013-0.861,0.072-1.721,0.072-2.581
		c0-4.347-0.121-9.035-0.316-13.935h-32.402C239.604,362.739,239.484,367.428,239.484,371.775z"/>
	<path style="fill:#4691BE;" d="M264.894,225.71h-17.789c0.386,2.828,0.637,6.035,0.637,9.806c0,2.156-0.034,4.408-0.086,6.71
		h16.686c-0.051-2.301-0.086-4.553-0.086-6.71C264.258,231.745,264.508,228.539,264.894,225.71z"/>
	<path style="fill:#4691BE;" d="M244.597,291.775c-0.45,5.484-0.911,11.002-1.372,16.516h25.548
		c-0.46-5.514-0.922-11.031-1.372-16.516H244.597z"/>
	<path style="fill:#4691BE;" d="M246.984,258.742c-0.298,5.32-0.673,10.859-1.09,16.516h20.212
		c-0.417-5.657-0.792-11.196-1.09-16.516L246.984,258.742L246.984,258.742z"/>
</g>
<ellipse style="fill:#7A645A;" cx="256" cy="105.971" rx="24.774" ry="20.645"/>
<g>
	<path style="fill:#9F8076;" d="M252.307,88.266c-5.748-5.194-16.149-3.33-23.231,4.167c-7.082,7.497-8.164,17.785-2.417,22.98
		c5.748,5.195,16.149,3.331,23.232-4.165C256.973,103.751,258.055,93.461,252.307,88.266z"/>
	<path style="fill:#9F8076;" d="M259.692,88.266c5.748-5.194,16.149-3.33,23.231,4.167c7.082,7.497,8.164,17.785,2.417,22.98
		c-5.748,5.195-16.149,3.331-23.232-4.165C255.026,103.751,253.944,93.461,259.692,88.266z"/>
</g>
<g>
</g>
<g>
</g>
<g>
</g>
<g>
</g>
<g>
</g>
<g>
</g>
<g>
</g>
<g>
</g>
<g>
</g>
<g>
</g>
<g>
</g>
<g>
</g>
<g>
</g>
<g>
</g>
<g>
</g>
</svg>
