<?xml version="1.0" encoding="iso-8859-1"?>
<!-- Generator: Adobe Illustrator 19.0.0, SVG Export Plug-In . SVG Version: 6.00 Build 0)  -->
<svg version="1.1" id="Layer_1" xmlns="http://www.w3.org/2000/svg" xmlns:xlink="http://www.w3.org/1999/xlink" x="0px" y="0px"
	 viewBox="0 0 512.001 512.001" style="enable-background:new 0 0 512.001 512.001;" xml:space="preserve">
<g>
	<path style="fill:#6B676E;" d="M196.277,149.084c-2.433,0-4.85-1.034-6.542-3.042l-45.167-53.7
		c-1.425-1.383-6.133-3.617-8.842-3.884l-68.35-6.833C61.102,81,52.66,77.551,47.736,73.617l-36-28.8
		c-3.675-2.95-4.275-8.317-1.333-12c2.95-3.659,8.317-4.275,12-1.333l36,28.8c2.367,1.9,7.659,4.059,10.675,4.358l68.35,6.833
		c6.675,0.667,14.966,4.599,19.709,9.342l45.666,54.242c3.034,3.609,2.566,8.992-1.042,12.024
		C200.161,148.426,198.211,149.084,196.277,149.084z"/>
	<path style="fill:#6B676E;" d="M315.727,149.084c2.433,0,4.85-1.034,6.542-3.042l45.167-53.7c1.425-1.383,6.133-3.617,8.842-3.884
		l68.35-6.833c6.275-0.625,14.717-4.075,19.642-8.009l36-28.8c3.675-2.95,4.275-8.317,1.333-12c-2.95-3.659-8.317-4.275-12-1.333
		l-36,28.8c-2.367,1.9-7.659,4.059-10.675,4.358l-68.35,6.833c-6.675,0.667-14.966,4.599-19.709,9.342l-45.666,54.242
		c-3.034,3.609-2.566,8.992,1.042,12.024C311.843,148.426,313.793,149.084,315.727,149.084z"/>
	<path style="fill:#6B676E;" d="M503.456,302.684c2.758,0,5.467-1.333,7.108-3.799c2.617-3.925,1.558-9.217-2.367-11.834
		l-18.5-12.334c-2.684-1.783-6.575-6.192-8.017-9.084l-17.967-35.933c-3.342-6.684-11.108-12.417-18.475-13.633l-127.925-24.166
		c-4.625-0.842-9.091,2.166-9.967,6.8c-0.875,4.634,2.166,9.091,6.8,9.967l128.116,24.199c2.116,0.358,5.309,2.717,6.183,4.467
		l17.967,35.933c2.758,5.517,8.7,12.25,13.825,15.659l18.492,12.325C500.189,302.217,501.831,302.684,503.456,302.684z"/>
	<path style="fill:#6B676E;" d="M486.39,430.683c2.758,0,5.467-1.333,7.108-3.799c2.617-3.925,1.558-9.217-2.367-11.834
		l-18.5-12.334c-2.533-1.692-6.217-6.075-7.425-8.859L412.297,272.95c-2.942-6.758-10.284-12.966-17.45-14.75l-59.983-14.992
		c-4.566-1.15-9.2,1.625-10.341,6.208c-1.15,4.566,1.633,9.2,6.208,10.341l59.991,14.999c1.967,0.492,5.125,3.167,5.934,5.017
		l52.909,120.907c2.509,5.766,8.367,12.75,13.608,16.242l18.492,12.325C483.123,430.217,484.764,430.683,486.39,430.683z"/>
</g>
<ellipse style="fill:#46C19C;" cx="255.999" cy="272.82" rx="85.333" ry="140.799"/>
<g>
	<path style="fill:#585661;" d="M230.41,55.219c-3.134,0-6.142-1.725-7.642-4.717c-2.109-4.217-0.4-9.342,3.817-11.45
		c11.408-5.7,12.35-15.792,12.35-26.5c0-4.717,3.817-8.533,8.533-8.533s8.533,3.817,8.533,8.533c0,10.024,0,30.875-21.783,41.766
		C232.994,54.927,231.693,55.219,230.41,55.219z"/>
	<path style="fill:#585661;" d="M281.591,55.219c3.134,0,6.142-1.725,7.642-4.717c2.109-4.217,0.4-9.342-3.817-11.45
		c-11.408-5.7-12.35-15.792-12.35-26.5c0-4.717-3.816-8.533-8.533-8.533c-4.717,0-8.533,3.817-8.533,8.533
		c0,10.024,0,30.875,21.783,41.766C279.007,54.927,280.306,55.219,281.591,55.219z"/>
</g>
<g>
	<circle style="fill:#7A645A;" cx="213.333" cy="55.219" r="25.6"/>
	<circle style="fill:#7A645A;" cx="298.666" cy="55.219" r="25.6"/>
</g>
<ellipse style="fill:#6B676E;" cx="255.999" cy="89.354" rx="67.424" ry="51.2"/>
<path style="fill:#9BE178;" d="M324.268,132.018c0,56.553-30.564,119.466-68.266,119.466s-68.266-62.913-68.266-119.466
	s30.564-76.8,68.266-76.8S324.268,75.464,324.268,132.018z"/>
<g>
	<path style="fill:#6B676E;" d="M8.544,302.684c-2.758,0-5.467-1.333-7.108-3.799c-2.617-3.925-1.558-9.217,2.367-11.834
		l18.5-12.334c2.684-1.783,6.575-6.192,8.017-9.084l17.967-35.933c3.342-6.684,11.108-12.417,18.475-13.633l127.925-24.166
		c4.625-0.842,9.091,2.166,9.967,6.8c0.875,4.634-2.166,9.091-6.8,9.967L69.737,232.867c-2.116,0.358-5.309,2.717-6.183,4.467
		l-17.967,35.933c-2.758,5.517-8.7,12.25-13.825,15.659L13.27,301.251C11.811,302.217,10.17,302.684,8.544,302.684z"/>
	<path style="fill:#6B676E;" d="M25.611,430.683c-2.758,0-5.467-1.333-7.108-3.799c-2.617-3.925-1.558-9.217,2.367-11.834
		l18.5-12.334c2.533-1.692,6.217-6.075,7.425-8.859L99.703,272.95c2.942-6.758,10.284-12.966,17.45-14.75l59.983-14.992
		c4.566-1.15,9.2,1.625,10.341,6.208c1.15,4.566-1.633,9.2-6.208,10.341l-59.991,14.999c-1.967,0.492-5.125,3.167-5.933,5.017
		L62.436,400.683c-2.509,5.766-8.367,12.75-13.608,16.242L30.336,429.25C28.878,430.217,27.236,430.683,25.611,430.683z"/>
</g>
<g>
	<path style="fill:#78C36E;" d="M277.677,195.084c-7.917-1.716-15.399-3.333-21.675-3.333s-13.758,1.617-21.675,3.333
		c-14.396,3.12-26.461,5.266-33.773,2.369c2.622,6.525,5.591,12.677,8.867,18.367c9.636,0.009,19.805-2.169,28.521-4.052
		c7.001-1.517,13.608-2.95,18.059-2.95s11.058,1.434,18.059,2.95c8.7,1.884,18.85,4.075,28.475,4.075
		c0.012,0,0.022-0.001,0.034-0.001c3.281-5.697,6.256-11.857,8.881-18.391C304.137,200.351,292.076,198.205,277.677,195.084z"/>
	<path style="fill:#78C36E;" d="M192.455,98.345c-1.818,5.692-3.116,12.051-3.878,19.072c19.838-6.972,42.851-10.999,67.425-10.999
		c24.574,0,47.588,4.027,67.425,10.999c-0.762-7.021-2.061-13.38-3.878-19.072c-19.413-5.669-40.841-8.994-63.547-8.994
		S211.868,92.676,192.455,98.345z"/>
</g>
<path style="fill:#F0EBE1;" d="M417.992,413.617c-2.133-43.733-78.932-221.866-97.065-248.532
	c-10.891,37.804-39.056,57.272-64.996,69.939c-25.94-12.667-54.105-32.135-64.996-69.939
	c-18.133,26.667-94.933,204.799-97.066,248.532s20.267,100.266,42.666,93.866c14.855-4.244,73.899-74.482,119.396-143.508
	c45.496,69.026,104.539,139.263,119.395,143.508C397.726,513.883,420.126,457.35,417.992,413.617z"/>
<path style="fill:#B5DCC9;" d="M255.931,235.024c-23.488-11.469-48.664-28.667-61.325-59.851
	c-14.796,25.32-23.938,59.696-23.938,97.645c0,61.095,23.628,112.951,56.593,132.437c9.791-13.452,19.506-27.377,28.67-41.279
	c9.178,13.923,18.908,27.869,28.712,41.339c33.016-19.441,56.69-71.341,56.69-132.497c0-38.024-9.176-72.465-24.023-97.799
	C304.671,206.298,279.457,223.536,255.931,235.024z"/>
<path style="fill:#9FC7B6;" d="M255.931,235.024c-29.32,14.317-55.798,19.943-51.27,33.527c8.542,25.624,28.165,60.37,51.27,95.425
	c23.106-35.055,42.728-69.799,51.27-95.425C311.729,254.968,285.251,249.341,255.931,235.024z"/>
<path style="fill:#AADCAA;" d="M193.736,176.809c10.672,40.553,34.51,74.676,62.265,74.676c27.756,0,51.594-34.12,62.265-74.675
	c-0.33-0.581-0.621-1.22-0.956-1.792c-12.641,31.28-37.855,48.518-61.38,60.006c-23.488-11.469-48.664-28.667-61.325-59.852
	C194.302,175.695,194.037,176.279,193.736,176.809z"/>
<g>
	<path style="fill:#91CF8C;" d="M303.468,198.698c-4.671,5.954-9.832,11.205-15.334,15.838c4.771,0.768,9.649,1.308,14.401,1.308
		c0.01,0,0.02-0.001,0.03-0.001c0.019-0.032,0.038-0.067,0.057-0.099c1.603-2.789,3.133-5.687,4.583-8.688
		c0.023-0.048,0.048-0.094,0.07-0.142c1.446-2.999,2.812-6.102,4.097-9.29c0.022-0.057,0.044-0.114,0.066-0.172
		C309.232,198.326,306.474,198.631,303.468,198.698z"/>
	<path style="fill:#91CF8C;" d="M223.731,214.542c-5.505-4.634-10.67-9.884-15.342-15.84c-2.947-0.076-5.65-0.387-7.823-1.247
		c0.023,0.059,0.045,0.119,0.068,0.179c1.283,3.181,2.645,6.279,4.09,9.272c0.021,0.044,0.044,0.085,0.065,0.129
		c1.447,2.994,2.975,5.887,4.574,8.67c0.021,0.037,0.043,0.076,0.064,0.113C214.145,215.824,218.989,215.295,223.731,214.542z"/>
</g>
<g>
	<path style="fill:#ADA9A7;" d="M174.711,195.674c-2.793,5.812-5.782,12.208-8.91,19.047l13.297-2.512
		c1.887-6.479,4.031-12.7,6.472-18.587L174.711,195.674z"/>
	<path style="fill:#ADA9A7;" d="M172.44,244.382l-22.215,5.553c-2.761,6.429-5.539,12.999-8.315,19.666l29.074-7.269
		C171.257,256.238,171.709,250.233,172.44,244.382z"/>
	<path style="fill:#ADA9A7;" d="M337.29,195.674c2.793,5.812,5.782,12.208,8.91,19.047l-13.297-2.512
		c-1.887-6.479-4.031-12.7-6.473-18.587L337.29,195.674z"/>
	<path style="fill:#ADA9A7;" d="M339.562,244.382l22.215,5.553c2.761,6.429,5.539,12.999,8.315,19.666l-29.074-7.269
		C340.743,256.238,340.292,250.233,339.562,244.382z"/>
</g>
<g>
</g>
<g>
</g>
<g>
</g>
<g>
</g>
<g>
</g>
<g>
</g>
<g>
</g>
<g>
</g>
<g>
</g>
<g>
</g>
<g>
</g>
<g>
</g>
<g>
</g>
<g>
</g>
<g>
</g>
</svg>
