<?xml version="1.0" encoding="iso-8859-1"?>
<!-- Generator: Adobe Illustrator 19.0.0, SVG Export Plug-In . SVG Version: 6.00 Build 0)  -->
<svg version="1.1" id="Layer_1" xmlns="http://www.w3.org/2000/svg" xmlns:xlink="http://www.w3.org/1999/xlink" x="0px" y="0px"
	 viewBox="0 0 512 512" style="enable-background:new 0 0 512 512;" xml:space="preserve">
<path style="fill:#3AACE6;" d="M4.909,507.087L4.909,507.087c-6.546-6.546-6.546-17.158,0-23.704l189.637-189.637
	c6.546-6.546,17.158-6.546,23.704,0l0,0c6.546,6.546,6.546,17.158,0,23.704L28.615,507.087
	C22.069,513.633,11.455,513.633,4.909,507.087z"/>
<path style="fill:#2B9FD9;" d="M28.615,507.087L218.252,317.45c6.546-6.546,6.545-17.159,0-23.704L4.909,507.087
	C11.455,513.633,22.069,513.633,28.615,507.087z"/>
<path style="fill:#3AACE6;" d="M378.008,184.258c-12.887,0-25.765-4.9-35.564-14.699c-9.505-9.505-14.732-22.131-14.732-35.564
	s5.227-26.059,14.732-35.558c19.588-19.593,51.508-19.616,71.118,0c19.599,19.61,19.599,51.508,0.011,71.112
	c-0.011,0.006-0.011,0.006-0.011,0.006C403.76,179.359,390.884,184.258,378.008,184.258z M401.71,157.703h0.109H401.71z"/>
<path style="fill:#2B9FD9;" d="M342.443,169.558c9.8,9.8,22.677,14.701,35.564,14.7c12.879,0,25.754-4.9,35.553-14.7
	c0,0,0.001-0.004,0.011-0.011c19.589-19.603,19.589-51.501-0.01-71.111l-71.12,71.12L342.443,169.558z"/>
<path style="fill:#C9D3D9;" d="M383.966,457.585c-1.735,0-3.47-0.07-5.216-0.212c-18.464-1.528-35.225-11.049-45.985-26.125
	l-86.875-121.62c-4.758-6.668-4.005-15.802,1.79-21.596l47.404-47.41c6.286-6.286,17.417-6.286,23.702,0l109.617,109.611l0,0
	c24.51,24.52,24.51,64.412,0,88.932C416.539,451.027,400.586,457.585,383.966,457.585z"/>
<path style="fill:#DAE1E6;" d="M449.113,392.372c-16.107,0-32.203-6.127-44.469-18.382c0-0.006,0-0.006,0-0.006L295.038,264.373
	c-6.547-6.542-6.547-17.155,0-23.702l47.404-47.41c5.795-5.8,14.928-6.542,21.596-1.79l121.632,86.875
	c15.07,10.765,24.586,27.527,26.114,45.991c1.528,18.453-5.107,36.552-18.202,49.647
	C481.328,386.244,465.22,392.372,449.113,392.372z"/>
<path style="fill:#DBE1E5;" d="M212.115,269.234c-3.394,0-6.81-1.026-9.745-3.121l-121.621-86.88
	c-15.07-10.76-24.586-27.522-26.125-45.975c-1.528-18.464,5.107-36.563,18.213-49.663c11.873-11.878,27.663-18.42,44.458-18.42
	s32.585,6.542,44.469,18.414v0.006l109.617,109.617c3.143,3.143,4.911,7.404,4.911,11.851s-1.768,8.708-4.911,11.85l-47.415,47.41
	C220.725,267.57,216.425,269.234,212.115,269.234z"/>
<path style="fill:#EDF0F2;" d="M259.475,221.875c-4.289,0-8.578-1.637-11.851-4.911L138.007,107.347l0,0
	c-24.51-24.515-24.51-64.412,0-88.926C151.103,5.319,169.184-1.288,187.66,0.213c18.464,1.528,35.225,11.049,45.985,26.125
	l86.886,121.621c4.758,6.668,4.005,15.802-1.79,21.596l-47.415,47.41C268.052,220.238,263.763,221.875,259.475,221.875z"/>
<path style="fill:#61DAF2;" d="M198.498,313.5L198.498,313.5c-19.638-19.638-19.638-51.476,0-71.114l94.819-94.819
	c19.638-19.638,51.476-19.638,71.114,0l0,0c19.638,19.638,19.638,51.476,0,71.114L269.612,313.5
	C249.974,333.138,218.135,333.138,198.498,313.5z"/>
<path style="fill:#45C7E6;" d="M269.611,313.5l94.819-94.819c19.638-19.638,19.638-51.476,0-71.114L198.498,313.5
	C218.136,333.138,249.974,333.138,269.611,313.5z"/>
<g>
</g>
<g>
</g>
<g>
</g>
<g>
</g>
<g>
</g>
<g>
</g>
<g>
</g>
<g>
</g>
<g>
</g>
<g>
</g>
<g>
</g>
<g>
</g>
<g>
</g>
<g>
</g>
<g>
</g>
</svg>
