<?xml version="1.0" encoding="iso-8859-1"?>
<!-- Generator: Adobe Illustrator 19.0.0, SVG Export Plug-In . SVG Version: 6.00 Build 0)  -->
<svg version="1.1" id="Layer_1" xmlns="http://www.w3.org/2000/svg" xmlns:xlink="http://www.w3.org/1999/xlink" x="0px" y="0px"
	 viewBox="0 0 512 512" style="enable-background:new 0 0 512 512;" xml:space="preserve">
<g>
	<path style="fill:#FFDC50;" d="M256,273.52c0,0-26.465,44.109-26.465,105.861c0,0-13.336,26.672-16.82,62.625
		c-0.569,5.878-7.761,8.319-11.97,4.177c-11.829-11.641-33.952-29.696-70.456-46.953c-61.553-29.098-81.98-69.751-77.191-108.067
		c3.308-26.465,26.465-52.931,26.465-52.931l176.436-8.822L256,273.52z"/>
	<path style="fill:#FFDC50;" d="M7.369,68.241c-5.057,1.098-8.143,6.268-7.201,11.357c6.25,33.811,28.962,151.879,42.474,158.636
		c17.644,8.822,151.606,8.822,213.358-8.822v-35.287C256,194.124,158.961,35.332,7.369,68.241z"/>
</g>
<g>
	<path style="fill:#FFBE46;" d="M7.932,119.612c1.139,5.611,2.348,11.457,3.619,17.446c38.574-4.597,144.267-10.947,229.063,42.154
		c-94.908-14.506-177.288,5.537-214.965,17.463c1.682,6.161,3.362,11.906,5.02,17.055c38.298-11.959,127.169-33.372,225.333-13.85
		v-5.755c0,0-13.026-21.253-36.9-46.581C134.906,108.479,43.17,115.024,7.932,119.612z"/>
	<path style="fill:#FFBE46;" d="M79.565,238.233c0,0-23.157,26.465-26.465,52.931c-2.128,17.022,0.758,34.501,9.977,51.226
		c23.492-23.769,86.697-81.942,168.949-111.78L79.565,238.233z"/>
</g>
<g>
	<path style="fill:#FFDC50;" d="M256,273.52c0,0,26.465,44.109,26.465,105.861c0,0,13.336,26.672,16.82,62.625
		c0.569,5.878,7.761,8.319,11.97,4.177c11.829-11.641,33.952-29.696,70.456-46.953c61.553-29.098,81.98-69.751,77.191-108.067
		c-3.308-26.465-26.465-52.931-26.465-52.931l-176.436-8.822L256,273.52z"/>
	<path style="fill:#FFDC50;" d="M504.63,68.241c5.057,1.098,8.143,6.268,7.201,11.357c-6.25,33.811-28.962,151.879-42.474,158.636
		c-17.644,8.822-151.606,8.822-213.358-8.822v-35.287C256,194.124,353.04,35.332,504.63,68.241z"/>
</g>
<g>
	<path style="fill:#FFBE46;" d="M504.069,119.612c-1.139,5.611-2.348,11.457-3.619,17.446
		c-38.574-4.597-144.267-10.947-229.063,42.154c94.908-14.506,177.288,5.537,214.965,17.463c-1.682,6.161-3.362,11.906-5.02,17.055
		c-38.298-11.959-127.169-33.372-225.333-13.85v-5.755c0,0,13.025-21.253,36.9-46.581
		C377.094,108.479,468.831,115.024,504.069,119.612z"/>
	<path style="fill:#FFBE46;" d="M432.436,238.233c0,0,23.157,26.465,26.465,52.931c2.128,17.022-0.758,34.501-9.977,51.226
		c-23.492-23.769-86.697-81.942-168.949-111.78L432.436,238.233z"/>
</g>
<path style="fill:#B49F77;" d="M256,180.891c-1.947,0-3.661-1.275-4.221-3.145c-17.067-56.885-51.191-85.814-51.535-86.098
	c-1.869-1.559-2.119-4.343-0.56-6.212c1.568-1.869,4.343-2.111,6.212-0.56c1.37,1.137,31.505,26.689,50.106,77.622
	c18.6-50.931,48.735-76.484,50.104-77.622c1.887-1.577,4.644-1.301,6.212,0.56c1.559,1.869,1.31,4.652-0.56,6.212
	c-0.345,0.285-34.521,29.385-51.535,86.098C259.661,179.617,257.947,180.891,256,180.891z"/>
<path style="fill:#A58C69;" d="M256,344.095c-4.876,0-8.822-3.946-8.822-8.822V176.481c0-4.876,3.946-8.822,8.822-8.822
	c4.876,0,8.822,3.946,8.822,8.822v158.792C264.822,340.149,260.877,344.095,256,344.095z"/>
<path style="fill:#B49F77;" d="M256,273.52L256,273.52c-9.745,0-17.644-7.899-17.644-17.644v-52.931
	c0-9.745,7.899-17.644,17.644-17.644l0,0c9.745,0,17.644,7.899,17.644,17.644v52.931C273.644,265.621,265.744,273.52,256,273.52z"/>
<g>
</g>
<g>
</g>
<g>
</g>
<g>
</g>
<g>
</g>
<g>
</g>
<g>
</g>
<g>
</g>
<g>
</g>
<g>
</g>
<g>
</g>
<g>
</g>
<g>
</g>
<g>
</g>
<g>
</g>
</svg>
