<?xml version="1.0" encoding="iso-8859-1"?>
<!-- Generator: Adobe Illustrator 19.0.0, SVG Export Plug-In . SVG Version: 6.00 Build 0)  -->
<svg version="1.1" id="Layer_1" xmlns="http://www.w3.org/2000/svg" xmlns:xlink="http://www.w3.org/1999/xlink" x="0px" y="0px"
	 viewBox="0 0 512 512" style="enable-background:new 0 0 512 512;" xml:space="preserve">
<path style="fill:#FF413C;" d="M110.631,230.347c-17.102,8.551-59.858,42.756-59.858,85.511s34.205,94.063,128.267,145.37
	c0,0,59.858-68.409,59.858-102.614c0-25.653,0-128.267,0-128.267H110.631z"/>
<path style="fill:#C53C3C;" d="M78.158,256.001h160.74c0-15.126,0-25.653,0-25.653H110.631
	C102.924,234.2,90.023,243.296,78.158,256.001z"/>
<path style="fill:#FF413C;" d="M46.789,50.773c-26.19,0-39.417,15.9-38.748,34.209C8.245,90.584,10.802,96,12.584,102.08
	c12.535,42.756,8.551,76.96,8.551,94.063s17.102,42.756,42.756,42.756s192.109,0,192.109,0v-8.551
	C230.347,144.836,102.08,50.773,46.789,50.773z"/>
<path style="fill:#E6C3B4;" d="M238.898,264.552c-42.756,94.063-59.858,196.676-59.858,196.676s59.858-68.409,59.858-102.614
	C238.898,342.643,238.898,296.85,238.898,264.552z"/>
<path style="fill:#C53C3C;" d="M46.789,50.773c-26.19,0-39.417,15.9-38.748,34.209C8.245,90.584,10.802,96,12.584,102.08
	c6.006,20.487,8.173,38.93,8.849,54.551l0,0c31.678-23.611,114.688-49.933,226.014,82.267c5.388,0,8.551,0,8.551,0v-8.551
	C230.347,144.836,102.08,50.773,46.789,50.773z"/>
<path style="fill:#FF413C;" d="M401.37,230.347c17.102,8.551,59.858,42.756,59.858,85.511s-34.205,94.063-128.267,145.37
	c0,0-59.858-68.409-59.858-102.614c0-25.653,0-128.267,0-128.267H401.37z"/>
<path style="fill:#C53C3C;" d="M433.843,256.001h-160.74c0-15.126,0-25.653,0-25.653H401.37
	C409.077,234.2,421.978,243.296,433.843,256.001z"/>
<path style="fill:#FF413C;" d="M465.212,50.773c26.19,0,39.417,15.9,38.748,34.209c-0.204,5.602-2.761,11.018-4.544,17.098
	c-12.535,42.756-8.551,76.96-8.551,94.063s-17.102,42.756-42.756,42.756s-192.109,0-192.109,0v-8.551
	C281.654,144.836,409.921,50.773,465.212,50.773z"/>
<path style="fill:#E6C3B4;" d="M273.103,264.552c42.756,94.063,59.858,196.676,59.858,196.676s-59.858-68.409-59.858-102.614
	C273.103,342.643,273.103,296.85,273.103,264.552z"/>
<path style="fill:#C53C3C;" d="M465.212,50.773c26.19,0,39.417,15.9,38.748,34.209c-0.204,5.602-2.761,11.018-4.544,17.098
	c-6.006,20.487-8.173,38.93-8.849,54.551l0,0c-31.678-23.611-114.688-49.933-226.014,82.267c-5.388,0-8.551,0-8.551,0v-8.551
	C281.654,144.836,409.921,50.773,465.212,50.773z"/>
<path style="fill:#463246;" d="M256,213.245L256,213.245c-9.446,0-17.102-7.656-17.102-17.102l0,0
	c0-9.446,7.656-17.102,17.102-17.102l0,0c9.446,0,17.102,7.656,17.102,17.102l0,0C273.103,205.587,265.446,213.245,256,213.245z"/>
<path style="fill:#5A464B;" d="M256,298.756L256,298.756c-9.446,0-17.102-7.656-17.102-17.102v-59.858
	c0-9.446,7.656-17.102,17.102-17.102l0,0c9.446,0,17.102,7.656,17.102,17.102v59.858C273.103,291.099,265.446,298.756,256,298.756z"
	/>
<path d="M501.217,56.236c-8.503-8.818-20.954-13.48-36.006-13.48c-20.474,0-56.166,15.227-90.932,38.792
	c-27.887,18.902-66.81,50.763-99.609,97.81c-0.423-0.469-0.866-0.92-1.322-1.356l41.565-124.694c1.4-4.201-0.87-8.74-5.071-10.141
	c-4.2-1.4-8.74,0.87-10.141,5.071l-40.978,122.936c-0.895-0.097-1.803-0.15-2.722-0.15s-1.828,0.053-2.722,0.15l-40.98-122.937
	c-1.401-4.201-5.94-6.47-10.141-5.071c-4.201,1.4-6.47,5.94-5.071,10.141l41.565,124.694c-0.456,0.436-0.899,0.887-1.322,1.356
	c-32.799-47.047-71.722-78.908-99.609-97.81c-34.765-23.565-70.457-38.791-90.932-38.791c-15.053,0-27.503,4.661-36.006,13.48
	C3.443,63.849-0.376,74.162,0.029,85.275c0.188,5.141,1.76,9.746,3.28,14.2c0.57,1.671,1.108,3.247,1.581,4.86
	c10.058,34.309,9.105,62.69,8.473,81.469c-0.133,3.928-0.246,7.32-0.246,10.338c0,20.701,19.779,50.772,50.772,50.772h11.904
	c-3.082,2.96-6.039,6.111-8.697,9.251c-11.104,13.125-24.342,34.135-24.342,59.692c0,36.57,22.978,92.698,132.446,152.407
	c1.21,0.661,2.528,0.98,3.835,0.98c2.253,0,4.472-0.949,6.037-2.739c0.623-0.712,15.423-17.676,30.463-39.162
	c20.821-29.744,31.377-52.869,31.377-68.731v-53.548c2.82,1.098,5.882,1.707,9.086,1.707c3.203,0,6.266-0.609,9.086-1.707v53.548
	c0,36.172,55.512,100.659,61.841,107.893c1.565,1.788,3.784,2.738,6.037,2.738c1.306,0,2.625-0.32,3.835-0.98
	c109.467-59.709,132.445-115.837,132.445-152.407c0-25.557-13.238-46.567-24.343-59.692c-2.658-3.141-5.616-6.292-8.697-9.251
	h11.904c30.994,0,50.772-30.071,50.772-50.772c0-3.019-0.113-6.411-0.246-10.338c-0.632-18.779-1.585-47.16,8.473-81.469
	c0.472-1.613,1.011-3.191,1.581-4.86c1.52-4.454,3.093-9.059,3.28-14.2C512.377,74.162,508.557,63.849,501.217,56.236z
	 M265.086,196.143c0,5.01-4.076,9.086-9.086,9.086c-5.01,0-9.086-4.076-9.086-9.086s4.076-9.086,9.086-9.086
	C261.01,187.057,265.086,191.133,265.086,196.143z M63.891,230.882c-21.55,0-34.739-22.492-34.739-34.739
	c0-2.749,0.11-6.017,0.237-9.8c0.625-18.602,1.672-49.736-9.111-86.517c-0.572-1.951-1.193-3.77-1.795-5.53
	c-1.25-3.662-2.33-6.824-2.431-9.604c-0.249-6.82,1.92-12.81,6.273-17.325c5.409-5.611,13.868-8.575,24.464-8.575
	c14.325,0,45.217,11.141,81.936,36.03c28.707,19.459,69.603,53.221,102.287,103.895c0.571,5.586,2.983,10.632,6.613,14.529
	c-4.18,4.488-6.745,10.5-6.745,17.102v0.534H63.891V230.882z M85.813,380.232c-17.932-21.708-27.024-43.366-27.024-64.373
	c0-36.915,36.369-66.736,43.773-68.944h128.319v15.917c-34.399,76.261-52.317,157.827-57.846,185.861
	C134.478,426.658,105.166,403.657,85.813,380.232z M193.186,430.87c6.646-29.634,18.84-77.162,37.696-126.299v54.045
	C230.881,376.315,210.851,407.345,193.186,430.87z M256,290.74c-5.01,0-9.086-4.076-9.086-9.086v-51.307
	c0-5.01,4.076-9.086,9.086-9.086c5.01,0,9.086,4.076,9.086,9.086v51.307C265.086,286.664,261.01,290.74,256,290.74z
	 M281.119,304.569c18.855,49.137,31.049,96.666,37.696,126.299c-17.666-23.523-37.696-54.553-37.696-72.254V304.569z
	 M453.211,315.859c0,21.007-9.092,42.666-27.024,64.373c-19.352,23.426-48.664,46.427-87.222,68.462
	c-5.529-28.034-23.447-109.6-57.846-185.861v-15.917h128.319C416.842,249.122,453.211,278.943,453.211,315.859z M493.517,94.294
	c-0.602,1.76-1.223,3.581-1.795,5.53c-10.783,36.783-9.737,67.916-9.111,86.517c0.127,3.784,0.237,7.051,0.237,9.8
	c0,12.247-13.189,34.739-34.739,34.739h-166.99v-0.534c0-6.603-2.564-12.614-6.745-17.102c3.63-3.897,6.042-8.943,6.613-14.529
	c32.684-50.674,73.579-84.436,102.287-103.895c36.72-24.889,67.611-36.03,81.936-36.03c10.596,0,19.055,2.965,24.464,8.575
	c4.354,4.515,6.522,10.505,6.273,17.325C495.847,87.469,494.767,90.632,493.517,94.294z"/>
<g>
</g>
<g>
</g>
<g>
</g>
<g>
</g>
<g>
</g>
<g>
</g>
<g>
</g>
<g>
</g>
<g>
</g>
<g>
</g>
<g>
</g>
<g>
</g>
<g>
</g>
<g>
</g>
<g>
</g>
</svg>
