<?xml version="1.0" encoding="iso-8859-1"?>
<!-- Generator: Adobe Illustrator 19.0.0, SVG Export Plug-In . SVG Version: 6.00 Build 0)  -->
<svg version="1.1" id="Layer_1" xmlns="http://www.w3.org/2000/svg" xmlns:xlink="http://www.w3.org/1999/xlink" x="0px" y="0px"
	 viewBox="0 0 512 512" style="enable-background:new 0 0 512 512;" xml:space="preserve">
<g>
	<path style="fill:#FF3F62;" d="M269.367,400.144l20.452,20.585c38.233,38.482,100.292,39.097,139.281,1.381l0,0
		c32.828-31.757,32.307-84.551-1.142-115.653l-20.46-19.025l-40.195-31.533l-92.394,7.516L269.367,400.144z"/>
	<path style="fill:#FF3F62;" d="M242.632,400.144l-20.452,20.585c-38.233,38.482-100.292,39.097-139.281,1.381l0,0
		c-32.828-31.757-32.307-84.551,1.142-115.653l20.46-19.025l21.924-24.017l108.692,12.176l-0.452,24.689
		c0,0,7.967,22.743,7.967,26.34c0,3.596-2.309,73.238-2.309,73.238"/>
</g>
<g style="opacity:0.27;">
	<path style="fill:#C70024;" d="M233.296,277.88l-108.692-12.176l-22.213,23.69l-20.39,19.026c-0.908,0.845-1.942,2.061-2.801,2.937
		c37.652,0.153,121.361,0.427,156.707,0.22c-1.641-4.953-3.061-9.01-3.061-9.01L233.296,277.88z"/>
</g>
<g style="opacity:0.27;">
	<path style="fill:#C70024;" d="M278.697,277.88l108.692-12.176l22.213,23.69l20.39,19.026c0.908,0.845,1.941,2.061,2.801,2.937
		c-37.652,0.153-121.361,0.427-156.707,0.22c1.641-4.953,3.061-9.01,3.061-9.01L278.697,277.88z"/>
</g>
<path style="fill:#FF3F62;" d="M237.09,231.795c0,0-61.67-161.539-224.415-169.589C5.789,61.866,0,67.318,0,74.214v17.109
	c0,3.484,1.511,6.795,4.142,9.078l10.065,8.736c4.034,3.501,6.352,8.582,6.352,13.924v90.073c0,40.037,32.457,72.494,72.494,72.494
	H233h1.666L237.09,231.795z"/>
<g>
	<path style="fill:#C70024;" d="M240.315,261.622c-1.548,0-3.111-0.455-4.48-1.402l-118.783-82.227
		c-3.58-2.479-4.474-7.39-1.995-10.97c2.478-3.58,7.391-4.473,10.97-1.995l118.783,82.227c3.58,2.479,4.474,7.39,1.995,10.97
		C245.274,260.436,242.815,261.622,240.315,261.622z"/>
	<path style="fill:#C70024;" d="M240.329,266.045c-0.603,0-1.216-0.069-1.828-0.216c-3.037-0.669-63.005-12.255-102.685-19.902
		c-4.275-0.823-7.073-4.957-6.249-9.232c0.824-4.275,4.955-7.08,9.232-6.249c23.723,4.572,101.291,19.529,103.435,20.065
		c4.225,1.056,6.792,5.337,5.736,9.561C247.075,263.653,243.861,266.045,240.329,266.045z"/>
	<circle style="fill:#C70024;" cx="142.665" cy="364.852" r="33.112"/>
</g>
<path style="fill:#FF3F62;" d="M274.91,231.795c0,0,61.67-161.539,224.415-169.589C506.211,61.866,512,67.319,512,74.214v17.109
	c0,3.484-1.511,6.795-4.142,9.078l-10.065,8.736c-4.034,3.501-6.352,8.582-6.352,13.924v90.073
	c0,40.037-32.457,72.494-72.494,72.494H277.334"/>
<g>
	<path style="fill:#C70024;" d="M271.965,261.622c-2.501,0-4.958-1.187-6.49-3.397c-2.478-3.579-1.585-8.49,1.995-10.97
		l118.783-82.227c3.58-2.479,8.49-1.584,10.97,1.995c2.478,3.579,1.585,8.49-1.995,10.97L276.445,260.22
		C275.076,261.168,273.511,261.622,271.965,261.622z"/>
	<path style="fill:#C70024;" d="M271.951,266.045c-3.532,0-6.746-2.391-7.642-5.974c-1.055-4.225,1.512-8.505,5.736-9.561
		c2.144-0.536,79.713-15.493,103.435-20.065c4.276-0.826,8.409,1.974,9.232,6.249c0.824,4.275-1.974,8.409-6.249,9.232
		c-39.682,7.647-99.655,19.235-102.685,19.902C273.167,265.975,272.554,266.045,271.951,266.045z"/>
	<circle style="fill:#C70024;" cx="369.34" cy="364.852" r="33.112"/>
</g>
<path style="fill:#830018;" d="M269.367,311.121h-26.736c-4.355,0-7.884,3.529-7.884,7.884v98.028
	c0,11.551,13.789,18.655,18.016,20.558c1.029,0.463,2.132,0.694,3.236,0.694c1.104,0,2.207-0.231,3.236-0.694
	c4.227-1.903,18.016-9.005,18.016-20.558v-98.028C277.251,314.65,273.722,311.121,269.367,311.121z"/>
<g>
	<path style="fill:#610012;" d="M277.251,321.608c0-4.355-3.529-7.884-7.884-7.884h-26.736c-4.355,0-7.884,3.529-7.884,7.884v28.151
		h42.503V321.608z"/>
	<path style="fill:#610012;" d="M260.472,255.899h-8.944c-7.941,0-14.438-6.497-14.438-14.438v-0.217
		c0-7.941,6.497-14.438,14.438-14.438h8.944c7.941,0,14.438,6.497,14.438,14.438v0.218
		C274.91,249.402,268.413,255.899,260.472,255.899z"/>
	<path style="fill:#610012;" d="M251.64,234.69c-0.08,0-0.159-0.001-0.241-0.003c-4.348-0.13-7.767-3.756-7.644-8.101l0,0
		c0.016-0.588,0.972-59.292-47.157-104.631c-3.169-2.985-3.319-7.975-0.332-11.145c2.986-3.17,7.976-3.319,11.145-0.332
		c53.456,50.356,52.187,113.884,52.107,116.565C259.388,231.314,255.885,234.69,251.64,234.69z"/>
	<path style="fill:#610012;" d="M263.022,234.682c-4.246,0-7.747-3.368-7.875-7.64c-0.08-2.68-1.35-66.207,52.106-116.565
		c3.169-2.984,8.159-2.836,11.145,0.332c2.986,3.169,2.837,8.159-0.332,11.145c-48.128,45.338-47.171,104.044-47.156,104.631
		c0.112,4.347-3.313,7.972-7.66,8.093C263.173,234.681,263.097,234.682,263.022,234.682z"/>
</g>
<g>
	<path style="fill:#830018;" d="M256.159,329.338h-0.319c-16.023,0-29.06-13.036-29.06-29.06v-23.205
		c0-16.023,13.036-29.06,29.06-29.06h0.319c16.023,0,29.06,13.036,29.06,29.06v23.205
		C285.218,316.302,272.182,329.338,256.159,329.338z M255.841,263.783c-7.33,0-13.292,5.962-13.292,13.292v23.205
		c0,7.33,5.962,13.292,13.292,13.292h0.319c7.33,0,13.292-5.962,13.292-13.292v-23.205c0-7.33-5.962-13.292-13.292-13.292H255.841z"
		/>
	<path style="fill:#830018;" d="M256.159,321.454h-0.319c-11.646,0-21.175-9.529-21.175-21.175v-23.205
		c0-11.646,9.529-21.175,21.175-21.175h0.319c11.646,0,21.175,9.529,21.175,21.175v23.205
		C277.334,311.925,267.805,321.454,256.159,321.454z"/>
</g>
<path style="fill:#610012;" d="M260.472,263.783h-8.945c-12.308,0-22.321-10.012-22.321-22.321v-0.218
	c0-12.308,10.012-22.321,22.321-22.321h8.945c12.308,0,22.321,10.012,22.321,22.321v0.218
	C282.794,253.769,272.78,263.783,260.472,263.783z M251.527,234.69c-3.614,0-6.553,2.94-6.553,6.553v0.218
	c0,3.614,2.94,6.553,6.553,6.553h8.945c3.614,0,6.553-2.94,6.553-6.553v-0.218c0-3.614-2.94-6.553-6.553-6.553H251.527z"/>
<g style="opacity:0.13;">
	<path style="fill:#610012;" d="M499.324,62.016c-8.036,0.397-15.813,1.189-23.361,2.298v9.475c0,3.483-1.511,6.795-4.142,9.078
		l-10.065,8.736c-4.034,3.501-6.352,8.582-6.352,13.924V195.6c0,40.037-32.457,90.028-72.494,90.028h-12.876h4.229l17.659,3.296
		c0.487,0.453,0.943,0.925,1.416,1.388l0.618,0.577c0.312,0.29,0.639,0.63,0.969,0.979c0.055,0.057,0.106,0.115,0.16,0.17
		c0.577,0.617,1.156,1.262,1.672,1.788c-0.009,0-0.02,0-0.029,0c28.587,31.509,27.501,80.604-3.664,110.752l0,0
		c-25.503,24.67-60.874,32.933-92.994,24.934c38.379,29.316,93.357,26.919,129.03-7.591l0,0
		c31.165-30.148,32.252-79.243,3.664-110.752c0.009,0,0.02,0,0.029,0c-0.516-0.526-1.095-1.171-1.672-1.788
		c-0.055-0.056-0.105-0.114-0.16-0.17c-0.33-0.349-0.657-0.689-0.969-0.979l-0.618-0.577c-0.473-0.461-0.929-0.935-1.416-1.388
		l-18.396-17.105l-3.492-3.724h12.876c40.037,0,72.494-32.457,72.494-72.494v-90.073c0-5.342,2.318-10.422,6.352-13.924
		l10.065-8.736c2.63-2.283,4.142-5.595,4.142-9.078v-17.11C512,67.129,506.211,61.676,499.324,62.016z"/>
</g>
<g>
</g>
<g>
</g>
<g>
</g>
<g>
</g>
<g>
</g>
<g>
</g>
<g>
</g>
<g>
</g>
<g>
</g>
<g>
</g>
<g>
</g>
<g>
</g>
<g>
</g>
<g>
</g>
<g>
</g>
</svg>
