<?xml version="1.0" encoding="iso-8859-1"?>
<!-- Generator: Adobe Illustrator 19.0.0, SVG Export Plug-In . SVG Version: 6.00 Build 0)  -->
<svg version="1.1" id="Layer_1" xmlns="http://www.w3.org/2000/svg" xmlns:xlink="http://www.w3.org/1999/xlink" x="0px" y="0px"
	 viewBox="0 0 512 512" style="enable-background:new 0 0 512 512;" xml:space="preserve">
<path style="fill:#D4B6E6;" d="M400.696,81.096c-61.472,0-111.304,49.832-111.304,111.304H267.13v111.304h133.565
	C462.167,303.704,512,253.872,512,192.4S462.167,81.096,400.696,81.096z"/>
<path style="fill:#B681D5;" d="M367.304,303.704H267.13v77.913h22.261c0,43.03,34.883,77.913,77.913,77.913h77.913v-77.913
	C445.217,338.587,410.335,303.704,367.304,303.704z"/>
<path style="fill:#D4B6E6;" d="M144.696,303.704c-43.03,0-77.913,34.883-77.913,77.913v77.913h77.913
	c43.03,0,77.913-34.883,77.913-77.913h22.261v-77.913H144.696z"/>
<path style="fill:#E2CEEF;" d="M222.609,192.4c0-61.471-49.832-111.304-111.304-111.304S0,130.928,0,192.4
	s49.832,111.304,111.304,111.304H244.87V192.4L222.609,192.4L222.609,192.4z"/>
<path style="fill:#88888F;" d="M298.054,61.111l-32.253-8.642L256,89.048l-9.8-36.578l-32.253,8.642l17.257,64.408
	c-5.34,5.918-8.595,13.758-8.595,22.359v222.609c0,36.414,6.358,57.607,33.391,77.913c27.034-20.306,33.391-41.499,33.391-77.913
	V147.879c0-8.6-3.253-16.44-8.595-22.359L298.054,61.111z"/>
<circle style="fill:#B681D5;" cx="400.696" cy="192.401" r="33.391"/>
<circle style="fill:#D4B6E6;" cx="111.304" cy="192.401" r="33.391"/>
<path style="fill:#797781;" d="M298.054,61.111l-32.253-8.642L256,89.048V448.4c27.034-20.306,33.391-41.499,33.391-77.913V147.878
	c0-8.6-3.253-16.44-8.595-22.359L298.054,61.111z"/>
<g>
</g>
<g>
</g>
<g>
</g>
<g>
</g>
<g>
</g>
<g>
</g>
<g>
</g>
<g>
</g>
<g>
</g>
<g>
</g>
<g>
</g>
<g>
</g>
<g>
</g>
<g>
</g>
<g>
</g>
</svg>
