<?xml version="1.0" encoding="iso-8859-1"?>
<!-- Generator: Adobe Illustrator 19.0.0, SVG Export Plug-In . SVG Version: 6.00 Build 0)  -->
<svg version="1.1" id="Layer_1" xmlns="http://www.w3.org/2000/svg" xmlns:xlink="http://www.w3.org/1999/xlink" x="0px" y="0px"
	 viewBox="0 0 512 512" style="enable-background:new 0 0 512 512;" xml:space="preserve">
<g>
	<g>
		<path style="fill:#13A085;" d="M213.325,162.133c-1.28,0-2.586-0.29-3.806-0.896l-68.267-34.133
			c-0.444-0.23-0.879-0.495-1.28-0.785c-15.095-11.221-26.769-43.307-34.705-95.386c-1.229-8.03-8.055-13.867-16.23-13.867h-3.703
			c-4.719,0-8.533-3.823-8.533-8.533S80.614,0,85.333,0h3.703c16.674,0,30.592,11.93,33.092,28.365
			c6.724,44.058,16.964,75.255,27.503,83.84l67.516,33.758c4.215,2.116,5.931,7.236,3.823,11.452
			C219.469,160.41,216.457,162.133,213.325,162.133"/>
		<path style="fill:#13A085;" d="M51.2,375.467c-4.719,0-8.533-3.823-8.533-8.533c0-38.084,58.206-64.649,64.853-67.55
			c27.964-12.57,80.461-100.13,98.321-132.804c2.278-4.139,7.45-5.649,11.58-3.396c4.139,2.261,5.666,7.441,3.405,11.571
			c-6.861,12.544-68.087,123.017-106.394,140.228c-15.266,6.707-54.699,29.03-54.699,51.951
			C59.733,371.644,55.919,375.467,51.2,375.467"/>
		<path style="fill:#13A085;" d="M127.991,512c-1.681,0-3.379-0.495-4.864-1.527c-3.866-2.697-4.821-8.013-2.133-11.878l0.529-0.777
			c27.264-40.098,45.585-86.861,53.001-135.202c4.489-29.312,15.019-75.196,39.629-127.326c2.014-4.258,7.091-6.084,11.358-4.07
			c4.267,2.014,6.084,7.1,4.07,11.358c-23.731,50.27-33.86,94.43-38.187,122.615c-7.791,50.85-27.076,100.028-55.757,142.234
			l-0.631,0.913C133.35,510.72,130.688,512,127.991,512"/>
		<path style="fill:#13A085;" d="M298.675,162.133c-3.132,0-6.144-1.724-7.646-4.719c-2.108-4.215-0.393-9.335,3.823-11.452
			l67.516-33.758c10.539-8.585,20.779-39.782,27.503-83.84C392.371,11.93,406.289,0,422.963,0h3.703
			c4.719,0,8.533,3.823,8.533,8.533s-3.814,8.533-8.533,8.533h-3.703c-8.175,0-15.002,5.837-16.23,13.867
			c-7.936,52.079-19.61,84.164-34.705,95.386c-0.401,0.29-0.836,0.555-1.28,0.785l-68.267,34.133
			C301.261,161.843,299.955,162.133,298.675,162.133"/>
		<path style="fill:#13A085;" d="M460.8,375.467c-4.719,0-8.533-3.823-8.533-8.533c0-22.98-39.424-45.269-54.613-51.917
			c-38.391-17.246-99.618-127.718-106.479-140.262c-2.261-4.13-0.734-9.31,3.405-11.571c4.139-2.253,9.31-0.742,11.571,3.396
			c17.877,32.674,70.383,120.243,98.415,132.838c6.562,2.867,64.768,29.431,64.768,67.516
			C469.333,371.644,465.519,375.467,460.8,375.467"/>
		<path style="fill:#13A085;" d="M384.009,512c-2.697,0-5.359-1.28-7.014-3.661l-0.623-0.905
			c-28.689-42.214-47.974-91.392-55.765-142.242c-4.326-28.186-14.455-72.346-38.187-122.615c-2.014-4.258-0.196-9.344,4.07-11.358
			c4.258-2.014,9.353-0.188,11.358,4.07c24.61,52.13,35.14,98.014,39.629,127.326c7.415,48.341,25.737,95.104,53.009,135.219
			l0.521,0.759c2.688,3.866,1.732,9.182-2.133,11.878C387.388,511.505,385.69,512,384.009,512"/>
		<path style="fill:#13A085;" d="M238.925,119.458c-4.412,0-8.149-3.396-8.499-7.876c-0.043-0.512-4.412-51.857-34.159-51.857
			c-13.892,0-24.764-4.173-32.307-12.416c-11.648-12.715-10.249-30.251-10.189-30.993c0.418-4.693,4.48-8.124,9.25-7.757
			c4.676,0.418,8.149,4.531,7.765,9.207c-0.026,0.358-0.666,11.093,5.837,18.108c4.173,4.506,10.786,6.784,19.644,6.784
			c45.517,0,50.97,64.862,51.174,67.627c0.358,4.693-3.157,8.789-7.851,9.148C239.369,119.45,239.138,119.458,238.925,119.458"/>
		<path style="fill:#13A085;" d="M273.075,119.462c-0.213,0-0.435-0.009-0.649-0.026c-4.702-0.35-8.226-4.454-7.868-9.156
			c0.205-2.756,5.658-67.618,51.174-67.618c9.097,0,15.855-2.321,20.087-6.912c6.494-7.066,5.7-17.818,5.692-17.929
			c-0.384-4.676,3.072-8.815,7.74-9.233c4.847-0.384,8.806,2.995,9.25,7.654c0.077,0.742,1.596,18.159-9.975,30.891
			c-7.595,8.354-18.628,12.595-32.794,12.595c-29.875,0-34.116,51.328-34.159,51.849
			C281.233,116.058,277.495,119.462,273.075,119.462"/>
	</g>
	<path style="fill:#4FBA6F;" d="M307.2,315.733c0,61.269-22.929,110.933-51.2,110.933s-51.2-49.664-51.2-110.933
		S227.729,204.8,256,204.8S307.2,254.464,307.2,315.733"/>
	<path style="fill:#328748;" d="M256,204.8c17.818,0,33.502,19.738,42.667,49.664V145.067c0-23.561-19.098-42.667-42.667-42.667
		s-42.667,19.106-42.667,42.667v109.397C222.498,224.538,238.182,204.8,256,204.8"/>
</g>
<g>
</g>
<g>
</g>
<g>
</g>
<g>
</g>
<g>
</g>
<g>
</g>
<g>
</g>
<g>
</g>
<g>
</g>
<g>
</g>
<g>
</g>
<g>
</g>
<g>
</g>
<g>
</g>
<g>
</g>
</svg>
