<?xml version="1.0" encoding="iso-8859-1"?>
<!-- Generator: Adobe Illustrator 19.0.0, SVG Export Plug-In . SVG Version: 6.00 Build 0)  -->
<svg version="1.1" id="Layer_1" xmlns="http://www.w3.org/2000/svg" xmlns:xlink="http://www.w3.org/1999/xlink" x="0px" y="0px"
	 viewBox="0 0 512 512" style="enable-background:new 0 0 512 512;" xml:space="preserve">
<g>
	<g>
		<path style="fill:#667070;" d="M211.862,70.621c-19.474,0-35.31-15.837-35.31-35.31S192.388,0,211.862,0
			c4.873,0,8.828,3.955,8.828,8.828s-3.955,8.828-8.828,8.828c-9.737,0-17.655,7.918-17.655,17.655s7.918,17.655,17.655,17.655
			c4.873,0,8.828,3.955,8.828,8.828S216.735,70.621,211.862,70.621"/>
		<path style="fill:#667070;" d="M300.138,70.621c-4.873,0-8.828-3.955-8.828-8.828s3.955-8.828,8.828-8.828
			c9.737,0,17.655-7.918,17.655-17.655s-7.918-17.655-17.655-17.655c-4.873,0-8.828-3.955-8.828-8.828S295.265,0,300.138,0
			c19.474,0,35.31,15.837,35.31,35.31S319.612,70.621,300.138,70.621"/>
		<path style="fill:#667070;" d="M379.586,167.724c-0.715,0-1.439-0.088-2.145-0.265l-70.621-17.655
			c-4.723-1.183-7.601-5.976-6.418-10.708c1.183-4.723,5.985-7.592,10.708-6.418l66.825,16.702l76.2-50.794
			c1.448-0.962,3.16-1.483,4.899-1.483h44.138c4.873,0,8.828,3.955,8.828,8.828c0,4.873-3.955,8.828-8.828,8.828h-41.463
			l-77.224,51.482C383.02,167.212,381.316,167.724,379.586,167.724"/>
		<path style="fill:#667070;" d="M503.164,291.31c-1.836,0-3.699-0.574-5.288-1.766l-33.439-25.079l-68.29-8.536
			c-1.43-0.177-2.79-0.697-3.964-1.527l-88.276-61.793c-3.999-2.798-4.97-8.298-2.172-12.288c2.798-3.99,8.298-4.961,12.288-2.172
			l86.484,60.54l68.449,8.554c1.527,0.185,2.975,0.777,4.202,1.695l35.31,26.483c3.902,2.922,4.687,8.457,1.766,12.359
			C508.495,290.092,505.847,291.31,503.164,291.31"/>
		<path style="fill:#667070;" d="M132.414,167.724c-1.73,0-3.434-0.512-4.899-1.483l-77.224-51.482H8.828
			c-4.873,0-8.828-3.955-8.828-8.828c0-4.873,3.955-8.828,8.828-8.828h44.138c1.739,0,3.452,0.521,4.899,1.483l76.2,50.794
			l66.825-16.702c4.732-1.174,9.525,1.695,10.708,6.418c1.183,4.732-1.695,9.525-6.418,10.708l-70.621,17.655
			C133.853,167.636,133.129,167.724,132.414,167.724"/>
		<path style="fill:#667070;" d="M8.836,291.31c-2.684,0-5.332-1.218-7.071-3.531c-2.922-3.902-2.136-9.437,1.766-12.359
			l35.31-26.483c1.227-0.918,2.675-1.51,4.202-1.695l68.449-8.554l86.484-60.54c3.99-2.79,9.49-1.818,12.288,2.172
			s1.827,9.49-2.172,12.288l-88.276,61.793c-1.174,0.83-2.534,1.351-3.964,1.527l-68.29,8.536l-33.439,25.079
			C12.535,290.737,10.673,291.31,8.836,291.31"/>
	</g>
	<path style="fill:#7F8C8D;" d="M441.388,503.172c-3.24,0-6.356-1.783-7.91-4.882l-35.31-70.621
		c-1.095-2.189-1.227-4.749-0.362-7.044l24.161-64.424L356.634,307.2c-3.902-2.922-4.687-8.457-1.766-12.359
		c2.922-3.893,8.457-4.696,12.359-1.766l70.621,52.966c3.134,2.348,4.343,6.488,2.975,10.161l-25.141,67.019l33.598,67.178
		c2.18,4.361,0.406,9.657-3.955,11.847C444.063,502.872,442.712,503.172,441.388,503.172"/>
	<path style="fill:#667070;" d="M70.612,503.172c-1.324,0-2.675-0.3-3.937-0.927c-4.361-2.189-6.135-7.486-3.955-11.847
		l33.598-67.178l-25.141-67.019c-1.368-3.672-0.159-7.812,2.975-10.161l70.621-52.966c3.911-2.931,9.437-2.127,12.359,1.766
		c2.922,3.902,2.136,9.437-1.766,12.359l-65.333,49.002l24.161,64.424c0.865,2.295,0.733,4.855-0.362,7.044l-35.31,70.621
		C76.968,501.389,73.852,503.172,70.612,503.172"/>
	<path style="fill:#95A5A5;" d="M370.759,361.931C370.759,444.813,319.382,512,256,512s-114.759-67.187-114.759-150.069
		S192.618,211.862,256,211.862S370.759,279.049,370.759,361.931"/>
	<path style="fill:#7F8C8D;" d="M317.793,158.897c0,29.246-27.666,52.966-61.793,52.966s-61.793-23.72-61.793-52.966
		s27.666-52.966,61.793-52.966S317.793,129.651,317.793,158.897"/>
	<path style="fill:#95A5A5;" d="M211.862,70.621c0-19.5,19.765-35.31,44.138-35.31s44.138,15.81,44.138,35.31
		s-19.765,35.31-44.138,35.31S211.862,90.121,211.862,70.621"/>
	<g>
		<path style="fill:#7F8C8D;" d="M363.268,308.966h-63.126c-4.882,0-8.828,3.955-8.828,8.828c0,4.873,3.946,8.828,8.828,8.828
			h67.293C366.313,320.583,364.918,314.695,363.268,308.966"/>
		<path style="fill:#7F8C8D;" d="M370.759,361.931c0-2.975-0.212-5.888-0.344-8.828h-43.794c-4.873,0-8.828,3.955-8.828,8.828
			s3.955,8.828,8.828,8.828h43.794C370.547,367.819,370.759,364.906,370.759,361.931"/>
		<path style="fill:#7F8C8D;" d="M361.931,397.241h-61.793c-4.873,0-8.828,3.955-8.828,8.828s3.955,8.828,8.828,8.828h61.793
			c0.503,0,0.936-0.203,1.412-0.283c1.457-5.058,2.692-10.231,3.725-15.537C365.603,398.001,363.891,397.241,361.931,397.241"/>
		<path style="fill:#7F8C8D;" d="M211.862,397.241h-61.793c-1.96,0-3.672,0.759-5.138,1.836c1.033,5.305,2.269,10.478,3.725,15.537
			c0.477,0.079,0.909,0.283,1.412,0.283h61.793c4.873,0,8.828-3.955,8.828-8.828S216.735,397.241,211.862,397.241"/>
		<path style="fill:#7F8C8D;" d="M185.379,353.103h-43.794c-0.132,2.94-0.344,5.853-0.344,8.828s0.212,5.888,0.344,8.828h43.794
			c4.873,0,8.828-3.955,8.828-8.828S190.252,353.103,185.379,353.103"/>
		<path style="fill:#7F8C8D;" d="M211.862,308.966h-63.126c-1.66,5.729-3.054,11.617-4.167,17.655h67.293
			c4.873,0,8.828-3.955,8.828-8.828C220.69,312.92,216.735,308.966,211.862,308.966"/>
	</g>
</g>
<g>
</g>
<g>
</g>
<g>
</g>
<g>
</g>
<g>
</g>
<g>
</g>
<g>
</g>
<g>
</g>
<g>
</g>
<g>
</g>
<g>
</g>
<g>
</g>
<g>
</g>
<g>
</g>
<g>
</g>
</svg>
