<?xml version="1.0" encoding="iso-8859-1"?>
<!-- Generator: Adobe Illustrator 19.0.0, SVG Export Plug-In . SVG Version: 6.00 Build 0)  -->
<svg version="1.1" id="Layer_1" xmlns="http://www.w3.org/2000/svg" xmlns:xlink="http://www.w3.org/1999/xlink" x="0px" y="0px"
	 viewBox="0 0 512 512" style="enable-background:new 0 0 512 512;" xml:space="preserve">
<g>
	<path style="fill:#546A79;" d="M338.803,213.296c16.324,0,29.572,13.248,29.572,29.572s-13.248,29.572-29.572,29.572
		s-29.572-13.248-29.572-29.572S322.479,213.296,338.803,213.296z"/>
	<path style="fill:#546A79;" d="M326.974,319.758c16.324,0,29.572,13.248,29.572,29.572s-13.248,29.572-29.572,29.572
		c-16.324,0-29.572-13.248-29.572-29.572C297.402,333.006,310.65,319.758,326.974,319.758z"/>
	<path style="fill:#546A79;" d="M185.026,343.415c16.324,0,29.572,13.248,29.572,29.572s-13.248,29.572-29.572,29.572
		s-29.572-13.248-29.572-29.572S168.702,343.415,185.026,343.415z"/>
	<path style="fill:#546A79;" d="M173.197,236.954c16.324,0,29.572,13.248,29.572,29.572s-13.248,29.572-29.572,29.572
		s-29.572-13.248-29.572-29.572C143.625,250.202,156.873,236.954,173.197,236.954z"/>
</g>
<path style="fill:#3A4C57;" d="M291.487,53.605c14.313,10.764,23.658,28.034,23.658,47.316c0,4.022-0.355,8.044-1.183,11.829
	l-0.355,0.71c-17.862-8.161-37.379-12.539-57.608-12.539s-39.746,4.377-57.608,12.539l-0.355-0.71
	c-0.828-3.785-1.183-7.807-1.183-11.829c0-19.281,9.345-36.552,23.658-47.316c9.818-7.452,22.12-11.829,35.487-11.829
	C269.366,41.776,281.669,46.152,291.487,53.605z"/>
<path style="fill:#546A79;" d="M256.001,443.961l49.918,49.918c-15.732,5.914-32.53,9.226-49.918,9.226s-34.186-3.312-49.918-9.226
	L256.001,443.961z"/>
<path style="fill:#AFB6BB;" d="M130.494,170.948c18.098-25.55,41.401-45.542,67.899-57.489
	c17.862-8.161,37.379-12.539,57.608-12.539s39.746,4.377,57.608,12.539c26.496,11.947,49.8,31.938,67.899,57.489l-1.301,0.946
	H256.001H131.796L130.494,170.948z"/>
<g>
	<path style="fill:#FFD311;" d="M399.012,403.388c-20.465,42.585-53.586,75.233-93.095,90.492l-49.917-49.918V171.894h124.205
		l1.301-0.946c24.959,35.132,40.1,80.91,40.1,131.065C421.607,339.039,413.325,373.698,399.012,403.388z M368.375,242.869
		c0-16.324-13.248-29.572-29.572-29.572s-29.572,13.248-29.572,29.572s13.248,29.572,29.572,29.572S368.375,259.193,368.375,242.869
		z M356.546,349.33c0-16.324-13.248-29.572-29.572-29.572c-16.324,0-29.572,13.248-29.572,29.572s13.248,29.572,29.572,29.572
		C343.298,378.902,356.546,365.654,356.546,349.33z"/>
	<path style="fill:#FFD311;" d="M112.988,403.388c-14.432-29.691-22.593-64.35-22.593-101.375c0-50.155,15.141-95.933,40.1-131.065
		l1.301,0.946h124.205v272.067l-49.92,49.919C166.572,478.62,133.451,445.972,112.988,403.388z M214.598,372.988
		c0-16.324-13.248-29.572-29.572-29.572s-29.572,13.248-29.572,29.572s13.248,29.572,29.572,29.572S214.598,389.312,214.598,372.988
		z M202.769,266.526c0-16.324-13.248-29.572-29.572-29.572s-29.572,13.248-29.572,29.572s13.248,29.572,29.572,29.572
		S202.769,282.85,202.769,266.526z"/>
</g>
<g>
	<path style="fill:#FBBF1A;" d="M355.383,357.097c-3.43,12.536-14.791,21.806-28.409,21.806c-16.324,0-29.572-13.248-29.572-29.572
		c0-9.23,4.323-17.373,10.955-22.798c-18.967-14.445-36.497-30.661-52.356-48.415v165.845l49.918,49.918
		c39.509-15.259,72.63-47.907,93.095-90.492c3.486-7.233,6.6-14.771,9.339-22.556C389.988,374.266,372.282,366.332,355.383,357.097z
		"/>
	<path style="fill:#FBBF1A;" d="M189.381,171.895h-57.585l-1.301-0.946c-24.96,35.132-40.102,80.91-40.102,131.064
		c0,37.025,8.161,71.684,22.593,101.375c20.465,42.585,53.586,75.233,93.095,90.492l49.918-49.918V278.117
		C228.181,246.971,205.538,211.126,189.381,171.895z M143.625,266.526c0-16.324,13.248-29.572,29.572-29.572
		s29.572,13.248,29.572,29.572s-13.248,29.572-29.572,29.572S143.625,282.85,143.625,266.526z M185.026,402.56
		c-16.324,0-29.572-13.248-29.572-29.572s13.248-29.572,29.572-29.572s29.572,13.248,29.572,29.572S201.35,402.56,185.026,402.56z"
		/>
</g>
<path d="M173.197,304.992c21.209,0,38.465-17.256,38.465-38.465c0-21.21-17.256-38.465-38.465-38.465
	c-21.21,0-38.465,17.256-38.465,38.465C134.732,287.737,151.987,304.992,173.197,304.992z M173.197,245.847
	c11.402,0,20.679,9.277,20.679,20.679c0,11.402-9.277,20.679-20.679,20.679c-11.403,0-20.679-9.277-20.679-20.679
	C152.518,255.124,161.794,245.847,173.197,245.847z"/>
<path d="M185.026,411.453c21.209,0,38.465-17.256,38.465-38.465c0-21.21-17.256-38.465-38.465-38.465
	c-21.21,0-38.465,17.256-38.465,38.465C146.561,394.197,163.817,411.453,185.026,411.453z M185.026,352.309
	c11.402,0,20.679,9.277,20.679,20.679s-9.277,20.679-20.679,20.679c-11.403,0-20.679-9.277-20.679-20.679
	C164.347,361.585,173.624,352.309,185.026,352.309z"/>
<path d="M377.268,242.869c0-21.21-17.256-38.465-38.465-38.465c-21.21,0-38.465,17.256-38.465,38.465
	c0,21.209,17.256,38.465,38.465,38.465C360.012,281.334,377.268,264.078,377.268,242.869z M318.124,242.869
	c0-11.403,9.277-20.679,20.679-20.679c11.402,0,20.679,9.277,20.679,20.679c0,11.402-9.277,20.679-20.679,20.679
	C327.4,263.548,318.124,254.271,318.124,242.869z"/>
<path d="M365.439,349.33c0-21.21-17.256-38.465-38.465-38.465c-21.21,0-38.465,17.256-38.465,38.465s17.256,38.465,38.465,38.465
	C348.183,387.795,365.439,370.539,365.439,349.33z M306.295,349.33c0-11.403,9.277-20.679,20.679-20.679
	c11.402,0,20.679,9.277,20.679,20.679s-9.277,20.679-20.679,20.679C315.571,370.009,306.295,360.732,306.295,349.33z"/>
<rect x="196.856" y="198.492" style="fill:#FFFFFF;" width="23.658" height="17.786"/>
<rect x="114.056" y="316.781" width="23.658" height="17.786"/>
<rect x="362.456" y="293.126" width="23.658" height="17.786"/>
<rect x="303.311" y="411.415" style="fill:#FFFFFF;" width="23.658" height="17.786"/>
<path d="M476.344,281.291H429.64c-0.78-9.563-2.082-19.039-3.931-28.333l-17.445,3.472c2.951,14.831,4.448,30.168,4.448,45.583
	c0,34.329-7.508,68.049-21.716,97.522c-18.832,39.187-48.182,68.766-82.983,83.865l-43.121-43.122v-259.49h112.577
	c10.641,15.962,19.057,33.747,25.033,52.96l16.983-5.282c-3.076-9.888-6.753-19.433-11.002-28.593l51.585-28.659V95.006h-17.786
	v65.741l-41.931,23.295c-3.571-6.303-7.438-12.387-11.592-18.234c-17.723-25.021-40.146-44.734-65.122-57.385
	c0.258-2.413,0.397-4.915,0.397-7.503c0-17.87-7.203-35.072-19.587-47.703l40.64-40.64L332.515,0l-42.159,42.159
	c-10.316-6.086-22.048-9.277-34.356-9.277c-12.316,0-24.055,3.196-34.358,9.275L179.485,0l-12.576,12.576l40.642,40.642
	c-12.392,12.645-19.59,29.839-19.59,47.701c0,2.59,0.139,5.093,0.397,7.506c-24.997,12.666-47.406,32.372-65.115,57.372
	c-4.152,5.846-8.016,11.942-11.582,18.254l-41.948-23.304V95.006H51.928v76.207l51.615,28.675
	c-11.582,25.019-18.814,52.738-21.18,81.404H35.656l-13.157,72.361l17.499,3.183l10.501-57.757h31.028
	c-0.012,0.978-0.027,1.956-0.027,2.936c0,34.71,7.06,68.678,20.441,98.698l-51.022,39.684l13.05,58.725l17.363-3.858l-10.608-47.737
	l39.268-30.541c7.66,14.096,16.694,27.067,26.99,38.628l13.283-11.829c-11.527-12.944-21.371-27.83-29.277-44.284
	c-14.196-29.205-21.699-62.915-21.699-97.487c0-44.242,12.483-87.04,35.245-121.226h112.574v259.49L203.986,483.4
	c-15.239-6.624-29.507-16.057-42.475-28.115l-12.111,13.025c16.126,14.994,34.118,26.387,53.554,33.894
	c17.29,6.499,35.138,9.795,53.047,9.795c17.909,0,35.757-3.295,53.122-9.824c38.365-14.817,71.027-44.865,92.905-85.176
	l39.248,30.527l-10.608,47.737l17.363,3.858l13.05-58.725L410.043,400.7c13.396-30.253,20.456-64.208,20.456-98.686
	c0-0.979-0.025-1.958-0.036-2.936h31.037l10.501,57.757l17.499-3.183L476.344,281.291z M286.142,60.712
	c12.571,9.455,20.083,24.452,20.108,40.13c-16.1-5.854-32.952-8.815-50.249-8.815c-17.306,0-34.166,2.963-50.249,8.812
	c0.026-15.678,7.538-30.674,20.14-40.151c8.636-6.555,19.048-10.019,30.111-10.019C267.062,50.668,277.474,54.132,286.142,60.712z
	 M202.089,121.548c17.04-7.787,35.177-11.734,53.911-11.734c18.732,0,36.87,3.949,53.951,11.753
	c20.089,9.058,38.555,23.236,54.109,41.436H147.938C163.491,144.805,181.964,130.622,202.089,121.548z M222.693,489.846
	l33.307-33.307l33.303,33.303C267.302,495.604,244.617,495.591,222.693,489.846z"/>
<rect x="226.428" y="127.514" style="fill:#FFFFFF;" width="59.145" height="17.786"/>
<g>
</g>
<g>
</g>
<g>
</g>
<g>
</g>
<g>
</g>
<g>
</g>
<g>
</g>
<g>
</g>
<g>
</g>
<g>
</g>
<g>
</g>
<g>
</g>
<g>
</g>
<g>
</g>
<g>
</g>
</svg>
