<?xml version="1.0" encoding="iso-8859-1"?>
<!-- Generator: Adobe Illustrator 19.0.0, SVG Export Plug-In . SVG Version: 6.00 Build 0)  -->
<svg version="1.1" id="Layer_1" xmlns="http://www.w3.org/2000/svg" xmlns:xlink="http://www.w3.org/1999/xlink" x="0px" y="0px"
	 viewBox="0 0 512 512" style="enable-background:new 0 0 512 512;" xml:space="preserve">
<g>
	<path style="fill:#73C878;" d="M305.548,165.164c2.113,0,4.226-0.806,5.838-2.42l41.29-41.29c1.548-1.548,2.42-3.645,2.42-5.838
		V41.293c0-2.355,1.758-6.597,3.419-8.258l18.936-18.936c3.226-3.226,3.226-8.451,0-11.677c-3.226-3.226-8.452-3.226-11.678,0
		l-18.935,18.935c-4.782,4.782-8.258,13.17-8.258,19.935v70.903l-38.871,38.871c-3.226,3.226-3.226,8.451,0,11.677
		C301.322,164.356,303.435,165.164,305.548,165.164z"/>
	<path style="fill:#73C878;" d="M503.749,264.259c3.854,0,7.306-2.71,8.089-6.637c0.895-4.476-2.008-8.823-6.475-9.718
		l-33.193-6.637c-3.508-0.71-9.492-3.025-12.548-4.855l-75.5-45.299c-2.428-1.451-5.411-1.565-7.943-0.307l-33.032,16.516
		c-4.081,2.041-5.734,7-3.693,11.08c2.048,4.081,7.008,5.726,11.08,3.693l28.975-14.492l71.613,42.968
		c4.717,2.83,12.371,5.798,17.798,6.887l33.202,6.637C502.668,264.211,503.218,264.259,503.749,264.259z"/>
	<path style="fill:#73C878;" d="M437.678,512c2.17,0,4.339-0.846,5.959-2.54c3.154-3.291,3.048-8.516-0.242-11.677l-34.839-33.451
		c-1.589-1.525-3.355-6.234-3.08-9.355l14.79-168.58c0.814-9.282-4.613-18.363-12.629-21.113l-74.661-25.363
		c-4.33-1.451-9.009,0.846-10.475,5.17c-1.46,4.315,0.846,9.009,5.17,10.475l74.637,25.354c0.452,0.25,1.686,2.033,1.508,4.032
		l-14.79,168.573c-0.702,8,2.701,17.548,8.097,22.726l34.839,33.451C433.556,511.234,435.62,512,437.678,512z"/>
</g>
<g>
	<path style="fill:#50A578;" d="M346.846,227.098c1.863,0,3.75-0.419,5.532-1.307l33.032-16.516c6.121-3.065,8.597-10.5,5.54-16.621
		c-3.065-6.113-10.508-8.588-16.621-5.54l-33.032,16.516c-6.121,3.065-8.597,10.5-5.54,16.621
		C337.927,224.59,342.306,227.098,346.846,227.098z"/>
	<path style="fill:#50A578;" d="M305.548,169.293c3.169,0,6.339-1.21,8.758-3.629l41.29-41.29c4.838-4.838,4.838-12.677,0-17.516
		c-4.839-4.838-12.677-4.838-17.516,0l-41.29,41.29c-4.838,4.839-4.838,12.677,0,17.516
		C299.209,168.083,302.378,169.293,305.548,169.293z"/>
	<path style="fill:#50A578;" d="M404.959,285.485c5.161,0,9.976-3.242,11.725-8.404c2.202-6.475-1.267-13.516-7.742-15.71
		l-74.637-25.354c-6.475-2.217-13.508,1.258-15.71,7.742c-2.202,6.475,1.267,13.516,7.742,15.71l74.637,25.354
		C402.298,285.275,403.637,285.485,404.959,285.485z"/>
</g>
<g>
	<path style="fill:#73C878;" d="M206.453,165.164c-2.113,0-4.226-0.806-5.838-2.42l-41.29-41.29c-1.548-1.548-2.42-3.645-2.42-5.838
		V41.293c0-2.355-1.758-6.597-3.42-8.258l-18.936-18.936c-3.226-3.226-3.226-8.451,0-11.677c3.226-3.226,8.452-3.226,11.678,0
		l18.936,18.936c4.782,4.782,8.258,13.17,8.258,19.935v70.903l38.871,38.871c3.226,3.226,3.226,8.451,0,11.677
		C210.678,164.356,208.565,165.164,206.453,165.164z"/>
	<path style="fill:#73C878;" d="M8.251,264.259c-3.854,0-7.306-2.71-8.089-6.637c-0.895-4.476,2.008-8.823,6.475-9.718l33.193-6.637
		c3.508-0.71,9.492-3.025,12.548-4.855l75.5-45.299c2.428-1.451,5.411-1.565,7.943-0.307l33.032,16.516
		c4.081,2.041,5.734,7,3.693,11.08c-2.048,4.081-7.008,5.726-11.08,3.693l-28.975-14.492L60.88,250.573
		c-4.717,2.83-12.371,5.798-17.798,6.887L9.88,264.097C9.332,264.211,8.784,264.259,8.251,264.259z"/>
	<path style="fill:#73C878;" d="M74.324,512c-2.17,0-4.339-0.846-5.959-2.54c-3.154-3.291-3.048-8.516,0.242-11.677l34.839-33.451
		c1.589-1.525,3.355-6.234,3.08-9.355l-14.79-168.58c-0.814-9.282,4.613-18.363,12.629-21.113l74.661-25.363
		c4.33-1.451,9.009,0.846,10.475,5.17c1.46,4.315-0.846,9.009-5.17,10.475l-74.637,25.354c-0.452,0.25-1.686,2.033-1.508,4.032
		l14.79,168.573c0.702,8-2.701,17.548-8.097,22.726l-34.839,33.451C78.444,511.234,76.38,512,74.324,512z"/>
</g>
<g>
	<path style="fill:#50A578;" d="M165.154,227.098c-1.863,0-3.75-0.419-5.532-1.307l-33.032-16.516
		c-6.121-3.065-8.597-10.5-5.54-16.621c3.065-6.113,10.508-8.588,16.621-5.54l33.032,16.516c6.121,3.065,8.597,10.5,5.54,16.621
		C174.073,224.59,169.694,227.098,165.154,227.098z"/>
	<path style="fill:#50A578;" d="M206.453,169.293c-3.169,0-6.339-1.21-8.758-3.629l-41.29-41.29c-4.839-4.838-4.839-12.677,0-17.516
		c4.839-4.838,12.677-4.838,17.516,0l41.29,41.29c4.839,4.839,4.839,12.677,0,17.516
		C212.791,168.083,209.622,169.293,206.453,169.293z"/>
	<path style="fill:#50A578;" d="M107.041,285.485c-5.161,0-9.976-3.242-11.725-8.404c-2.202-6.475,1.267-13.516,7.742-15.71
		l74.637-25.354c6.475-2.217,13.508,1.258,15.71,7.742c2.202,6.475-1.267,13.516-7.742,15.71l-74.637,25.354
		C109.702,285.275,108.363,285.485,107.041,285.485z"/>
</g>
<path style="fill:#73C878;" d="M346.373,181.679c6.778,17.161,25.605,313.806-90.373,313.806s-97.151-296.645-90.373-313.806
	H346.373z"/>
<path style="fill:#50A578;" d="M318.232,421.163c-13.304,29.419-33.09,49.548-62.232,49.548s-48.928-20.129-62.232-49.548h-12.091
	c-0.353,0-0.694-0.051-1.046-0.054c14.254,42.928,37.653,74.376,75.368,74.376c37.7,0,61.094-31.421,75.351-74.323H318.232z"/>
<path style="fill:#7DE18C;" d="M346.373,181.679H165.628c-4.599,11.643-14.692,151.877,15.483,240.891
	c1.852,1.023,3.969,1.443,6.071,1.201c18.02-2.085,68.82-18.832,68.82-72.027c0,53.195,50.799,69.942,68.82,72.027
	c2.102,0.244,4.219-0.178,6.071-1.201C361.065,333.556,350.972,193.321,346.373,181.679z"/>
<path style="fill:#50A578;" d="M189.937,198.195c0,24.774,0,33.032,16.516,49.548c13.057,13.056,33.032,24.774,33.032,49.548v24.774
	c0,9.122,7.394,16.516,16.516,16.516l0,0c9.122,0,16.516-7.394,16.516-16.516v-24.774c0-24.774,19.975-36.492,33.032-49.548
	c16.516-16.516,16.516-24.774,16.516-49.548H189.937z"/>
<g>
	<circle style="fill:#FF965A;" cx="206.452" cy="222.968" r="24.774"/>
	<circle style="fill:#FF965A;" cx="305.548" cy="222.968" r="24.774"/>
</g>
<g>
	<path style="fill:#6B676E;" d="M239.485,107.357c-3.371,0-6.54-2.081-7.758-5.436l-33.032-90.839
		c-1.565-4.29,0.653-9.024,4.935-10.581c4.315-1.565,9.024,0.653,10.581,4.935l33.032,90.839c1.565,4.29-0.653,9.024-4.935,10.581
		C241.372,107.195,240.42,107.357,239.485,107.357z"/>
	<path style="fill:#6B676E;" d="M272.516,107.357c-0.935,0-1.887-0.161-2.822-0.5c-4.282-1.557-6.5-6.291-4.935-10.581
		l33.032-90.839c1.557-4.282,6.274-6.492,10.581-4.935c4.282,1.557,6.5,6.291,4.935,10.581l-33.032,90.839
		C279.057,105.276,275.888,107.357,272.516,107.357z"/>
</g>
<path style="fill:#73C878;" d="M340.411,163.629l-59.654-39.768l-49.529,0.01l-59.637,39.757
	c-8.562,5.707-10.083,17.972-2.759,25.199c21.172,20.9,52.339,34.141,87.17,34.141s65.997-13.241,87.17-34.141
	C350.493,181.6,348.972,169.336,340.411,163.629z"/>
<path style="fill:#FF965A;" d="M170.4,190.225c0.667-0.637,1.334-1.278,2.124-1.811l58.977-39.757l5.603-0.001
	c3.191,7.278,10.439,12.377,18.897,12.377c8.46,0,15.712-5.1,18.902-12.385l5.58-0.002l58.995,39.768
	c0.79,0.533,1.457,1.174,2.124,1.811c0.506-0.48,1.075-0.908,1.57-1.398c7.323-7.228,5.802-19.492-2.759-25.199l-59.654-39.768
	l-49.531,0.012l-59.637,39.757c-8.562,5.707-10.083,17.972-2.759,25.199C169.326,189.316,169.895,189.745,170.4,190.225z"/>
<path style="fill:#5FB464;" d="M289.032,112.861c0,15.963-14.789,19.269-33.032,19.269s-33.032-3.306-33.032-19.269
	S242.318,74.324,256,74.324C269.683,74.324,289.032,96.898,289.032,112.861z"/>
<g>
	<ellipse style="fill:#6B676E;" cx="227.097" cy="115.613" rx="12.387" ry="16.516"/>
	<ellipse style="fill:#6B676E;" cx="284.903" cy="115.613" rx="12.387" ry="16.516"/>
</g>
<g>
</g>
<g>
</g>
<g>
</g>
<g>
</g>
<g>
</g>
<g>
</g>
<g>
</g>
<g>
</g>
<g>
</g>
<g>
</g>
<g>
</g>
<g>
</g>
<g>
</g>
<g>
</g>
<g>
</g>
</svg>
