<?xml version="1.0" encoding="iso-8859-1"?>
<!-- Generator: Adobe Illustrator 19.0.0, SVG Export Plug-In . SVG Version: 6.00 Build 0)  -->
<svg version="1.1" id="Layer_1" xmlns="http://www.w3.org/2000/svg" xmlns:xlink="http://www.w3.org/1999/xlink" x="0px" y="0px"
	 viewBox="0 0 512 512" style="enable-background:new 0 0 512 512;" xml:space="preserve">
<g transform="translate(1 1)">
	<g>
		<path style="fill:#FFE100;" d="M233.477,75.8c-4.267,0-8.533-3.413-8.533-7.68c0-0.853-4.267-52.053-34.133-52.053
			c-5.12,0-8.533-3.413-8.533-8.533S185.691-1,190.811-1c45.227,0,51.2,64.853,51.2,67.413
			C242.011,71.533,238.597,75.8,233.477,75.8C234.331,75.8,233.477,75.8,233.477,75.8z"/>
		<path style="fill:#FFE100;" d="M284.677,75.8L284.677,75.8c-5.12,0-8.533-4.267-8.533-9.387c0-2.56,5.973-67.413,51.2-67.413
			c5.12,0,8.533,3.413,8.533,8.533s-3.413,8.533-8.533,8.533c-29.867,0-34.133,51.2-34.133,52.053
			C293.211,72.387,288.944,75.8,284.677,75.8z"/>
		<path style="fill:#FFE100;" d="M250.544,92.867c11.947,0,23.04,2.56,33.28,5.973c0-1.707,0.853-4.267,0.853-5.973
			c0-18.773-15.36-34.133-34.133-34.133s-34.133,15.36-34.133,34.133c0,2.56,0,4.267,0.853,5.973
			C227.504,95.427,238.597,92.867,250.544,92.867"/>
		<path style="fill:#FFE100;" d="M96.944,255c-1.707,0-2.56,0-4.267-0.853l-59.733-34.133c-4.267-2.56-5.12-7.68-3.413-11.947
			s7.68-5.12,11.947-3.413l57.173,32.427l39.253-7.68c4.267-0.853,9.387,1.707,10.24,6.827c0.853,5.12-1.707,9.387-6.827,10.24
			L98.651,255C97.797,255,97.797,255,96.944,255z"/>
		<path style="fill:#FFE100;" d="M165.211,186.733c-0.853,0-2.56,0-3.413-0.853l-59.733-25.6c-3.413-0.853-5.12-4.267-5.12-7.68
			V58.733h-51.2c-5.12,0-8.533-3.413-8.533-8.533s3.413-8.533,8.533-8.533h59.733c5.12,0,8.533,3.413,8.533,8.533v96.427
			l54.613,23.04c4.267,1.707,5.973,6.827,4.267,11.093C172.037,185.027,168.624,186.733,165.211,186.733z"/>
		<path style="fill:#FFE100;" d="M96.944,511c-1.707,0-2.56,0-4.267-0.853c-4.267-2.56-5.12-7.68-3.413-11.947l31.573-56.32
			l-40.107-89.6c-1.707-3.413-0.853-7.68,2.56-10.24l51.2-42.667c3.413-3.413,9.387-2.56,11.947,0.853
			c3.413,3.413,2.56,9.387-0.853,11.947l-46.08,38.4l40.107,87.893c0.853,2.56,0.853,5.12,0,7.68l-34.133,59.733
			C102.917,509.293,99.504,511,96.944,511z"/>
		<path style="fill:#FFE100;" d="M352.944,186.733c-3.413,0-6.827-1.707-7.68-5.12c-1.707-4.267,0-9.387,4.267-11.093l54.613-23.04
			V50.2c0-5.12,3.413-8.533,8.533-8.533h59.733c5.12,0,8.533,3.413,8.533,8.533s-3.413,8.533-8.533,8.533h-51.2V152.6
			c0,3.413-1.707,6.827-5.12,7.68l-59.733,25.6C355.504,186.733,353.797,186.733,352.944,186.733z"/>
		<path style="fill:#FFE100;" d="M421.211,511c-2.56,0-5.973-1.707-7.68-4.267L379.397,447c-1.707-2.56-1.707-5.12,0-7.68
			l40.107-87.893l-46.08-38.4c-3.413-3.413-4.267-8.533-0.853-11.947c3.413-3.413,8.533-4.267,11.947-0.853l51.2,42.667
			c2.56,2.56,4.267,6.827,2.56,10.24l-40.96,89.6l31.573,56.32c2.56,4.267,0.853,9.387-3.413,11.947
			C423.771,511,422.917,511,421.211,511z"/>
		<path style="fill:#FFE100;" d="M421.211,255c-0.853,0-0.853,0-1.707,0l-42.667-8.533c-4.267-0.853-7.68-5.12-6.827-10.24
			c0.853-5.12,5.12-7.68,10.24-6.827l39.253,7.68l57.173-32.427c4.267-2.56,9.387-0.853,11.947,3.413
			c2.56,4.267,0.853,9.387-3.413,11.947l-59.733,34.133C423.771,255,422.917,255,421.211,255z"/>
		<path style="fill:#FFE100;" d="M250.544,485.4L250.544,485.4c-65.707,0-119.467-53.76-119.467-119.467v-153.6h238.933v153.6
			C370.011,431.64,316.251,485.4,250.544,485.4"/>
	</g>
	<path style="fill:#FFA800;" d="M344.411,365.933v-153.6h25.6v153.6c0,65.707-53.76,119.467-119.467,119.467
		c-4.267,0-8.533,0-12.8-0.853C297.477,478.573,344.411,427.373,344.411,365.933"/>
	<path style="fill:#FFFFFF;" d="M156.677,365.933v-153.6h-25.6v153.6c0,65.707,53.76,119.467,119.467,119.467
		c4.267,0,8.533,0,12.8-0.853C203.611,478.573,156.677,427.373,156.677,365.933"/>
	<path style="fill:#FFE100;" d="M344.411,212.333H156.677v-25.6c0-52.053,41.813-93.867,93.867-93.867l0,0
		c52.053,0,93.867,41.813,93.867,93.867V212.333z"/>
	<path style="fill:#FFA800;" d="M250.544,92.867c-4.267,0-8.533,0-12.8,0.853c46.08,5.973,81.067,45.227,81.067,93.013v25.6h25.6
		v-25.6C344.411,134.68,302.597,92.867,250.544,92.867"/>
	<path style="fill:#FFFFFF;" d="M250.544,92.867c4.267,0,8.533,0,12.8,0.853c-46.08,5.973-81.067,45.227-81.067,93.013v25.6h-25.6
		v-25.6C156.677,134.68,198.491,92.867,250.544,92.867"/>
	<path d="M250.544,493.933c-70.827,0-128-57.173-128-128V203.8h256v162.133C378.544,436.76,321.371,493.933,250.544,493.933z
		 M139.611,220.867v145.067c0,61.44,49.493,110.933,110.933,110.933s110.933-49.493,110.933-110.933V220.867H139.611z"/>
	<path d="M352.944,220.867h-204.8v-34.133c0-56.32,46.08-102.4,102.4-102.4s102.4,46.08,102.4,102.4V220.867z M165.211,203.8
		h170.667v-17.067c0-46.933-38.4-85.333-85.333-85.333s-85.333,38.4-85.333,85.333V203.8z"/>
	<path d="M290.651,110.787l-9.387-3.413c-19.627-7.68-40.96-7.68-60.587,0l-9.387,3.413l-1.707-10.24
		c-1.707-2.56-1.707-5.12-1.707-7.68c0-23.893,18.773-42.667,42.667-42.667s42.667,18.773,42.667,42.667c0,2.56,0,5.12-0.853,7.68
		L290.651,110.787z M250.544,84.333c8.533,0,17.067,0.853,24.747,3.413c-2.56-11.947-12.8-20.48-24.747-20.48
		s-22.187,8.533-24.747,20.48C233.477,85.187,242.011,84.333,250.544,84.333z"/>
	<path d="M88.411,255c-1.707,0-2.56,0-4.267-0.853l-59.733-34.133c-4.267-2.56-5.12-7.68-3.413-11.947s7.68-5.12,11.947-3.413
		l57.173,32.427l39.253-7.68c4.267-0.853,9.387,1.707,10.24,6.827c0.853,4.267-1.707,9.387-6.827,10.24L90.117,255
		C89.264,255,89.264,255,88.411,255z"/>
	<path d="M156.677,186.733c-0.853,0-2.56,0-3.413-0.853l-59.733-25.6c-3.413-0.853-5.12-4.267-5.12-7.68V58.733h-51.2
		c-5.12,0-8.533-3.413-8.533-8.533s3.413-8.533,8.533-8.533h59.733c5.12,0,8.533,3.413,8.533,8.533v96.427l54.613,23.04
		c4.267,1.707,5.973,6.827,4.267,11.093C163.504,185.027,160.091,186.733,156.677,186.733z"/>
	<path d="M88.411,511c-1.707,0-2.56,0-4.267-0.853c-4.267-2.56-5.12-7.68-3.413-11.947l31.573-56.32l-40.107-89.6
		c-1.707-3.413-0.853-7.68,2.56-10.24l51.2-42.667c3.413-3.413,9.387-2.56,11.947,0.853c3.413,3.413,2.56,9.387-0.853,11.947
		l-46.08,38.4l40.107,87.893c0.853,2.56,0.853,5.12,0,7.68L96.944,505.88C94.384,509.293,90.971,511,88.411,511z"/>
	<path d="M344.411,186.733c-3.413,0-6.827-1.707-7.68-5.12c-1.707-4.267,0-9.387,4.267-11.093l54.613-23.04V50.2
		c0-5.12,3.413-8.533,8.533-8.533h59.733c5.12,0,8.533,3.413,8.533,8.533s-3.413,8.533-8.533,8.533h-51.2V152.6
		c0,3.413-1.707,6.827-5.12,7.68l-59.733,25.6C346.971,186.733,345.264,186.733,344.411,186.733z"/>
	<path d="M412.677,511c-2.56,0-5.973-1.707-7.68-4.267L370.864,447c-1.707-2.56-1.707-5.12,0-7.68l40.107-87.893l-46.08-38.4
		c-3.413-3.413-4.267-8.533-0.853-11.947c3.413-3.413,8.533-4.267,11.947-0.853l51.2,42.667c2.56,2.56,4.267,6.827,2.56,10.24
		l-40.96,89.6l31.573,56.32c2.56,4.267,0.853,9.387-3.413,11.947C415.237,511,414.384,511,412.677,511z"/>
	<path d="M412.677,255c-0.853,0-0.853,0-1.707,0l-42.667-8.533c-4.267-0.853-7.68-5.12-6.827-10.24
		c0.853-5.12,5.12-7.68,10.24-6.827l39.253,7.68l57.173-32.427c4.267-2.56,9.387-0.853,11.947,3.413s0.853,9.387-3.413,11.947
		l-59.733,34.133C415.237,255,414.384,255,412.677,255z"/>
	<path d="M224.944,75.8c-4.267,0-8.533-3.413-8.533-7.68c0-0.853-4.267-52.053-34.133-52.053c-5.12,0-8.533-3.413-8.533-8.533
		S177.157-1,182.277-1c45.227,0,51.2,64.853,51.2,67.413C233.477,71.533,230.064,75.8,224.944,75.8
		C225.797,75.8,224.944,75.8,224.944,75.8z"/>
	<path d="M276.144,75.8L276.144,75.8c-5.12,0-8.533-4.267-8.533-9.387c0-2.56,5.973-67.413,51.2-67.413
		c5.12,0,8.533,3.413,8.533,8.533s-3.413,8.533-8.533,8.533c-29.867,0-34.133,51.2-34.133,52.053
		C284.677,72.387,280.411,75.8,276.144,75.8z"/>
	<rect x="165.211" y="212.333" width="17.067" height="247.467"/>
	<rect x="216.411" y="212.333" width="17.067" height="264.533"/>
	<rect x="267.611" y="212.333" width="17.067" height="264.533"/>
	<rect x="318.811" y="212.333" width="17.067" height="247.467"/>
</g>
<g>
</g>
<g>
</g>
<g>
</g>
<g>
</g>
<g>
</g>
<g>
</g>
<g>
</g>
<g>
</g>
<g>
</g>
<g>
</g>
<g>
</g>
<g>
</g>
<g>
</g>
<g>
</g>
<g>
</g>
</svg>
