<?xml version="1.0" encoding="iso-8859-1"?>
<!-- Generator: Adobe Illustrator 18.0.0, SVG Export Plug-In . SVG Version: 6.00 Build 0)  -->
<!DOCTYPE svg PUBLIC "-//W3C//DTD SVG 1.1//EN" "http://www.w3.org/Graphics/SVG/1.1/DTD/svg11.dtd">
<svg version="1.1" id="Capa_1" xmlns="http://www.w3.org/2000/svg" xmlns:xlink="http://www.w3.org/1999/xlink" x="0px" y="0px"
	 viewBox="0 0 460 460" style="enable-background:new 0 0 460 460;" xml:space="preserve">
<g id="XMLID_992_">
	<g id="XMLID_897_">
		<path id="XMLID_3091_" style="fill:#894D2F;" d="M111.091,222.228c-2.372,0-4.7-1.148-6.114-3.27l-19.174-28.762l-38.745-9.686
			c-3.933-0.983-6.324-4.968-5.341-8.901s4.972-6.325,8.901-5.341l41.498,10.374c1.772,0.443,3.315,1.53,4.327,3.049l20.749,31.123
			c2.249,3.373,1.338,7.931-2.036,10.179C113.905,221.828,112.49,222.228,111.091,222.228z"/>
	</g>
	<g id="XMLID_899_">
		<path id="XMLID_3090_" style="fill:#894D2F;" d="M7.341,325.97c-1.879,0-3.757-0.717-5.19-2.15c-2.867-2.866-2.867-7.514,0-10.381
			l41.497-41.498c1.376-1.377,3.243-2.15,5.19-2.15h51.872c4.054,0,7.34,3.286,7.34,7.34s-3.286,7.34-7.34,7.34H51.878
			L12.531,323.82C11.098,325.253,9.219,325.97,7.341,325.97z"/>
	</g>
	<g id="XMLID_900_">
		<path id="XMLID_3089_" style="fill:#894D2F;" d="M48.832,429.715c-1.103,0-2.223-0.249-3.277-0.777
			c-3.626-1.813-5.096-6.222-3.283-9.848l20.749-41.497c0.804-1.608,2.17-2.865,3.839-3.533l51.872-20.749
			c3.766-1.508,8.037,0.326,9.542,4.089c1.506,3.764-0.325,8.036-4.089,9.542l-49.281,19.713l-19.501,39.001
			C54.117,428.228,51.525,429.715,48.832,429.715z"/>
	</g>
	<g id="XMLID_903_">
		<path id="XMLID_3088_" style="fill:#894D2F;" d="M348.909,222.228c-1.399,0-2.814-0.4-4.065-1.234
			c-3.373-2.248-4.285-6.806-2.036-10.179l20.749-31.123c1.013-1.52,2.556-2.607,4.327-3.049l41.497-10.374
			c3.929-0.984,7.919,1.407,8.902,5.341c0.983,3.933-1.408,7.918-5.341,8.901l-38.745,9.686l-19.175,28.762
			C353.609,221.08,351.281,222.227,348.909,222.228z"/>
	</g>
	<g id="XMLID_902_">
		<path id="XMLID_3087_" style="fill:#894D2F;" d="M452.659,325.97c-1.879,0-3.757-0.716-5.191-2.15l-39.347-39.348h-48.831
			c-4.054,0-7.34-3.286-7.34-7.34s3.286-7.34,7.34-7.34h51.871c1.947,0,3.814,0.773,5.191,2.15l41.497,41.498
			c2.866,2.866,2.866,7.514,0,10.381C456.417,325.253,454.537,325.97,452.659,325.97z"/>
	</g>
	<g id="XMLID_901_">
		<path id="XMLID_3086_" style="fill:#894D2F;" d="M411.168,429.715c-2.692,0-5.285-1.487-6.571-4.059l-19.501-39.001l-49.28-19.713
			c-3.764-1.505-5.595-5.777-4.09-9.542c1.505-3.765,5.781-5.596,9.542-4.089l51.871,20.749c1.67,0.668,3.036,1.924,3.839,3.533
			l20.749,41.497c1.813,3.626,0.343,8.035-3.282,9.848C413.391,429.465,412.271,429.715,411.168,429.715z"/>
	</g>
	<g id="XMLID_906_">
		<path id="XMLID_3085_" style="fill:#894D2F;" d="M190.714,82.563c-2.372,0-4.7-1.148-6.114-3.27L158.405,40
			c-2.249-3.373-1.338-7.931,2.036-10.179c3.373-2.248,7.931-1.337,10.179,2.036l26.195,39.293
			c2.249,3.373,1.338,7.931-2.036,10.179C193.528,82.164,192.113,82.563,190.714,82.563z"/>
	</g>
	<g id="XMLID_904_">
		<path id="XMLID_3084_" style="fill:#894D2F;" d="M269.286,82.563c-1.399,0-2.814-0.4-4.065-1.234
			c-3.373-2.248-4.285-6.806-2.036-10.179l26.195-39.293c2.249-3.373,6.807-4.285,10.179-2.036
			c3.373,2.248,4.285,6.806,2.036,10.179l-26.195,39.293C273.986,81.415,271.659,82.563,269.286,82.563z"/>
	</g>
	<g id="XMLID_875_">
		<ellipse id="XMLID_1909_" style="fill:#A38671;" cx="230" cy="271.686" rx="127.782" ry="159.727"/>
	</g>
	<g id="XMLID_907_">
		<ellipse id="XMLID_1908_" style="fill:#D8903A;" cx="230" cy="271.686" rx="88.124" ry="159.727"/>
	</g>
	<path id="XMLID_2030_" style="fill:#F0DEB4;" d="M230,185.76c-4.054,0-7.34,3.286-7.34,7.34v238.044
		c2.43,0.172,4.876,0.268,7.34,0.268c2.464,0,4.911-0.096,7.34-0.268V193.1C237.34,189.046,234.054,185.76,230,185.76z"/>
	<g id="XMLID_898_">
		<path id="XMLID_1907_" style="fill:#704220;" d="M148.22,140.71c0-35.462,36.614-76.03,81.78-76.03s81.78,40.568,81.78,76.03
			S275.166,193.1,230,193.1S148.22,176.172,148.22,140.71z"/>
	</g>
	<path id="XMLID_2032_" style="opacity:0.49;fill:#D0D5D9;" d="M265.758,73.447c18.272,15.056,29.93,36.688,29.93,56.698
		c0,35.462-36.614,52.39-81.78,52.39c-19.673,0-37.719-3.214-51.828-9.77C176.762,186.452,201.7,193.1,230,193.1
		c45.166,0,81.78-16.928,81.78-52.39C311.78,115.315,293.003,87.306,265.758,73.447z"/>
</g>
<g>
</g>
<g>
</g>
<g>
</g>
<g>
</g>
<g>
</g>
<g>
</g>
<g>
</g>
<g>
</g>
<g>
</g>
<g>
</g>
<g>
</g>
<g>
</g>
<g>
</g>
<g>
</g>
<g>
</g>
</svg>
