<?xml version="1.0" encoding="iso-8859-1"?>
<!-- Generator: Adobe Illustrator 19.0.0, SVG Export Plug-In . SVG Version: 6.00 Build 0)  -->
<svg version="1.1" id="Layer_1" xmlns="http://www.w3.org/2000/svg" xmlns:xlink="http://www.w3.org/1999/xlink" x="0px" y="0px"
	 viewBox="0 0 512.001 512.001" style="enable-background:new 0 0 512.001 512.001;" xml:space="preserve">
<g>
	<path style="fill:#CFCAC4;" d="M289.033,322.351c0,0-18.581,41.29-33.032,41.29c-14.452,0-33.032-41.29-33.032-41.29V148.932
		h66.065V322.351z"/>
	<path style="fill:#CFCAC4;" d="M272.516,107.642c0,0,9.29,178.581,8.258,239.484S436.697,495.662,454.194,504.03
		c11.871,5.677,57.806,32,57.806-57.806c0-104.768-196.129-330.323-206.452-338.581
		C305.549,107.642,272.516,107.642,272.516,107.642z"/>
</g>
<g>
	<path style="fill:#ADA9A7;" d="M487.234,479.254c3.758,0,7.154-2.581,8.04-6.403c25.443-110.274-190.879-352.233-200.104-362.475
		c-3.048-3.395-8.275-3.661-11.661-0.613c-3.387,3.048-3.661,8.275-0.613,11.661c0.556,0.613,56.089,62.524,107.839,136.62
		c67.452,96.565,98.033,169.557,88.444,211.097c-1.024,4.444,1.75,8.879,6.194,9.903
		C485.993,479.19,486.621,479.254,487.234,479.254z"/>
	<path style="fill:#ADA9A7;" d="M421.162,421.448c4.565,0,8.258-3.693,8.258-8.258c0-100.903-152.315-286.443-158.798-294.29
		c-2.887-3.508-8.089-4.024-11.621-1.105c-3.516,2.903-4.017,8.105-1.105,11.621c1.548,1.879,155.008,188.781,155.008,283.773
		C412.904,417.754,416.597,421.448,421.162,421.448z"/>
</g>
<path style="fill:#F0EBE1;" d="M389.302,465.39c-49.762-33.03-109.164-80.716-108.527-118.265
	c0.594-35.026-2.227-108.933-4.731-165.448C369.437,300.9,387.222,409.853,389.302,465.39z"/>
<path style="fill:#CFCAC4;" d="M239.484,107.642c0,0-9.29,178.581-8.258,239.484S75.304,495.662,57.807,504.03
	C45.936,509.707,0,536.03,0,446.223c0-104.768,196.129-330.323,206.452-338.581C206.452,107.642,239.484,107.642,239.484,107.642z"
	/>
<g>
	<path style="fill:#ADA9A7;" d="M24.766,479.254c-3.758,0-7.154-2.581-8.04-6.403C-8.717,362.577,207.605,120.618,216.831,110.376
		c3.048-3.395,8.275-3.661,11.661-0.613c3.387,3.048,3.661,8.275,0.613,11.661c-0.556,0.613-56.089,62.524-107.839,136.62
		c-67.452,96.565-98.033,169.557-88.444,211.097c1.024,4.444-1.75,8.879-6.194,9.903C26.009,479.19,25.379,479.254,24.766,479.254z"
		/>
	<path style="fill:#ADA9A7;" d="M90.839,421.448c-4.565,0-8.258-3.693-8.258-8.258c0-100.903,152.315-286.443,158.798-294.29
		c2.887-3.508,8.089-4.024,11.621-1.105c3.516,2.903,4.017,8.105,1.105,11.621c-1.548,1.879-155.008,188.781-155.008,283.773
		C99.097,417.754,95.404,421.448,90.839,421.448z"/>
</g>
<g>
	<path style="fill:#877D78;" d="M239.476,74.322c-4.137,0-7.702-3.097-8.193-7.29l0,0c-0.161-1.331-4.347-32.758-37.202-51.613
		c-3.951-2.266-5.322-7.315-3.048-11.274c2.266-3.96,7.306-5.314,11.274-3.048c40.322,23.145,45.193,62.379,45.379,64.04
		c0.516,4.533-2.742,8.621-7.274,9.129C240.097,74.307,239.783,74.322,239.476,74.322z"/>
	<path style="fill:#877D78;" d="M272.525,74.322c-0.307,0-0.621-0.017-0.935-0.057c-4.533-0.508-7.79-4.597-7.274-9.129
		c0.186-1.661,5.056-40.895,45.379-64.04c3.968-2.258,9.009-0.911,11.274,3.048c2.274,3.96,0.903,9.009-3.048,11.274
		c-33.153,19.032-37.161,51.25-37.202,51.573C280.242,71.21,276.669,74.322,272.525,74.322z"/>
</g>
<ellipse style="fill:#9B918C;" cx="256" cy="82.869" rx="41.29" ry="33.032"/>
<path style="fill:#ADA9A7;" d="M256,74.61c21.365,0,77.369,3.785,48.355,54.503c-10.112,17.677-26.99,36.335-48.355,36.335
	c-21.365,0-38.243-18.658-48.355-36.335C178.632,78.395,234.636,74.61,256,74.61z"/>
<path style="fill:#F0EBE1;" d="M122.699,465.39c49.762-33.03,109.164-80.716,108.527-118.265
	c-0.594-35.026,2.227-108.933,4.731-165.448C142.563,300.9,124.78,409.853,122.699,465.39z"/>
<g>
</g>
<g>
</g>
<g>
</g>
<g>
</g>
<g>
</g>
<g>
</g>
<g>
</g>
<g>
</g>
<g>
</g>
<g>
</g>
<g>
</g>
<g>
</g>
<g>
</g>
<g>
</g>
<g>
</g>
</svg>
