<?xml version="1.0" encoding="iso-8859-1"?>
<!-- Generator: Adobe Illustrator 19.1.0, SVG Export Plug-In . SVG Version: 6.00 Build 0)  -->
<svg version="1.1" id="Capa_1" xmlns="http://www.w3.org/2000/svg" xmlns:xlink="http://www.w3.org/1999/xlink" x="0px" y="0px"
	 viewBox="0 0 444.841 444.841" style="enable-background:new 0 0 444.841 444.841;" xml:space="preserve">
<g>
	<path style="fill:#FFCC66;" d="M72.21,121.339c-34.303,0-62.21,27.908-62.21,62.212c0,34.302,27.907,62.209,62.21,62.209
		c11.043,0,22.64-3.294,32.653-9.276l0.012,0.02c2.129-1.273,4.916-0.817,6.487,1.188c1.704,2.174,1.323,5.316-0.851,7.021
		c-10.402,8.153-16.368,20.4-16.368,33.601c0,23.525,19.139,42.665,42.664,42.665c31.838,0,57.565-26.194,67.242-68.392v-66.99
		L99.691,127.719C91.105,123.485,81.861,121.339,72.21,121.339z M138.757,257.087c11.935,0,21.645,9.71,21.645,21.646
		c0,11.936-9.71,21.647-21.645,21.647c-11.935,0-21.645-9.711-21.645-21.647C117.112,266.797,126.822,257.087,138.757,257.087z
		 M71.996,211.597c-15.467,0-28.05-12.582-28.05-28.048s12.583-28.049,28.05-28.049c15.466,0,28.048,12.583,28.048,28.049
		S87.461,211.597,71.996,211.597z"/>
	<path style="fill:#FF6666;" d="M71.996,165.501c-9.953,0-18.05,8.097-18.05,18.049c0,9.951,8.097,18.048,18.05,18.048
		c9.952,0,18.048-8.097,18.048-18.048C90.043,173.597,81.947,165.501,71.996,165.501z"/>
	<path style="fill:#FF6666;" d="M138.757,290.379c6.421,0,11.645-5.225,11.645-11.647c0-6.421-5.224-11.646-11.645-11.646
		s-11.645,5.225-11.645,11.646C127.112,285.154,132.336,290.379,138.757,290.379z"/>
	<path style="fill:#CC9933;" d="M222.42,175.91c-4.616,0-8.371,3.756-8.371,8.372v97.866c0,4.616,3.755,8.371,8.371,8.371
		c4.616,0,8.371-3.755,8.371-8.371v-97.866C230.792,179.666,227.036,175.91,222.42,175.91z"/>
	<path style="fill:#CCCCCC;" d="M262.867,120.796c3.524,0,6.392-2.868,6.392-6.393c0-3.528-2.868-6.398-6.392-6.398
		c-3.524,0-6.391,2.87-6.391,6.398C256.476,117.927,259.343,120.796,262.867,120.796z"/>
	<path style="fill:#CCCCCC;" d="M181.973,108.005c-3.524,0-6.391,2.87-6.391,6.398c0,3.524,2.867,6.393,6.391,6.393
		c3.524,0,6.392-2.868,6.392-6.393C188.365,110.875,185.497,108.005,181.973,108.005z"/>
	<path style="fill:#FFCC66;" d="M372.631,121.339c-9.649,0-18.895,2.146-27.481,6.381l-104.358,57.876v66.989
		c9.676,42.198,35.404,68.392,67.242,68.392c23.525,0,42.664-19.14,42.664-42.665c0-13.2-5.966-25.447-16.368-33.601
		c-2.173-1.704-2.554-4.847-0.851-7.021c1.571-2.004,4.357-2.461,6.487-1.188l0.012-0.02c10.014,5.982,21.61,9.276,32.653,9.276
		c34.303,0,62.211-27.907,62.211-62.209C434.841,149.247,406.934,121.339,372.631,121.339z M306.084,300.379
		c-11.935,0-21.645-9.711-21.645-21.647c0-11.935,9.71-21.646,21.645-21.646c11.935,0,21.645,9.71,21.645,21.646
		C327.729,290.668,318.02,300.379,306.084,300.379z M372.845,211.597c-15.466,0-28.049-12.582-28.049-28.048
		s12.583-28.049,28.049-28.049c15.466,0,28.049,12.583,28.049,28.049S388.311,211.597,372.845,211.597z"/>
	<path style="fill:#FF6666;" d="M306.084,267.087c-6.421,0-11.645,5.225-11.645,11.646c0,6.422,5.224,11.647,11.645,11.647
		c6.421,0,11.645-5.225,11.645-11.647C317.729,272.311,312.505,267.087,306.084,267.087z"/>
	<path style="fill:#FF6666;" d="M372.845,165.501c-9.952,0-18.049,8.097-18.049,18.049c0,9.951,8.097,18.048,18.049,18.048
		c9.952,0,18.049-8.097,18.049-18.048C390.894,173.597,382.797,165.501,372.845,165.501z"/>
	<path style="fill:#663333;" d="M372.631,111.339c-11.241,0-22.015,2.514-32.022,7.471c-0.069,0.034-102.107,56.621-102.107,56.621
		c-1.069-1.928-2.47-3.646-4.131-5.074v-33.843c0-8.044,5.585-14.792,13.075-16.612c2.267,6.339,8.315,10.895,15.422,10.895
		c9.039,0,16.392-7.354,16.392-16.393c0-9.042-7.353-16.398-16.392-16.398c-7.421,0-13.698,4.964-15.709,11.744
		c-12.901,2.075-22.789,13.284-22.789,26.765v29.503c-0.641-0.068-1.29-0.106-1.949-0.106c-0.659,0-1.309,0.038-1.95,0.106v-29.503
		c0-13.48-9.887-24.689-22.787-26.765c-2.011-6.78-8.288-11.744-15.71-11.744c-9.038,0-16.391,7.356-16.391,16.398
		c0,9.039,7.353,16.393,16.391,16.393c7.108,0,13.156-4.556,15.423-10.895c7.489,1.82,13.074,8.568,13.074,16.612v33.844
		c-1.66,1.427-3.061,3.146-4.13,5.072c0,0-102.039-56.586-102.108-56.62c-10.006-4.957-20.78-7.471-32.022-7.471
		C32.393,111.339,0,143.733,0,183.551c0,39.816,32.393,72.209,72.21,72.209c6.032,0,12.194-0.851,18.232-2.458
		c-4.087,7.566-6.299,16.109-6.299,25.011c0,29.04,23.625,52.665,52.664,52.665c28.673,0,52.903-17.754,67.29-47.866
		c0.416,7.968,5.922,14.602,13.322,16.703v42.022c0,2.762,2.239,5,5,5c2.761,0,5-2.238,5-5v-42.022
		c7.4-2.102,12.906-8.735,13.322-16.703c14.387,30.112,38.617,47.866,67.291,47.866c29.039,0,52.664-23.625,52.664-52.665
		c0-8.901-2.212-17.444-6.299-25.011c6.038,1.607,12.2,2.458,18.232,2.458c39.817,0,72.211-32.393,72.211-72.209
		C444.841,143.733,412.448,111.339,372.631,111.339z M262.867,108.005c3.524,0,6.392,2.87,6.392,6.398
		c0,3.524-2.868,6.393-6.392,6.393c-3.524,0-6.391-2.868-6.391-6.393C256.476,110.875,259.343,108.005,262.867,108.005z
		 M181.973,120.796c-3.524,0-6.391-2.868-6.391-6.393c0-3.528,2.867-6.398,6.391-6.398c3.524,0,6.392,2.87,6.392,6.398
		C188.365,117.927,185.497,120.796,181.973,120.796z M204.049,252.585c-9.676,42.198-35.404,68.392-67.242,68.392
		c-23.525,0-42.664-19.14-42.664-42.665c0-13.2,5.966-25.447,16.368-33.601c2.173-1.704,2.554-4.847,0.851-7.021
		c-1.571-2.005-4.357-2.461-6.487-1.188l-0.012-0.02c-10.014,5.982-21.61,9.276-32.653,9.276c-34.303,0-62.21-27.907-62.21-62.209
		c0-34.304,27.907-62.212,62.21-62.212c9.651,0,18.896,2.146,27.481,6.381l104.358,57.875V252.585z M230.792,282.148
		c0,4.616-3.755,8.371-8.371,8.371c-4.616,0-8.371-3.755-8.371-8.371v-97.866c0-4.616,3.755-8.372,8.371-8.372
		c4.616,0,8.371,3.756,8.371,8.372V282.148z M372.631,245.76c-11.043,0-22.639-3.294-32.653-9.276l-0.012,0.02
		c-2.129-1.273-4.916-0.816-6.487,1.188c-1.704,2.174-1.323,5.316,0.851,7.021c10.402,8.153,16.368,20.4,16.368,33.601
		c0,23.525-19.139,42.665-42.664,42.665c-31.838,0-57.566-26.194-67.242-68.392v-66.989l104.358-57.876
		c8.586-4.234,17.832-6.381,27.481-6.381c34.303,0,62.211,27.908,62.211,62.212C434.841,217.852,406.934,245.76,372.631,245.76z"/>
	<path style="fill:#663333;" d="M71.996,155.501c-15.467,0-28.05,12.583-28.05,28.049s12.583,28.048,28.05,28.048
		c15.466,0,28.048-12.582,28.048-28.048S87.461,155.501,71.996,155.501z M71.996,201.597c-9.953,0-18.05-8.097-18.05-18.048
		c0-9.952,8.097-18.049,18.05-18.049c9.952,0,18.048,8.097,18.048,18.049C90.043,193.501,81.947,201.597,71.996,201.597z"/>
	<path style="fill:#663333;" d="M372.845,155.501c-15.466,0-28.049,12.583-28.049,28.049s12.583,28.048,28.049,28.048
		c15.466,0,28.049-12.582,28.049-28.048S388.311,155.501,372.845,155.501z M372.845,201.597c-9.952,0-18.049-8.097-18.049-18.048
		c0-9.952,8.097-18.049,18.049-18.049c9.952,0,18.049,8.097,18.049,18.049C390.894,193.501,382.797,201.597,372.845,201.597z"/>
	<path style="fill:#663333;" d="M138.757,300.379c11.935,0,21.645-9.711,21.645-21.647c0-11.935-9.71-21.646-21.645-21.646
		c-11.935,0-21.645,9.71-21.645,21.646C117.112,290.668,126.822,300.379,138.757,300.379z M138.757,267.087
		c6.421,0,11.645,5.225,11.645,11.646c0,6.422-5.224,11.647-11.645,11.647s-11.645-5.225-11.645-11.647
		C127.112,272.311,132.336,267.087,138.757,267.087z"/>
	<path style="fill:#663333;" d="M306.084,257.087c-11.935,0-21.645,9.71-21.645,21.646c0,11.936,9.71,21.647,21.645,21.647
		c11.935,0,21.645-9.711,21.645-21.647C327.729,266.797,318.02,257.087,306.084,257.087z M306.084,290.379
		c-6.421,0-11.645-5.225-11.645-11.647c0-6.421,5.224-11.646,11.645-11.646c6.421,0,11.645,5.225,11.645,11.646
		C317.729,285.154,312.505,290.379,306.084,290.379z"/>
</g>
<path style="fill:none;stroke:#000000;stroke-width:10;stroke-linecap:round;stroke-linejoin:round;stroke-miterlimit:10;" d="
	M110.528,238.192"/>
<g>
</g>
<g>
</g>
<g>
</g>
<g>
</g>
<g>
</g>
<g>
</g>
<g>
</g>
<g>
</g>
<g>
</g>
<g>
</g>
<g>
</g>
<g>
</g>
<g>
</g>
<g>
</g>
<g>
</g>
</svg>
