<?xml version="1.0" encoding="iso-8859-1"?>
<!-- Generator: Adobe Illustrator 18.0.0, SVG Export Plug-In . SVG Version: 6.00 Build 0)  -->
<!DOCTYPE svg PUBLIC "-//W3C//DTD SVG 1.1//EN" "http://www.w3.org/Graphics/SVG/1.1/DTD/svg11.dtd">
<svg version="1.1" id="Capa_1" xmlns="http://www.w3.org/2000/svg" xmlns:xlink="http://www.w3.org/1999/xlink" x="0px" y="0px"
	 viewBox="0 0 427.385 427.385" style="enable-background:new 0 0 427.385 427.385;" xml:space="preserve">
<g>
	<path d="M427.094,111.751c1.43,21-2.39,40.84-12.2,59.77c-13.58,26.21-27.13,52.43-45.9,75.37c-9.06,11.05-19.49,20.98-29.77,31.92
		c12.65,8.82,21.18,21.02,26.11,35.7c6.15,18.31,6.18,36.22-4.56,53.07c-6.44,10.1-15.35,16.89-27.49,18.44
		c-34.16,4.35-65.32-1.47-90.32-27.38c-2.81-2.91-5.27-6.15-8.69-10.17c-6,9.38-12.62,14.87-23.14,13.01
		c-10.18-1.8-15.04-9.49-19.62-17.43c-7.91,7.99-14.87,16.05-22.88,22.89c-18.13,15.5-38.73,25.59-63.28,24.74
		c-6.54-0.23-13.2-1.39-19.5-3.2c-19.84-5.73-28.92-16.94-29.81-37.47c-1.13-26.35,5.35-51.16,17.27-74.51
		c5.85-11.46,12.52-22.48,19.36-34.66c-4.93-2.91-10.04-6.39-15.54-9.08c-18.4-8.97-34.23-21.67-49.77-34.62
		c-15.45-12.88-23.32-30.8-26.06-49.97c-5.1-35.59,4.69-67.26,30.52-92.97c15.2-15.13,34.17-20.24,54.96-16.39
		c19.83,3.68,38.03,11.46,52.73,26c3.92,3.88,8.09,7.53,12.21,11.22c20,17.88,30.96,40.81,37.25,66.39c0.79,3.21,1.68,6.4,2.57,9.59
		c0.07,0.24,0.55,0.36,2.01,1.26c2.91-3.09,6.05-6.43,9.29-9.87c-9.05-16.9-11.03-35.77-16.3-53.64
		c-1.77-5.99-3.09-12.15-5.23-18.01c-1.2-3.29-3.31-6.43-5.65-9.07c-5.66-6.38-6.5-16.64-1.46-23.24c3.68-4.82,10.28-5.13,14.32-0.4
		c4.42,5.18,4.73,11.23,3.5,17.72c-0.72,3.78-1.43,7.99-0.5,11.58c5.92,22.76,12.3,45.41,18.86,69.32c4.22-0.79,9.08-1.7,14.08-2.64
		c3.15-15.47,6.16-30.55,9.3-45.61c2.53-12.15,7.87-23.79,5.16-36.81c-0.82-3.94,1.06-8.63,5.72-9.52c2.8-0.54,6.75,0.35,8.93,2.12
		c3.88,3.17,4.15,8.29,0.97,11.92c-4.46,5.09-5.31,11.11-6.72,17.18c-4.27,18.28-8.29,36.64-13.26,54.73
		c-1.65,6-0.54,9.73,3.16,12.5c8.06-13.41,15.51-27.32,24.41-40.24c10.05-14.6,22.29-27.41,36.8-37.89
		c17.32-12.52,36.92-17.79,57.93-19.01c9.54-0.56,18.17,1.99,26.44,6.5c12.5,6.83,22.78,16.27,31.83,27.06
		C423.264,87.651,426.254,99.441,427.094,111.751z M413.694,125.261c1.11-13.76,0.13-27.64-8.33-39.16
		c-7.18-9.78-16.16-18.03-26.86-24.31c-7.97-4.69-16.22-6.71-25.34-5.63c-15.9,1.88-31.17,5.68-44.32,15.38
		c-31.88,23.49-52.22,55.41-66.5,91.69c-0.51,1.31-0.34,2.92-0.36,4.39c-0.31,21.73-0.79,43.47-0.83,65.21
		c-0.07,30.9,2.22,61.87-3.57,92.56c-0.62,3.3-0.53,6.74-0.77,10.11c0.59,0.1,1.19,0.2,1.78,0.3c2.62-4.6,5.23-9.2,7.84-13.8
		c0.47,0.27,0.94,0.53,1.4,0.8c-2.18,4.95-4.36,9.91-6.64,15.09c2.74,3.04,5.14,5.73,7.54,8.4c0.02,0.03,0.04,0.05,0.07,0.08
		c0.01,0.01,0.02,0.02,0.02,0.03c0.01,0.01,0.01,0.01,0.01,0.01v-0.01c12.13,13.98,26.65,24.1,45.41,26.52
		c9.81,1.27,19.77,1.53,29.67,1.87c12.37,0.43,20.86-5.58,26.46-16.44c12.34-23.95,0.34-59.87-24.35-72.42
		c-9.37-4.75-9.27-7.96-1.35-14.85c10.51-9.15,21.1-18.44,30.27-28.88c19.35-22.03,32.34-48.2,46.15-73.84
		C408.424,154.76,412.474,140.411,413.694,125.261z M233.204,297.091c0.63-5.1,1.42-10.26,1.22-15.37
		c-1.2-30.52-2.82-61.03-3.97-91.56c-0.35-9.56,0.68-19.16,0.42-28.73c-0.14-5.33-1.63-10.62-2.44-15.47
		c-14.62-2.39-16.1-2.05-22.29,4.51c-8.65,9.18-11.99,22.06-8.89,35.28c3.15-2.9,6.11-5.63,9.07-8.36
		c-3.21,9.37-14.37,15.36-8.05,27.72c3.31-3.1,6.53-6.1,11.21-10.48c-3.73,10.34-15.61,15.1-10.31,27.24
		c4.32-3.69,8.23-7.03,12.13-10.37c0.5,0.52,0.99,1.03,1.48,1.54c-3.28,3.79-6.25,7.9-9.91,11.27c-5.07,4.66-6.5,9.5-2.53,15.89
		c3.69-3.34,7.28-6.58,10.88-9.83c0.52,0.45,1.04,0.91,1.56,1.36c-3.43,4.53-6.85,9.06-10.29,13.59c-3.47,4.55-4.9,9.26-1.53,15.12
		c5.19-4.84,9.87-9.21,14.55-13.58c0.58,0.5,1.15,0.99,1.73,1.48c-3.55,4.42-7.14,8.79-10.62,13.26c-3.49,4.48-9.87,7.9-6.32,15.82
		c3.79-3.29,7.07-6.15,10.35-9c-4.95,10.99-15.99,19.13-9.87,33.85c3.23-3.7,5.99-6.87,8.76-10.04c-0.61,4.67-2.22,8.84-5.02,11.95
		c-5.57,6.19-6.22,13.25-4.45,20.62c1.77,7.42,3.14,15.41,7.01,21.72c5.29,8.64,14.94,6.84,18.58-2.64
		c1.31-3.42,2.22-7.07,2.75-10.69C230.164,321.181,231.724,309.141,233.204,297.091z M188.094,322.751
		c0.13-15.05,0.28-30.1,0.11-45.15c-0.4-34.97-0.97-69.94-1.49-104.91c-0.02-1.45-0.01-2.99-0.46-4.34
		c-3.33-10.06-7.06-19.98-10.13-30.12c-7.58-25.11-22.31-45.09-41.82-62.41c-13.02-11.56-27.19-20.02-43.89-24.37
		c-22.28-5.81-40.51,0.72-55.18,18.23c-8.44,10.08-13.33,21.85-17.89,33.99c-4.73,12.59-2.17,25.6-3.55,38.35
		c-0.04,0.42,0.82,0.93,1.27,1.4c1.12-0.49,2.24-0.97,4.2-1.82c-4.7,10.79-4.7,10.79,0.46,18.74c1.83-1.54,3.65-3.07,5.47-4.6
		c0.32,0.23,0.64,0.47,0.96,0.71c-1.82,3.41-3.63,6.83-5.73,10.8c2.2,3.85,4.41,7.72,7.05,12.33c2.19-2.99,3.41-4.65,4.64-6.32
		c0.5,0.31,1,0.63,1.5,0.94c-1.03,3-2.05,6-3.27,9.57c2.71,2.44,5.32,4.79,7.92,7.14c3.55-3.77,6.48-6.87,9.42-9.97
		c0.47,0.37,0.94,0.75,1.41,1.12c-2.05,4.12-4.09,8.23-6.33,12.73c3.86,2.56,7.1,4.7,10.09,6.69c3.31-2.66,5.93-4.76,10.17-8.16
		c-2.66,5.14-4.26,8.25-6.04,11.7c3.19,2.21,5.81,4.02,8.57,5.93c3.87-3.48,7.31-6.58,10.75-9.67c0.33,0.41,0.66,0.81,0.99,1.22
		c-2.42,3.6-4.83,7.19-7.73,11.52c3.95,2.16,7.34,4.01,10.72,5.87c5.55-6.12,10.51-11.58,15.47-17.03c0.52,0.43,1.05,0.85,1.57,1.28
		c-3.74,5.64-7.47,11.27-11.74,17.7c4.17,2.15,7.6,3.91,12.14,6.24c7.29-7.33,14.32-14.39,21.34-21.46
		c0.26,0.22,0.51,0.45,0.77,0.67c-6.06,7.62-12.11,15.25-18.01,22.69c2.31,4.56,4.68,5.24,7.79,1.75c2.79-3.13,5.68-6.16,8.52-9.23
		c-2.64,8.3-10.71,13.73-9.73,23.4c0.09,0.8-1.32,1.7-1.88,2.64c-8.3,13.86-17.02,27.48-24.65,41.7
		c-3.78,7.03-5.82,15.08-8.02,22.84c-0.57,2,1.22,4.67,2.63,9.42c-2.54,6.17-10.94,14.02-5.58,25.7c3.48-3.79,6.56-7.14,9.64-10.5
		c-1.04,5.43-3.68,9.67-6.4,13.85c-4.61,7.1-4.43,11.37,1.07,17.6c4.24,4.81,9.58,7.69,15.74,8.85c3.87-5.93,7.45-11.42,11.04-16.91
		c0.59,0.37,1.18,0.74,1.76,1.11c-2.11,5.28-4.23,10.56-6.76,16.87c3.69,0.67,6.45,1.57,9.23,1.62c19.4,0.33,35.35-8.33,50.58-19.26
		c12.54-9.01,20.26-22.15,29.87-33.66C187.694,326.54,188.074,324.451,188.094,322.751z"/>
	<path style="fill:#FF96BD;" d="M405.364,86.101c8.46,11.52,9.44,25.4,8.33,39.16c-1.22,15.15-5.27,29.5-12.6,43.1
		c-13.81,25.64-26.8,51.81-46.15,73.84c-9.17,10.44-19.76,19.73-30.27,28.88c-7.92,6.89-8.02,10.1,1.35,14.85
		c24.69,12.55,36.69,48.47,24.35,72.42c-5.6,10.86-14.09,16.87-26.46,16.44c-9.9-0.34-19.86-0.6-29.67-1.87
		c-18.76-2.42-33.28-12.54-45.41-26.52c0-0.2,0-0.4,0.01-0.6c4.19-6.47,8.39-12.93,12.58-19.39c-7.3,4.7-12.33,10.72-12.58,19.39
		c-0.07,0.12-0.14,0.23-0.22,0.35c0.01,0.01,0.06,0.08,0.11,0.14c-2.4-2.67-4.8-5.36-7.54-8.4c2.28-5.18,4.46-10.14,6.64-15.09
		c-0.46-0.27-0.93-0.53-1.4-0.8c-2.61,4.6-5.22,9.2-7.84,13.8c-0.59-0.1-1.19-0.2-1.78-0.3c0.24-3.37,0.15-6.81,0.77-10.11
		c5.79-30.69,3.5-61.66,3.57-92.56c0.04-21.74,0.52-43.48,0.83-65.21c0.02-1.47-0.15-3.08,0.36-4.39
		c14.28-36.28,34.62-68.2,66.5-91.69c13.15-9.7,28.42-13.5,44.32-15.38c9.12-1.08,17.37,0.94,25.34,5.63
		C389.204,68.071,398.184,76.321,405.364,86.101z M394.984,137.001c4.27-15.59-6.23-26.12-22.08-22.42
		c-7.11,1.66-13.91,4.61-20.85,7.01c-2.34,0.81-4.64,1.74-7.49,2.81c-0.57-4.68-0.7-8.68-1.57-12.52
		c-3.29-14.56-16.03-21.42-30.29-16.74c-9.1,2.99-14.51,9.49-18.28,17.88c-8.65,19.27-8.44,39.34-4.54,59.42
		c1.66,8.55,5.4,16.74,8.67,24.91c1.33,3.3,3.76,7.29,8.21,5.65c17.07-6.26,34.18-12.49,50.91-19.61
		C378.144,174.671,389.304,157.711,394.984,137.001z M321.284,349.07c5.16-15.4,3.15-30.49-4.09-44.74
		c-2.99-5.89-8.24-6.3-12.39-1.07c-3.33,4.18-5.37,9.39-8.33,14.79c-15.04-3.92-23.12-1-29.02,10.26c-3,5.73-2.57,9.92,2.49,13.53
		c10.89,7.78,22.82,13.67,36.42,13.96C311.784,355.921,318.944,356.1,321.284,349.07z"/>
	<path style="fill:#C1272D;" d="M372.904,114.581c15.85-3.7,26.35,6.83,22.08,22.42c-5.68,20.71-16.84,37.67-37.31,46.39
		c-16.73,7.12-33.84,13.35-50.91,19.61c-4.45,1.64-6.88-2.35-8.21-5.65c-3.27-8.17-7.01-16.36-8.67-24.91
		c-3.9-20.08-4.11-40.15,4.54-59.42c3.77-8.39,9.18-14.89,18.28-17.88c14.26-4.68,27,2.18,30.29,16.74c0.87,3.84,1,7.84,1.57,12.52
		c2.85-1.07,5.15-2,7.49-2.81C358.994,119.191,365.794,116.241,372.904,114.581z"/>
	<path style="fill:#C1272D;" d="M317.194,304.331c7.24,14.25,9.25,29.34,4.09,44.74c-2.34,7.03-9.5,6.85-14.92,6.73
		c-13.6-0.29-25.53-6.18-36.42-13.96c-5.06-3.61-5.49-7.8-2.49-13.53c5.9-11.26,13.98-14.18,29.02-10.26
		c2.96-5.4,5-10.61,8.33-14.79C308.954,298.031,314.204,298.44,317.194,304.331z"/>
	<path d="M261.424,326.41c-4.19,6.46-8.39,12.92-12.58,19.39C249.094,337.13,254.124,331.111,261.424,326.41z"/>
	<path d="M248.624,346.151c0.08-0.12,0.15-0.23,0.22-0.35c-0.01,0.2-0.01,0.4-0.01,0.6c-0.01-0.01-0.02-0.02-0.03-0.03
		c-0.02-0.02-0.05-0.05-0.07-0.08C248.684,346.23,248.634,346.16,248.624,346.151z"/>
	<path d="M248.804,346.371c0.01,0.01,0.02,0.02,0.03,0.03h-0.01C248.824,346.391,248.814,346.38,248.804,346.371z"/>
	<path d="M248.834,346.401v0.01c0,0,0,0-0.01-0.01H248.834z"/>
	<path style="fill:#754C24;" d="M234.424,281.72c0.2,5.11-0.59,10.27-1.22,15.37c-1.48,12.05-3.04,24.09-4.79,36.1
		c-0.53,3.62-1.44,7.27-2.75,10.69c-3.64,9.48-13.29,11.28-18.58,2.64c-3.87-6.31-5.24-14.3-7.01-21.72
		c-1.77-7.37-1.12-14.43,4.45-20.62c2.8-3.11,4.41-7.28,5.02-11.95c-2.77,3.17-5.53,6.34-8.76,10.04
		c-6.12-14.72,4.92-22.86,9.87-33.85c-3.28,2.85-6.56,5.71-10.35,9c-3.55-7.92,2.83-11.34,6.32-15.82
		c3.48-4.47,7.07-8.84,10.62-13.26c-0.58-0.49-1.15-0.98-1.73-1.48c-4.68,4.37-9.36,8.74-14.55,13.58
		c-3.37-5.86-1.94-10.57,1.53-15.12c3.44-4.53,6.86-9.06,10.29-13.59c-0.52-0.45-1.04-0.91-1.56-1.36
		c-3.6,3.25-7.19,6.49-10.88,9.83c-3.97-6.39-2.54-11.23,2.53-15.89c3.66-3.37,6.63-7.48,9.91-11.27c-0.49-0.51-0.98-1.02-1.48-1.54
		c-3.9,3.34-7.81,6.68-12.13,10.37c-5.3-12.14,6.58-16.9,10.31-27.24c-4.68,4.38-7.9,7.38-11.21,10.48
		c-6.32-12.36,4.84-18.35,8.05-27.72c-2.96,2.73-5.92,5.46-9.07,8.36c-3.1-13.22,0.24-26.1,8.89-35.28
		c6.19-6.56,7.67-6.9,22.29-4.51c0.81,4.85,2.3,10.14,2.44,15.47c0.26,9.57-0.77,19.17-0.42,28.73
		C231.604,220.691,233.224,251.201,234.424,281.72z"/>
	<path style="fill:#FF96BD;" d="M188.204,277.6c0.17,15.05,0.02,30.1-0.11,45.15c-0.02,1.7-0.4,3.79-1.42,5.02
		c-9.61,11.51-17.33,24.65-29.87,33.66c-15.23,10.93-31.18,19.59-50.58,19.26c-2.78-0.05-5.54-0.95-9.23-1.62
		c2.53-6.31,4.65-11.59,6.76-16.87c-0.58-0.37-1.17-0.74-1.76-1.11c-3.59,5.49-7.17,10.98-11.04,16.91
		c-6.16-1.16-11.5-4.04-15.74-8.85c-5.5-6.23-5.68-10.5-1.07-17.6c2.72-4.18,5.36-8.42,6.4-13.85c-3.08,3.36-6.16,6.71-9.64,10.5
		c-5.36-11.68,3.04-19.53,5.58-25.7c-1.41-4.75-3.2-7.42-2.63-9.42c2.2-7.76,4.24-15.81,8.02-22.84
		c7.63-14.22,16.35-27.84,24.65-41.7c0.56-0.94,1.97-1.84,1.88-2.64c-0.98-9.67,7.09-15.1,9.73-23.4c-2.84,3.07-5.73,6.1-8.52,9.23
		c-3.11,3.49-5.48,2.81-7.79-1.75c5.9-7.44,11.95-15.07,18.01-22.69c-0.26-0.22-0.51-0.45-0.77-0.67
		c-7.02,7.07-14.05,14.13-21.34,21.46c-4.54-2.33-7.97-4.09-12.14-6.24c4.27-6.43,8-12.06,11.74-17.7
		c-0.52-0.43-1.05-0.85-1.57-1.28c-4.96,5.45-9.92,10.91-15.47,17.03c-3.38-1.86-6.77-3.71-10.72-5.87
		c2.9-4.33,5.31-7.92,7.73-11.52c-0.33-0.41-0.66-0.81-0.99-1.22c-3.44,3.09-6.88,6.19-10.75,9.67c-2.76-1.91-5.38-3.72-8.57-5.93
		c1.78-3.45,3.38-6.56,6.04-11.7c-4.24,3.4-6.86,5.5-10.17,8.16c-2.99-1.99-6.23-4.13-10.09-6.69c2.24-4.5,4.28-8.61,6.33-12.73
		c-0.47-0.37-0.94-0.75-1.41-1.12c-2.94,3.1-5.87,6.2-9.42,9.97c-2.6-2.35-5.21-4.7-7.92-7.14c1.22-3.57,2.24-6.57,3.27-9.57
		c-0.5-0.31-1-0.63-1.5-0.94c-1.23,1.67-2.45,3.33-4.64,6.32c-2.64-4.61-4.85-8.48-7.05-12.33c2.1-3.97,3.91-7.39,5.73-10.8
		c-0.32-0.24-0.64-0.48-0.96-0.71c-1.82,1.53-3.64,3.06-5.47,4.6c-5.16-7.95-5.16-7.95-0.46-18.74c-1.96,0.85-3.08,1.33-4.2,1.82
		c-0.45-0.47-1.31-0.98-1.27-1.4c1.38-12.75-1.18-25.76,3.55-38.35c4.56-12.14,9.45-23.91,17.89-33.99
		c14.67-17.51,32.9-24.04,55.18-18.23c16.7,4.35,30.87,12.81,43.89,24.37c19.51,17.32,34.24,37.3,41.82,62.41
		c3.07,10.14,6.8,20.06,10.13,30.12c0.45,1.35,0.44,2.89,0.46,4.34C187.234,207.661,187.804,242.631,188.204,277.6z M160.124,296.23
		c0.01-8.99-5.54-13.64-14.29-11.79c-4.19,0.89-8.12,2.97-11.94,4.43c-2.85-2-5.37-4.13-8.22-5.67c-5.16-2.8-11.23-3.61-15.84-0.29
		c-9.93,7.16-17.66,16.86-15.69,29.74c2.26,14.74,9.99,27.3,21.04,38.66c3.35-2.78,5.41-4.66,7.64-6.29
		c7.68-5.63,15.52-11.05,23.12-16.79C156.544,320.241,160.114,308.921,160.124,296.23z M130.644,165.211
		c0.07-15.46,0.42-30.95-0.3-46.38c-0.37-8.1-2.84-16.22-10.18-21.19c-6.07-4.11-12.32-8.16-19-11.08
		c-10.27-4.49-18.06-1.26-22.71,8.81c-2.13,4.62-3.39,9.66-5.45,15.71c-10.19-2.46-18.94-0.42-26.81,4.92
		c-21.82,14.79-20.79,34.81-0.83,49.23c9.78,7.06,21.38,9.63,32.83,12.44c12.96,3.18,25.5,2.5,37.53-3.78c1.82-0.95,4.3-2.09,6-1.57
		C128.564,174.431,130.624,171.001,130.644,165.211z M79.294,370.01c3.67-6.71,6.73-12.29,9.79-17.87
		C79.924,359.521,79.034,361.35,79.294,370.01z"/>
	<path style="fill:#C1272D;" d="M145.834,284.44c8.75-1.85,14.3,2.8,14.29,11.79c-0.01,12.69-3.58,24.01-14.18,32
		c-7.6,5.74-15.44,11.16-23.12,16.79c-2.23,1.63-4.29,3.51-7.64,6.29c-11.05-11.36-18.78-23.92-21.04-38.66
		c-1.97-12.88,5.76-22.58,15.69-29.74c4.61-3.32,10.68-2.51,15.84,0.29c2.85,1.54,5.37,3.67,8.22,5.67
		C137.714,287.41,141.644,285.331,145.834,284.44z"/>
	<path style="fill:#C1272D;" d="M130.344,118.831c0.72,15.43,0.37,30.92,0.3,46.38c-0.02,5.79-2.08,9.22-8.92,7.11
		c-1.7-0.52-4.18,0.62-6,1.57c-12.03,6.28-24.57,6.96-37.53,3.78c-11.45-2.81-23.05-5.38-32.83-12.44
		c-19.96-14.42-20.99-34.44,0.83-49.23c7.87-5.34,16.62-7.38,26.81-4.92c2.06-6.05,3.32-11.09,5.45-15.71
		c4.65-10.07,12.44-13.3,22.71-8.81c6.68,2.92,12.93,6.97,19,11.08C127.504,102.611,129.974,110.731,130.344,118.831z"/>
	<path d="M89.084,352.141c-3.06,5.58-6.12,11.16-9.79,17.87C79.034,361.35,79.924,359.521,89.084,352.141z"/>
</g>
<g>
</g>
<g>
</g>
<g>
</g>
<g>
</g>
<g>
</g>
<g>
</g>
<g>
</g>
<g>
</g>
<g>
</g>
<g>
</g>
<g>
</g>
<g>
</g>
<g>
</g>
<g>
</g>
<g>
</g>
</svg>
