<?xml version="1.0" encoding="iso-8859-1"?>
<!-- Generator: Adobe Illustrator 19.0.0, SVG Export Plug-In . SVG Version: 6.00 Build 0)  -->
<svg version="1.1" id="Layer_1" xmlns="http://www.w3.org/2000/svg" xmlns:xlink="http://www.w3.org/1999/xlink" x="0px" y="0px"
	 viewBox="0 0 403.208 403.208" style="enable-background:new 0 0 403.208 403.208;" xml:space="preserve">
<g>
	<g>
		<path style="fill:#999999;" d="M195.65,160.875c-0.077-0.635-8.006-62.608-53.096-122.059c-1.97-2.598-1.508-6.295,1.046-8.322
			l0,0c2.633-2.089,6.48-1.613,8.512,1.064c47.141,62.083,55.127,125.171,55.452,127.893l-11.916,1.42l5.958-0.71L195.65,160.875z"
			/>
		<path style="fill:#999999;" d="M207.565,160.871l-11.916-1.42c0.325-2.722,8.311-65.81,55.452-127.893
			c2.033-2.677,5.879-3.153,8.512-1.064l0,0c2.554,2.027,3.017,5.725,1.046,8.322C215.462,98.396,207.64,160.237,207.565,160.871z"
			/>
	</g>
	<path style="fill:#666666;" d="M214.767,184.539c1.76,7.44,2.79,16.44,2.79,26.15c0,0.59,0,1.18-0.01,1.76
		c-0.17,13.23-2.26,25.03-5.48,33.15c-2.8,7.05-6.45,11.33-10.46,11.33c-4.01,0-7.66-4.28-10.47-11.34
		c-3.21-8.12-5.3-19.92-5.47-33.14c-0.01-0.58-0.01-1.17-0.01-1.76c0-9.7,1.03-18.7,2.79-26.13c2.87-12.14,7.69-20.11,13.16-20.11
		C207.067,164.449,211.887,172.409,214.767,184.539z"/>
	<path style="fill:#3E9FC1;" d="M288.817,206.359c39.49-2.59,65.22,10.2,78.55,19.65c7.03,4.99,11.19,13.08,11.27,21.69
		c0.67,65.95-16.66,100.26-30.54,117.12c-8.15,9.9-22.47,12.13-33.21,5.11c-56.11-36.65-91.69-103.24-102.82-126.33
		c3.22-8.12,5.31-19.92,5.48-33.15h0.01c16.69-1.58,44.13-3.38,71.2-5.16L288.817,206.359z"/>
	<path style="fill:#4CB6E5;" d="M328.602,361.016c-2.35,0-4.632-0.68-6.602-1.968c-50.205-32.792-83.866-92.486-95.885-116.352
		c1.795-6,3.082-12.886,3.794-20.269c13.045-1.051,73.733-3.348,75.944-3.236c25.976,1.32,43.56,10.026,53.994,17.424
		c3.582,2.542,5.748,6.732,5.79,11.206c0.624,61.429-14.652,93.036-27.577,108.737C335.728,359.391,332.281,361.016,328.602,361.016
		z"/>
	<path style="fill:#4CB6E5;" d="M382.837,34.929c14.21,0.18,24.01,14.34,19.08,27.67c-8.71,23.58-18.83,62.5-14.06,108.1
		c1.6,15.29-9.35,29.04-24.61,30.91c-13.58,1.67-43.8,3.67-74.49,5.68c-27.07,1.78-54.51,3.58-71.2,5.16h-0.01
		c0.01-0.58,0.01-1.17,0.01-1.76c0-9.71-1.03-18.71-2.79-26.15C226.187,154.109,278.027,33.609,382.837,34.929z"/>
	<path style="fill:#57C3FF;" d="M230.034,198.336c-0.381-4.426-0.967-8.705-1.747-12.741c6.248-15.943,20.982-49.171,45.154-79.036
		c31.495-38.911,67.727-58.641,107.688-58.641c0.518,0,1.022,0.003,1.543,0.01c3.572,0.045,5.522,2.327,6.194,3.306
		c0.824,1.199,2.03,3.684,0.857,6.855c-9.5,25.718-19.776,66.361-14.797,113.962c0.856,8.182-5.093,15.653-13.262,16.654
		c-13.585,1.67-45.554,3.764-73.759,5.611l-0.808,0.053C266.89,195.699,246.156,197.063,230.034,198.336z"/>
	<path style="fill:#3E9FC1;" d="M114.387,206.359l0.06-1.07c27.07,1.78,54.51,3.58,71.21,5.16h0.01
		c0.17,13.22,2.26,25.02,5.47,33.14c-11.11,23.08-46.7,89.68-102.82,126.34c-10.73,7.02-25.06,4.79-33.21-5.11
		c-13.87-16.86-31.2-51.17-30.54-117.12c0.09-8.61,4.25-16.7,11.28-21.69C49.167,216.559,74.907,203.769,114.387,206.359z"/>
	<path style="fill:#4CB6E5;" d="M74.605,361.016c-3.681,0-7.129-1.625-9.461-4.458C52.225,340.854,36.952,309.24,37.566,247.83
		c0.047-4.476,2.217-8.672,5.806-11.219c10.485-7.439,28.209-16.205,54.452-17.442c2.062-0.097,62.433,2.208,75.48,3.26
		c0.712,7.376,1.996,14.259,3.788,20.258c-11.996,23.85-45.617,83.523-95.884,116.36C79.235,360.336,76.954,361.016,74.605,361.016z
		"/>
	<path style="fill:#4CB6E5;" d="M185.657,210.689c0,0.59,0,1.18,0.01,1.76h-0.01c-16.7-1.58-44.14-3.38-71.21-5.16
		c-30.69-2.01-60.91-4.01-74.49-5.68c-15.26-1.87-26.2-15.62-24.6-30.91c4.77-45.6-5.35-84.52-14.07-108.1
		c-4.92-13.33,4.87-27.49,19.09-27.67c104.83-1.32,156.67,119.23,168.07,149.63C186.687,191.989,185.657,200.989,185.657,210.689z"
		/>
	<path style="fill:#57C3FF;" d="M173.18,198.336c-16.132-1.273-36.876-2.638-57.097-3.967l-0.783-0.052
		c-28.209-1.847-60.178-3.94-73.757-5.61c-8.169-1.001-14.113-8.472-13.257-16.654c4.981-47.626-5.303-88.261-14.807-113.962
		c-1.171-3.171,0.038-5.659,0.863-6.858c0.673-0.979,2.623-3.258,6.198-3.304c0.514-0.006,1.029-0.01,1.541-0.01
		c39.975,0,76.212,19.736,107.707,58.66c24.171,29.872,38.895,63.094,45.138,79.033C174.147,189.642,173.561,193.915,173.18,198.336
		z"/>
	<circle style="fill:#666666;" cx="201.607" cy="164.449" r="12.289"/>
	<g>
		<circle style="fill:#FFDE55;" cx="58.899" cy="161.449" r="22"/>
		<circle style="fill:#FFDE55;" cx="75.502" cy="327.847" r="16.602"/>
		<circle style="fill:#FFDE55;" cx="66.899" cy="283.449" r="11.423"/>
		<circle style="fill:#FFDE55;" cx="59.188" cy="253.058" r="5.712"/>
		<circle style="fill:#FFDE55;" cx="99.899" cy="296.449" r="5.712"/>
		<circle style="fill:#FFDE55;" cx="45.274" cy="74.406" r="12.043"/>
		<circle style="fill:#FFDE55;" cx="82.856" cy="112.449" r="12.043"/>
		<circle style="fill:#FFDE55;" cx="344.315" cy="161.449" r="22"/>
		<circle style="fill:#FFDE55;" cx="327.712" cy="327.847" r="16.602"/>
		<circle style="fill:#FFDE55;" cx="336.315" cy="283.449" r="11.423"/>
		<circle style="fill:#FFDE55;" cx="344.026" cy="253.058" r="5.712"/>
		<circle style="fill:#FFDE55;" cx="303.315" cy="296.449" r="5.712"/>
		<circle style="fill:#FFDE55;" cx="357.94" cy="74.406" r="12.043"/>
		<circle style="fill:#FFDE55;" cx="320.358" cy="112.449" r="12.043"/>
	</g>
</g>
<g>
</g>
<g>
</g>
<g>
</g>
<g>
</g>
<g>
</g>
<g>
</g>
<g>
</g>
<g>
</g>
<g>
</g>
<g>
</g>
<g>
</g>
<g>
</g>
<g>
</g>
<g>
</g>
<g>
</g>
</svg>
